/* XPM */
static char * 1downarrowred_xpm[] = {
"16 16 49 1",
" 	c None",
".	c #8E1010",
"+	c #8D0E0E",
"@	c #8C0D0D",
"#	c #8B0C0C",
"$	c #8A0B0B",
"%	c #880909",
"&	c #870707",
"*	c #850505",
"=	c #840404",
"-	c #820202",
";	c #810101",
">	c #7E0000",
",	c #780000",
"'	c #AB3A3A",
")	c #C46969",
"!	c #C56B6B",
"~	c #9F2727",
"{	c #7A0000",
"]	c #8F1111",
"^	c #D18585",
"/	c #EDCBCB",
"(	c #E8BEBE",
"_	c #EAC3C3",
":	c #EECECE",
"<	c #D28787",
"[	c #A12A2A",
"}	c #D48C8C",
"|	c #D79393",
"1	c #D69191",
"2	c #941717",
"3	c #760000",
"4	c #890A0A",
"5	c #A42E2E",
"6	c #C97373",
"7	c #981D1D",
"8	c #AE3F3F",
"9	c #BD5B5B",
"0	c #720000",
"a	c #AC3C3C",
"b	c #BC5959",
"c	c #830303",
"d	c #901212",
"e	c #B24646",
"f	c #740000",
"g	c #800000",
"h	c #961A1A",
"i	c #A53030",
"j	c #7C0000",
"                ",
"                ",
" .+@#$%&**=-;>, ",
".')))))))))))!~{",
"]^/((((((((__:<;",
"#[}|111111111123",
" 4566666666667, ",
" &$8999999999;0 ",
"  *@abbbbbbb=0  ",
"   c@aaaaaa@0   ",
"    ;deeee+f    ",
"     ghee2,     ",
"      ;i5>      ",
"       jj       ",
"                ",
"                "};
