/* XPM */
static char * 1downarrow_xpm[] = {
"16 16 112 2",
"  	c None",
". 	c #1E60C1",
"+ 	c #1B5DC0",
"@ 	c #1A58BC",
"# 	c #1853B7",
"$ 	c #164DB3",
"% 	c #1347AE",
"& 	c #1041AA",
"* 	c #0F3BA5",
"= 	c #0C35A1",
"- 	c #0B2F9D",
"; 	c #082A99",
"> 	c #062593",
", 	c #03208F",
"' 	c #001082",
") 	c #1F64C4",
"! 	c #3D98F2",
"~ 	c #60B7FF",
"{ 	c #5EB5FF",
"] 	c #5EB6FF",
"^ 	c #5FB7FF",
"/ 	c #5FB8FF",
"( 	c #63BCFF",
"_ 	c #3687E4",
": 	c #010F82",
"< 	c #1A66CB",
"[ 	c #82C6FF",
"} 	c #D1E9FF",
"| 	c #C2E2FF",
"1 	c #C3E2FF",
"2 	c #C6E3FF",
"3 	c #C9E4FF",
"4 	c #D3EAFF",
"5 	c #84CCFF",
"6 	c #012296",
"7 	c #1B56B7",
"8 	c #358AE6",
"9 	c #8AC9FF",
"0 	c #95CCFF",
"a 	c #92CAFF",
"b 	c #93CAFF",
"c 	c #97CCFF",
"d 	c #81C2FF",
"e 	c #70BBFF",
"f 	c #7EC6FF",
"g 	c #2C70D3",
"h 	c #000878",
"i 	c #144CB2",
"j 	c #308FF0",
"k 	c #6EBBFF",
"l 	c #6EB8FF",
"m 	c #6DB8FF",
"n 	c #6EB9FF",
"o 	c #6BB7FF",
"p 	c #3CA2FF",
"q 	c #148EFF",
"r 	c #0B90FF",
"s 	c #107CEC",
"t 	c #000A7E",
"u 	c #1B41A3",
"v 	c #0F52BD",
"w 	c #2D97FC",
"x 	c #4DA9FF",
"y 	c #4AA6FF",
"z 	c #49A6FF",
"A 	c #48A6FF",
"B 	c #2496FF",
"C 	c #0085FF",
"D 	c #0081FB",
"E 	c #00259B",
"F 	c #00006B",
"G 	c #15359A",
"H 	c #0F56C4",
"I 	c #1C92FE",
"J 	c #2296FF",
"K 	c #2294FF",
"L 	c #2193FF",
"M 	c #148DFF",
"N 	c #0088FF",
"O 	c #0087FD",
"P 	c #0036AB",
"Q 	c #00006C",
"R 	c #112C94",
"S 	c #0859CB",
"T 	c #0488FF",
"U 	c #0384FF",
"V 	c #0282FF",
"W 	c #0080FF",
"X 	c #0081FF",
"Y 	c #0087FF",
"Z 	c #0045BD",
"` 	c #000070",
" .	c #0C238D",
"..	c #095FD7",
"+.	c #0D8AFF",
"@.	c #0A83FF",
"#.	c #0B83FF",
"$.	c #0D8CFF",
"%.	c #0655CF",
"&.	c #000373",
"*.	c #0A1E8B",
"=.	c #2073E1",
"-.	c #2C9BFF",
";.	c #2C9CFF",
">.	c #1E6FDD",
",.	c #030B7A",
"'.	c #0D1F8D",
").	c #3B8AE9",
"!.	c #3B89E8",
"~.	c #091685",
"{.	c #081180",
"].	c #080F7F",
"                                ",
"                                ",
"  . + @ # $ % & * = - ; > , '   ",
") ! ~ { { { { ] ] ] ] ^ / ( _ : ",
"< [ } | 1 1 1 1 1 1 1 2 3 4 5 6 ",
"7 8 9 0 a a a a a b c d e f g h ",
"  i j k l m m m n o p q r s t   ",
"  u v w x y z A z B C C D E F   ",
"    G H I J K L M C N O P Q     ",
"      R S T U V W X Y Z `       ",
"         ...+.@.#.$.%.&.        ",
"          *.=.-.;.>.,.          ",
"            '.).!.~.            ",
"              {.].              ",
"                                ",
"                                "};
