/* XPM */
static char * 1uparrow_xpm[] = {
"16 16 112 2",
"  	c None",
". 	c #1A5BBE",
"+ 	c #1854B8",
"@ 	c #1B5FC1",
"# 	c #59A7F4",
"$ 	c #59A5F2",
"% 	c #144EB4",
"& 	c #1759BD",
"* 	c #519DEE",
"= 	c #E4F5FF",
"- 	c #E5F6FF",
"; 	c #4F98E9",
"> 	c #0B3AA4",
", 	c #1C5ABB",
"' 	c #388CE7",
") 	c #B1DDFF",
"! 	c #C6E3FF",
"~ 	c #B2DFFF",
"{ 	c #337FDD",
"] 	c #0A2C97",
"^ 	c #215DBA",
"/ 	c #267CDE",
"( 	c #82C5FF",
"_ 	c #A6D3FF",
": 	c #9BCEFF",
"< 	c #A6D4FF",
"[ 	c #83C8FF",
"} 	c #1D64CB",
"| 	c #0A218C",
"1 	c #235DBA",
"2 	c #1E71D6",
"3 	c #56AFFE",
"4 	c #80C3FF",
"5 	c #78BDFF",
"6 	c #73BCFF",
"7 	c #73BBFF",
"8 	c #81C4FF",
"9 	c #58B0FD",
"0 	c #104CB9",
"a 	c #071380",
"b 	c #2660BA",
"c 	c #196ACF",
"d 	c #319AFD",
"e 	c #57AEFF",
"f 	c #53ABFF",
"g 	c #52ABFF",
"h 	c #51ABFF",
"i 	c #4EA9FF",
"j 	c #48A8FF",
"k 	c #198EFB",
"l 	c #0331A4",
"m 	c #050674",
"n 	c #1F61C1",
"o 	c #0F82F5",
"p 	c #2798FF",
"q 	c #2997FF",
"r 	c #2897FF",
"s 	c #2996FF",
"t 	c #2191FF",
"u 	c #0B86FF",
"v 	c #007FFF",
"w 	c #0084FF",
"x 	c #016DE9",
"y 	c #011283",
"z 	c #2462BF",
"A 	c #1579E9",
"B 	c #0F89FF",
"C 	c #0E8AFF",
"D 	c #0A88FF",
"E 	c #0887FF",
"F 	c #0B88FF",
"G 	c #0E89FF",
"H 	c #1088FF",
"I 	c #0983FF",
"J 	c #0B84FF",
"K 	c #0B89FF",
"L 	c #095CD3",
"M 	c #010978",
"N 	c #256BCC",
"O 	c #2893FF",
"P 	c #2691FF",
"Q 	c #2291FF",
"R 	c #2090FF",
"S 	c #2391FF",
"T 	c #2692FF",
"U 	c #2892FF",
"V 	c #2993FF",
"W 	c #2995FF",
"X 	c #2B9BFF",
"Y 	c #0A2696",
"Z 	c #255FBD",
"` 	c #3D92F0",
" .	c #4AA8FF",
"..	c #4AA6FF",
"+.	c #4AA7FF",
"@.	c #4BA7FF",
"#.	c #4CACFF",
"$.	c #3784E5",
"%.	c #071282",
"&.	c #2254B3",
"*.	c #2354B3",
"=.	c #204DB0",
"-.	c #1F48AA",
";.	c #1C42A6",
">.	c #1A3CA2",
",.	c #18379E",
"'.	c #163199",
").	c #132B94",
"!.	c #112590",
"~.	c #0F1F8C",
"{.	c #0D1A87",
"].	c #070E7E",
"                                ",
"                                ",
"              . +               ",
"            @ # $ %             ",
"          & * = - ; >           ",
"        , ' ) ! ! ~ { ]         ",
"      ^ / ( _ : : < [ } |       ",
"    1 2 3 4 5 6 7 5 8 9 0 a     ",
"  b c d e f g h i g i j k l m   ",
"  n o p q q q r s t u v w x y   ",
"z A B C D E F G H I I J J K L M ",
"N s O P Q R S T U V V V V W X Y ",
"Z `  ...+.@.+.+.+. . . . .#.$.%.",
"  &.*.=.-.;.>.,.'.).!.~.{.{.].  ",
"                                ",
"                                "};
