/* XPM */
static char * 2downarrow_xpm[] = {
"16 16 140 2",
"  	c None",
". 	c #2569C6",
"+ 	c #3173CC",
"@ 	c #2D6DC8",
"# 	c #2C6AC5",
"$ 	c #2B66C2",
"% 	c #2962C0",
"& 	c #285EBD",
"* 	c #275BBB",
"= 	c #2557B7",
"- 	c #2454B5",
"; 	c #2250B2",
"> 	c #214DB0",
", 	c #214CAE",
"' 	c #13359D",
") 	c #2064C4",
"! 	c #5EB1FC",
"~ 	c #A5D9FF",
"{ 	c #9AD2FF",
"] 	c #9AD3FF",
"^ 	c #9AD4FF",
"/ 	c #9BD5FF",
"( 	c #9DD6FF",
"_ 	c #9ED6FF",
": 	c #A6DDFF",
"< 	c #6BB6FA",
"[ 	c #0B2592",
"} 	c #1D5DBF",
"| 	c #429EF6",
"1 	c #9FD3FF",
"2 	c #A5D3FF",
"3 	c #A2D1FF",
"4 	c #A5D2FF",
"5 	c #A4D2FF",
"6 	c #98CDFF",
"7 	c #94CBFF",
"8 	c #54A0EF",
"9 	c #061B8B",
"0 	c #1357BE",
"a 	c #2A8FF4",
"b 	c #64B6FF",
"c 	c #6CB7FF",
"d 	c #6BB7FF",
"e 	c #6DB8FF",
"f 	c #65B4FF",
"g 	c #3DA2FF",
"h 	c #118EFF",
"i 	c #028BFF",
"j 	c #0F7DEE",
"k 	c #062696",
"l 	c #114EB5",
"m 	c #1A83EE",
"n 	c #39A2FF",
"o 	c #3BA0FF",
"p 	c #3B9FFF",
"q 	c #3C9FFF",
"r 	c #379EFF",
"s 	c #138FFF",
"t 	c #0083FF",
"u 	c #0089FF",
"v 	c #0070E7",
"w 	c #032191",
"x 	c #1242A9",
"y 	c #0C74E6",
"z 	c #0C8DFF",
"A 	c #0C8AFF",
"B 	c #0B8AFF",
"C 	c #0486FF",
"D 	c #0084FF",
"E 	c #026ADF",
"F 	c #061C8B",
"G 	c #173295",
"H 	c #12339A",
"I 	c #056ADE",
"J 	c #0085FF",
"K 	c #008CFF",
"L 	c #0263D8",
"M 	c #07117E",
"N 	c #050371",
"O 	c #1946A9",
"P 	c #0E5ECB",
"Q 	c #0967D7",
"R 	c #0963D3",
"S 	c #095FD0",
"T 	c #0472E7",
"U 	c #0086FF",
"V 	c #008AFF",
"W 	c #026BE2",
"X 	c #0250C3",
"Y 	c #024FC4",
"Z 	c #0150C5",
"` 	c #003AAE",
" .	c #000577",
"..	c #144BB3",
"+.	c #0088FF",
"@.	c #008BFF",
"#.	c #0091FF",
"$.	c #00168A",
"%.	c #153CA2",
"&.	c #0866DA",
"*.	c #0087FF",
"=.	c #0052CB",
"-.	c #000477",
";.	c #132F95",
">.	c #075ACF",
",.	c #0183FF",
"'.	c #0080FF",
").	c #007FFF",
"!.	c #0081FF",
"~.	c #0185FF",
"{.	c #0045C0",
"].	c #00026F",
"^.	c #0F228B",
"/.	c #0C5BCF",
"(.	c #108AFF",
"_.	c #0F85FF",
":.	c #0E85FF",
"<.	c #108BFF",
"[.	c #064DC4",
"}.	c #00006C",
"|.	c #0C1E89",
"1.	c #1556C6",
"2.	c #2594FF",
"3.	c #2493FF",
"4.	c #2390FF",
"5.	c #2595FF",
"6.	c #114BBD",
"7.	c #010173",
"8.	c #08117E",
"9.	c #1B4DB8",
"0.	c #3A9DFD",
"a.	c #3A9EFD",
"b.	c #1845B2",
"c.	c #00006E",
"d.	c #020575",
"e.	c #1D41AA",
"f.	c #4CA1FB",
"g.	c #1C3EA8",
"h.	c #00006F",
"i.	c #12218D",
"  . + @ # $ % & * = - ; > , '   ",
") ! ~ { { ] ] ] ^ ^ / ( _ : < [ ",
"} | 1 2 3 3 3 3 3 4 5 6 7 ( 8 9 ",
"  0 a b c d d d e f g h i j k   ",
"    l m n o p q r s t u v w     ",
"      x y z A B C D u E F       ",
"      G H I u J J K L M N       ",
"O P Q R S T u U U V W X Y Z `  .",
"..K u +.+.+.U U U U u u V @.#.$.",
"%.&.*.D t t t t t t t t J u =.-.",
"  ;.>.,.'.).).).).).).!.~.{.].  ",
"    ^./.(._.:.:.:.:._.<.[.}.    ",
"      |.1.2.3.4.4.3.5.6.7.      ",
"        8.9.0.p p a.b.c.        ",
"          d.e.f.f.g.}.          ",
"            h.i.i.c.            "};
