/* XPM */
static char * 2uparrow_xpm[] = {
"16 16 142 2",
"  	c None",
". 	c #255EB9",
"+ 	c #0F5EC6",
"@ 	c #0B59C3",
"# 	c #1F4EAE",
"$ 	c #235CB8",
"% 	c #0E68D5",
"& 	c #5CAFFE",
"* 	c #6EB8FC",
"= 	c #1363CC",
"- 	c #1741A4",
"; 	c #225CBA",
"> 	c #0D6DD9",
", 	c #61B4FE",
"' 	c #D9EEFF",
") 	c #E5F4FF",
"! 	c #7DC3FE",
"~ 	c #1164CF",
"{ 	c #13399F",
"] 	c #225FBC",
"^ 	c #1172DF",
"/ 	c #57B0FF",
"( 	c #AFD9FF",
"_ 	c #AED7FF",
": 	c #ACD6FF",
"< 	c #B5DCFF",
"[ 	c #6EBCFF",
"} 	c #1466D2",
"| 	c #11339A",
"1 	c #255EBA",
"2 	c #1276E2",
"3 	c #46A8FF",
"4 	c #80C1FF",
"5 	c #7DBFFF",
"6 	c #7BBFFF",
"7 	c #85C4FF",
"8 	c #57B2FF",
"9 	c #1267D3",
"0 	c #10268E",
"a 	c #2560BB",
"b 	c #1475E0",
"c 	c #2E9CFF",
"d 	c #4FAAFF",
"e 	c #4AA7FF",
"f 	c #49A7FF",
"g 	c #48A5FF",
"h 	c #40A2FF",
"i 	c #39A1FF",
"j 	c #1994FF",
"k 	c #055ACC",
"l 	c #0C1F89",
"m 	c #2562BF",
"n 	c #0C76E6",
"o 	c #0A8CFF",
"p 	c #1A91FF",
"q 	c #178EFF",
"r 	c #168EFF",
"s 	c #0D8CFF",
"t 	c #0285FF",
"u 	c #0084FF",
"v 	c #0087FF",
"w 	c #008BFF",
"x 	c #045FD2",
"y 	c #091B88",
"z 	c #1D65C6",
"A 	c #008AFF",
"B 	c #0088FF",
"C 	c #0085FF",
"D 	c #0089FF",
"E 	c #0090FF",
"F 	c #062595",
"G 	c #2059B9",
"H 	c #1269D3",
"I 	c #0C6EDC",
"J 	c #0C6BD9",
"K 	c #0B68D6",
"L 	c #0575EA",
"M 	c #0086FF",
"N 	c #0370E5",
"O 	c #0558CA",
"P 	c #0557CA",
"Q 	c #0358CB",
"R 	c #0343B6",
"S 	c #051382",
"T 	c #1C3E9F",
"U 	c #1940A4",
"V 	c #076DE2",
"W 	c #0083FF",
"X 	c #0365DC",
"Y 	c #0B1D88",
"Z 	c #0A107B",
"` 	c #1545AC",
" .	c #066FE7",
"..	c #0082FF",
"+.	c #007FFF",
"@.	c #0364E0",
"#.	c #071D8D",
"$.	c #184BB1",
"%.	c #1179EE",
"&.	c #0D88FF",
"*.	c #0E85FF",
"=.	c #0E8AFF",
"-.	c #0E70E7",
";.	c #061D8D",
">.	c #1C51B5",
",.	c #2285F3",
"'.	c #2393FF",
").	c #2390FF",
"!.	c #2495FF",
"~.	c #207DED",
"{.	c #081B8D",
"].	c #1D4BAE",
"^.	c #3792F3",
"/.	c #3A9FFF",
"(.	c #399BFF",
"_.	c #3AA1FF",
":.	c #338AED",
"<.	c #061080",
"[.	c #1E4AAD",
"}.	c #4BA2FB",
"|.	c #55B0FF",
"1.	c #53ADFF",
"2.	c #53AEFF",
"3.	c #54AFFF",
"4.	c #54B0FF",
"5.	c #56B4FF",
"6.	c #4BA2F9",
"7.	c #091584",
"8.	c #2047AA",
"9.	c #2752B3",
"0.	c #234CAF",
"a.	c #2349AD",
"b.	c #2145AA",
"c.	c #2041A7",
"d.	c #1E3DA4",
"e.	c #1D3AA2",
"f.	c #1C369E",
"g.	c #1A329B",
"h.	c #192F99",
"i.	c #192E98",
"j.	c #1A319A",
"k.	c #101D8A",
"            . + @ #             ",
"          $ % & * = -           ",
"        ; > , ' ) ! ~ {         ",
"      ] ^ / ( _ : < [ } |       ",
"    1 2 3 4 5 6 6 6 7 8 9 0     ",
"  a b c d e f f f g h i j k l   ",
"m n o p q r q q r s t u v w x y ",
"z A B v v v C C C C D D A w E F ",
"G H I J K L D M M D N O P Q R S ",
"      T U V v W W B X Y Z       ",
"      `  ...+.+.+.+.W @.#.      ",
"    $.%.&.*.*.*.*.*.*.=.-.;.    ",
"  >.,.'.).).).).).).).).!.~.{.  ",
"].^./.(.(.(.(.(.(.(.(.(.(._.:.<.",
"[.}.|.1.2.2.2.3.3.3.4.4.4.5.6.7.",
"  8.9.0.a.b.c.d.e.f.g.h.i.j.k.  "};
