/* XPM */
static char * bancos_xpm[] = {
"32 32 383 2",
"  	c None",
". 	c #000000",
"+ 	c #ADA793",
"@ 	c #F9F0DB",
"# 	c #F7EFD4",
"$ 	c #F6EDC9",
"% 	c #F2E2AD",
"& 	c #302C19",
"* 	c #1D1D1D",
"= 	c #F5EBC3",
"- 	c #F1DF9E",
"; 	c #EED680",
"> 	c #C5B16A",
", 	c #B4A061",
"' 	c #DEC877",
") 	c #CBB86C",
"! 	c #C0AE66",
"~ 	c #B6A465",
"{ 	c #231E12",
"] 	c #908A72",
"^ 	c #564F38",
"/ 	c #5A5130",
"( 	c #544B2D",
"_ 	c #494227",
": 	c #5F5533",
"< 	c #655C36",
"[ 	c #3C3621",
"} 	c #060503",
"| 	c #090909",
"1 	c #9F987E",
"2 	c #242013",
"3 	c #9E9882",
"4 	c #F1E8D3",
"5 	c #E0D1A0",
"6 	c #574E2E",
"7 	c #9C8D54",
"8 	c #110F09",
"9 	c #B5A05F",
"0 	c #DEC775",
"a 	c #544E36",
"b 	c #211E15",
"c 	c #1D1A0F",
"d 	c #A09983",
"e 	c #F2E9D4",
"f 	c #B29E60",
"g 	c #B4A264",
"h 	c #2D2717",
"i 	c #4C4529",
"j 	c #4D4833",
"k 	c #463F25",
"l 	c #16140C",
"m 	c #1B180E",
"n 	c #262214",
"o 	c #13110A",
"p 	c #B39F60",
"q 	c #4E452A",
"r 	c #48412A",
"s 	c #49473C",
"t 	c #A7AA96",
"u 	c #83947E",
"v 	c #364233",
"w 	c #15150C",
"x 	c #7E7343",
"y 	c #72736B",
"z 	c #8E9489",
"A 	c #A0B09D",
"B 	c #8EA18E",
"C 	c #9CB29C",
"D 	c #A6C1A6",
"E 	c #6E826C",
"F 	c #1F2318",
"G 	c #1B180F",
"H 	c #DDC776",
"I 	c #C9B66B",
"J 	c #BEAC65",
"K 	c #B5A364",
"L 	c #010101",
"M 	c #151615",
"N 	c #5E635E",
"O 	c #ADB9AD",
"P 	c #788F78",
"Q 	c #97A697",
"R 	c #9BA99B",
"S 	c #839B83",
"T 	c #9EBD9E",
"U 	c #AECBAE",
"V 	c #B3CFB3",
"W 	c #5C7058",
"X 	c #161A13",
"Y 	c #515042",
"Z 	c #534D36",
"` 	c #52492C",
" .	c #474026",
"..	c #5E5432",
"+.	c #534A2E",
"@.	c #0F0E0B",
"#.	c #6A6F6A",
"$.	c #9BAA9B",
"%.	c #889C88",
"&.	c #627862",
"*.	c #5B705B",
"=.	c #90A590",
"-.	c #A6BCA6",
";.	c #849C84",
">.	c #8FAC8F",
",.	c #829B82",
"'.	c #ABC8AB",
").	c #B6CFB6",
"!.	c #90A990",
"~.	c #2F3828",
"{.	c #2C2C1C",
"].	c #BDAB64",
"^.	c #B4A360",
"/.	c #AE9D60",
"(.	c #221D11",
"_.	c #242014",
":.	c #24241D",
"<.	c #6D7268",
"[.	c #A5B4A1",
"}.	c #7D9A7D",
"|.	c #485D48",
"1.	c #4C604C",
"2.	c #516551",
"3.	c #5F745F",
"4.	c #7D937D",
"5.	c #87A287",
"6.	c #97B897",
"7.	c #93AF93",
"8.	c #788878",
"9.	c #B8C7B8",
"0.	c #ACBEAC",
"a.	c #95AC95",
"b.	c #ADC7AD",
"c.	c #B6CEB6",
"d.	c #799479",
"e.	c #181F16",
"f.	c #1D2016",
"g.	c #464228",
"h.	c #5B5131",
"i.	c #494127",
"j.	c #3B3728",
"k.	c #8F9382",
"l.	c #A1B298",
"m.	c #83A082",
"n.	c #5F7C5F",
"o.	c #546D54",
"p.	c #597359",
"q.	c #9DB69D",
"r.	c #829982",
"s.	c #6C856C",
"t.	c #91A891",
"u.	c #A0B0A0",
"v.	c #819781",
"w.	c #A9C2A9",
"x.	c #A3BCA3",
"y.	c #90A690",
"z.	c #849884",
"A.	c #839883",
"B.	c #90AB90",
"C.	c #9CBA9C",
"D.	c #6E8F6E",
"E.	c #121711",
"F.	c #8C8655",
"G.	c #1E190F",
"H.	c #1F221F",
"I.	c #858F81",
"J.	c #A3BDA2",
"K.	c #719471",
"L.	c #557155",
"M.	c #688568",
"N.	c #839F83",
"O.	c #93B693",
"P.	c #769476",
"Q.	c #9AB39A",
"R.	c #BFD1BF",
"S.	c #7B937B",
"T.	c #708870",
"U.	c #6A806A",
"V.	c #889D88",
"W.	c #7F967F",
"X.	c #879F87",
"Y.	c #7A8E7A",
"Z.	c #7E947E",
"`.	c #849A84",
" +	c #97B297",
".+	c #819F81",
"++	c #527252",
"@+	c #738A73",
"#+	c #202920",
"$+	c #1B231B",
"%+	c #AAB4AA",
"&+	c #A9CAA9",
"*+	c #7BA47B",
"=+	c #5F7E5F",
"-+	c #86A386",
";+	c #A0B5A0",
">+	c #879787",
",+	c #97B697",
"'+	c #90B490",
")+	c #7C997C",
"!+	c #7E967E",
"~+	c #9BB19B",
"{+	c #B4CBB4",
"]+	c #8FA78F",
"^+	c #768C76",
"/+	c #778C77",
"(+	c #5E6E5E",
"_+	c #7F957F",
":+	c #9BB39B",
"<+	c #88A788",
"[+	c #587C58",
"}+	c #4B684B",
"|+	c #708970",
"1+	c #526E52",
"2+	c #1E281E",
"3+	c #778277",
"4+	c #437743",
"5+	c #97BB97",
"6+	c #9FC19F",
"7+	c #8DA88D",
"8+	c #718D71",
"9+	c #88AF88",
"0+	c #4B5E4B",
"a+	c #779277",
"b+	c #A5C5A5",
"c+	c #9ABB9A",
"d+	c #84A284",
"e+	c #799379",
"f+	c #6A816A",
"g+	c #576857",
"h+	c #5C6C5C",
"i+	c #90AF90",
"j+	c #567D56",
"k+	c #486848",
"l+	c #6C876C",
"m+	c #6F876F",
"n+	c #93A793",
"o+	c #A6ADA6",
"p+	c #658F65",
"q+	c #437643",
"r+	c #75A075",
"s+	c #A3C1A3",
"t+	c #8FB88F",
"u+	c #94BA94",
"v+	c #839C83",
"w+	c #A9BFA9",
"x+	c #A4B9A4",
"y+	c #84A084",
"z+	c #93B493",
"A+	c #6F866F",
"B+	c #627662",
"C+	c #90A490",
"D+	c #8EA88E",
"E+	c #5F885F",
"F+	c #446544",
"G+	c #6B866B",
"H+	c #6A846A",
"I+	c #4B6C4B",
"J+	c #738B73",
"K+	c #4B604B",
"L+	c #0D110D",
"M+	c #95A195",
"N+	c #3E703E",
"O+	c #699569",
"P+	c #416F41",
"Q+	c #508550",
"R+	c #9FBF9F",
"S+	c #A4C6A4",
"T+	c #96BA96",
"U+	c #809E80",
"V+	c #799579",
"W+	c #758F75",
"X+	c #677D67",
"Y+	c #789178",
"Z+	c #A5C2A5",
"`+	c #678E67",
" @	c #4A6F4A",
".@	c #426442",
"+@	c #6A876A",
"@@	c #456545",
"#@	c #4A6B4A",
"$@	c #708C70",
"%@	c #3D523D",
"&@	c #1A241A",
"*@	c #111811",
"=@	c #0F130F",
"-@	c #637163",
";@	c #628A62",
">@	c #648A64",
",@	c #709B70",
"'@	c #487548",
")@	c #81AB81",
"!@	c #B1CBB1",
"~@	c #ACC8AC",
"{@	c #7B967B",
"]@	c #6B826B",
"^@	c #9FB89F",
"/@	c #8DAB8D",
"(@	c #4F764F",
"_@	c #406340",
":@	c #6A886A",
"<@	c #658165",
"[@	c #486C48",
"}@	c #738E73",
"|@	c #2C3C2C",
"1@	c #151D15",
"2@	c #1A221A",
"3@	c #050505",
"4@	c #122212",
"5@	c #386338",
"6@	c #689168",
"7@	c #487848",
"8@	c #6E956E",
"9@	c #4D7A4D",
"0@	c #588658",
"a@	c #98BC98",
"b@	c #CFDECF",
"c@	c #99B799",
"d@	c #567E56",
"e@	c #426742",
"f@	c #648164",
"g@	c #678667",
"h@	c #436543",
"i@	c #6C8A6C",
"j@	c #698369",
"k@	c #385138",
"l@	c #0F160F",
"m@	c #161E16",
"n@	c #000100",
"o@	c #040904",
"p@	c #325632",
"q@	c #6A916A",
"r@	c #6E936E",
"s@	c #739773",
"t@	c #517B51",
"u@	c #B8CBB8",
"v@	c #436743",
"w@	c #436A43",
"x@	c #658265",
"y@	c #416541",
"z@	c #688668",
"A@	c #698669",
"B@	c #466546",
"C@	c #141E14",
"D@	c #111711",
"E@	c #151E15",
"F@	c #010301",
"G@	c #1F341F",
"H@	c #3E653E",
"I@	c #749B74",
"J@	c #4C764C",
"K@	c #789D78",
"L@	c #7D957D",
"M@	c #628062",
"N@	c #678567",
"O@	c #456845",
"P@	c #1B281B",
"Q@	c #0E150E",
"R@	c #161F16",
"S@	c #010401",
"T@	c #070D07",
"U@	c #385B38",
"V@	c #6D8F6D",
"W@	c #91AF91",
"X@	c #3C5F3C",
"Y@	c #638163",
"Z@	c #6B8A6B",
"`@	c #2D432D",
" #	c #0F170F",
".#	c #192319",
"+#	c #030603",
"@#	c #253925",
"##	c #456A45",
"$#	c #98AC98",
"%#	c #5F7B5F",
"&#	c #416341",
"*#	c #151F15",
"=#	c #0E160E",
"-#	c #050905",
";#	c #172317",
">#	c #798B79",
",#	c #0A100A",
"'#	c #152015",
"                          . . . .                               ",
"                      . + @ # $ % &                             ",
"                      * = - ; ; ; > .                           ",
"                      . , ' ) ! ~ { .                           ",
"                      * ] ^ / ( _ : .                           ",
"      . . . .         . , ' ) ! ~ { .     . . . .               ",
"  . + @ # $ % &       * ] ^ / ( _ : . . + @ # $ % &             ",
"  * = - ; ; ; > .     . , ' ) < [ } . | 1 - ; ; ; > .           ",
"  . , ' ) ! ~ { .     * ] ^ 2 3 4 # $ 5 6 7 ) ! ~ 8 . . . .     ",
"  * ] ^ / ( _ : .       9 0 a = - ; ; ; > b / ( c d e # $ % &   ",
"  . , ' ) ! ~ { .         . . f ' ) ! g h i ) ! j = - ; ; ; > . ",
"  * ] ^ / ( _ : .           * ] ^ k l m n b / ( o p ' ) ! ~ {   ",
"  . , ' ) < [ } . .         . q r s t u v w x ! j ] ^ / ( _ : . ",
"  * ] ^ 2 3 4 # $ % &     . . y z A B C D E F G o p H I J K {   ",
"    9 0 a = - ; ; ; > L M N O C P Q R S T U V W X Y Z 6 `  .... ",
"      . . f ' ) ! +.@.#.$.%.&.*.=.-.;.>.,.'.U ).!.~.{.].^./.(.  ",
"        * ] ^ _.:.<.[.}.|.1.2.3.4.5.6.7.8.9.0.a.b.c.d.e.f.g.h.. ",
"        . i.j.k.l.m.n.o.p.q.r.s.t.u.v.7.w.x.y.z.A.B.C.D.E.F.G.  ",
"      . H.I.J.K.L.M.N.O.P.Q.R.S.T.U.V.W.X.Y.Z.`. +.+++@+#+$+.   ",
"      . %+&+*+=+-+;+>+,+'+)+!+~+{+]+^+/+(+_+:+<+[+}+|+1+2+      ",
"      . 3+4+5+6+7+8+9+0+a+b+c+d+e+f+g+h+B i+j+k+l+m+}+n+#+      ",
"      . o+p+q+r+s+t+u+v+w+x+y+z+A+B+C+D+E+F+G+H+I+|+J+K+L+      ",
"      . M+N+O+P+Q+R+S+T+U+V+W+X+Y+Z+`+ @.@+@@@#@$@%@&@*@=@      ",
"      . -@;@O+>@,@'@)@!@~@{@]@^@/@(@_@:@<@[@H+}@|@1@2@          ",
"        3@4@5@6@7@8@9@0@a@b@c@d@e@f@g@h@i@j@k@l@m@              ",
"          n@o@p@q@8@r@s@t@u@v@w@x@y@z@A@B@C@D@E@                ",
"              F@G@H@I@J@K@Y.L@M@e@N@O@P@Q@R@                    ",
"                S@T@U@V@W@Y.X@Y@Z@`@ #.#                        ",
"                    +#@###$#%#&#*#=#                            ",
"                      -#;#>#P@,#'#                              ",
"                        . F@Q@                                  ",
"                                                                "};
