/* XPM */
static char * cadastro_xpm[] = {
"16 16 64 1",
" 	c None",
".	c #000000",
"+	c #BFBFBF",
"@	c #F5F5F5",
"#	c #F6F6F6",
"$	c #F7F7F7",
"%	c #F8F8F8",
"&	c #F9F9F9",
"*	c #B9B9B9",
"=	c #E1E1E1",
"-	c #E2E2E2",
";	c #E3E3E3",
">	c #E4E4E4",
",	c #E5E5E5",
"'	c #E7E7E7",
")	c #E8E8E8",
"!	c #E9E9E9",
"~	c #EAEAEA",
"{	c #EBEBEB",
"]	c #EDEDED",
"^	c #EEEEEE",
"/	c #EFEFEF",
"(	c #B5B5B5",
"_	c #919191",
":	c #B7B7B7",
"<	c #F0F0F0",
"[	c #747474",
"}	c #757575",
"|	c #949494",
"1	c #959595",
"2	c #969696",
"3	c #979797",
"4	c #989898",
"5	c #F1F1F1",
"6	c #F3F3F3",
"7	c #B8B8B8",
"8	c #BABABA",
"9	c #F4F4F4",
"0	c #767676",
"a	c #080808",
"b	c #777777",
"c	c #999999",
"d	c #9A9A9A",
"e	c #BCBCBC",
"f	c #D7D7D7",
"g	c #C0C0C0",
"h	c #C2C2C2",
"i	c #C3C3C3",
"j	c #FEFEFE",
"k	c #DCDCDC",
"l	c #858585",
"m	c #DBDBDB",
"n	c #7D7D7D",
"o	c #ACACAC",
"p	c #C6C6C6",
"q	c #7E7E7E",
"r	c #FAFAFA",
"s	c #FBFBFB",
"t	c #CFCFCF",
"u	c #7C7C7C",
"v	c #B2B2B2",
"w	c #FCFCFC",
"x	c #BEBEBE",
"y	c #C1C1C1",
" .............  ",
" +@@####$$%%&&* ",
".@=-;>,')!~{]^/.",
".@-(_:')!~{]^/<.",
".#;[;})|1234/<5.",
".#>:}*!~{]^/<56.",
".#,7|8~{]^/<569.",
".#'0ab{344cd69@.",
".$)8be]^/<569@#.",
".$!~{]f+gghi:#$.",
".%~{]^+jkl]mn$&.",
".&]^/<g]op8fqrs.",
".&^/<5tdunnqvsw.",
".x/<569@#$&rswy ",
"  ............  ",
"                "};
