/* XPM */
static char * caixa_xpm[] = {
"32 32 444 2",
"  	c None",
". 	c #683536",
"+ 	c #673334",
"@ 	c #754647",
"# 	c #8F696A",
"$ 	c #957172",
"% 	c #6E3C3D",
"& 	c #774849",
"* 	c #947071",
"= 	c #AA8D8E",
"- 	c #B09596",
"; 	c #AC8F90",
"> 	c #A88A8A",
", 	c #987576",
"' 	c #683637",
") 	c #794B4B",
"! 	c #9A7778",
"~ 	c #B39999",
"{ 	c #B9A2A2",
"] 	c #B59C9D",
"^ 	c #B19697",
"/ 	c #AD9191",
"( 	c #A98B8C",
"_ 	c #A48586",
": 	c #A08080",
"< 	c #886060",
"[ 	c #663435",
"} 	c #744445",
"| 	c #9F7E7F",
"1 	c #BBA4A4",
"2 	c #C3AEAF",
"3 	c #BFA9A9",
"4 	c #BAA3A4",
"5 	c #B69D9E",
"6 	c #B29898",
"7 	c #AE9293",
"8 	c #AA8C8D",
"9 	c #A58787",
"0 	c #A18182",
"a 	c #9D7B7C",
"b 	c #997677",
"c 	c #83595A",
"d 	c #633132",
"e 	c #977374",
"f 	c #BDA6A6",
"g 	c #CCBBBB",
"h 	c #C8B5B6",
"i 	c #C4B0B0",
"j 	c #C0AAAB",
"k 	c #BBA5A5",
"l 	c #B79F9F",
"m 	c #B3999A",
"n 	c #AF9394",
"o 	c #AB8E8E",
"p 	c #A68889",
"q 	c #A28283",
"r 	c #9E7D7E",
"s 	c #916C6D",
"t 	c #7F5354",
"u 	c #643132",
"v 	c #CDBCBD",
"w 	c #C9B7B7",
"x 	c #C5B1B1",
"y 	c #C1ACAC",
"z 	c #BCA6A6",
"A 	c #B8A0A1",
"B 	c #B49A9B",
"C 	c #B09595",
"D 	c #A7898A",
"E 	c #A38484",
"F 	c #9B7879",
"G 	c #967374",
"H 	c #926D6E",
"I 	c #8E6768",
"J 	c #8A6263",
"K 	c #754546",
"L 	c #643233",
"M 	c #653233",
"N 	c #AB8E8F",
"O 	c #C6B2B3",
"P 	c #C2ADAD",
"Q 	c #BDA7A8",
"R 	c #B9A1A2",
"S 	c #B59C9C",
"T 	c #AD9091",
"U 	c #A88B8B",
"V 	c #A07F80",
"W 	c #9C7A7B",
"X 	c #977475",
"Y 	c #936E6F",
"Z 	c #8B6364",
"` 	c #865D5E",
" .	c #825859",
"..	c #703F40",
"+.	c #602F30",
"@.	c #714041",
"#.	c #B19797",
"$.	c #BEA9A9",
"%.	c #BAA3A3",
"&.	c #B29798",
"*.	c #AE9292",
"=.	c #A98C8D",
"-.	c #A58687",
";.	c #A18181",
">.	c #906A6B",
",.	c #8C6465",
"'.	c #875F60",
").	c #7F5454",
"!.	c #7B4E4F",
"~.	c #6D3B3C",
"{.	c #613031",
"].	c #592C2D",
"^.	c #724243",
"/.	c #A68888",
"(.	c #9E7C7D",
"_.	c #997778",
":.	c #916B6C",
"<.	c #8D6667",
"[.	c #886061",
"}.	c #845B5B",
"|.	c #805556",
"1.	c #7C4F50",
"2.	c #784A4B",
"3.	c #734445",
"4.	c #6A3738",
"5.	c #5F2F30",
"6.	c #764748",
"7.	c #AF9494",
"8.	c #B09495",
"9.	c #AB8F8F",
"0.	c #A38384",
"a.	c #9F7E7E",
"b.	c #9A7879",
"c.	c #967273",
"d.	c #896162",
"e.	c #855C5D",
"f.	c #815657",
"g.	c #7D5051",
"h.	c #794B4C",
"i.	c #744546",
"j.	c #704041",
"k.	c #6C3A3B",
"l.	c #5E2F30",
"m.	c #8B6465",
"n.	c #AC9091",
"o.	c #A88A8B",
"p.	c #A48585",
"q.	c #9B797A",
"r.	c #8F6869",
"s.	c #8A6364",
"t.	c #825858",
"u.	c #7E5253",
"v.	c #7A4C4D",
"w.	c #754748",
"x.	c #714142",
"y.	c #693637",
"z.	c #673536",
"A.	c #A0705B",
"B.	c #8D5337",
"C.	c #9E6B51",
"D.	c #AE826A",
"E.	c #A97C66",
"F.	c #A27869",
"G.	c #946F70",
"H.	c #875F5F",
"I.	c #7B4E4E",
"J.	c #764849",
"K.	c #6E3D3E",
"L.	c #E18A08",
"M.	c #EAA447",
"N.	c #EDBA61",
"O.	c #EABA6F",
"P.	c #F0C763",
"Q.	c #E6B75F",
"R.	c #DEAB4E",
"S.	c #DBA848",
"T.	c #C78A2E",
"U.	c #A66A3F",
"V.	c #945F48",
"W.	c #895F5D",
"X.	c #845A5B",
"Y.	c #805455",
"Z.	c #77494A",
"`.	c #6F3E3F",
" +	c #6B3839",
".+	c #673435",
"++	c #F39C16",
"@+	c #F9D9A2",
"#+	c #FFFCF0",
"$+	c #FFFFFD",
"%+	c #FFFBE9",
"&+	c #EDD29B",
"*+	c #FFF1AF",
"=+	c #F2D17F",
"-+	c #FFE774",
";+	c #FFE152",
">+	c #FFDB2F",
",+	c #FFD822",
"'+	c #DFAF25",
")+	c #9D6335",
"!+	c #82534E",
"~+	c #784B4B",
"{+	c #683435",
"]+	c #522929",
"^+	c #F59203",
"/+	c #FEEBA5",
"(+	c #FFFFFF",
"_+	c #FFFDF3",
":+	c #FFF9DA",
"<+	c #FFF4BE",
"[+	c #FFF0A9",
"}+	c #F5D27A",
"|+	c #FFE35D",
"1+	c #FFDD3A",
"2+	c #FFD719",
"3+	c #FFD510",
"4+	c #F8DF7A",
"5+	c #8D5132",
"6+	c #794C4D",
"7+	c #693536",
"8+	c #865F5F",
"9+	c #A18D8E",
"0+	c #8D7373",
"a+	c #FC9700",
"b+	c #FFC545",
"c+	c #FFF5C3",
"d+	c #FFFEF9",
"e+	c #FFFAE3",
"f+	c #FFF5C7",
"g+	c #FFF1B0",
"h+	c #FFEFA4",
"i+	c #FFED97",
"j+	c #FFE56B",
"k+	c #FED420",
"l+	c #FFE04C",
"m+	c #E4B65D",
"n+	c #AD6523",
"o+	c #693738",
"p+	c #8D6D6D",
"q+	c #B5ABAC",
"r+	c #9F9292",
"s+	c #805C5C",
"t+	c #5D2E2F",
"u+	c #381C1C",
"v+	c #FA9600",
"w+	c #FFD28E",
"x+	c #FFAD1E",
"y+	c #FEB823",
"z+	c #FDD256",
"A+	c #FEE580",
"B+	c #F3C539",
"C+	c #F6CA4A",
"D+	c #F8CE5A",
"E+	c #FAD368",
"F+	c #FEDA46",
"G+	c #F3CE69",
"H+	c #E5B35B",
"I+	c #D08B36",
"J+	c #E0A628",
"K+	c #AA6223",
"L+	c #734344",
"M+	c #997F80",
"N+	c #B5AFAF",
"O+	c #998686",
"P+	c #6D4041",
"Q+	c #552A2B",
"R+	c #2C1616",
"S+	c #F89500",
"T+	c #FFF8D5",
"U+	c #FEDF88",
"V+	c #FBBD3A",
"W+	c #F6AD1B",
"X+	c #F09E0B",
"Y+	c #EC9D13",
"Z+	c #E79C20",
"`+	c #E39B30",
" @	c #E4AB5D",
".@	c #E7BA7A",
"+@	c #F2D287",
"@@	c #FFE878",
"#@	c #FFDE42",
"$@	c #B2661C",
"%@	c #733F3A",
"&@	c #845D5E",
"*@	c #A69393",
"=@	c #ADA6A7",
"-@	c #886969",
";@	c #673839",
">@	c #4C2626",
",@	c #190C0C",
"'@	c #ED8E00",
")@	c #FFC56C",
"!@	c #FFEFA6",
"~@	c #FFE672",
"{@	c #FFDD3B",
"]@	c #FFD616",
"^@	c #FFDB33",
"/@	c #FFE361",
"(@	c #FFED9A",
"_@	c #FFF9DC",
":@	c #FFFBE4",
"<@	c #FFF1AE",
"[@	c #DCA42F",
"}@	c #B66C1B",
"|@	c #B06F31",
"1@	c #B7ADAD",
"2@	c #A89899",
"3@	c #7C5657",
"4@	c #412021",
"5@	c #F09001",
"6@	c #FCA31A",
"7@	c #F9BB49",
"8@	c #FACA4E",
"9@	c #FCD233",
"0@	c #F9E8C0",
"a@	c #EDD0A4",
"b@	c #DCA859",
"c@	c #C78025",
"d@	c #C0791B",
"e@	c #BC771E",
"f@	c #B8712B",
"g@	c #704344",
"h@	c #341A1A",
"i@	c #EF8F01",
"j@	c #FFB240",
"k@	c #FD9C04",
"l@	c #F79D09",
"m@	c #F39E0C",
"n@	c #E9910B",
"o@	c #E58E0D",
"p@	c #E08B0E",
"q@	c #DC8810",
"r@	c #E29212",
"s@	c #DC8E14",
"t@	c #DB9216",
"u@	c #D58E18",
"v@	c #CA7E17",
"w@	c #CD8018",
"x@	c #B26E19",
"y@	c #231112",
"z@	c #F19004",
"A@	c #FFFEFA",
"B@	c #FFE1A3",
"C@	c #FDB941",
"D@	c #F9A51B",
"E@	c #F49808",
"F@	c #F39B0A",
"G@	c #F29E0C",
"H@	c #F09C0D",
"I@	c #E8930E",
"J@	c #DD880F",
"K@	c #D4892A",
"L@	c #E0A54B",
"M@	c #EABC51",
"N@	c #FFDE44",
"O@	c #B67D17",
"P@	c #BA6B17",
"Q@	c #F5A20B",
"R@	c #FFEBCA",
"S@	c #FFF8D6",
"T@	c #FFF0A7",
"U@	c #FFDD3D",
"V@	c #F8C627",
"W@	c #F7CB4A",
"X@	c #FDE690",
"Y@	c #FFF9D9",
"Z@	c #FFFBE6",
"`@	c #FFF1B1",
" #	c #FFE87A",
".#	c #F2C93E",
"+#	c #9A5814",
"@#	c #BA7000",
"##	c #E09E13",
"$#	c #FEAA17",
"%#	c #FBB951",
"&#	c #FCD87F",
"*#	c #FFDB31",
"=#	c #FFE35F",
"-#	c #F3D995",
";#	c #D59B3D",
">#	c #AE6417",
",#	c #402509",
"'#	c #EDC78E",
")#	c #EEA42A",
"!#	c #F9AF31",
"~#	c #F3A22A",
"{#	c #EFA742",
"]#	c #EA9C17",
"^#	c #E6980E",
"/#	c #E29616",
"(#	c #DE9623",
"_#	c #DA9532",
":#	c #D69544",
"<#	c #C57214",
"[#	c #C06E15",
"}#	c #D99E2A",
"|#	c #AE7318",
"1#	c #BE7200",
"2#	c #FCFBF8",
"3#	c #FDD982",
"4#	c #F7BB3F",
"5#	c #F0A51B",
"6#	c #ECA116",
"7#	c #EEB12F",
"8#	c #EBAF2E",
"9#	c #E3A333",
"0#	c #DA9841",
"a#	c #E4B87F",
"b#	c #E9C176",
"c#	c #FBE176",
"d#	c #FFDF49",
"e#	c #B1791A",
"f#	c #E6B05E",
"g#	c #FEF8D9",
"h#	c #FFF0AC",
"i#	c #FFD716",
"j#	c #FFDA2E",
"k#	c #FFE25B",
"l#	c #FFEC93",
"m#	c #FFF8D3",
"n#	c #FFFCEB",
"o#	c #FFF2B4",
"p#	c #FFE97E",
"q#	c #E1B13C",
"r#	c #8A4E15",
"s#	c #AF7D35",
"t#	c #E79D2F",
"u#	c #F2B64E",
"v#	c #F8CF5D",
"w#	c #FDD83D",
"x#	c #EED7B6",
"y#	c #DFB671",
"z#	c #BC7C2E",
"A#	c #784413",
"B#	c #68491F",
"C#	c #9D651C",
"D#	c #BA7D2F",
"E#	c #B86B0D",
"F#	c #B3680E",
"G#	c #AE6510",
"H#	c #A96211",
"I#	c #965711",
"J#	c #804911",
"K#	c #4D2C0B",
"                                                                ",
"                                .                               ",
"                          + @ # $ %                             ",
"                    + & * = - ; > , '                           ",
"              + ) ! ~ { ] ^ / ( _ : < [                         ",
"        + } | 1 2 3 4 5 6 7 8 9 0 a b c d                       ",
"    + e f g h i j k l m n o p q r ! $ s t u                     ",
"  + + 8 v w x y z A B C ; D E | F G H I J K L                   ",
"  M + + N O P Q R S ^ T U _ V W X Y # Z `  ...+.                ",
"    + + @.#.$.%.5 &.*.=.-.;.a , * >.,.'.c ).!.~.{.              ",
"    ].+ H ^.5 l ~ n = /.q (._.$ :.<.[.}.|.1.2.3.4.{.            ",
"      5.` J 6.7.8.9.D 0.a.b.c.H I d.e.f.g.h.i.j.k.+ l.          ",
"        {.m.!. .n.o.p.V q.X Y r.s.` t.u.v.w.x.~.y.+ +           ",
"          z.A.B.C.D.E.F., G.>.m.H.c t I.J.^.K.4.+ + + +         ",
"        L.M.N.O.P.Q.R.S.T.U.V.W.X.Y.1.Z.3.`. +.++ + + + +       ",
"    ++@+#+$+%+&+*+=+-+;+>+,+'+)+!+g.~+i...k.{++ + + + + + ]+    ",
"  ^+/+(+(+_+:+<+[+}+|+1+2+3+3+4+5+6+@ x.~.7++ + + + 8+9+0+]+    ",
"  a+b+c+d+e+f+g+h+i+j+k+3+3+l+m+n+J.^.% o++ + + p+q+r+s+t+u+    ",
"  v+w+x+y+z+A+B+C+D+E+F+G+H+I+J+K+L+`.4.+ 2.M+N+O+P+Q+R+        ",
"  S+d+T+U+V+W+X+Y+Z+`+ @.@+@@@#@$@%@. &@*@=@-@;@>@,@            ",
"  '@)@T+!@~@{@]@^@/@(@_@:@<@@@[@}@|@1@2@3@{.4@                  ",
"    5@6@7@8@9@]@^@/@(@0@a@b@c@d@e@f@g@].h@                      ",
"    i@j@k@l@m@n@o@p@q@r@s@t@u@v@w@x@y@                          ",
"    z@A@B@C@D@E@F@G@H@I@J@K@L@M@N@O@                            ",
"  P@Q@R@S@T@-+U@]@V@W@X@Y@Z@`@ #.#+#                            ",
"  @###$#%#&#-+U@]@*#=#i+Y@Z@-#;#>#,#                            ",
"  @#'#)#!#~#{#]#^#/#(#_#:#<#[#}#|#                              ",
"  1#2#:+3#4#5#6#7#8#9#0#a#b#c#d#e#                              ",
"    f#g#h#@@#@i#j#k#l#m#n#o#p#q#r#                              ",
"    s#t#u#v#w#i#j#k#l#m#x#y#z#A#                                ",
"        B#C#D#E#F#G#H#I#J#K#                                    ",
"                                                                "};
