/* XPM */
static char * carro_xpm[] = {
"32 32 500 2",
"  	c None",
". 	c #2F3632",
"+ 	c #163E25",
"@ 	c #215333",
"# 	c #044A1D",
"$ 	c #26693D",
"% 	c #1E6436",
"& 	c #314137",
"* 	c #376547",
"= 	c #176532",
"- 	c #0A792F",
"; 	c #029132",
"> 	c #00A437",
", 	c #00A638",
"' 	c #00A738",
") 	c #223528",
"! 	c #17532C",
"~ 	c #036826",
"{ 	c #019332",
"] 	c #039E38",
"^ 	c #069837",
"/ 	c #049033",
"( 	c #028730",
"_ 	c #029232",
": 	c #00A137",
"< 	c #05A93C",
"[ 	c #1BB04E",
"} 	c #1FB250",
"| 	c #17AF4A",
"1 	c #194529",
"2 	c #036424",
"3 	c #026C26",
"4 	c #034C1C",
"5 	c #17492F",
"6 	c #3B6560",
"7 	c #52848A",
"8 	c #66A0A7",
"9 	c #6EB1BE",
"0 	c #78BCC9",
"a 	c #6BA8B5",
"b 	c #52898B",
"c 	c #32705A",
"d 	c #0B612C",
"e 	c #038F33",
"f 	c #25B455",
"g 	c #5DC781",
"h 	c #085B25",
"i 	c #01551E",
"j 	c #152921",
"k 	c #507A83",
"l 	c #7FC6D7",
"m 	c #8FE5F8",
"n 	c #90E7FC",
"o 	c #92E8FC",
"p 	c #A0EDFD",
"q 	c #A9F1FD",
"r 	c #AFF3FE",
"s 	c #A3EFFD",
"t 	c #8CDCEB",
"u 	c #5B8E97",
"v 	c #156134",
"w 	c #1FAF4F",
"x 	c #076A28",
"y 	c #043213",
"z 	c #5C706F",
"A 	c #BBF1F2",
"B 	c #C5FDFF",
"C 	c #C2FDFF",
"D 	c #BAFAFE",
"E 	c #B7F8FE",
"F 	c #BAF8FE",
"G 	c #BCF9FE",
"H 	c #C8FEFF",
"I 	c #CCFFFF",
"J 	c #C9FEFF",
"K 	c #ACF2FD",
"L 	c #80CAD7",
"M 	c #086D2C",
"N 	c #086B29",
"O 	c #042E13",
"P 	c #718E8E",
"Q 	c #B5FEFE",
"R 	c #A6FFFF",
"S 	c #9DFFFF",
"T 	c #99FFFF",
"U 	c #9BFFFF",
"V 	c #A1FFFF",
"W 	c #AFFFFF",
"X 	c #C1FFFF",
"Y 	c #B6F6FE",
"Z 	c #2F765A",
"` 	c #045F22",
" .	c #023E16",
"..	c #598A87",
"+.	c #9AFFFF",
"@.	c #8BE8E6",
"#.	c #699895",
"$.	c #6E9291",
"%.	c #5F8783",
"&.	c #6CAEAE",
"*.	c #A5FEFE",
"=.	c #B2FFFF",
"-.	c #AAFFFF",
";.	c #BAFFFF",
">.	c #538574",
",.	c #0B4F22",
"'.	c #02591F",
").	c #456F70",
"!.	c #99FEFE",
"~.	c #8EEAEA",
"{.	c #71BBB3",
"].	c #2F443F",
"^.	c #6D726F",
"/.	c #737774",
"(.	c #919291",
"_.	c #767877",
":.	c #639C9C",
"<.	c #ADFFFF",
"[.	c #5C8679",
"}.	c #194A2A",
"|.	c #027C2B",
"1.	c #2E4B49",
"2.	c #96FBF9",
"3.	c #98FDFD",
"4.	c #87DCDE",
"5.	c #473E3A",
"6.	c #B71B1B",
"7.	c #C11B19",
"8.	c #DD2221",
"9.	c #9F1B19",
"0.	c #515553",
"a.	c #6C6E6D",
"b.	c #484D4C",
"c.	c #83D7D7",
"d.	c #4A8777",
"e.	c #0F4321",
"f.	c #027228",
"g.	c #042A11",
"h.	c #459275",
"i.	c #37976C",
"j.	c #308D5D",
"k.	c #218851",
"l.	c #0B6A30",
"m.	c #00581F",
"n.	c #165B21",
"o.	c #185C22",
"p.	c #1E5B21",
"q.	c #0E521E",
"r.	c #044F1D",
"s.	c #0A5624",
"t.	c #09401D",
"u.	c #1D5238",
"v.	c #3E8170",
"w.	c #51867E",
"x.	c #589591",
"y.	c #6BADAA",
"z.	c #7ACDCA",
"A.	c #287851",
"B.	c #30493A",
"C.	c #093819",
"D.	c #15602F",
"E.	c #209648",
"F.	c #27B456",
"G.	c #37BA63",
"H.	c #3CBC67",
"I.	c #47BF70",
"J.	c #51C377",
"K.	c #48C070",
"L.	c #34B960",
"M.	c #0CAB41",
"N.	c #008E31",
"O.	c #044119",
"P.	c #013011",
"Q.	c #009B35",
"R.	c #25352C",
"S.	c #0E5124",
"T.	c #286B3F",
"U.	c #1D6A38",
"V.	c #38B061",
"W.	c #41BD6B",
"X.	c #30B85E",
"Y.	c #2CB65B",
"Z.	c #28B557",
"`.	c #18AF4B",
" +	c #21B252",
".+	c #3DBC68",
"++	c #49C071",
"@+	c #5FC883",
"#+	c #65CA87",
"$+	c #58C57D",
"%+	c #12A744",
"&+	c #014418",
"*+	c #01260E",
"=+	c #007628",
"-+	c #173E24",
";+	c #009232",
">+	c #03762A",
",+	c #01852E",
"'+	c #02782A",
")+	c #006523",
"!+	c #05551F",
"~+	c #004F1D",
"{+	c #02481B",
"]+	c #04491B",
"^+	c #05461A",
"/+	c #03441A",
"(+	c #014C1C",
"_+	c #024D1B",
":+	c #025C21",
"<+	c #016E26",
"[+	c #00882F",
"}+	c #019C36",
"|+	c #03A83A",
"1+	c #10AD45",
"2+	c #29B558",
"3+	c #47B66C",
"4+	c #193A25",
"5+	c #346D48",
"6+	c #1FB050",
"7+	c #045B21",
"8+	c #034D1C",
"9+	c #034D1D",
"0+	c #025E22",
"a+	c #02832D",
"b+	c #009533",
"c+	c #019F36",
"d+	c #00A337",
"e+	c #019E35",
"f+	c #009433",
"g+	c #02812C",
"h+	c #016D26",
"i+	c #025D21",
"j+	c #035620",
"k+	c #035D22",
"l+	c #026925",
"m+	c #022E11",
"n+	c #046C27",
"o+	c #5FC882",
"p+	c #4CC174",
"q+	c #0FAC44",
"r+	c #0EAC43",
"s+	c #202622",
"t+	c #08461B",
"u+	c #081F0C",
"v+	c #105B21",
"w+	c #0E5F22",
"x+	c #006724",
"y+	c #007C2A",
"z+	c #01842D",
"A+	c #01872F",
"B+	c #106A2F",
"C+	c #0E632B",
"D+	c #004D1C",
"E+	c #004C1C",
"F+	c #01501D",
"G+	c #028C30",
"H+	c #03882F",
"I+	c #016524",
"J+	c #006F26",
"K+	c #047A2B",
"L+	c #008930",
"M+	c #009031",
"N+	c #028D31",
"O+	c #043916",
"P+	c #037A2B",
"Q+	c #028D32",
"R+	c #0CAA41",
"S+	c #54C47A",
"T+	c #5EC782",
"U+	c #56C47B",
"V+	c #441817",
"W+	c #EB0100",
"X+	c #BB0101",
"Y+	c #AD0101",
"Z+	c #F00101",
"`+	c #E50000",
" @	c #880402",
".@	c #024A1C",
"+@	c #042910",
"@@	c #0F5F2B",
"#@	c #052A12",
"$@	c #02471A",
"%@	c #11190A",
"&@	c #B10000",
"*@	c #A80201",
"=@	c #930201",
"-@	c #7D0000",
";@	c #7F0302",
">@	c #4B0704",
",@	c #4A1308",
"'@	c #174017",
")@	c #03A63A",
"!@	c #06A93D",
"~@	c #580B0A",
"{@	c #EF0000",
"]@	c #F80101",
"^@	c #940302",
"/@	c #F90100",
"(@	c #FF0000",
"_@	c #53270E",
":@	c #045921",
"<@	c #28663E",
"[@	c #052811",
"}@	c #02792A",
"|@	c #023414",
"1@	c #CD0201",
"2@	c #E20101",
"3@	c #FB0100",
"4@	c #F70101",
"5@	c #B20402",
"6@	c #17521D",
"7@	c #274C35",
"8@	c #006022",
"9@	c #18561F",
"0@	c #194417",
"a@	c #212C10",
"b@	c #243E17",
"c@	c #3F3716",
"d@	c #133E19",
"e@	c #037028",
"f@	c #074D1E",
"g@	c #0D632B",
"h@	c #2F563E",
"i@	c #3C4A42",
"j@	c #043716",
"k@	c #033614",
"l@	c #B40201",
"m@	c #FB0000",
"n@	c #AA0201",
"o@	c #D90201",
"p@	c #FC0000",
"q@	c #D90000",
"r@	c #1D491A",
"s@	c #143520",
"t@	c #027428",
"u@	c #02842E",
"v@	c #017728",
"w@	c #009F36",
"x@	c #009D36",
"y@	c #00A237",
"z@	c #007428",
"A@	c #005D21",
"B@	c #165520",
"C@	c #294A19",
"D@	c #1C220D",
"E@	c #173D17",
"F@	c #293B16",
"G@	c #20481A",
"H@	c #016B25",
"I@	c #164727",
"J@	c #035920",
"K@	c #01250E",
"L@	c #003914",
"M@	c #056525",
"N@	c #029534",
"O@	c #009C36",
"P@	c #026A26",
"Q@	c #02812D",
"R@	c #3A8D57",
"S@	c #01A739",
"T@	c #024017",
"U@	c #011F0B",
"V@	c #001308",
"W@	c #030905",
"X@	c #020302",
"Y@	c #030D06",
"Z@	c #001408",
"`@	c #001C0A",
" #	c #03260E",
".#	c #032D11",
"+#	c #003614",
"@#	c #003A15",
"##	c #004417",
"$#	c #044B1C",
"%#	c #01561F",
"&#	c #005B20",
"*#	c #006522",
"=#	c #026824",
"-#	c #055C23",
";#	c #046D27",
">#	c #027429",
",#	c #01762A",
"'#	c #015F21",
")#	c #023B15",
"!#	c #011B0A",
"~#	c #033E16",
"{#	c #64BB83",
"]#	c #66CA88",
"^#	c #3EBC69",
"/#	c #1CB04E",
"(#	c #00A538",
"_#	c #009835",
":#	c #029333",
"<#	c #02862E",
"[#	c #007B2A",
"}#	c #007629",
"|#	c #036C27",
"1#	c #016322",
"2#	c #005A1F",
"3#	c #00541E",
"4#	c #04471A",
"5#	c #003F15",
"6#	c #003713",
"7#	c #003212",
"8#	c #024719",
"9#	c #017428",
"0#	c #04A83B",
"a#	c #65C486",
"b#	c #64C986",
"c#	c #50C377",
"d#	c #40BD6A",
"e#	c #34B961",
"f#	c #24B355",
"g#	c #20B251",
"h#	c #14AE48",
"i#	c #10AC44",
"j#	c #1CB14E",
"k#	c #30B75D",
"l#	c #35B962",
"m#	c #39BB65",
"n#	c #53C479",
"o#	c #52C379",
"p#	c #239A4C",
"q#	c #3FBD69",
"r#	c #56C57C",
"s#	c #44BE6D",
"t#	c #43BE6C",
"u#	c #38BA64",
"v#	c #3BBB66",
"w#	c #3FBD6A",
"x#	c #4AC172",
"y#	c #59C67E",
"z#	c #63C986",
"A#	c #0A6027",
"B#	c #00A037",
"C#	c #009635",
"D#	c #008B32",
"E#	c #018531",
"F#	c #018030",
"G#	c #027C2F",
"H#	c #03742D",
"I#	c #03782E",
"J#	c #027E2F",
"K#	c #008D33",
"L#	c #009234",
"M#	c #009935",
"N#	c #01A638",
"O#	c #06A93C",
"P#	c #08AA3E",
"Q#	c #46BF6F",
"R#	c #5AC67F",
"S#	c #62C985",
"T#	c #2EB75C",
"U#	c #2A3E31",
"V#	c #026629",
"W#	c #025E28",
"X#	c #02441D",
"Y#	c #032D14",
"Z#	c #021B0C",
"`#	c #020D06",
" $	c #010703",
".$	c #020402",
"+$	c #07130B",
"@$	c #001208",
"#$	c #071B0E",
"$$	c #0C2313",
"%$	c #022912",
"&$	c #0A3319",
"*$	c #013D19",
"=$	c #06471E",
"-$	c #015922",
";$	c #036F29",
">$	c #01802E",
",$	c #029033",
"'$	c #02A839",
")$	c #09AA3F",
"!$	c #07A73D",
"~$	c #1D2C23",
"{$	c #010402",
"]$	c #000000",
"^$	c #010302",
"/$	c #06140B",
"($	c #092111",
"_$	c #043718",
":$	c #04431D",
"<$	c #035523",
"[$	c #026529",
"}$	c #016B2C",
"|$	c #016D2C",
"1$	c #016A2C",
"2$	c #025524",
"3$	c #050605",
"4$	c #03160A",
"5$	c #0B2614",
"6$	c #0C2715",
"7$	c #030704",
"8$	c #010201",
"9$	c #000100",
"0$	c #000101",
"a$	c #040704",
"                                                    . + @ # $ % ",
"                                          & * = - ; > , ' ' ' ' ",
"                                  ) ! ~ { ] ^ / ( _ : ' < [ } | ",
"                              1 2 3 4 5 6 7 8 9 0 a b c d e f g ",
"                            h i j k l m n n n o p q r s t u v w ",
"                          x y z A B C D E F G H I I I I J K L M ",
"                        N O P Q R S T T U V W X I I I I I I Y Z ",
"                      `  ...+.T T T T @.#.$.%.&.*.=.W -.-.;.I >.",
"                    ,.'.).!.T T T ~.{.].^./.(._.:.T T T T T <.[.",
"                  }.|.1.2.T T 3.4.5.6.7.8.9.0.a.b.c.T T T T T d.",
"                e.f.g.h.i.j.k.l.m.m.n.o.p.q.r.s.t.u.v.w.x.y.z.A.",
"            B.C.D.E.F.G.H.I.J.J.J.J.J.K.H.L.} M.' ' ' , N.O.P.Q.",
"      R.S.T.U.V.W.H.X.Y.Z.`.| | | |  +Y..+++@+#+$+.+%+&+*+=+, ' ",
"    -+;+>+,+{ '+)+!+~+{+]+]+^+/+(+_+:+<+[+}+|+1+2+3+4+5+6+' ' ' ",
"    7+8+9+0+3 a+b+c+d+d+' ' , d+d+e+f+g+h+i+j+k+l+m+n+f o+p+q+r+",
"  s+t+u+v+w+x+x+x+y+z+A+B+C+D+E+F+G+H+I+J+K+L+M+N+O+P+Q+R+S+T+U+",
"  V+W+X+Y+Z+`+`+ @.@+@@@          #@$@%@&@*@=@-@;@>@,@'@|.)@!@' ",
"  ~@{@]@^@/@(@(@_@m.:@<@          [@}@|@1@(@(@(@(@2@3@4@5@6@' ' ",
"  7@8@9@0@a@b@c@d@e@f@g@h@      i@j@k@$@l@/@(@m@n@o@(@p@q@r@' ' ",
"  s@t@, u@v@' ' ' ' ' ' ' ' w@x@y@' ' z@A@B@C@D@E@F@F@G@H@d+' ' ",
"I@> J@K@L@M@N@O@, , ' ' ' ' ' ' ' ' ' ' ' ' ' P@' ' ' ' ' ' , Q@",
"R@ +S@u@T@U@V@W@X@Y@Z@`@ #.#+#@###$#%#m.&#*#=#-#;#>#,#;#'#)#!#~#",
"{#]#g ^#/#< , (#y@_#:#<#[#}#|#1#2#3#F+4#5#6#7#7#7#7#7#7#8#9#: 0#",
"a#]#]#]#]#b#c#d#e#f#g#h#i#i#i#i#i#i#i#`.j#f#f#f#k#l#m#m#m#m#n#o#",
"p#q#n#$+r#K.s#t#u#v#G.w#s#s#x#$+y#z#]#]#]#]#]#]#]#]#]#]#]#]#]#z#",
"A#' B#C#D#E#F#G#H#I#J#E#K#L#M#B#N#O#P#`.j#Y.e#W.Q#c#R#g S#]#z#T#",
"U#V#W#X#Y#Z#`# $.$.$+$@$#$$$%$&$*$=$-$;$>$,$M#: y@(#' '$!@)$!$: ",
"  ~${$]$]$]$]$]$]$^$                      /$($Y#_$:$<$[$}$|$1$2$",
"    3$]$]$]$]$]$]$                                      4$5$6$7$",
"      ]$]$]$]$]$X@                                              ",
"        8$9$0$a$                                                ",
"                                                                "};
