/* XPM */
static char * cheque_xpm[] = {
"32 32 128 2",
"  	c None",
". 	c #5EB5D5",
"+ 	c #CCBEA4",
"@ 	c #6ABBD9",
"# 	c #977C62",
"$ 	c #574433",
"% 	c #1793C1",
"& 	c #0060E9",
"* 	c #9A8066",
"= 	c #483A2D",
"- 	c #BAB6A4",
"; 	c #E8E1C8",
"> 	c #81674C",
", 	c #C7C9B2",
"' 	c #393128",
") 	c #7E644B",
"! 	c #ADA998",
"~ 	c #D6D3BC",
"{ 	c #8B7257",
"] 	c #FFD5A0",
"^ 	c #624F3B",
"/ 	c #6D5941",
"( 	c #51504C",
"_ 	c #866B51",
": 	c #1586B2",
"< 	c #92948B",
"[ 	c #298DB5",
"} 	c #BFAA76",
"| 	c #90785C",
"1 	c #DBDAC2",
"2 	c #CCE8F2",
"3 	c #26A2FE",
"4 	c #B7A470",
"5 	c #29110D",
"6 	c #C8B27D",
"7 	c #94CEE4",
"8 	c #FEF6DA",
"9 	c #2F241A",
"0 	c #FDFDFD",
"a 	c #44B6F7",
"b 	c #C5C3AE",
"c 	c #A59166",
"d 	c #F6C695",
"e 	c #299BC5",
"f 	c #F0E7CC",
"g 	c #123646",
"h 	c #E8E8E8",
"i 	c #127CA8",
"j 	c #4094B8",
"k 	c #156E94",
"l 	c #757369",
"m 	c #787772",
"n 	c #7D684C",
"o 	c #98865C",
"p 	c #B99A76",
"q 	c #3E484B",
"r 	c #71A4B2",
"s 	c #040101",
"t 	c #CFC8B1",
"u 	c #1D2930",
"v 	c #055675",
"w 	c #838279",
"x 	c #0D84FE",
"y 	c #A58565",
"z 	c #120201",
"A 	c #0351BC",
"B 	c #69787F",
"C 	c #3D778B",
"D 	c #6B6A68",
"E 	c #E4DAC2",
"F 	c #F5EDD1",
"G 	c #708E8E",
"H 	c #C79C75",
"I 	c #F6F6F6",
"J 	c #BDC0AA",
"K 	c #98A9A9",
"L 	c #BA9354",
"M 	c #AE9B6B",
"N 	c #726D5F",
"O 	c #8EA399",
"P 	c #0E475B",
"Q 	c #3E6975",
"R 	c #606059",
"S 	c #0E599A",
"T 	c #E3F2F8",
"U 	c #1F1A16",
"V 	c #033F92",
"W 	c #DDDDDC",
"X 	c #B28F6C",
"Y 	c #516375",
"Z 	c #CDCFB7",
"` 	c #627072",
" .	c #031E27",
"..	c #F6FAFB",
"+.	c #D3A97C",
"@.	c #908C82",
"#.	c #C6C6C7",
"$.	c #180E0A",
"%.	c #9CBDCA",
"&.	c #796048",
"*.	c #755D44",
"=.	c #DFE0C6",
"-.	c #9F9D8D",
";.	c #3FA7D0",
">.	c #726247",
",.	c #080C0C",
"'.	c #815F42",
").	c #E7E8CE",
"!.	c #F3F2F1",
"~.	c #AAD8EA",
"{.	c #7B6E4D",
"].	c #E1BB6A",
"^.	c #73C0DB",
"/.	c #2C80A2",
"(.	c #355D8D",
"_.	c #83C7E0",
":.	c #758179",
"<.	c #BABCBC",
"[.	c #85714E",
"}.	c #C2E3F0",
"|.	c #9F754C",
"1.	c #48889E",
"2.	c #6197A8",
"3.	c #FFD270",
"4.	c #0F607E",
"5.	c #2B94E5",
"6.	c #2A6074",
"7.	c #068EC0",
"                                                                ",
"                                                                ",
"                                                                ",
"                                                                ",
"                                                        P g  .  ",
"                                    g  .,.$.' $ ^ / n _ _ *.$.  ",
"                        P  . .s $.9 $ ^ *.n _ { { { { { > _ '   ",
"          !.     . .s 9 = $ ^ *._ _ { { | | # * * * * * { _ $ g ",
"    s _ X H d d H # > > { | * * * * * * * * * * | | _ ) n _ _ ,.",
"    U H ] ] d X *.&.> | * * * * * * * # # { { _ n > > _ ) $ / s ",
"    0 ^ ] X &.> # * # * * { { _ n ) ) ) ) ) n > _ > ' 5 z z ^ s ",
"      $ +.&._ # * # * # _ ) n ) ) ) n n > ) _ *.= 5 z z z z ^ s ",
"      ' y &.# * * # { > ) ) ) > > n ) > > _ $ 5 z z z z z $./ s ",
"      z ) > | _ ) ) ) ) n n > ) _ _ $ 9 5 z z z 5 9 = $ $ $ U ' ",
"      z > ) ) ) ) ) n n n _ _ > = 5 z z z 5 = ^ ^ $ ' U s s ,.w ",
"      z > > > ) ) > ) ^ ' 5 9 = ^ ^ = 9 U s s s s $.m ! =.Z Z J ",
"      z n > ) ) &.&.^ = $ ^ $ ' $.z s s s s 9 R < Z =.1 b J Z b ",
"      z > > _ > / $ = 9 U s s s z z s $.' w b ).=.~ , Z Z b - t ",
"      s U z s z z z z s U ( l w , ).=.; Z J b ~ b b t E F 8 ~ N ",
"    0 z z z $.s s $.q < J 1 ).=.1 - b - J , J ~ E ; F 1 m ( ' = ",
"    W ^ &.$ s U D ( $.U w =.=.1 1 Z ~ 1 ; F b ( ' = ^ | 4 M } } ",
"    0 @.' _ y ^ s q m = U l ! ~ =.F ; t -.$ 9 / [.# 6 6 4 c o >.",
"        I w ^ X { 9 s Y ( u = R - -.= ' ' ^ 4 } 6 6 c {.*./ = ' ",
"                  = = X = u 9 s 6 6 6 6 c {.{.$ = = $.u /.    K ",
"                      9 p = ,.s = ' / ^ / $ 9 g P       %.#.<   ",
"                          ,.9 9 9 g           r ! H D O 5.R A A ",
"                                            ! |.{ G a x & u     ",
"                                          '.a x & A             ",
"                                          Y & V                 ",
"                                          V S                   ",
"                                                                ",
"                                                                "};
