/* XPM */
static char * compras_xpm[] = {
"32 32 346 2",
"  	c None",
". 	c #5F5E5E",
"+ 	c #5A5A5A",
"@ 	c #808282",
"# 	c #79838A",
"$ 	c #989898",
"% 	c #9F9F9F",
"& 	c #727272",
"* 	c #616161",
"= 	c #636363",
"- 	c #AFAFAF",
"; 	c #FFFFFF",
"> 	c #D3E5ED",
", 	c #8B9CA6",
"' 	c #F3F2F1",
") 	c #F1EFEE",
"! 	c #7E8081",
"~ 	c #5E5956",
"{ 	c #7D7D7D",
"] 	c #CFCFCF",
"^ 	c #FAFAFA",
"/ 	c #F4F4F4",
"( 	c #9CB2C0",
"_ 	c #798083",
": 	c #849097",
"< 	c #758087",
"[ 	c #9F8D66",
"} 	c #E8DB9F",
"| 	c #D5C08D",
"1 	c #B5976C",
"2 	c #8D6C4B",
"3 	c #646464",
"4 	c #B0B0B0",
"5 	c #F2F2F2",
"6 	c #EDE9E7",
"7 	c #B9C8D3",
"8 	c #94B1C5",
"9 	c #BCCDD9",
"0 	c #9C8B76",
"a 	c #E2C589",
"b 	c #F7D194",
"c 	c #FDD99D",
"d 	c #FFECB1",
"e 	c #FFE0A9",
"f 	c #ECBA8C",
"g 	c #B18860",
"h 	c #775639",
"i 	c #707070",
"j 	c #CDCDCD",
"k 	c #E8E8E8",
"l 	c #FDFDFD",
"m 	c #F7F8F8",
"n 	c #E8E6E3",
"o 	c #997A5A",
"p 	c #DBA16C",
"q 	c #D99D68",
"r 	c #DFA26F",
"s 	c #ECB37E",
"t 	c #F9C48E",
"u 	c #FFCD98",
"v 	c #FFCB96",
"w 	c #DCA879",
"x 	c #795839",
"y 	c #745638",
"z 	c #816444",
"A 	c #828282",
"B 	c #E6E6E6",
"C 	c #EDEDED",
"D 	c #EFEFEF",
"E 	c #E0E0E0",
"F 	c #F8F8F8",
"G 	c #EFEFEE",
"H 	c #AF9D8B",
"I 	c #C49262",
"J 	c #FAC790",
"K 	c #DCAA7C",
"L 	c #C89668",
"M 	c #ECB27C",
"N 	c #EDB580",
"O 	c #EFB782",
"P 	c #F3B984",
"Q 	c #DFB280",
"R 	c #E2C894",
"S 	c #FAE3A9",
"T 	c #FFECAF",
"U 	c #5E5E5E",
"V 	c #888888",
"W 	c #FCFCFC",
"X 	c #FEFEFE",
"Y 	c #F1F1F1",
"Z 	c #F3F3F3",
"` 	c #E2E2E2",
" .	c #CAC1BA",
"..	c #B99068",
"+.	c #FFDEA9",
"@.	c #E9B788",
"#.	c #8B6E54",
"$.	c #BA9068",
"%.	c #E8B17C",
"&.	c #ECB381",
"*.	c #F2B987",
"=.	c #FCC893",
"-.	c #FFE7AF",
";.	c #FFE8AF",
">.	c #FFE7AD",
",.	c #6E6E6E",
"'.	c #ECECEC",
").	c #E9E9E9",
"!.	c #E5E5E5",
"~.	c #F7F7F7",
"{.	c #F3F4F4",
"].	c #C8C6C1",
"^.	c #B28A63",
"/.	c #FFCE96",
"(.	c #C69568",
"_.	c #BFB3A7",
":.	c #D2CDC7",
"<.	c #8C735A",
"[.	c #DCB783",
"}.	c #FFDCA5",
"|.	c #FAC794",
"1.	c #FFD29F",
"2.	c #FFD6A2",
"3.	c #909090",
"4.	c #EEEEEE",
"5.	c #DEDEDE",
"6.	c #E7E7E7",
"7.	c #F3F3F4",
"8.	c #D6D5D3",
"9.	c #947251",
"0.	c #BC8D63",
"a.	c #A58C76",
"b.	c #DFDFDE",
"c.	c #B2B5B6",
"d.	c #BEAA8A",
"e.	c #FFE6AD",
"f.	c #FFCF9C",
"g.	c #FAC490",
"h.	c #FFC896",
"i.	c #FFCD99",
"j.	c #D6D6D6",
"k.	c #F1EFEF",
"l.	c #C0B5AA",
"m.	c #C4BCB3",
"n.	c #E5E5E6",
"o.	c #E2E3E3",
"p.	c #F9F8F8",
"q.	c #E9ECED",
"r.	c #8E8A84",
"s.	c #E5B284",
"t.	c #F9C08B",
"u.	c #E6B07D",
"v.	c #D19E70",
"w.	c #AB825A",
"x.	c #9D9D9D",
"y.	c #DCDCDC",
"z.	c #F9F9F9",
"A.	c #E3E3E3",
"B.	c #DBDBDB",
"C.	c #E5E7E8",
"D.	c #DBDEDF",
"E.	c #BCBEC1",
"F.	c #95816F",
"G.	c #B08056",
"H.	c #775435",
"I.	c #6C4B2F",
"J.	c #606060",
"K.	c #ABABAB",
"L.	c #DFDFDF",
"M.	c #969798",
"N.	c #5E5447",
"O.	c #636364",
"P.	c #C0C0C1",
"Q.	c #C5C5C5",
"R.	c #7A7A7A",
"S.	c #696C6C",
"T.	c #C8C8CA",
"U.	c #D5D5D5",
"V.	c #DADADA",
"W.	c #CECECE",
"X.	c #5F5F5F",
"Y.	c #704E30",
"Z.	c #765433",
"`.	c #75797D",
" +	c #D3D3D3",
".+	c #D9D9D9",
"++	c #B9B9B9",
"@+	c #6D6D6D",
"#+	c #C69569",
"$+	c #BC8D61",
"%+	c #949596",
"&+	c #E2E2E3",
"*+	c #D1D1D1",
"=+	c #D4D4D4",
"-+	c #979797",
";+	c #8B6542",
">+	c #FFDBA2",
",+	c #B98C62",
"'+	c #7C5736",
")+	c #936841",
"!+	c #817262",
"~+	c #C4C4C4",
"{+	c #5B5B5B",
"]+	c #735031",
"^+	c #A2764E",
"/+	c #DCA670",
"(+	c #DFB17D",
"_+	c #886240",
":+	c #B18054",
"<+	c #DFA26B",
"[+	c #A17753",
"}+	c #7A7A79",
"|+	c #D2D3D3",
"1+	c #D2D2D2",
"2+	c #AFAFB0",
"3+	c #666668",
"4+	c #775537",
"5+	c #D9AD7A",
"6+	c #F1B780",
"7+	c #B58458",
"8+	c #A17751",
"9+	c #D4A274",
"0+	c #946C47",
"a+	c #87603D",
"b+	c #A97A4E",
"c+	c #8D745B",
"d+	c #9EA0A2",
"e+	c #A0A2A6",
"f+	c #615F5D",
"g+	c #A27E56",
"h+	c #FFFABC",
"i+	c #FFE5A8",
"j+	c #9E754F",
"k+	c #BD8D62",
"l+	c #FFCF99",
"m+	c #EFB987",
"n+	c #A67C53",
"o+	c #A77A4F",
"p+	c #966E4A",
"q+	c #7E766F",
"r+	c #BFC0C1",
"s+	c #CFD1D1",
"t+	c #9FA2A6",
"u+	c #807364",
"v+	c #7C5B3C",
"w+	c #BA9368",
"x+	c #FFF1B6",
"y+	c #FFEEB3",
"z+	c #D5AD7E",
"A+	c #A87C53",
"B+	c #F7BE8A",
"C+	c #F7BF8C",
"D+	c #9F754F",
"E+	c #D29966",
"F+	c #A28161",
"G+	c #8E9295",
"H+	c #A0A5A7",
"I+	c #8B7A69",
"J+	c #BF8C5D",
"K+	c #BA9066",
"L+	c #FFE5AF",
"M+	c #FFDCA8",
"N+	c #FFD4A0",
"O+	c #AB815A",
"P+	c #E0A977",
"Q+	c #F9C590",
"R+	c #F2BC8A",
"S+	c #A97E54",
"T+	c #966D49",
"U+	c #7C7268",
"V+	c #927F6E",
"W+	c #BE8C5D",
"X+	c #7A5636",
"Y+	c #8D6947",
"Z+	c #FFD19D",
"`+	c #FFD19F",
" @	c #FFD19E",
".@	c #CE9E73",
"+@	c #E2AD7C",
"@@	c #EFB983",
"#@	c #FCCD97",
"$@	c #FFDCA9",
"%@	c #DEAB7D",
"&@	c #DEA774",
"*@	c #D9A879",
"=@	c #B0835A",
"-@	c #725031",
";@	c #63462A",
">@	c #C6986F",
",@	c #FFC894",
"'@	c #F2BA88",
")@	c #F1BC89",
"!@	c #FDD59E",
"~@	c #FFE8AD",
"{@	c #FFE7AB",
"]@	c #FFE5AB",
"^@	c #FFDBA7",
"/@	c #F9C08C",
"(@	c #BA8A5F",
"_@	c #684A2D",
":@	c #7A593A",
"<@	c #E6B587",
"[@	c #FFCB97",
"}@	c #F4BD89",
"|@	c #FECF98",
"1@	c #FFE9B0",
"2@	c #FFE5AD",
"3@	c #FFE7B0",
"4@	c #DAB07F",
"5@	c #6C4D30",
"6@	c #755639",
"7@	c #E6B98B",
"8@	c #FFD9A6",
"9@	c #FFCF9E",
"0@	c #FFCE9D",
"a@	c #FFD29E",
"b@	c #FFD5A1",
"c@	c #ECBA89",
"d@	c #805E3F",
"e@	c #745436",
"f@	c #E2BD8C",
"g@	c #FFD6A5",
"h@	c #FFD4A2",
"i@	c #FFD2A0",
"j@	c #FFD1A0",
"k@	c #FFCF9D",
"l@	c #EFBA89",
"m@	c #EDB784",
"n@	c #CA9C6F",
"o@	c #7E5B3B",
"p@	c #745537",
"q@	c #DCBE8D",
"r@	c #FFEFB6",
"s@	c #FFE3AA",
"t@	c #FFDEA7",
"u@	c #FFDAA6",
"v@	c #C1976E",
"w@	c #6F4F30",
"x@	c #725133",
"y@	c #C1A877",
"z@	c #FFF9BD",
"A@	c #FFECB0",
"B@	c #FFE3AB",
"C@	c #FFE6AB",
"D@	c #D9B183",
"E@	c #6B4C2F",
"                                                                ",
"                              .                                 ",
"                          + @ # $ % & *                         ",
"                        = - ; > , ' ) ! ~                       ",
"                    + { ] ^ ; / ( _ : < [ } | 1 2               ",
"                  3 4 5 ; ; / 6 7 8 9 0 a b c d e f g h         ",
"                i j 5 / ^ k ^ l m ; n o p q r s t u v w x   y z ",
"            + A B C D ; 5 E ^ F G ; ; H I J K L M N O P Q R S T ",
"          U V k ; ; W X ; Y l Z ` 5 ;  ...+.@.#.$.%.&.*.=.-.;.>.",
"          ,.E '.X 5 ).!.F D ^ ~.!.~.{.].^./.(._.:.<.[.}.|.1.2.2.",
"            3.~.; C ` 4.D 5.6.W Z W 7.8.9.0.a.b.; c.d.e.f.g.h.i.",
"              3.Y ~.D ~.F ` k '.j.` ).k.l.m.n.o.p.q.r.s.t.u.v.w.",
"                x.W ).y.4.~.z.A.!.B.` k C.D.7.'.~.D E.F.G.H.I.  ",
"                J.K.` L.B 4.A.).!.` Y k y.y.k y.5.4.F M.N.      ",
"                  O.P.).).B.j.y.C !.5.).6.A.6.j.E Y Q.R.        ",
"                    S.T.B ` 5.E k U.j.V.V.V.6.!.W.3.X.          ",
"                Y.Z.  `.] !.L.` A.j.L.E  +.+A.++@+              ",
"                #+$+    %+&+U.*+.+L.B.y.5.=+-+U                 ",
"              ;+>+,+'+)+!+E.U.*+=+.+] V.~+{ {+                  ",
"          ]+^+/+(+_+:+<+[+}+|+1+=+j =+2+3+                      ",
"        4+5+6+7+8+9+0+a+b+c+d+ +*+=+e+f+                        ",
"        g+h+i+j+k+l+m+n+o+p+q+r+s+t+u+v+                        ",
"        w+x+y+z+A+B+1.C+D+E+F+G+H+I+J+'+                        ",
"        K+L+M+N+O+P+Q+2.R+S+T+U+V+W+X+                          ",
"        Y+Z+`+ @.@+@@@#@$@%@&@*@=@-@                            ",
"        ;@>@,@'@)@!@~@{@]@^@/@(@_@                              ",
"        :@<@[@}@|@1@2@e ^@3@4@5@                                ",
"      6@7@8@9@0@a@2.b@ @ @c@d@                                  ",
"    e@f@L+g@h@i@j@k@l@m@n@o@                                    ",
"  p@q@r@s@e t@u@M+v@w@x@_@                                      ",
"  y@z@A@;.e.B@C@D@E@                                            ",
"                                                                "};
