/* XPM */
static char * confirma_xpm[] = {
"60 60 501 2",
"  	c None",
". 	c #63573B",
"+ 	c #786947",
"@ 	c #86744E",
"# 	c #988358",
"$ 	c #9C865A",
"% 	c #9C875B",
"& 	c #8E7B53",
"* 	c #706242",
"= 	c #403C28",
"- 	c #6E6545",
"; 	c #6E6343",
"> 	c #81724D",
", 	c #9A855A",
"' 	c #AE9564",
") 	c #BEA16C",
"! 	c #CDAB72",
"~ 	c #D7B377",
"{ 	c #D9B578",
"] 	c #D9B679",
"^ 	c #CAAA72",
"/ 	c #B49967",
"( 	c #9A8559",
"_ 	c #796947",
": 	c #594F36",
"< 	c #5D563A",
"[ 	c #95885D",
"} 	c #D1BB7F",
"| 	c #EDCF8C",
"1 	c #FAD68F",
"2 	c #F9D38C",
"3 	c #F9CF8A",
"4 	c #F8CC87",
"5 	c #F9C883",
"6 	c #F9C682",
"7 	c #F9C481",
"8 	c #F9C884",
"9 	c #FACD88",
"0 	c #E0BB7C",
"a 	c #B39765",
"b 	c #65563B",
"c 	c #575339",
"d 	c #A9A06E",
"e 	c #CFBF82",
"f 	c #E6CE8C",
"g 	c #F1D28E",
"h 	c #F6D18C",
"i 	c #F8CF89",
"j 	c #F8D08A",
"k 	c #FACC87",
"l 	c #FBC17F",
"m 	c #FCBC7C",
"n 	c #FDB778",
"o 	c #FEAC6E",
"p 	c #FEA66A",
"q 	c #FEA368",
"r 	c #FDA76B",
"s 	c #F8AB6E",
"t 	c #EEAF73",
"u 	c #DEB579",
"v 	c #947F56",
"w 	c #433D2A",
"x 	c #676445",
"y 	c #ABA471",
"z 	c #DFD08F",
"A 	c #F3DC96",
"B 	c #FADC95",
"C 	c #FADA93",
"D 	c #FAD18C",
"E 	c #FBC582",
"F 	c #FBB878",
"G 	c #FCAC6E",
"H 	c #FDA266",
"I 	c #FD9C62",
"J 	c #FE9960",
"K 	c #FF965D",
"L 	c #FF8F57",
"M 	c #FF8B54",
"N 	c #FF8953",
"O 	c #FE9058",
"P 	c #FE965D",
"Q 	c #FEA267",
"R 	c #D68F5C",
"S 	c #996C46",
"T 	c #443624",
"U 	c #686748",
"V 	c #BBB67E",
"W 	c #FDF1A6",
"X 	c #FBE79E",
"Y 	c #FADF97",
"Z 	c #FAD790",
"` 	c #FBD28C",
" .	c #FCC482",
"..	c #FEB274",
"+.	c #FF9A60",
"@.	c #FF8650",
"#.	c #FF7845",
"$.	c #FF8751",
"%.	c #E78C58",
"&.	c #8D6441",
"*.	c #4F4F33",
"=.	c #686744",
"-.	c #CBC98A",
";.	c #F0E8A0",
">.	c #FCECA3",
",.	c #FBE49C",
"'.	c #FCDD96",
").	c #FDCE8B",
"!.	c #FEA76B",
"~.	c #FE9159",
"{.	c #FF844E",
"].	c #FF7F4A",
"^.	c #FF7B47",
"/.	c #F87E4A",
"(.	c #DD7D4D",
"_.	c #72452B",
":.	c #7B7A4F",
"<.	c #B5B477",
"[.	c #F0ECA3",
"}.	c #FDF2A8",
"|.	c #FCE8A0",
"1.	c #FCDB95",
"2.	c #FDC281",
"3.	c #FEA56A",
"4.	c #FF7E4A",
"5.	c #FE7946",
"6.	c #935031",
"7.	c #94935F",
"8.	c #F4F2A0",
"9.	c #FCF6AA",
"0.	c #FDF0A6",
"a.	c #FDE29B",
"b.	c #FEC785",
"c.	c #FF9F65",
"d.	c #FF7E49",
"e.	c #FF7946",
"f.	c #AB5733",
"g.	c #767645",
"h.	c #C3C27B",
"i.	c #FCFAA7",
"j.	c #FDF7AA",
"k.	c #FDEDA4",
"l.	c #FED48F",
"m.	c #FF804B",
"n.	c #BB5933",
"o.	c #773B22",
"p.	c #AEAC63",
"q.	c #E7E58F",
"r.	c #FFFCA9",
"s.	c #FEF6AA",
"t.	c #FED590",
"u.	c #FFAB6E",
"v.	c #FF824D",
"w.	c #E76D3F",
"x.	c #C85E36",
"y.	c #AE522F",
"z.	c #A2492A",
"A.	c #AA482A",
"B.	c #DC5B36",
"C.	c #F36B3E",
"D.	c #FD7744",
"E.	c #C35C34",
"F.	c #7B3A21",
"G.	c #414023",
"H.	c #D9D67A",
"I.	c #FFFD9C",
"J.	c #FFFBA7",
"K.	c #FEEDA3",
"L.	c #FFB879",
"M.	c #FF834E",
"N.	c #FF7A47",
"O.	c #FB7644",
"P.	c #E96E3F",
"Q.	c #B45531",
"R.	c #7D3B22",
"S.	c #B63E26",
"T.	c #E46039",
"U.	c #F97846",
"V.	c #FE7845",
"W.	c #CA5F36",
"X.	c #7C3A21",
"Y.	c #454422",
"Z.	c #646234",
"`.	c #E0DD7C",
" +	c #FFFD9B",
".+	c #FFF4A1",
"++	c #FFCE89",
"@+	c #FFA065",
"#+	c #904426",
"$+	c #AD3B25",
"%+	c #DA643F",
"&+	c #F08150",
"*+	c #FC7A47",
"=+	c #D46439",
"-+	c #8D4226",
";+	c #676531",
">+	c #807F41",
",+	c #E6E37D",
"'+	c #FFFD99",
")+	c #FFEE9B",
"!+	c #FFAE6E",
"~+	c #DF693C",
"{+	c #A74F2D",
"]+	c #6B291A",
"^+	c #B84B2F",
"/+	c #DB774D",
"(+	c #EE9560",
"_+	c #FC7E4A",
":+	c #CB6037",
"<+	c #7E3B22",
"[+	c #767437",
"}+	c #9D9B4C",
"|+	c #EBE87D",
"1+	c #FFFA96",
"2+	c #FFE493",
"3+	c #FF9359",
"4+	c #FF7B48",
"5+	c #B75631",
"6+	c #5F2D19",
"7+	c #9B482D",
"8+	c #C9623E",
"9+	c #E18D5C",
"0+	c #F0A86F",
"a+	c #FC824D",
"b+	c #BC5933",
"c+	c #68311C",
"d+	c #62602B",
"e+	c #C1BD58",
"f+	c #F3EF7C",
"g+	c #FFEE8C",
"h+	c #FFD085",
"i+	c #FF8B53",
"j+	c #974729",
"k+	c #78432A",
"l+	c #D07348",
"m+	c #DC7D4F",
"n+	c #E99B64",
"o+	c #F5AB6F",
"p+	c #FD824D",
"q+	c #B25430",
"r+	c #612E1A",
"s+	c #5C5A27",
"t+	c #C3BF56",
"u+	c #F3EF78",
"v+	c #FFE381",
"w+	c #FFBD77",
"x+	c #FF864F",
"y+	c #FC7744",
"z+	c #F27241",
"A+	c #7F3C22",
"B+	c #7D5536",
"C+	c #B5754A",
"D+	c #E6915C",
"E+	c #E89961",
"F+	c #F1A86D",
"G+	c #FAAC6F",
"H+	c #FE824D",
"I+	c #FE7745",
"J+	c #F87543",
"K+	c #984729",
"L+	c #514F21",
"M+	c #A5A147",
"N+	c #E7E36E",
"O+	c #FBD676",
"P+	c #FFAE6C",
"Q+	c #FF834D",
"R+	c #FA7644",
"S+	c #ED7040",
"T+	c #D16238",
"U+	c #65301B",
"V+	c #483723",
"W+	c #654B30",
"X+	c #CA905B",
"Y+	c #EAA468",
"Z+	c #F0AA6C",
"`+	c #F2B373",
" @	c #F8B172",
".@	c #FEA469",
"+@	c #FF814C",
"@@	c #F97543",
"#@	c #E26A3D",
"$@	c #75371F",
"%@	c #484620",
"&@	c #BAB756",
"*@	c #EBC46C",
"=@	c #FFAA6D",
"-@	c #E46C3E",
";@	c #BB5832",
">@	c #833E23",
",@	c #826642",
"'@	c #CFA168",
")@	c #EBB473",
"!@	c #F3B876",
"~@	c #F5BC7A",
"{@	c #F9CB87",
"]@	c #ED6F40",
"^@	c #A44D2C",
"/@	c #67652F",
"(@	c #A47C46",
"_@	c #D38353",
":@	c #C3623A",
"<@	c #AF532F",
"[@	c #9A492A",
"}@	c #853F24",
"|@	c #70351E",
"1@	c #69593B",
"2@	c #B69663",
"3@	c #F1C380",
"4@	c #F6C581",
"5@	c #F8CA85",
"6@	c #FACB86",
"7@	c #FCB878",
"8@	c #FE985E",
"9@	c #F37242",
"0@	c #CB5F37",
"a@	c #8F4F30",
"b@	c #834025",
"c@	c #5F2D1A",
"d@	c #48412C",
"e@	c #B69F6C",
"f@	c #E5C584",
"g@	c #F8D28C",
"h@	c #F9D28C",
"i@	c #FBD38E",
"j@	c #FDC986",
"k@	c #FF995F",
"l@	c #D56439",
"m@	c #964629",
"n@	c #504A33",
"o@	c #AEA16E",
"p@	c #E5CF8E",
"q@	c #F6DC96",
"r@	c #FADE97",
"s@	c #FCE29B",
"t@	c #FDC180",
"u@	c #8B4125",
"v@	c #86825A",
"w@	c #E3D896",
"x@	c #F7E8A0",
"y@	c #FCE9A0",
"z@	c #FCDF98",
"A@	c #FEC382",
"B@	c #FEA166",
"C@	c #E46B3D",
"D@	c #9A4829",
"E@	c #602D19",
"F@	c #696946",
"G@	c #B5B37A",
"H@	c #FEF9AB",
"I@	c #FDF6AA",
"J@	c #FDEBA2",
"K@	c #FED38F",
"L@	c #FF9B61",
"M@	c #E66C3E",
"N@	c #B85631",
"O@	c #8B8A55",
"P@	c #D0CF84",
"Q@	c #FFFDA7",
"R@	c #FFFCAB",
"S@	c #FFD992",
"T@	c #FFAC6F",
"U@	c #F47242",
"V@	c #A04B2B",
"W@	c #A6A45C",
"X@	c #E3E184",
"Y@	c #FFFA99",
"Z@	c #FFF09C",
"`@	c #FFBF7B",
" #	c #FF8D56",
".#	c #FF7C48",
"+#	c #EC6F40",
"@#	c #A24C2B",
"##	c #6F341D",
"$#	c #BEBB5F",
"%#	c #F2EE7E",
"&#	c #FFF589",
"*#	c #FFDA88",
"=#	c #FFA666",
"-#	c #F67442",
";#	c #D0CC5C",
">#	c #FCF874",
",#	c #FFEE78",
"'#	c #FFBE74",
")#	c #FF955C",
"!#	c #D06238",
"~#	c #884024",
"{#	c #D4D055",
"]#	c #FFFA6C",
"^#	c #FFEB71",
"/#	c #FFB069",
"(#	c #B35430",
"_#	c #5E2C19",
":#	c #D2CD4E",
"<#	c #FEF867",
"[#	c #FFE96D",
"}#	c #FFA55F",
"|#	c #C9C44A",
"1#	c #F8F366",
"2#	c #FFE56C",
"3#	c #FF9250",
"4#	c #827F30",
"5#	c #C3BF52",
"6#	c #F8DE69",
"7#	c #FE8C4C",
"8#	c #EF7141",
"9#	c #DA673B",
"0#	c #C45D35",
"a#	c #602D1A",
"b#	c #807D3A",
"c#	c #D3BB59",
"d#	c #E57D44",
"e#	c #DE683C",
"f#	c #D8653A",
"g#	c #BE5933",
"h#	c #9C4929",
"i#	c #74371F",
"j#	c #464324",
"k#	c #5B4D25",
"l#	c #894727",
"m#	c #7A3A21",
"n#	c #898159",
"o#	c #857B51",
"p#	c #715F3B",
"q#	c #815736",
"r#	c #835738",
"s#	c #81593A",
"t#	c #7F5336",
"u#	c #865235",
"v#	c #7D4A2F",
"w#	c #48482E",
"x#	c #706E48",
"y#	c #E1D794",
"z#	c #DBCA8A",
"A#	c #B49B68",
"B#	c #A28356",
"C#	c #B5885A",
"D#	c #D39462",
"E#	c #ED9863",
"F#	c #F5955F",
"G#	c #E18554",
"H#	c #8E5B3A",
"I#	c #5D5C35",
"J#	c #B8B56E",
"K#	c #F0EB9D",
"L#	c #F6E89E",
"M#	c #EDD390",
"N#	c #EAC081",
"O#	c #EFA066",
"P#	c #F6834F",
"Q#	c #FB804C",
"R#	c #FD7E4A",
"S#	c #F97B48",
"T#	c #E87243",
"U#	c #934729",
"V#	c #6F6E38",
"W#	c #E4E179",
"X#	c #F9F69A",
"Y#	c #FEF09F",
"Z#	c #FDD994",
"`#	c #FEAD70",
" $	c #FE8F57",
".$	c #7A7836",
"+$	c #F6F274",
"@$	c #FDFA8F",
"#$	c #FFEB94",
"$$	c #FEC986",
"%$	c #FF8852",
"&$	c #9F4B2A",
"*$	c #656228",
"=$	c #D3CE59",
"-$	c #F6F27C",
";$	c #FFD47A",
">$	c #FFA469",
",$	c #4F4D1E",
"'$	c #8C8939",
")$	c #E2DE6B",
"!$	c #FBC86D",
"~$	c #FF975E",
"{$	c #D7653A",
"]$	c #9F4B2B",
"^$	c #504E21",
"/$	c #BFBC56",
"($	c #EAB560",
"_$	c #FD915A",
":$	c #FF7D49",
"<$	c #C25B34",
"[$	c #874025",
"}$	c #75722F",
"|$	c #B48043",
"1$	c #F48854",
"2$	c #FD7B48",
"3$	c #7F542C",
"4$	c #A05634",
"5$	c #E66E40",
"6$	c #D8663A",
"7$	c #9E4A2A",
"8$	c #652F1B",
"9$	c #B45430",
"0$	c #DD683C",
"a$	c #C45C35",
"b$	c #9B482A",
"                                                                                                                        ",
"                                                                                                                        ",
"                                                                                                                        ",
"                                                                                                                        ",
"                                                                                                                        ",
"                                                                                                                        ",
"                                                                                                                        ",
"                                                                                                                        ",
"                                                          . + @ # $ $ % & *                                             ",
"                                                = - ; > , ' ) ! ~ { { ] ^ / ( _ :                                       ",
"                                                < [ } | 1 2 3 4 5 6 6 7 6 8 9 0 a b                                     ",
"                                            c d e f g h i j 3 k l m n o p q r s t u v w                                 ",
"                                          x y z A B C D E F G H I J K L M N M O P Q R S T                               ",
"                                        U V W X Y Z `  ...+.@.#.#.#.#.#.#.#.#.#.#.#.$.%.&.                              ",
"                                    *.=.-.;.>.,.'.).!.~.{.].^.#.#.#.#.#.#.#.#.#.#.#.^./.(._.                            ",
"                                    :.<.[.}.|.1.2.3.M 4.#.#.#.#.#.#.#.#.#.#.#.#.#.#.#.5./.6.                            ",
"                                    7.8.9.0.a.b.c.d.e.#.#.#.#.#.#.#.#.#.#.#.#.#.#.#.#.#.#.f.                            ",
"                                  g.h.i.j.k.l.K m.e.#.#.#.#.#.#.#.#.#.#.#.#.#.#.#.#.#.#.#.n.o.                          ",
"                                  p.q.r.s.t.u.v.#.#.#.#.#.#.w.x.y.z.A.B.C.D.#.#.#.#.#.#.#.E.F.                          ",
"                                G.H.I.J.K.L.M.N.#.#.#.#.O.P.Q.R.      S.T.U.V.#.#.#.#.#.#.W.X.                          ",
"                              Y.Z.`. +.+++@+N.#.#.#.#.#.P.#+          $+%+&+*+#.#.#.#.#.#.=+-+                          ",
"                              ;+>+,+'+)+!+M #.#.#.#.#.~+{+          ]+^+/+(+_+#.#.#.#.#.#.:+<+                          ",
"                              [+}+|+1+2+3+4+#.#.#.#.#.5+6+          7+8+9+0+a+#.#.#.#.#.#.b+c+                          ",
"                              d+e+f+g+h+i+e.#.#.#.#.#.j+          k+l+m+n+o+p+#.#.#.#.#.#.q+r+                          ",
"                              s+t+u+v+w+x+#.#.#.#.y+z+A+        B+C+D+E+F+G+H+#.#.#.#.I+J+K+                            ",
"                              L+M+N+O+P+Q+#.#.#.R+S+T+U+    V+W+X+Y+Z+`+ @.@+@#.#.#.#.@@#@$@                            ",
"                                %@&@*@=@v.#.#.#.-@;@>@      ,@'@)@!@~@{@G @.^.#.#.#.#.]@^@                              ",
"                                  /@(@_@:@<@[@}@|@        1@2@3@4@5@6@7@8@4+e.#.#.#.9@0@                                ",
"                                      a@b@c@            d@e@f@g@h@i@j@k@v.#.#.#.V.O.l@m@                                ",
"                                                      n@o@p@q@r@s@t@k@v.N.#.#.#.O.P.u@                                  ",
"                                                      v@w@x@y@z@A@B@v.N.#.#.#.O.C@D@E@                                  ",
"                                                    F@G@H@I@J@K@L@v.#.#.#.#.D.M@N@                                      ",
"                                                    O@P@Q@R@S@T@@.N.#.#.#.D.U@V@                                        ",
"                                                    W@X@Y@Z@`@ #.##.#.#.#.+#@###                                        ",
"                                                    $#%#&#*#=##.#.#.#.#.-#:+                                            ",
"                                                    ;#>#,#'#)##.#.#.#.#.!#~#                                            ",
"                                                    {#]#^#/# ##.#.#.#.#.(#_#                                            ",
"                                                    :#<#[#}#@.#.#.#.#.#.[@                                              ",
"                                                    |#1#2#3#^.#.#.#.#.#.}@                                              ",
"                                                    4#5#6#7##.#.#.8#9#0#a#                                              ",
"                                                      b#c#d#-@e#f#g#h#i#                                                ",
"                                                      j#k#l#m#                                                          ",
"                                                    n#o#p#q#r#s#t#u#v#                                                  ",
"                                                w#x#y#z#A#B#C#D#E#F#G#H#                                                ",
"                                                I#J#K#L#M#N#O#P#Q#R#S#T#U#                                              ",
"                                                V#W#X#Y#Z#`# $4+e.#.#.#.E.F.                                            ",
"                                                .$+$@$#$$$%$#.#.#.#.#.#.~+&$                                            ",
"                                                *$=$-$;$>$+@#.#.#.#.#.#.~+&$                                            ",
"                                                ,$'$)$!$~$4.#.#.#.#.#.#.{$]$                                            ",
"                                                  ^$/$($_$:$#.#.#.#.#.D.<$[$                                            ",
"                                                    }$|$1$2$#.#.#.#.D.U@-+                                              ",
"                                                      3$4$5$O.#.#.9@6$7$8$                                              ",
"                                                          9$l@~+0$a$b$                                                  ",
"                                                                                                                        ",
"                                                                                                                        ",
"                                                                                                                        ",
"                                                                                                                        ",
"                                                                                                                        ",
"                                                                                                                        ",
"                                                                                                                        "};
