/* XPM */
static char * cor_xpm[] = {
"16 16 167 2",
"  	c None",
". 	c #495E9E",
"+ 	c #8B96C2",
"@ 	c #8590C0",
"# 	c #7F8BBD",
"$ 	c #7886BA",
"% 	c #7381B8",
"& 	c #6C7CB5",
"* 	c #6678B2",
"= 	c #6072B0",
"- 	c #5A6EAD",
"; 	c #5469AA",
"> 	c #4E64A8",
", 	c #485FA5",
"' 	c #4158A1",
") 	c #1D387E",
"! 	c #6A7AB0",
"~ 	c #AFB4D6",
"{ 	c #A7ACD2",
"] 	c #A0A6CF",
"^ 	c #97A0CC",
"/ 	c #909AC8",
"( 	c #8893C5",
"_ 	c #808DC2",
": 	c #7886BE",
"< 	c #7080BB",
"[ 	c #697AB8",
"} 	c #6173B4",
"| 	c #596DB1",
"1 	c #5066AC",
"2 	c #233C80",
"3 	c #8190BC",
"4 	c #DBDDED",
"5 	c #D8DAEB",
"6 	c #D4D8EA",
"7 	c #D0D4E8",
"8 	c #C8CDE4",
"9 	c #C5CAE3",
"0 	c #C4C9E2",
"a 	c #C3C9E2",
"b 	c #C0C6E0",
"c 	c #BAC2DE",
"d 	c #B6BEDC",
"e 	c #B1BADA",
"f 	c #ABB4D6",
"g 	c #4E6192",
"h 	c #94A2C5",
"i 	c #FFFFFF",
"j 	c #E1E5F1",
"k 	c #788AC0",
"l 	c #A5B1D5",
"m 	c #FDFDFE",
"n 	c #FAFAFC",
"o 	c #F8F8FB",
"p 	c #F5F5F9",
"q 	c #F2F2F6",
"r 	c #707DA0",
"s 	c #D7DCEC",
"t 	c #4C62AB",
"u 	c #8896C7",
"v 	c #F4F6F4",
"w 	c #9DB588",
"x 	c #8AA66F",
"y 	c #92AC7A",
"z 	c #E6E8EA",
"A 	c #6E7A9D",
"B 	c #8795C6",
"C 	c #FBFBFC",
"D 	c #EDF0ED",
"E 	c #547E2A",
"F 	c #336601",
"G 	c #427216",
"H 	c #DDE1DF",
"I 	c #6C779A",
"J 	c #FFFEFE",
"K 	c #FCEAEC",
"L 	c #FCE6E8",
"M 	c #D6C8D9",
"N 	c #A28875",
"O 	c #FDB954",
"P 	c #F1B44F",
"Q 	c #54740F",
"R 	c #427115",
"S 	c #DADEDD",
"T 	c #6A7596",
"U 	c #FDF3F4",
"V 	c #E54754",
"W 	c #E02231",
"X 	c #D02A3F",
"Y 	c #5469AF",
"Z 	c #596CB1",
"` 	c #B7874F",
" .	c #FF9900",
"..	c #F49600",
"+.	c #556F01",
"@.	c #346901",
"#.	c #457715",
"$.	c #D8DDDC",
"%.	c #677293",
"&.	c #D32E42",
"*.	c #6B7CB9",
"=.	c #C28F54",
"-.	c #FF9A00",
";.	c #F49B00",
">.	c #5E8401",
",.	c #438601",
"'.	c #559614",
").	c #D8DDDA",
"!.	c #667091",
"~.	c #FDF4F5",
"{.	c #E85C68",
"].	c #E64B57",
"^.	c #DD6271",
"/.	c #8390C3",
"(.	c #8894C5",
"_.	c #CCA25A",
":.	c #FEB204",
"<.	c #F4B805",
"[.	c #6FAA01",
"}.	c #58AE00",
"|.	c #68BC14",
"1.	c #D8DFD9",
"2.	c #666F8E",
"3.	c #FEF8F9",
"4.	c #F2A3A9",
"5.	c #F2A2A8",
"6.	c #EBB3BC",
"7.	c #9CA4CE",
"8.	c #A1A8D0",
"9.	c #D6C062",
"0.	c #FDD60A",
"a.	c #F5DD0C",
"b.	c #92D424",
"c.	c #8FD945",
"d.	c #ADE278",
"e.	c #DCE0E3",
"f.	c #656E8D",
"g.	c #8696BE",
"h.	c #FAF8FA",
"i.	c #F6E8EB",
"j.	c #F5E8EC",
"k.	c #F0EAF0",
"l.	c #D6D8E8",
"m.	c #D6D8E7",
"n.	c #E3DFC1",
"o.	c #ECE6A2",
"p.	c #E8E6A3",
"q.	c #D7E2C3",
"r.	c #D9E3D7",
"s.	c #E0E4E3",
"t.	c #DAD9E5",
"u.	c #5F6885",
"v.	c #27407F",
"w.	c #475A8D",
"x.	c #45598C",
"y.	c #44578B",
"z.	c #43578A",
"A.	c #425689",
"B.	c #415488",
"C.	c #405284",
"D.	c #3E507F",
"E.	c #3D4D7A",
"F.	c #3C4C75",
"G.	c #3C4A71",
"H.	c #3B486C",
"I.	c #3A4567",
"J.	c #1A2644",
"                                ",
"                                ",
". + @ # $ % & * = - ; > , ' )   ",
"! ~ { ] ^ / ( _ : < [ } | 1 2   ",
"3 4 5 6 7 8 9 0 a b c d e f g   ",
"h i i i j k k l i m n o p q r   ",
"h i i i s t t u m v w x y z A   ",
"h i i i s t t B C D E F G H I   ",
"h J K L M t t N O P Q F R S T   ",
"h U V W X Y Z `  ...+.@.#.$.%.  ",
"h U V W &.*.< =.-.;.>.,.'.).!.  ",
"h ~.{.].^./.(._.:.<.[.}.|.1.2.  ",
"h 3.4.5.6.7.8.9.0.a.b.c.d.e.f.  ",
"g.h.i.j.k.l.m.n.o.p.q.r.s.t.u.  ",
"v.w.x.y.z.A.B.C.D.E.F.G.H.I.J.  ",
"                                "};
