/* XPM */
static char * vendas_xpm[] = {
"32 32 474 2",
"  	c None",
". 	c #D77E0D",
"+ 	c #D37B0F",
"@ 	c #CE7810",
"# 	c #CA7512",
"$ 	c #C67213",
"% 	c #C17015",
"& 	c #BD6C16",
"* 	c #E68809",
"= 	c #E48D19",
"- 	c #E6970C",
"; 	c #EAAA2A",
"> 	c #EAB346",
", 	c #EEC05B",
"' 	c #F2CD6A",
") 	c #F1CD6E",
"! 	c #F0D082",
"~ 	c #E4B453",
"{ 	c #DDAA4B",
"] 	c #DBAA56",
"^ 	c #C58843",
"/ 	c #B7732A",
"( 	c #A75E1D",
"_ 	c #A35B1F",
": 	c #EE8E06",
"< 	c #EC9007",
"[ 	c #F2B029",
"} 	c #FADB86",
"| 	c #FFF5C3",
"1 	c #FFFCEF",
"2 	c #FFFDF3",
"3 	c #F1DCAE",
"4 	c #EDD194",
"5 	c #FFF2B3",
"6 	c #FFF0AB",
"7 	c #FFEFA4",
"8 	c #F2CC68",
"9 	c #FFE673",
"0 	c #FFE35E",
"a 	c #FFDF48",
"b 	c #FFE25B",
"c 	c #F4D35E",
"d 	c #D6A953",
"e 	c #AE764B",
"f 	c #955223",
"g 	c #EF8E05",
"h 	c #F6B938",
"i 	c #FEF0C3",
"j 	c #FFFFFF",
"k 	c #FFFEF7",
"l 	c #FFFBE9",
"m 	c #F6E6C1",
"n 	c #EED29A",
"o 	c #FBE9A7",
"p 	c #FFF0A8",
"q 	c #FFEEA0",
"r 	c #F3CB5D",
"s 	c #FFE464",
"t 	c #FFE04F",
"u 	c #FFDC39",
"v 	c #FFD923",
"w 	c #FFD512",
"x 	c #FFD510",
"y 	c #FFDA2E",
"z 	c #DDBE7F",
"A 	c #955833",
"B 	c #F7C565",
"C 	c #FFF2B4",
"D 	c #FFFEFB",
"E 	c #FFFCEE",
"F 	c #FFF9DE",
"G 	c #FFF6CD",
"H 	c #FFF3BB",
"I 	c #FFF1AC",
"J 	c #FFEFA5",
"K 	c #FFEE9D",
"L 	c #F5CB52",
"M 	c #FFE156",
"N 	c #FFDE40",
"O 	c #FFDA2A",
"P 	c #FFD615",
"Q 	c #FFD81F",
"R 	c #E9D39B",
"S 	c #834627",
"T 	c #F69303",
"U 	c #FED683",
"V 	c #FFFFFD",
"W 	c #FFFDF2",
"X 	c #FFFAE3",
"Y 	c #FFF7D2",
"Z 	c #FFF4C0",
"` 	c #FFF1AE",
" .	c #FFF0A7",
"..	c #FFEFA1",
"+.	c #FFED99",
"@.	c #F6CA47",
"#.	c #FFDF47",
"$.	c #FFDB31",
"%.	c #FFD71B",
"&.	c #B86D19",
"*.	c #FA9600",
"=.	c #FF9F10",
"-.	c #FFD758",
";.	c #FFEA88",
">.	c #FFFCF0",
",.	c #FFFBE8",
"'.	c #FFF8D8",
").	c #FFF5C6",
"!.	c #FFF2B5",
"~.	c #FFEFA6",
"{.	c #FFEE9E",
"].	c #FFED96",
"^.	c #FDE276",
"/.	c #FFE361",
"(.	c #FFD822",
"_.	c #FFD511",
":.	c #FBE9A6",
"<.	c #D89822",
"[.	c #BE6D16",
"}.	c #F89500",
"|.	c #FFC670",
"1.	c #FFBA41",
"2.	c #FFD445",
"3.	c #FFE670",
"4.	c #FFEA84",
"5.	c #FFF1AF",
"6.	c #F3D282",
"7.	c #E8B350",
"8.	c #EBB344",
"9.	c #EEB339",
"0.	c #F1B32E",
"a.	c #F3B322",
"b.	c #F6B316",
"c.	c #FDCD11",
"d.	c #FFE56A",
"e.	c #FCE488",
"f.	c #E6B44D",
"g.	c #CA7D14",
"h.	c #DC9E20",
"i.	c #CC8718",
"j.	c #FFE6BF",
"k.	c #FFF7E5",
"l.	c #FFCF7C",
"m.	c #FFAA25",
"n.	c #FDA41C",
"o.	c #FCB842",
"p.	c #FCC74B",
"q.	c #FCCB33",
"r.	c #FEDB4A",
"s.	c #FFE04D",
"t.	c #FFE258",
"u.	c #FFE466",
"v.	c #FFE671",
"w.	c #FFEA85",
"x.	c #FFE777",
"y.	c #F7D779",
"z.	c #F1C556",
"A.	c #E7AF3D",
"B.	c #D88E11",
"C.	c #CC7C1A",
"D.	c #DB9E37",
"E.	c #F7D34A",
"F.	c #CB8618",
"G.	c #FFFDF4",
"H.	c #FFF9DB",
"I.	c #FFF4BF",
"J.	c #FFE48E",
"K.	c #FCC953",
"L.	c #FABB32",
"M.	c #F4A313",
"N.	c #F2A00B",
"O.	c #E98B07",
"P.	c #E68808",
"Q.	c #E3860A",
"R.	c #DF830B",
"S.	c #DB810C",
"T.	c #DF942C",
"U.	c #DF9B41",
"V.	c #E2AB65",
"W.	c #EAC081",
"X.	c #F2D38F",
"Y.	c #FFED97",
"Z.	c #FFE775",
"`.	c #FFE153",
" +	c #C98519",
".+	c #F39200",
"++	c #FFD28F",
"@+	c #FFE981",
"#+	c #FFE360",
"$+	c #FFDD3D",
"%+	c #FFD71A",
"&+	c #FFD718",
"*+	c #FFDA2B",
"=+	c #FFDF46",
"-+	c #FFE465",
";+	c #FFFEF6",
">+	c #FFF9DA",
",+	c #FFF3B8",
"'+	c #F6CD30",
")+	c #B66919",
"!+	c #C47213",
"~+	c #FB9700",
"{+	c #FFD188",
"]+	c #EEC446",
"^+	c #C0771C",
"/+	c #B5701E",
"(+	c #B66F1D",
"_+	c #A56014",
":+	c #FF9901",
"<+	c #FDA31B",
"[+	c #FCCA6C",
"}+	c #FEE38C",
"|+	c #FBEBAF",
"1+	c #E7BD67",
"2+	c #CD8B2F",
"3+	c #BB6E18",
"4+	c #BF791D",
"5+	c #BA7920",
"6+	c #B9731D",
"7+	c #AE6513",
"8+	c #FE9C03",
"9+	c #FAA008",
"0+	c #F59806",
"a+	c #F29A14",
"b+	c #F2A721",
"c+	c #F4B322",
"d+	c #F5B913",
"e+	c #F7C214",
"f+	c #F7C423",
"g+	c #F6C737",
"h+	c #F5CA4F",
"i+	c #F4CF6A",
"j+	c #F0CB7C",
"k+	c #E5B774",
"l+	c #DDA868",
"m+	c #D08B3A",
"n+	c #C47215",
"o+	c #C97C17",
"p+	c #CC8319",
"q+	c #CC881C",
"r+	c #C6831D",
"s+	c #C47214",
"t+	c #AB6312",
"u+	c #FFB341",
"v+	c #FF9B02",
"w+	c #FFA408",
"x+	c #FEAD0E",
"y+	c #FAA90E",
"z+	c #F4A10D",
"A+	c #F19D0D",
"B+	c #EE990D",
"C+	c #E58E0D",
"D+	c #E28C0E",
"E+	c #E08A0F",
"F+	c #E3900F",
"G+	c #E69510",
"H+	c #E29211",
"I+	c #E59813",
"J+	c #E69C14",
"K+	c #E59D16",
"L+	c #DE9718",
"M+	c #D89219",
"N+	c #D08718",
"O+	c #C97B16",
"P+	c #C97916",
"Q+	c #D9981C",
"R+	c #A76012",
"S+	c #FFFFFE",
"T+	c #FFEFD0",
"U+	c #FFBD50",
"V+	c #FE9E0D",
"W+	c #FC9A04",
"X+	c #FBA008",
"Y+	c #FAA50B",
"Z+	c #FBAA0D",
"`+	c #FCAC0E",
" @	c #FFB310",
".@	c #FDB111",
"+@	c #EFA011",
"@@	c #E99C12",
"#@	c #DE8D12",
"$@	c #D18113",
"%@	c #C97613",
"&@	c #D08420",
"*@	c #E3AC3D",
"=@	c #FBD844",
"-@	c #EFBF26",
";@	c #A45E13",
">@	c #B66818",
",@	c #FFFCED",
"'@	c #FFF7D3",
")@	c #FEDD7B",
"!@	c #FBC245",
"~@	c #F7AF24",
"{@	c #F3A110",
"]@	c #EE9509",
"^@	c #E88A08",
"/@	c #E58709",
"(@	c #E1850A",
"_@	c #DE830B",
":@	c #DB800C",
"<@	c #DF952F",
"[@	c #DF9C44",
"}@	c #E5B371",
"|@	c #EABF7B",
"1@	c #F5D98F",
"2@	c #FFEB8C",
"3@	c #FFE56B",
"4@	c #FFDF49",
"5@	c #EEBE26",
"6@	c #A35D14",
"7@	c #CE8F1D",
"8@	c #FF9D04",
"9@	c #FFECCE",
"0@	c #FFE776",
"a@	c #FFE154",
"b@	c #FFD614",
"c@	c #FFD81D",
"d@	c #FFDC34",
"e@	c #FFE050",
"f@	c #FFEC94",
"g@	c #FFFBE6",
"h@	c #FFFDF1",
"i@	c #FFF7CF",
"j@	c #FFF1AD",
"k@	c #E0A924",
"l@	c #925413",
"m@	c #D67F07",
"n@	c #DA9D12",
"o@	c #FFC322",
"p@	c #FF9F11",
"q@	c #FEDCA2",
"r@	c #FBDE66",
"s@	c #DCA531",
"t@	c #B26617",
"u@	c #D78100",
"v@	c #C77700",
"w@	c #ECB422",
"x@	c #FFCB3D",
"y@	c #FBA011",
"z@	c #F8A62A",
"A@	c #FAC767",
"B@	c #FDE183",
"C@	c #F3D891",
"D@	c #DAA44A",
"E@	c #BF731D",
"F@	c #B96A18",
"G@	c #5D350C",
"H@	c #D57F00",
"I@	c #D9BC8F",
"J@	c #E19F3D",
"K@	c #EA9E17",
"L@	c #FAC84F",
"M@	c #FBC65A",
"N@	c #F6AF3F",
"O@	c #EF9414",
"P@	c #ED9715",
"Q@	c #ED9F1C",
"R@	c #F1B11E",
"S@	c #EFAD0F",
"T@	c #F4BD18",
"U@	c #F5C42A",
"V@	c #F5C73F",
"W@	c #F4CB58",
"X@	c #EDC161",
"Y@	c #E5B566",
"Z@	c #E0AF6E",
"`@	c #D4954B",
" #	c #C27014",
".#	c #BF6E15",
"+#	c #DA9D23",
"@#	c #C77F1A",
"##	c #512E0B",
"$#	c #D68000",
"%#	c #E4D0B2",
"&#	c #FFFEF8",
"*#	c #F7DCA7",
"=#	c #F8B74B",
"-#	c #F7990E",
";#	c #F6AA33",
">#	c #F7C473",
",#	c #F5C47E",
"'#	c #F1B960",
")#	c #EFB44D",
"!#	c #EFB645",
"~#	c #E49921",
"{#	c #E1961A",
"]#	c #DF9314",
"^#	c #D78610",
"/#	c #D48414",
"(#	c #D28317",
"_#	c #C87412",
":#	c #C67313",
"<#	c #C7791C",
"[#	c #D89D3A",
"}#	c #F7D350",
"|#	c #FFDC38",
"1#	c #C8841B",
"2#	c #53300C",
"3#	c #E6CCA6",
"4#	c #FFFAE1",
"5#	c #FFF5C5",
"6#	c #FCD366",
"7#	c #F7BE3D",
"8#	c #F3AF22",
"9#	c #EC9C0E",
"0#	c #EA9A0C",
"a#	c #E79912",
"b#	c #DE870F",
"c#	c #DE8C18",
"d#	c #E0982B",
"e#	c #DD9835",
"f#	c #DB9840",
"g#	c #E5BA83",
"h#	c #E7BF86",
"i#	c #F4DB9E",
"j#	c #FFE87B",
"k#	c #FFE25A",
"l#	c #C6831C",
"m#	c #55300C",
"n#	c #DDA34D",
"o#	c #FFEA87",
"p#	c #FFDE44",
"q#	c #FFD821",
"r#	c #FFDA27",
"s#	c #FFDE41",
"t#	c #FFF0A6",
"u#	c #FFFDF5",
"v#	c #FAD537",
"w#	c #BA721B",
"x#	c #CA7902",
"y#	c #E8AA4E",
"z#	c #FDF2D2",
"A#	c #ECC34B",
"B#	c #BF7B22",
"C#	c #6F3E11",
"D#	c #B07117",
"E#	c #EB9821",
"F#	c #F4B44D",
"G#	c #F8D074",
"H#	c #FBEBB5",
"I#	c #E4BC6C",
"J#	c #C68733",
"K#	c #A75E18",
"L#	c #58320E",
"M#	c #97641B",
"N#	c #D58C2A",
"O#	c #E58E19",
"P#	c #E79C21",
"Q#	c #E9A420",
"R#	c #ECAC17",
"S#	c #EDAF12",
"T#	c #F4C221",
"U#	c #F3C435",
"V#	c #F2C84B",
"W#	c #F1CC65",
"X#	c #E2B15D",
"Y#	c #E0B372",
"Z#	c #D29A5B",
"`#	c #C7863E",
" $	c #AD6317",
".$	c #8F5114",
"+$	c #59330D",
"@$	c #63461F",
"#$	c #95744A",
"$$	c #945709",
"%$	c #92560A",
"&$	c #90540B",
"*$	c #8D520C",
"=$	c #8B510C",
"-$	c #894F0D",
";$	c #874D0E",
">$	c #79460D",
",$	c #502E09",
"                                                                ",
"                                                                ",
"                        . + @ # $ % &                           ",
"                * = - ; > , ' ) ! ~ { ] ^ / ( _                 ",
"          : < [ } | 1 2 3 4 5 6 7 8 9 0 a b c d e f             ",
"        g h i j j j k l m n o p q r s t u v w x y z A           ",
"      g B C j j j D E F G H I J K L M N O P x x x Q R S         ",
"      T U J j j V W X Y Z `  ...+.@.#.$.%.x x x x Q J &.        ",
"      *.=.-.;.>.k ,.'.).!.6 ~.{.].^./.(._.x x x b :.<.[.        ",
"      }.|.=.1.2.3.4.{.5.6.7.8.9.0.a.b.c.a d.].e.f.g.h.i.        ",
"      }.j.k.l.m.n.o.p.q.r.s.t.u.v.w.x.y.z.A.B.C.D.E.$.F.        ",
"      }.j.G.H.I.J.K.L.M.N.O.P.Q.R.S.T.U.V.W.X.Y.Z.`.$. +        ",
"      .+++G.H.I...@+#+$+%+&+*+=+-+;.` '.;+>+,+Y.Z.`.'+)+!+      ",
"        ~+{+H.I...@+#+$+%+&+*+=+-+;.` '.;+>+,+Y.Z.]+^+/+(+_+    ",
"          :+<+[+}+@+#+$+%+&+*+=+-+;.` '.;+>+|+1+2+3+4+5+6+7+    ",
"          :+8+9+0+a+b+c+d+e+f+g+h+i+j+k+l+m+n+o+p+q+r+4+s+t+    ",
"          u+|.v+w+x+y+z+A+B+C+D+E+F+G+H+I+J+K+L+M+N+O+P+Q+R+    ",
"          u+S+T+U+V+W+X+Y+Z+`+ @ @ @ @.@+@@@#@$@%@&@*@=@-@;@    ",
"        >@u+S+,@'@!.)@!@~@{@]@^@/@(@_@:@<@[@}@|@1@2@3@4@5@6@    ",
"        7@8@9@,@'@!.].0@a@$.b@c@d@e@3.f@H g@h@i@j@2@3@4@k@l@    ",
"      m@n@o@p@q@'@!.].0@a@$.b@c@d@e@3.f@H g@h@i@j@2@r@s@t@      ",
"      u@v@w@x@y@z@A@B@0@a@$.b@c@d@e@3.f@H g@h@i@C@D@E@F@G@      ",
"      H@I@J@K@L@M@N@O@P@Q@R@S@T@U@V@W@X@Y@Z@`@ #.#[.+#@###      ",
"      $#%#&#*#=#-#;#>#,#'#)#!#~#{#]#^#/#(#_#:#<#[#}#|#1#2#      ",
"      u@3#&#4#5# .6#7#8#9#0#a#b#c#d#e#f#g#h#i#K j#k#|#l#m#      ",
"        n#&#4#5# .o#u.p#q#P r#s#0 @+t#i@u#4#I.K j#k#v#w#        ",
"        x#y#z#5# .o#u.p#q#P r#s#0 @+t#i@u#4#I.K j#A#B#C#        ",
"          D#E#F#G#o#u.p#q#P r#s#0 @+t#i@u#4#H#I#J#K#L#          ",
"              M#N#O#P#Q#R#S#T#U#V#W#X#Y#Z#`# $.$+$              ",
"                    @$#$$$%$&$*$=$-$;$>$,$                      ",
"                                                                ",
"                                                                "};
