/* XPM */
static char * devedores_xpm[] = {
"32 32 494 2",
"  	c None",
". 	c #928B71",
"+ 	c #B8B7B5",
"@ 	c #AAA9A8",
"# 	c #9E9B91",
"$ 	c #807C6E",
"% 	c #E1DED2",
"& 	c #D0CBB9",
"* 	c #D3CEBC",
"= 	c #E0DDD1",
"- 	c #9A9580",
"; 	c #5D5C5B",
"> 	c #E5E1D7",
", 	c #CDC7B4",
"' 	c #D7D2C2",
") 	c #E2DFD4",
"! 	c #CDC8B4",
"~ 	c #000000",
"{ 	c #5E5D5A",
"] 	c #5A5A5A",
"^ 	c #5D5D5C",
"/ 	c #5F5B4C",
"( 	c #B6AF97",
"_ 	c #D9D4C5",
": 	c #D8D4C4",
"< 	c #E3E0D5",
"[ 	c #C5BEA8",
"} 	c #13120D",
"| 	c #D3CFC1",
"1 	c #ECEAE3",
"2 	c #EDEBE5",
"3 	c #F3F1ED",
"4 	c #BFB9A5",
"5 	c #7B7358",
"6 	c #CAC4AF",
"7 	c #E3DFD4",
"8 	c #CCC7B3",
"9 	c #887F65",
"0 	c #F7F6F3",
"a 	c #E5E1D8",
"b 	c #EBE8E1",
"c 	c #E7E4DB",
"d 	c #565349",
"e 	c #787159",
"f 	c #7C7763",
"g 	c #736A4D",
"h 	c #5F5842",
"i 	c #F6F5F1",
"j 	c #EDEAE3",
"k 	c #EFEDE8",
"l 	c #F0EEE8",
"m 	c #E1DED3",
"n 	c #575448",
"o 	c #020201",
"p 	c #11100C",
"q 	c #090807",
"r 	c #1E1A1A",
"s 	c #4A3F35",
"t 	c #A9A291",
"u 	c #DFDBCF",
"v 	c #E4E1D6",
"w 	c #E0DCD0",
"x 	c #9E9579",
"y 	c #735942",
"z 	c #D19C93",
"A 	c #D3B1AE",
"B 	c #D4B0A9",
"C 	c #DAB19A",
"D 	c #CD877C",
"E 	c #CC867A",
"F 	c #CC857A",
"G 	c #CC857B",
"H 	c #CD877D",
"I 	c #CE897F",
"J 	c #CE8B81",
"K 	c #CF8D83",
"L 	c #D29B93",
"M 	c #D0AFAC",
"N 	c #CCAAA9",
"O 	c #CBA9A8",
"P 	c #C4A4A3",
"Q 	c #A38987",
"R 	c #210807",
"S 	c #453B3A",
"T 	c #BA8A7D",
"U 	c #5F412D",
"V 	c #574D3F",
"W 	c #4D4942",
"X 	c #544D40",
"Y 	c #755741",
"Z 	c #B16956",
"` 	c #C38D84",
" .	c #8D9CAD",
"..	c #B4B398",
"+.	c #E0D299",
"@.	c #B75544",
"#.	c #B65341",
"$.	c #B75242",
"%.	c #B75445",
"&.	c #B9594A",
"*.	c #BB5D50",
"=.	c #BD6155",
"-.	c #BE6458",
";.	c #BF8682",
">.	c #A4B0BD",
",.	c #8E9DAD",
"'.	c #8A9AAA",
").	c #8798A8",
"!.	c #99A4B0",
"~.	c #4C110E",
"{.	c #483633",
"].	c #C98172",
"^.	c #C06C59",
"/.	c #C16E5C",
"(.	c #C16F5D",
"_.	c #C2705D",
":.	c #C06A57",
"<.	c #C1887F",
"[.	c #9AA8B6",
"}.	c #B8BFC1",
"|.	c #A8B2B9",
"1.	c #B75342",
"2.	c #B85545",
"3.	c #B95849",
"4.	c #BA5B4E",
"5.	c #BD5F53",
"6.	c #BD6357",
"7.	c #BD6257",
"8.	c #D29287",
"9.	c #F7EDD6",
"0.	c #F5E7CA",
"a.	c #F5E8CD",
"b.	c #F6EACF",
"c.	c #EBE3D2",
"d.	c #4D0F0C",
"e.	c #C87F6F",
"f.	c #C16E5B",
"g.	c #C16F5C",
"h.	c #C06957",
"i.	c #BE6553",
"j.	c #BF847B",
"k.	c #BCC5CE",
"l.	c #C1CAD2",
"m.	c #BAC3CE",
"n.	c #B75343",
"o.	c #B75344",
"p.	c #B85849",
"q.	c #BA5A4D",
"r.	c #BC5F51",
"s.	c #BD6255",
"t.	c #BD6156",
"u.	c #BD6056",
"v.	c #CE8977",
"w.	c #EEDAAD",
"x.	c #ECD4A0",
"y.	c #ECD4A1",
"z.	c #ECD5A1",
"A.	c #E2CFA6",
"B.	c #C98071",
"C.	c #C77D6D",
"D.	c #C47564",
"E.	c #C06D5A",
"F.	c #BF6956",
"G.	c #BD6351",
"H.	c #BB5F4C",
"I.	c #B95A47",
"J.	c #B85644",
"K.	c #B75443",
"L.	c #B85848",
"M.	c #BA5B4D",
"N.	c #BF6558",
"O.	c #BD6154",
"P.	c #BD6054",
"Q.	c #C0685E",
"R.	c #BC5F54",
"S.	c #BB5B50",
"T.	c #B95D53",
"U.	c #B76E67",
"V.	c #B86F68",
"W.	c #BB7069",
"X.	c #B2635C",
"Y.	c #A8544E",
"Z.	c #4D0E0B",
"`.	c #CF9184",
" +	c #CF9183",
".+	c #CF8E81",
"++	c #D49A8D",
"@+	c #C57666",
"#+	c #C77B6C",
"$+	c #C98072",
"%+	c #C57668",
"&+	c #C0695B",
"*+	c #CE8C82",
"=+	c #C97D73",
"-+	c #D3978F",
";+	c #CD8980",
">+	c #D2938B",
",+	c #D1928A",
"'+	c #C7776E",
")+	c #C5736A",
"!+	c #C3BFBF",
"~+	c #DDDDDD",
"{+	c #CCCCCC",
"]+	c #B8B1B0",
"^+	c #4C0D0B",
"/+	c #D2988A",
"(+	c #D29588",
"_+	c #CB8576",
":+	c #D7A196",
"<+	c #CE8C80",
"[+	c #CF8D81",
"}+	c #C97E71",
"|+	c #D08F84",
"1+	c #D7A198",
"2+	c #CA8075",
"3+	c #DAA69F",
"4+	c #D4978F",
"5+	c #CF8D85",
"6+	c #D69D96",
"7+	c #DBA9A3",
"8+	c #D79F99",
"9+	c #D49791",
"0+	c #CB827B",
"a+	c #B66E67",
"b+	c #BEBEBE",
"c+	c #CFCFCF",
"d+	c #E8E8E8",
"e+	c #DCDCDC",
"f+	c #4C0D0A",
"g+	c #C87E6F",
"h+	c #BE6452",
"i+	c #BB5E4B",
"j+	c #B95948",
"k+	c #C57567",
"l+	c #BC5F4F",
"m+	c #B85444",
"n+	c #B85646",
"o+	c #B85748",
"p+	c #B9594B",
"q+	c #BB5B4D",
"r+	c #C47066",
"s+	c #C26B61",
"t+	c #B9564C",
"u+	c #B64F45",
"v+	c #B4483E",
"w+	c #B46A64",
"x+	c #E1E1E1",
"y+	c #D6D6D6",
"z+	c #C7C7C7",
"A+	c #C77B6B",
"B+	c #BE6754",
"C+	c #BF6958",
"D+	c #BF6857",
"E+	c #BA5B4B",
"F+	c #C98175",
"G+	c #BF6658",
"H+	c #BF665A",
"I+	c #BF665B",
"J+	c #C36E65",
"K+	c #BC5E53",
"L+	c #BB5A51",
"M+	c #BB5A52",
"N+	c #B14138",
"O+	c #B05048",
"P+	c #C49692",
"Q+	c #BE9592",
"R+	c #BD9391",
"S+	c #BD9390",
"T+	c #AD7976",
"U+	c #C57768",
"V+	c #C57767",
"W+	c #C16C5B",
"X+	c #C37061",
"Y+	c #BD6353",
"Z+	c #CD877B",
"`+	c #BB5E4F",
" @	c #C26E61",
".@	c #C26E63",
"+@	c #CB8379",
"@@	c #C1695F",
"#@	c #CD8880",
"$@	c #BE635A",
"%@	c #C5736C",
"&@	c #B8544B",
"*@	c #C26962",
"=@	c #AE3C32",
"-@	c #AD362D",
";@	c #AB3229",
">@	c #A92E25",
",@	c #A82B23",
"'@	c #A72922",
")@	c #9E2620",
"!@	c #4D0E0C",
"~@	c #483533",
"{@	c #C47364",
"]@	c #DCADA4",
"^@	c #F5E8E6",
"/@	c #CF9990",
"(@	c #D2AAA3",
"_@	c #BA9C97",
":@	c #E6D8D6",
"<@	c #E8CFCC",
"[@	c #C5A4A0",
"}@	c #A0756F",
"|@	c #F9F3F2",
"1@	c #C2938E",
"2@	c #C58E87",
"3@	c #F5E6E4",
"4@	c #E4BEBB",
"5@	c #EDD7D4",
"6@	c #A4605A",
"7@	c #C67A74",
"8@	c #EDD5D3",
"9@	c #BF9F99",
"0@	c #764742",
"a@	c #AEA9A8",
"b@	c #A2716C",
"c@	c #C7827E",
"d@	c #8C3834",
"e@	c #4C0F0D",
"f@	c #C37262",
"g@	c #D49C91",
"h@	c #D4998F",
"i@	c #AD746A",
"j@	c #AE8D87",
"k@	c #885E57",
"l@	c #A4817C",
"m@	c #CBA09B",
"n@	c #9A7A76",
"o@	c #8F6660",
"p@	c #D1B3AF",
"q@	c #846461",
"r@	c #A8817C",
"s@	c #CC9B96",
"t@	c #AE7E7A",
"u@	c #D2A6A3",
"v@	c #86413C",
"w@	c #B67C77",
"x@	c #A88780",
"y@	c #ADA08D",
"z@	c #ACA9A6",
"A@	c #ACAAA6",
"B@	c #736657",
"C@	c #87564F",
"D@	c #853C38",
"E@	c #4A0E0C",
"F@	c #C26F60",
"G@	c #C26E5F",
"H@	c #C26F61",
"I@	c #BD6254",
"J@	c #C26F63",
"K@	c #C77B70",
"L@	c #C36E64",
"M@	c #C6776C",
"N@	c #C16B60",
"O@	c #C47167",
"P@	c #C26E64",
"Q@	c #C36D65",
"R@	c #C06860",
"S@	c #B34A41",
"T@	c #C0665E",
"U@	c #BA574F",
"V@	c #94372E",
"W@	c #A18977",
"X@	c #E5E2D7",
"Y@	c #CFCAB7",
"Z@	c #D9D5C6",
"`@	c #67533F",
" #	c #772621",
".#	c #4C100E",
"+#	c #483532",
"@#	c #B95747",
"##	c #C7796D",
"$#	c #C6786D",
"%#	c #BC5F53",
"&#	c #BF655A",
"*#	c #C87B72",
"=#	c #CA7E76",
"-#	c #BB5C52",
";#	c #B3453C",
">#	c #B03F34",
",#	c #B8544C",
"'#	c #844540",
")#	c #A8A4A0",
"!#	c #D5D0BF",
"~#	c #D5D0C0",
"{#	c #D8D4C5",
"]#	c #837B69",
"^#	c #5B1D1A",
"/#	c #49100E",
"(#	c #C47163",
"_#	c #B95949",
":#	c #C06759",
"<#	c #C16C5F",
"[#	c #C6766C",
"}#	c #C87B71",
"|#	c #BC5C50",
"1#	c #C97F75",
"2#	c #CD877F",
"3#	c #C26C63",
"4#	c #C6756D",
"5#	c #BA584F",
"6#	c #AF3D33",
"7#	c #B2443B",
"8#	c #A45E56",
"9#	c #7B2F28",
"0#	c #4C1511",
"a#	c #A4A29E",
"b#	c #DBD6C8",
"c#	c #D8D3C4",
"d#	c #7C755F",
"e#	c #3A2219",
"f#	c #370E0C",
"g#	c #4B3633",
"h#	c #BD6B5E",
"i#	c #BA594B",
"j#	c #BA5B4C",
"k#	c #B9594D",
"l#	c #B9594C",
"m#	c #B9564B",
"n#	c #BA574C",
"o#	c #B75147",
"p#	c #B54C42",
"q#	c #B2453B",
"r#	c #B14036",
"s#	c #AD382E",
"t#	c #822D23",
"u#	c #A79583",
"v#	c #827C6B",
"w#	c #B1AB97",
"x#	c #E5E2D8",
"y#	c #E2DED3",
"z#	c #665F46",
"A#	c #6D6548",
"B#	c #272017",
"C#	c #1E1E1E",
"D#	c #290F0D",
"E#	c #501713",
"F#	c #501613",
"G#	c #501612",
"H#	c #4F1412",
"I#	c #4F1410",
"J#	c #4E120F",
"K#	c #4E110E",
"L#	c #440E0B",
"M#	c #948373",
"N#	c #BDB59B",
"O#	c #716A52",
"P#	c #90886C",
"Q#	c #858070",
"R#	c #7D7762",
"S#	c #635D45",
"T#	c #756D4F",
"U#	c #A39978",
"V#	c #77705A",
"W#	c #A3A2A0",
"X#	c #ADA794",
"Y#	c #8F8667",
"Z#	c #66604A",
"`#	c #5D5A51",
" $	c #9E9780",
".$	c #B3AB91",
"+$	c #827D6D",
"@$	c #A8A7A4",
"#$	c #8E8A7E",
"$$	c #8C887A",
"%$	c #928A6E",
"&$	c #B5B1A2",
"*$	c #DDD9CC",
"=$	c #DCD8CB",
"-$	c #D0CBB8",
";$	c #6E6853",
">$	c #B0ADA2",
",$	c #EAE8DF",
"'$	c #A6A398",
")$	c #AFADA5",
"!$	c #BBB398",
"~$	c #91896D",
"{$	c #D2CDBC",
"]$	c #C1BAA1",
"^$	c #8C8469",
"/$	c #201D15",
"($	c #ADAAA0",
"_$	c #9E9C95",
":$	c #7E7A69",
"<$	c #E5E3D9",
"[$	c #C2BBA3",
"}$	c #837A5B",
"|$	c #343023",
"1$	c #010100",
"2$	c #65635D",
"3$	c #4E4C47",
"4$	c #3A372B",
"5$	c #302D21",
"                                                                ",
"                  . + @ #                                       ",
"                $ % & * = -                                     ",
"                ; > , ' ) ! ~                                   ",
"          { ] ^ / ( _ : < [ }                                   ",
"        | 1 2 3 4 5 6 7 8 9                                     ",
"      ~ 0 a b 2 c d e f g h                                     ",
"      ~ i j k l m n ~ o p q ~ ~ ~ ~ ~ ~ ~ ~ ~ ~ ~ ~ ~ ~         ",
"    r s t u v w x y z A B C D E F G H I J K L M N O P Q R       ",
"    S T U V W X Y Z `  ...+.@.#.$.%.&.*.=.-.;.>.,.'.).!.~.      ",
"    {.].^./.(._./.:.<.[.}.|.1.1.2.3.4.5.6.7.8.9.0.a.b.c.d.~     ",
"    {.e.f.(.g.f.h.i.j.k.l.m.n.o.p.q.r.s.t.u.v.w.x.y.z.A.d.~     ",
"    {.B.C.D.E.F.G.H.I.J.K.L.3.M.N.O.P.Q.R.S.T.U.V.W.X.Y.Z.~     ",
"    {.B.`. +.+++@+#+$+%+E &+*+=+-+;+>+,+'+)+V.!+~+{+{+]+^+~     ",
"    {.B./+(+_+:+<+[+}+|+1+2+3+4+5+6+7+8+9+0+a+b+c+d+e+{+f+~     ",
"    {.g+F.h+i+j+k+l+m+n+o+p+q+*.r+s+S.t+u+v+w+b+x+{+y+z+f+~     ",
"    {.A+B+C+D+E+F+l+G+&+M.H+I+-.J+K+R.L+M+N+O+P+Q+R+S+T+^+~     ",
"    {.U+V+W+X+Y+Z+`+ @2+.@+@.@@@#@$@%@&@*@=@-@;@>@,@'@)@!@~     ",
"    ~@{@]@^@/@(@_@:@<@[@}@|@1@2@3@4@5@6@7@8@9@0@a@b@c@d@e@~     ",
"    ~@f@g@h@i@j@k@l@m@n@o@p@q@r@s@t@u@v@w@x@y@z@A@B@C@D@E@~     ",
"    ~@F@G@H@I@2+J@K@L@M@N@O@P@Q@R@S@T@U@V@W@X@Y@Z@u `@ #.#~     ",
"    +#F@@#G+&+##$#%#&#r+*#=#-#u+;#>#,#U@'#)#!#~#{#< ]#^#/#~     ",
"    +#(#_#:#<#[#}#L@|#1#2#3#4#5#6#7#8#9#0#a#b#% c#% d#e#f#~     ",
"    g#h#i#j#q.q.k#l#m#n#o#p#q#r#s#t#u#z@v#w#x#< y#8 z#A#B#~     ",
"    C#D#E#E#E#E#E#E#F#G#H#I#J#K#L#M#X@Y@N#O#P#Q#R#S#T#U#V#~     ",
"        ~ ~ ~ ~ ~ ~ ~ ~ ~ ~ ~ ~ ~ W#!#~#X#Y#Z#`#e  $.${#+$~     ",
"                                  @$b#% #$$$%$&$*$u =$-$;$      ",
"                                  >$,$v '$)$!$~$Y@{$]$^$/$      ",
"                                    ($_$:$Q#<$[$}$|$1$~         ",
"                                            2$3$4$5$            ",
"                                                                ",
"                                                                "};
