/* XPM */
static char * empresas_xpm[] = {
"32 32 512 2",
"  	c None",
". 	c #161F26",
"+ 	c #131C21",
"@ 	c #1B252E",
"# 	c #19222A",
"$ 	c #172129",
"% 	c #121A20",
"& 	c #262F35",
"* 	c #85939D",
"= 	c #9FAFBB",
"- 	c #BECBD5",
"; 	c #DDE5EA",
"> 	c #E2EAF0",
", 	c #CAD6DF",
"' 	c #A3B5C3",
") 	c #7E94A6",
"! 	c #50677A",
"~ 	c #131C23",
"{ 	c #222C35",
"] 	c #7B8993",
"^ 	c #CCD5DC",
"/ 	c #D5E0E8",
"( 	c #E6EDF3",
"_ 	c #E8F0F5",
": 	c #E8F0F4",
"< 	c #E7EFF4",
"[ 	c #D3DEE7",
"} 	c #C8D7E2",
"| 	c #C5D5E0",
"1 	c #C2D2DE",
"2 	c #9CB0C0",
"3 	c #445B6E",
"4 	c #121B23",
"5 	c #4F5B63",
"6 	c #C2CAD1",
"7 	c #E1E9EF",
"8 	c #E3ECF2",
"9 	c #D4E1EA",
"0 	c #D8E4EC",
"a 	c #E7EFF5",
"b 	c #D8E4EB",
"c 	c #C4D4E1",
"d 	c #C0D1DE",
"e 	c #C1D1DE",
"f 	c #D2DEE7",
"g 	c #D1DEE7",
"h 	c #8499AA",
"i 	c #2B3944",
"j 	c #646F77",
"k 	c #D8E1E8",
"l 	c #D0DCE5",
"m 	c #D1DDE6",
"n 	c #C6D6E2",
"o 	c #D5E3EC",
"p 	c #DEE9F0",
"q 	c #C2D4E0",
"r 	c #C6D8E4",
"s 	c #D2E0E9",
"t 	c #BDD0DE",
"u 	c #C0D2DF",
"v 	c #D5E2EA",
"w 	c #D7E3EB",
"x 	c #B0C2D1",
"y 	c #374754",
"z 	c #4E5A64",
"A 	c #D4DFE6",
"B 	c #BDCCD8",
"C 	c #CBD9E4",
"D 	c #E1EBF2",
"E 	c #D6E2EB",
"F 	c #C3D7E4",
"G 	c #C7DAE7",
"H 	c #C5D9E7",
"I 	c #C2D7E5",
"J 	c #BDD2E1",
"K 	c #BED0DD",
"L 	c #D3E0E8",
"M 	c #C4D3DE",
"N 	c #D4E1E9",
"O 	c #CBD9E3",
"P 	c #9EB5C7",
"Q 	c #2F3C47",
"R 	c #303B43",
"S 	c #B4C1C9",
"T 	c #DBE6ED",
"U 	c #DDE7EF",
"V 	c #E0EBF2",
"W 	c #E3EDF4",
"X 	c #C5D8E5",
"Y 	c #C4DAE8",
"Z 	c #C5DBE9",
"` 	c #C3D9E7",
" .	c #BFD6E5",
"..	c #BBD2E2",
"+.	c #CADBE6",
"@.	c #D2DFE8",
"#.	c #D1DFE8",
"$.	c #CDDCE5",
"%.	c #C9D8E3",
"&.	c #B3C7D6",
"*.	c #8399AB",
"=.	c #131A21",
"-.	c #263440",
";.	c #768590",
">.	c #D7E4EC",
",.	c #DAE5ED",
"'.	c #DCE7EF",
").	c #DAE6EE",
"!.	c #B2C7D7",
"~.	c #C0D5E2",
"{.	c #C1D9E8",
"].	c #C3DBEA",
"^.	c #BCD5E5",
"/.	c #B7D0E0",
"(.	c #B8CEDE",
"_.	c #CFDDE6",
":.	c #D3E1EA",
"<.	c #D1DFE9",
"[.	c #CDDCE6",
"}.	c #CAD9E3",
"|.	c #C6D5E1",
"1.	c #B9CCDA",
"2.	c #9DB6C9",
"3.	c #566877",
"4.	c #040609",
"5.	c #2F3B43",
"6.	c #B3C5D1",
"7.	c #D6E3EC",
"8.	c #CBDBE5",
"9.	c #AEC4D4",
"0.	c #AFC8DA",
"a.	c #B7D1E2",
"b.	c #BCD6E6",
"c.	c #BED9E9",
"d.	c #BCD6E7",
"e.	c #B7D2E2",
"f.	c #B0CADD",
"g.	c #D5E4EE",
"h.	c #D0DFEA",
"i.	c #A4BACB",
"j.	c #C9D9E4",
"k.	c #CADAE5",
"l.	c #C6D6E1",
"m.	c #BDCEDB",
"n.	c #8FA7BA",
"o.	c #131B21",
"p.	c #61717C",
"q.	c #D0DEE8",
"r.	c #C5D5E1",
"s.	c #98B2C6",
"t.	c #A8C3D6",
"u.	c #ADC9DB",
"v.	c #B1CDDF",
"w.	c #B4D0E2",
"x.	c #B5D1E3",
"y.	c #B3D0E2",
"z.	c #AFCCDE",
"A.	c #A6C3D7",
"B.	c #C8DAE6",
"C.	c #BACEDC",
"D.	c #B0C6D7",
"E.	c #98B1C4",
"F.	c #94ACBF",
"G.	c #9DB3C5",
"H.	c #B1C4D2",
"I.	c #B4C8D6",
"J.	c #9CB5C8",
"K.	c #97B1C4",
"L.	c #3D4D5B",
"M.	c #303E48",
"N.	c #8092A0",
"O.	c #BBCFDC",
"P.	c #C9D8E4",
"Q.	c #C1D2DE",
"R.	c #90AABF",
"S.	c #9CB8CD",
"T.	c #A1BED2",
"U.	c #A5C2D6",
"V.	c #A8C5D9",
"W.	c #AAC8DC",
"X.	c #A8C7DB",
"Y.	c #A5C4D9",
"Z.	c #AAC6D9",
"`.	c #CCDEE9",
" +	c #CDDDE8",
".+	c #C9DAE5",
"++	c #B8CCDB",
"@+	c #AFC5D4",
"#+	c #A0B7C8",
"$+	c #B2C6D5",
"%+	c #ACC2D2",
"&+	c #9BB5C7",
"*+	c #96B0C3",
"=+	c #647A8B",
"-+	c #060C11",
";+	c #35414B",
">+	c #92A8B8",
",+	c #7A94AA",
"'+	c #7E97AD",
")+	c #9BB2C5",
"!+	c #8CAAC0",
"~+	c #93B1C8",
"{+	c #97B6CC",
"]+	c #9AB9D0",
"^+	c #9DBCD3",
"/+	c #9EBED5",
"(+	c #9FBFD5",
"_+	c #9DBED4",
":+	c #99BAD2",
"<+	c #C4D7E5",
"[+	c #CBDDE8",
"}+	c #C4D6E3",
"|+	c #C0D3E0",
"1+	c #B6CBD9",
"2+	c #AABFCF",
"3+	c #A1BACC",
"4+	c #9AB3C6",
"5+	c #7690A6",
"6+	c #7F97AA",
"7+	c #091119",
"8+	c #343D44",
"9+	c #95AEC0",
"0+	c #587895",
"a+	c #8AA6BB",
"b+	c #7D9CB4",
"c+	c #84A3BC",
"d+	c #88A8C1",
"e+	c #8CACC4",
"f+	c #8FB0C8",
"g+	c #91B3CB",
"h+	c #92B4CC",
"i+	c #92B4CD",
"j+	c #9CBAD0",
"k+	c #C8DAE7",
"l+	c #C5D8E4",
"m+	c #C2D5E2",
"n+	c #BED2DF",
"o+	c #B5CAD9",
"p+	c #B0C6D5",
"q+	c #A4BDCE",
"r+	c #8FA9BD",
"s+	c #98B2C5",
"t+	c #92ADC1",
"u+	c #466179",
"v+	c #081017",
"w+	c #23303B",
"x+	c #98B1C5",
"y+	c #A4BCCE",
"z+	c #7693AB",
"A+	c #7494AF",
"B+	c #7899B4",
"C+	c #7B9EB8",
"D+	c #7FA2BC",
"E+	c #82A5BF",
"F+	c #84A7C1",
"G+	c #85A9C3",
"H+	c #83A8C2",
"I+	c #9CB9CE",
"J+	c #C1D5E2",
"K+	c #BED3E1",
"L+	c #BAD0DE",
"M+	c #B7CDDC",
"N+	c #B3C9D8",
"O+	c #ADC4D4",
"P+	c #A6BECF",
"Q+	c #A0B9CB",
"R+	c #7E98AE",
"S+	c #7A95AB",
"T+	c #2B4B69",
"U+	c #172633",
"V+	c #42627F",
"W+	c #6A87A0",
"X+	c #9FB8CB",
"Y+	c #6587A3",
"Z+	c #9DB7CA",
"`+	c #8AA8BF",
" @	c #7FA0BA",
".@	c #7499B5",
"+@	c #769BB7",
"@@	c #779CB8",
"#@	c #779CB9",
"$@	c #759BB7",
"%@	c #7D9FB9",
"&@	c #B9CFDE",
"*@	c #B3CAD9",
"=@	c #AFC6D6",
"-@	c #ABC3D3",
";@	c #A6BFD0",
">@	c #A2BBCD",
",@	c #99B2C5",
"'@	c #8CA6BA",
")@	c #4C6A84",
"!@	c #274868",
"~@	c #081018",
"{@	c #375875",
"]@	c #416686",
"^@	c #567793",
"/@	c #8AA4B8",
"(@	c #A9C2D2",
"_@	c #ADC5D5",
":@	c #A6BED0",
"<@	c #7195B0",
"[@	c #668DAB",
"}@	c #688FAD",
"|@	c #678FAD",
"1@	c #668EAC",
"2@	c #6188A7",
"3@	c #8CA8BE",
"4@	c #B0C7D7",
"5@	c #AAC2D3",
"6@	c #A7BFD0",
"7@	c #A3BBCD",
"8@	c #9FB8CA",
"9@	c #9AB4C6",
"0@	c #96AFC3",
"a@	c #90ABBF",
"b@	c #32516F",
"c@	c #23415E",
"d@	c #09131C",
"e@	c #182938",
"f@	c #2C4861",
"g@	c #3F6384",
"h@	c #436889",
"i@	c #90ABC0",
"j@	c #A5BDCF",
"k@	c #A8C0D1",
"l@	c #AAC3D3",
"m@	c #A7C0D1",
"n@	c #6388A5",
"o@	c #5D84A4",
"p@	c #5E85A5",
"q@	c #5D85A4",
"r@	c #5C83A2",
"s@	c #527898",
"t@	c #5D7E9A",
"u@	c #486B8A",
"v@	c #577894",
"w@	c #9BB4C7",
"x@	c #97B0C4",
"y@	c #91ACC0",
"z@	c #6A859C",
"A@	c #264666",
"B@	c #1B354E",
"C@	c #070F16",
"D@	c #162735",
"E@	c #1F3549",
"F@	c #3A5E7E",
"G@	c #446787",
"H@	c #A0B9CC",
"I@	c #A3BCCE",
"J@	c #A9C1D2",
"K@	c #8AA7BE",
"L@	c #5A809E",
"M@	c #557C9C",
"N@	c #547B9B",
"O@	c #537999",
"P@	c #4F7595",
"Q@	c #4C7293",
"R@	c #496D8C",
"S@	c #86A1B6",
"T@	c #284664",
"U@	c #254767",
"V@	c #13273A",
"W@	c #03080C",
"X@	c #12212E",
"Y@	c #315371",
"Z@	c #436684",
"`@	c #9EB7CA",
" #	c #5B7B98",
".#	c #4E7494",
"+#	c #4D7393",
"@#	c #4B7191",
"##	c #496E8F",
"$#	c #466B8B",
"%#	c #819CB2",
"&#	c #8DA9BD",
"*#	c #6E8AA1",
"=#	c #244565",
"-#	c #1F3E5D",
";#	c #09141F",
">#	c #000000",
",#	c #152636",
"'#	c #20374D",
")#	c #325676",
"!#	c #617F99",
"~#	c #99B3C6",
"{#	c #9BB5C8",
"]#	c #90AABE",
"^#	c #395C7B",
"/#	c #466B8C",
"(#	c #456A8B",
"_#	c #446989",
":#	c #416687",
"<#	c #3F6484",
"[#	c #3B5F80",
"}#	c #7592A9",
"|#	c #90ACC0",
"1#	c #8DA8BD",
"2#	c #89A5BA",
"3#	c #7794AA",
"4#	c #20405F",
"5#	c #13293F",
"6#	c #07101A",
"7#	c #11202D",
"8#	c #274561",
"9#	c #2E5070",
"0#	c #6A869E",
"a#	c #94AEC2",
"b#	c #7D98AE",
"c#	c #3E6283",
"d#	c #3D6181",
"e#	c #3A5F7F",
"f#	c #385C7C",
"g#	c #345878",
"h#	c #7693AA",
"i#	c #8BA7BC",
"j#	c #87A4B9",
"k#	c #83A0B6",
"l#	c #4A657D",
"m#	c #18334E",
"n#	c #08141F",
"o#	c #122334",
"p#	c #142536",
"q#	c #294A6A",
"r#	c #3D5E7C",
"s#	c #8FABBF",
"t#	c #8BA5BA",
"u#	c #55718A",
"v#	c #355878",
"w#	c #375B7C",
"x#	c #365A7A",
"y#	c #355979",
"z#	c #335777",
"A#	c #315475",
"B#	c #2E5171",
"C#	c #638099",
"D#	c #85A2B7",
"E#	c #819FB5",
"F#	c #6F8DA4",
"G#	c #183450",
"H#	c #0C1C2D",
"I#	c #040A0F",
"J#	c #142739",
"K#	c #2A4A69",
"L#	c #87A4B8",
"M#	c #8BA7BB",
"N#	c #557089",
"O#	c #2B4C6C",
"P#	c #305373",
"Q#	c #2F5273",
"R#	c #2C4F6F",
"S#	c #2A4D6D",
"T#	c #284A6A",
"U#	c #3F5E7A",
"V#	c #7E9DB3",
"W#	c #7A9AB1",
"X#	c #3B566E",
"Y#	c #0C1D2F",
"Z#	c #060F18",
"`#	c #112335",
" $	c #132434",
".$	c #6F8A9D",
"+$	c #82A0B5",
"@$	c #84A1B6",
"#$	c #294561",
"$$	c #284B6B",
"%$	c #294B6B",
"&$	c #274969",
"*$	c #264867",
"=$	c #224262",
"-$	c #23415F",
";$	c #6A899F",
">$	c #32485D",
",$	c #091625",
"'$	c #060E18",
")$	c #142333",
"!$	c #26323D",
"~$	c #536978",
"{$	c #1E354D",
"]$	c #1F3E5C",
"^$	c #224363",
"/$	c #204161",
"($	c #1F405F",
"_$	c #1E3E5E",
":$	c #1C3C5B",
"<$	c #173451",
"[$	c #0C1E31",
"}$	c #07121E",
"|$	c #050D16",
"1$	c #162331",
"2$	c #091521",
"3$	c #102437",
"4$	c #152E46",
"5$	c #193551",
"6$	c #1B3A58",
"7$	c #1B3B5A",
"8$	c #193856",
"9$	c #16324F",
"0$	c #122A42",
"a$	c #0D1F33",
"b$	c #081420",
"c$	c #081522",
"d$	c #000306",
"e$	c #050E17",
"f$	c #0A1A2A",
"g$	c #0A1928",
"h$	c #0A1929",
"i$	c #091623",
"j$	c #081421",
"k$	c #081523",
"l$	c #091725",
"m$	c #06121E",
"                                                                ",
"                        . + @ # $ %                             ",
"                    & * = - ; > , ' ) ! ~                       ",
"                { ] ^ / ( _ : < [ } | 1 2 3 4                   ",
"              5 6 7 8 9 0 a < b } c d e f g h i                 ",
"            j k , l m n o p q r s t u v f w m x y               ",
"          z A B C D E F G F H I J r K L M N g O P Q             ",
"        R S T U p V W X Y Z `  ...+.T @.9 #.$.%.&.*.=.          ",
"      -.;.v >.,.'.).!.~.{.].{.^./.(._.:.<.[.}.|.1.2.3.4.        ",
"      5.6.#.9 7.8.9.0.a.b.c.d.e.f.g.h.i.j.k.l.1 m.2.n.o.        ",
"      p.u [.q.r.s.t.u.v.w.x.y.z.A.B.C.D.E.F.G.H.I.J.K.L.        ",
"    M.N.O.P.Q.R.S.T.U.V.W.W.X.Y.Z.`. +.+++@+#+$+%+&+*+=+-+      ",
"    ;+>+,+'+)+!+~+{+]+^+/+(+_+:+<+[+B.}+|+O.1+2+3+4+5+6+7+      ",
"    8+9+0+a+b+c+d+e+f+g+h+i+g+j+k+l+m+n+C.o+p+q+r+s+t+u+v+      ",
"    w+x+y+z+A+B+C+D+E+F+G+G+H+I+J+K+L+M+N+O+P+Q+R+*+S+T+v+      ",
"    U+V+W+X+Y+Z+`+ @.@+@@@#@$@%@&@M+*@=@-@;@>@2.,@'@)@!@~@      ",
"    U+{@]@^@/@(@_@:@<@[@}@|@1@2@3@4@_@5@6@7@8@9@0@a@b@c@d@      ",
"    e@f@g@h@i@j@k@l@m@n@o@p@q@r@s@t@u@v@>@8@w@x@y@z@A@B@C@      ",
"    D@E@F@G@2.H@I@P+k@J@K@L@M@N@O@P@Q@R@K.w@K.t+S@T@U@V@W@      ",
"      X@Y@Z@,@J.`@3+>@y+j@ #.#+#@###$#]@%#*+t+&#*#=#-#;#>#      ",
"      ,#'#)#!#K.~#{#2.`@]#^#/#(#_#:#<#[#}#|#1#2#3#4#5#6#        ",
"        7#8#9#0#a#*+E.,@b#F@g@c#d#e#f#g#h#i#j#k#l#m#n#>#        ",
"        o#p#q#r#&#s#y@t#u#v#w#x#y#z#A#B#C#D#E#F#G#H#I#          ",
"          o#J#K#L#2#M#N#O#P#P#Q#B#R#S#T#U#V#W#X#Y#Z#>#          ",
"            `# $.$+$@$#$$$%$%$T#&$*$=#=$-$;$>$,$'$>#            ",
"              )$!$~${$]$^$^$^$=$/$($_$:$<$[$}$|$>#              ",
"                6#1$2$3$4$5$6$7$8$9$0$a$b$c$d$>#                ",
"                    e$f$g$h$i$j$k$l$k$m$d$>#                    ",
"                        >#>#>#>#>#>#>#>#                        ",
"                                                                ",
"                                                                ",
"                                                                "};
