/* XPM */
static char * excluirtudo_xpm[] = {
"16 16 150 2",
"  	c None",
". 	c #3A0000",
"+ 	c #4C0000",
"@ 	c #580000",
"# 	c #6F0202",
"$ 	c #6E0000",
"% 	c #600000",
"& 	c #B04444",
"* 	c #C67878",
"= 	c #CE7D7D",
"- 	c #D98989",
"; 	c #E39696",
"> 	c #EE9F9F",
", 	c #FAA9A9",
"' 	c #FFB8B8",
") 	c #FFBABA",
"! 	c #FFB1B1",
"~ 	c #FFB0B0",
"{ 	c #FFAFAF",
"] 	c #C02626",
"^ 	c #420000",
"/ 	c #E89898",
"( 	c #FFDFDF",
"_ 	c #FF6262",
": 	c #FF4D4D",
"< 	c #FF3838",
"[ 	c #FF2020",
"} 	c #FF1B1B",
"| 	c #FF1515",
"1 	c #FF0202",
"2 	c #FF0000",
"3 	c #FF8181",
"4 	c #450000",
"5 	c #750404",
"6 	c #FFE8E8",
"7 	c #FF5A5A",
"8 	c #FFA8A8",
"9 	c #FFBEBE",
"0 	c #FF5858",
"a 	c #FF0E0E",
"b 	c #FF5F5F",
"c 	c #750C0C",
"d 	c #FFC5C5",
"e 	c #FF3232",
"f 	c #FFEDED",
"g 	c #FFBDBD",
"h 	c #FF5D5D",
"i 	c #FF4646",
"j 	c #FF7878",
"k 	c #FFFDFD",
"l 	c #FFCACA",
"m 	c #FF1313",
"n 	c #FF4545",
"o 	c #430000",
"p 	c #730B0B",
"q 	c #FFC4C4",
"r 	c #FF2B2B",
"s 	c #FFF9F9",
"t 	c #FF5454",
"u 	c #FF6C6C",
"v 	c #FF8888",
"w 	c #FF1919",
"x 	c #FFE6E6",
"y 	c #FFACAC",
"z 	c #FF2D2D",
"A 	c #FFD8D8",
"B 	c #FF6B6B",
"C 	c #FFF5F5",
"D 	c #FFCDCD",
"E 	c #FF0B0B",
"F 	c #FF0303",
"G 	c #FF6D6D",
"H 	c #FFFEFE",
"I 	c #FF4141",
"J 	c #FF1616",
"K 	c #FF3939",
"L 	c #FFEEEE",
"M 	c #FF0707",
"N 	c #FF1717",
"O 	c #FFFFFF",
"P 	c #FFA6A6",
"Q 	c #FF0F0F",
"R 	c #FF1A1A",
"S 	c #FF6060",
"T 	c #FF5757",
"U 	c #730808",
"V 	c #FF9696",
"W 	c #FFD2D2",
"X 	c #FF3434",
"Y 	c #FF9090",
"Z 	c #FF2A2A",
"` 	c #FF6161",
" .	c #730505",
"..	c #FF5353",
"+.	c #FFF3F3",
"@.	c #FF5959",
"#.	c #FF8383",
"$.	c #FF2C2C",
"%.	c #FF4B4B",
"&.	c #730202",
"*.	c #FF7272",
"=.	c #FF1D1D",
"-.	c #FFF8F8",
";.	c #FF8D8D",
">.	c #FF6969",
",.	c #FF5050",
"'.	c #FFCECE",
").	c #FFF6F6",
"!.	c #FF9A9A",
"~.	c #730000",
"{.	c #FF0909",
"].	c #FF6565",
"^.	c #FFC7C7",
"/.	c #FF8282",
"(.	c #FFA9A9",
"_.	c #FFB9B9",
":.	c #750000",
"<.	c #FFF0F0",
"[.	c #FFB4B4",
"}.	c #FFCBCB",
"|.	c #FFFBFB",
"1.	c #FFA5A5",
"2.	c #FF3737",
"3.	c #FF3131",
"4.	c #FF3E3E",
"5.	c #FF4444",
"6.	c #FF6868",
"7.	c #FF6F6F",
"8.	c #FF7373",
"9.	c #FF7C7C",
"0.	c #FF7676",
"a.	c #FF0C0C",
"b.	c #DB0000",
"c.	c #360000",
"d.	c #D20505",
"e.	c #FF0D0D",
"f.	c #F80000",
"g.	c #ED0000",
"h.	c #E20000",
"i.	c #D80000",
"j.	c #CE0000",
"k.	c #C50000",
"l.	c #A70000",
"m.	c #460000",
"n.	c #310000",
"o.	c #610000",
"p.	c #5B0000",
"q.	c #490000",
"r.	c #400000",
"s.	c #320000",
"                  . + @ # $     ",
"  % & * = - ; > , ' ) ! ~ { ]   ",
"^ / ( _ : < [ } | 1 2 2 2 : 3 4 ",
"5 6 | 2 2 2 7 8 9 ! 0 2 2 a b 4 ",
"c d 2 2 e f g h i j k l m | n o ",
"p q 2 r s t 2 u v 2 w x y [ z o ",
"p 9 2 A B 2 2 C D E F G H I J o ",
"p ~ K L M 2 N O P Q R S O T F o ",
"U V S W 2 2 X O Y w Z v k ` 2 o ",
" .3 ..+.m 2 @.O #.$.%.( W u 2 o ",
"&.*.=.-.;.E ` -.>.,.'.).!.Y 2 o ",
"~.S {.].O ^./.v 8 L C (.! _.2 4 ",
":.: [ [ ` '.+.+.<.W [.}.|.1.2 4 ",
"~.2.3.4.5.,.6.*.7.8.9.#.0.a.b.  ",
"c.d.m e.1 2 2 f.g.h.i.j.k.l.m.  ",
"  n.o.p.q.r.s.                  "};
