/* XPM */
static char * fornecedores_xpm[] = {
"32 32 228 2",
"  	c None",
". 	c #000000",
"+ 	c #DBDBDB",
"@ 	c #BCBCBC",
"# 	c #BEBEBE",
"$ 	c #BBBBBB",
"% 	c #C0C0C0",
"& 	c #B4B4B4",
"* 	c #9E9E9E",
"= 	c #545454",
"- 	c #D9D9D9",
"; 	c #BABABA",
"> 	c #CECECE",
", 	c #686868",
"' 	c #606060",
") 	c #7B7B7B",
"! 	c #A8A8A8",
"~ 	c #979797",
"{ 	c #C0C0C1",
"] 	c #C1C1C1",
"^ 	c #C2C2C2",
"/ 	c #C4C4C4",
"( 	c #C5C5C5",
"_ 	c #C7C7C7",
": 	c #C7C7C8",
"< 	c #C8C8C8",
"[ 	c #C9CAC9",
"} 	c #CACACA",
"| 	c #CBCBCB",
"1 	c #CCCCCC",
"2 	c #CDCDCC",
"3 	c #CFCFCF",
"4 	c #D0D0D0",
"5 	c #D1D1D1",
"6 	c #D2D2D2",
"7 	c #D3D3D3",
"8 	c #CCCBCC",
"9 	c #C2C2C1",
"0 	c #262626",
"a 	c #ADADAD",
"b 	c #7C7C7C",
"c 	c #6C6C6C",
"d 	c #706F6F",
"e 	c #727272",
"f 	c #757575",
"g 	c #787778",
"h 	c #7B7A7B",
"i 	c #7D7D7D",
"j 	c #808080",
"k 	c #838383",
"l 	c #858686",
"m 	c #888888",
"n 	c #8B8B8B",
"o 	c #8E8E8D",
"p 	c #909191",
"q 	c #939393",
"r 	c #969697",
"s 	c #999999",
"t 	c #9C9C9C",
"u 	c #9F9E9E",
"v 	c #A2A2A1",
"w 	c #A4A4A4",
"x 	c #A7A7A7",
"y 	c #A9AAA9",
"z 	c #7E7E7E",
"A 	c #272727",
"B 	c #1F1F1F",
"C 	c #8B8C8B",
"D 	c #6E6E6E",
"E 	c #717171",
"F 	c #747474",
"G 	c #777777",
"H 	c #797979",
"I 	c #7F7F7F",
"J 	c #828282",
"K 	c #848584",
"L 	c #878788",
"M 	c #8A8A8A",
"N 	c #8D8D8D",
"O 	c #90908F",
"P 	c #939292",
"Q 	c #959595",
"R 	c #989898",
"S 	c #9B9B9B",
"T 	c #A1A0A0",
"U 	c #A3A3A3",
"V 	c #A6A6A6",
"W 	c #A9A9A9",
"X 	c #ABACAC",
"Y 	c #787878",
"Z 	c #242424",
"` 	c #191919",
" .	c #818181",
"..	c #707171",
"+.	c #747374",
"@.	c #767676",
"#.	c #7C7C7B",
"$.	c #7E7E7F",
"%.	c #848484",
"&.	c #878687",
"*.	c #8C8C8C",
"=.	c #908F8F",
"-.	c #929292",
";.	c #9A9A9B",
">.	c #9D9D9D",
",.	c #A0A0A0",
"'.	c #A2A2A3",
").	c #A6A6A5",
"!.	c #ABABAB",
"~.	c #AEAEAD",
"{.	c #6B6A6A",
"].	c #181818",
"^.	c #2D2D2D",
"/.	c #656565",
"(.	c #A5A5A4",
"_.	c #7A7B7B",
":.	c #7D7D7E",
"<.	c #868686",
"[.	c #8B8C8C",
"}.	c #8E8E8E",
"|.	c #919191",
"1.	c #939394",
"2.	c #9A9999",
"3.	c #9D9C9C",
"4.	c #9F9F9E",
"5.	c #A2A1A2",
"6.	c #AAAAAA",
"7.	c #989998",
"8.	c #3C3C3C",
"9.	c #202020",
"0.	c #5D5D5D",
"a.	c #AFAFAF",
"b.	c #757474",
"c.	c #777877",
"d.	c #7A7A7A",
"e.	c #807F80",
"f.	c #828383",
"g.	c #858685",
"h.	c #888988",
"i.	c #8B8A8B",
"j.	c #8E8D8E",
"k.	c #909090",
"l.	c #939493",
"m.	c #969696",
"n.	c #9F9E9F",
"o.	c #A1A1A1",
"p.	c #A6A7A6",
"q.	c #AAA9A9",
"r.	c #ACACAC",
"s.	c #9A9A9A",
"t.	c #303030",
"u.	c #2A2A2A",
"v.	c #818282",
"w.	c #878786",
"x.	c #8F8F8F",
"y.	c #989797",
"z.	c #9A9B9B",
"A.	c #AEADAE",
"B.	c #B1B1B1",
"C.	c #3A3A3A",
"D.	c #232323",
"E.	c #B6B6B5",
"F.	c #868586",
"G.	c #797978",
"H.	c #7F7F7E",
"I.	c #868786",
"J.	c #898A89",
"K.	c #949595",
"L.	c #A2A2A2",
"M.	c #ADADAE",
"N.	c #B0B0B0",
"O.	c #767776",
"P.	c #252525",
"Q.	c #1E1E1E",
"R.	c #9F9F9F",
"S.	c #959695",
"T.	c #838382",
"U.	c #A2A1A1",
"V.	c #A9AAAA",
"W.	c #6D6E6D",
"X.	c #151415",
"Y.	c #ABABAA",
"Z.	c #807F7F",
"`.	c #858585",
" +	c #8D8E8E",
".+	c #959696",
"++	c #9B9B9C",
"@+	c #A4A3A4",
"#+	c #B1B2B1",
"$+	c #9E9D9D",
"%+	c #5E5D5E",
"&+	c #0F0F0F",
"*+	c #757574",
"=+	c #B6B6B6",
"-+	c #8A898A",
";+	c #919292",
">+	c #9A9B9A",
",+	c #A09FA0",
"'+	c #A2A3A3",
")+	c #A5A5A6",
"!+	c #ADAEAD",
"~+	c #B0B1B1",
"{+	c #B3B4B3",
"]+	c #353535",
"^+	c #131313",
"/+	c #4F4F4F",
"(+	c #B7B7B7",
"_+	c #868687",
":+	c #898989",
"<+	c #8E8F8E",
"[+	c #949494",
"}+	c #999A9A",
"|+	c #9C9D9D",
"1+	c #A3A2A2",
"2+	c #A5A5A5",
"3+	c #A8A8A7",
"4+	c #B0AFB0",
"5+	c #B3B3B3",
"6+	c #2F2E2F",
"7+	c #080808",
"8+	c #393839",
"9+	c #2E2E2E",
"0+	c #6D6D6D",
"a+	c #6F6F6F",
"b+	c #717172",
"c+	c #8D8D8E",
"d+	c #908F90",
"e+	c #2C2C2C",
"                                                                ",
"                                                                ",
"                                                                ",
"                                                                ",
"                                                                ",
"                        . . . . . . . .                         ",
"                      . . . . . . . . . .                       ",
"                      . .             . .                       ",
"      . . . . . . . . . . . . . . . . . . . . . . . . . .       ",
"    . + @ @ @ @ @ @ @ . . # $ $ $ $ $ . . % & & & & & * = .     ",
"    . - ; > , ' ) ! & & & & & & & & & & & & > , ' ) ! & ~ .     ",
"    . - { { ] ^ / / ( _ : < [ } | 1 2 > 3 4 5 6 7 | 8 9 ~ .     ",
"    0 a b c d e f g h i j k l m n o p q r s t u v w x y z A     ",
"    B ~ C D E F G H b I J K L M N O P Q R S * T U V W X Y Z     ",
"    `  .~ ..+.@.H #.$. .%.&.M *.=.-.Q ~ ;.>.,.'.).! !.~.{.].    ",
"    ^./.(.e f Y _.:.j k <.m [.}.|.1.~ 2.3.4.5.w x 6.a 7.8.9.    ",
"      0.a.b.c.d.i e.f.g.h.i.j.k.l.m.s S n.o.w p.q.r.a.s.t.      ",
"      u.# @.H #.I v.%.w.M N x.-.Q y.z.>.,.U V ! X A.B.m C.      ",
"      D.E.F.G.) H. .%.I.J.*.x.-.K.~ s.>.,.L.V ! !.M.N.O.P.      ",
"      Q.R.S.d.i j T.<.m n }.|.q m.s t * U.w x V.a a.B.W.X.      ",
"      Z m.Y.i Z.J `.m n  +k.q .+R ++* o.@+V y r.a.#+$+%+&+      ",
"      9.*+=+z  .%.w.-+*.x.;+K.~ >+>.,+'+)+! !.!+~+{+* ]+^+      ",
"      ]+/+(+ .k _+:+[.<+|.[+~ }+|+R.1+2+3+6.a 4+5+E.:+6+7+      ",
"      8+9+a 0+a+b++.@.Y ) i e.J %.<.:+n c+d+-.[+~ s a+e+        ",
"        . . . . . . . . . . . . . . . . . . . . . . . .         ",
"                                                                ",
"                                                                ",
"                                                                ",
"                                                                ",
"                                                                ",
"                                                                ",
"                                                                "};
