/* XPM */
static char * funcionarios_xpm[] = {
"32 32 258 2",
"  	c None",
". 	c #000000",
"+ 	c #261705",
"@ 	c #9E5E16",
"# 	c #895215",
"$ 	c #663F10",
"% 	c #492C0C",
"& 	c #673D0F",
"* 	c #864F13",
"= 	c #9F5C15",
"- 	c #56310A",
"; 	c #0D0801",
"> 	c #58340C",
", 	c #D37D1E",
"' 	c #D68021",
") 	c #D98423",
"! 	c #D37C1E",
"~ 	c #CD761A",
"{ 	c #7B460F",
"] 	c #180E03",
"^ 	c #291805",
"/ 	c #975713",
"( 	c #D27B1D",
"_ 	c #D37D1F",
": 	c #D57F20",
"< 	c #D27C1E",
"[ 	c #CE781B",
"} 	c #CC751A",
"| 	c #995713",
"1 	c #4B2A09",
"2 	c #2D1905",
"3 	c #A75F14",
"4 	c #CE771B",
"5 	c #CD781C",
"6 	c #CE781C",
"7 	c #CD771B",
"8 	c #CC7419",
"9 	c #AA6014",
"0 	c #4B2908",
"a 	c #351D05",
"b 	c #AA5F12",
"c 	c #CA7217",
"d 	c #CA7318",
"e 	c #CB7319",
"f 	c #C66F15",
"g 	c #AD5F11",
"h 	c #522D08",
"i 	c #321C06",
"j 	c #995510",
"k 	c #945210",
"l 	c #422507",
"m 	c #281502",
"n 	c #311A03",
"o 	c #8D4F0F",
"p 	c #C26B14",
"q 	c #A55A10",
"r 	c #3F2306",
"s 	c #68390A",
"t 	c #C36A13",
"u 	c #4E2A07",
"v 	c #AF610E",
"w 	c #BC6811",
"x 	c #AE600E",
"y 	c #3B1F05",
"z 	c #B46211",
"A 	c #88490D",
"B 	c #120901",
"C 	c #A85A10",
"D 	c #582E07",
"E 	c #492706",
"F 	c #5A3108",
"G 	c #3A1E04",
"H 	c #9B540E",
"I 	c #391F05",
"J 	c #0A0E10",
"K 	c #33404B",
"L 	c #6C8196",
"M 	c #39332C",
"N 	c #422509",
"O 	c #3C2005",
"P 	c #3E2105",
"Q 	c #331B04",
"R 	c #2C1703",
"S 	c #3C2916",
"T 	c #36414C",
"U 	c #3D4D5E",
"V 	c #181E25",
"W 	c #3B4248",
"X 	c #9AA8B6",
"Y 	c #A4B6C9",
"Z 	c #8198AF",
"` 	c #61768C",
" .	c #31373E",
"..	c #17130F",
"+.	c #110901",
"@.	c #120C09",
"#.	c #2E2E2F",
"$.	c #5C6B7C",
"%.	c #708092",
"&.	c #687D93",
"*.	c #556C84",
"=.	c #2C3A48",
"-.	c #080B0E",
";.	c #070809",
">.	c #46505A",
",.	c #9AAAB9",
"'.	c #738EAA",
").	c #7591AC",
"!.	c #7692AE",
"~.	c #68839D",
"{.	c #879AAF",
"].	c #D4D4D5",
"^.	c #C9CACA",
"/.	c #C2C3C4",
"(.	c #BAC4CE",
"_.	c #7B8FA3",
":.	c #6B8198",
"<.	c #627D98",
"[.	c #6F88A2",
"}.	c #6B859E",
"|.	c #44596E",
"1.	c #0B1013",
"2.	c #3C4046",
"3.	c #8E9AA7",
"4.	c #7992AC",
"5.	c #6E8AA6",
"6.	c #708CA8",
"7.	c #728EA9",
"8.	c #6F8BA7",
"9.	c #637C96",
"0.	c #E5E8EA",
"a.	c #F4F4F4",
"b.	c #EDEEEE",
"c.	c #ABBACA",
"d.	c #758FA7",
"e.	c #65819D",
"f.	c #627E9A",
"g.	c #5F7B97",
"h.	c #5A7793",
"i.	c #667F99",
"j.	c #314253",
"k.	c #090C10",
"l.	c #59606B",
"m.	c #92A6B9",
"n.	c #67839F",
"o.	c #6985A1",
"p.	c #6B87A2",
"q.	c #6C88A4",
"r.	c #6D89A4",
"s.	c #69849E",
"t.	c #96A1AE",
"u.	c #FBFBFC",
"v.	c #DEE4EA",
"w.	c #90A5B8",
"x.	c #718BA4",
"y.	c #66819D",
"z.	c #6C859F",
"A.	c #657F9A",
"B.	c #577490",
"C.	c #526F8C",
"D.	c #5D7690",
"E.	c #1D2832",
"F.	c #818B94",
"G.	c #6E87A1",
"H.	c #637F9B",
"I.	c #66829E",
"J.	c #6884A0",
"K.	c #728394",
"L.	c #ECEEF1",
"M.	c #BFCBD6",
"N.	c #8399AE",
"O.	c #607C98",
"P.	c #899DB1",
"Q.	c #DBE1E7",
"R.	c #8A9EB2",
"S.	c #577390",
"T.	c #4F6C89",
"U.	c #4B6885",
"V.	c #344960",
"W.	c #95A7B8",
"X.	c #5B7793",
"Y.	c #5D7996",
"Z.	c #607C99",
"`.	c #617D99",
" +	c #61768A",
".+	c #D3D9DE",
"++	c #9DAEC0",
"@+	c #6B859F",
"#+	c #6A849E",
"$+	c #BFCAD3",
"%+	c #C7CED7",
"&+	c #C1CBD4",
"*+	c #5B7692",
"=+	c #476481",
"-+	c #415E7B",
";+	c #889BAF",
">+	c #56738F",
",+	c #587591",
"'+	c #5C7894",
")+	c #5C7995",
"!+	c #5D7995",
"~+	c #5C738B",
"{+	c #C0C8CF",
"]+	c #90A3B6",
"^+	c #67819A",
"/+	c #54718D",
"(+	c #516D8A",
"_+	c #4F6B88",
":+	c #4B6784",
"<+	c #486481",
"[+	c #44607E",
"}+	c #3C5874",
"|+	c #6B839A",
"1+	c #536F8C",
"2+	c #54718E",
"3+	c #56728F",
"4+	c #506B86",
"5+	c #8A9BAB",
"6+	c #7188A1",
"7+	c #4C6885",
"8+	c #4A6683",
"9+	c #466280",
"0+	c #43607D",
"a+	c #3F5B79",
"b+	c #344B65",
"c+	c #3B536D",
"d+	c #4B6884",
"e+	c #4C6985",
"f+	c #506C89",
"g+	c #516E8A",
"h+	c #526E8B",
"i+	c #526F8B",
"j+	c #4C6883",
"k+	c #75889B",
"l+	c #6D859C",
"m+	c #4E6B88",
"n+	c #4C6986",
"o+	c #4A6784",
"p+	c #46627F",
"q+	c #415D7A",
"r+	c #37516E",
"s+	c #354F6A",
"t+	c #04070A",
"u+	c #364E68",
"v+	c #3A5572",
"w+	c #324860",
"x+	c #374F69",
"y+	c #39526C",
"z+	c #3A536F",
"A+	c #3A546F",
"B+	c #3A5470",
"C+	c #415B75",
"D+	c #3B5571",
"E+	c #395470",
"F+	c #39536F",
"G+	c #2D4359",
"H+	c #27394C",
"I+	c #2A3C51",
"                                                                ",
"                                                                ",
"                            . . .                               ",
"                        . . . . . . .                           ",
"                      . . . . . . . . .                         ",
"                      . . . . . . . . . .                       ",
"                    . . . . . . . . . . .                       ",
"                    . + @ # $ % & * = - .                       ",
"                    ; > , ' ) ) ' ! ~ { ]                       ",
"                    ^ / ( _ : : < [ } | 1                       ",
"                    2 3 4 5 6 6 7 } 8 9 0                       ",
"                    a b c d e e d c f g h                       ",
"                    i j f k l m n o p q r                       ",
"                      s t u v w x y z A .                       ",
"                    . B C D E F u G H I .                       ",
"                  J K L M N O P Q R S T U V .                   ",
"              . W X Y Z `  ...+.@.#.$.%.&.*.=.-.                ",
"            ;.>.,.'.).!.~.{.].^./.(._.:.<.[.}.|.1.              ",
"            2.3.4.5.6.7.8.9.0.a.b.c.d.e.f.g.h.i.j.k.            ",
"            l.m.n.o.p.q.r.s.t.u.v.w.x.y.z.A.B.C.D.E.            ",
"          . F.G.H.e.I.n.J.y.K.L.M.N.O.P.Q.R.S.T.U.V..           ",
"          . W.X.Y.g.Z.`.f.f. +.+++@+#+$+%+&+*+U.=+-+.           ",
"          . ;+>+,+h.'+)+!+!+~+{+]+^+>+/+(+_+:+<+[+}+.           ",
"          . |+(+1+2+3+>+S.S.4+5+6+1+(+_+7+8+9+0+a+b+.           ",
"          . c+d+e+f+g+h+i+i+j+k+l+m+n+o+<+p+q+r+s+t+            ",
"            . u+v+w+x+y+z+A+B+C+D+B+B+E+F+G+H+I+. .             ",
"              . . . . . . . . . . . . . . . . .                 ",
"                                                                ",
"                                                                ",
"                                                                ",
"                                                                ",
"                                                                "};
