/* XPM */
static char * gedit_icon_xpm[] = {
"32 32 250 2",
"  	c None",
". 	c #BBBBBB",
"+ 	c #C8C8C8",
"@ 	c #585858",
"# 	c #EDEDED",
"$ 	c #696969",
"% 	c #D8D8D8",
"& 	c #AEAEAE",
"* 	c #C6C6C6",
"= 	c #A4A4A4",
"- 	c #9B9B9B",
"; 	c #E3E3E3",
"> 	c #565656",
", 	c #8C8C8C",
"' 	c #CFCFCF",
") 	c #A2A2A2",
"! 	c #A7A7A7",
"~ 	c #919191",
"{ 	c #E2E2E2",
"] 	c #B5B5B5",
"^ 	c #C7C7C7",
"/ 	c #B4B4B4",
"( 	c #383838",
"_ 	c #C1C1C1",
": 	c #C2C2C2",
"< 	c #898989",
"[ 	c #727272",
"} 	c #A5A5A5",
"| 	c #A1A1A1",
"1 	c #828282",
"2 	c #BEBEBE",
"3 	c #E4E4E4",
"4 	c #464646",
"5 	c #808080",
"6 	c #D2D2D2",
"7 	c #A6A6A6",
"8 	c #797979",
"9 	c #757575",
"0 	c #B6B6B6",
"a 	c #7F7F7F",
"b 	c #5D5D5D",
"c 	c #A9A9A9",
"d 	c #E1E1E1",
"e 	c #E5E5E5",
"f 	c #DEDEDE",
"g 	c #DDDDDD",
"h 	c #DBDBDB",
"i 	c #1F1F1F",
"j 	c #929292",
"k 	c #A8A8A8",
"l 	c #9D9D9D",
"m 	c #636363",
"n 	c #5B5B5B",
"o 	c #B8B8B8",
"p 	c #C3C3C3",
"q 	c #B7B7B7",
"r 	c #C9C9C9",
"s 	c #DFDFDF",
"t 	c #DADADA",
"u 	c #7E7E7E",
"v 	c #838383",
"w 	c #656565",
"x 	c #767676",
"y 	c #A0A0A0",
"z 	c #CCCCCC",
"A 	c #D7D7D7",
"B 	c #D0D0D0",
"C 	c #D6D6D6",
"D 	c #2A2A2A",
"E 	c #959595",
"F 	c #848484",
"G 	c #6C6C6C",
"H 	c #EBEBEB",
"I 	c #ECECEC",
"J 	c #E9E9E9",
"K 	c #DCDCDC",
"L 	c #D9D9D9",
"M 	c #D5D5D5",
"N 	c #D3D3D3",
"O 	c #E0E0E0",
"P 	c #7B7B7B",
"Q 	c #9E9E9E",
"R 	c #E6E6E6",
"S 	c #F0F0F0",
"T 	c #EEEEEE",
"U 	c #CDCDCD",
"V 	c #2C2C2C",
"W 	c #8B8B8B",
"X 	c #CBCBCB",
"Y 	c #EAEAEA",
"Z 	c #E8E8E8",
"` 	c #CECECE",
" .	c #2B2B2B",
"..	c #FAFAFA",
"+.	c #F6F6F6",
"@.	c #F1F1F1",
"#.	c #E7E7E7",
"$.	c #D4D4D4",
"%.	c #D1D1D1",
"&.	c #C5C5C5",
"*.	c #BCBCBC",
"=.	c #090909",
"-.	c #525252",
";.	c #ABABAB",
">.	c #FCFCFC",
",.	c #F8F8F8",
"'.	c #F3F3F3",
").	c #0E0E0E",
"!.	c #4E4E4E",
"~.	c #C0C0C0",
"{.	c #F9F9F9",
"].	c #F4F4F4",
"^.	c #EFEFEF",
"/.	c #BE4E3D",
"(.	c #E19F94",
"_.	c #C7958D",
":.	c #874A40",
"<.	c #261D1B",
"[.	c #747474",
"}.	c #FBFBFB",
"|.	c #CACACA",
"1.	c #AFAFAF",
"2.	c #862F21",
"3.	c #BE5140",
"4.	c #D08176",
"5.	c #DCCCC9",
"6.	c #C4C2BD",
"7.	c #837B67",
"8.	c #918A77",
"9.	c #F7F7F7",
"0.	c #BFBFBF",
"a.	c #B3B3B3",
"b.	c #150704",
"c.	c #531B11",
"d.	c #802A1B",
"e.	c #9A584E",
"f.	c #8E8883",
"g.	c #D2C49A",
"h.	c #ECDCAF",
"i.	c #D9C99E",
"j.	c #C7B88F",
"k.	c #E8E4DA",
"l.	c #C4C4C4",
"m.	c #BDBDBD",
"n.	c #FDFDFD",
"o.	c #000000",
"p.	c #040101",
"q.	c #341009",
"r.	c #5B2E24",
"s.	c #786747",
"t.	c #AA7B1D",
"u.	c #C9A64D",
"v.	c #DDC47A",
"w.	c #F2E3B6",
"x.	c #EBD9A8",
"y.	c #EDE1BE",
"z.	c #E6E0CF",
"A.	c #030201",
"B.	c #140A07",
"C.	c #3F3117",
"D.	c #885C0F",
"E.	c #A67317",
"F.	c #BC8D2A",
"G.	c #C1A14F",
"H.	c #E4CE89",
"I.	c #F1DFAC",
"J.	c #EFE1BA",
"K.	c #DED0A8",
"L.	c #D7D2C3",
"M.	c #9A9A9A",
"N.	c #707070",
"O.	c #1D1403",
"P.	c #583C09",
"Q.	c #80570F",
"R.	c #AF7816",
"S.	c #B08022",
"T.	c #C6A44E",
"U.	c #DBC178",
"V.	c #F4E7C0",
"W.	c #F0DEAD",
"X.	c #DFD1A9",
"Y.	c #D4CCB7",
"Z.	c #CFCECB",
"`.	c #535353",
" +	c #070501",
".+	c #1F1604",
"++	c #66470C",
"@+	c #936412",
"#+	c #AC7819",
"$+	c #BA8A29",
"%+	c #C4A656",
"&+	c #E3CE8C",
"*+	c #F3E4B8",
"=+	c #F0E4C5",
"-+	c #E1D5B2",
";+	c #E3DECF",
">+	c #777777",
",+	c #3B3B3B",
"'+	c #593E0C",
")+	c #875D11",
"!+	c #B47D1B",
"~+	c #B58829",
"{+	c #C4A24C",
"]+	c #DAC277",
"^+	c #F4E7BD",
"/+	c #F3E6BC",
"(+	c #CFC39E",
"_+	c #867C60",
":+	c #3B382E",
"<+	c #66470D",
"[+	c #936614",
"}+	c #B3801F",
"|+	c #BB8E2E",
"1+	c #C4A756",
"2+	c #E2CD89",
"3+	c #F3E5B9",
"4+	c #E9DBAF",
"5+	c #C0A969",
"6+	c #030303",
"7+	c #201807",
"8+	c #563C0C",
"9+	c #8F6415",
"0+	c #BA821D",
"a+	c #BA8A2A",
"b+	c #C8A54D",
"c+	c #D9BF6E",
"d+	c #EBD7A9",
"e+	c #E4CDAF",
"f+	c #010101",
"g+	c #020202",
"h+	c #080602",
"i+	c #201705",
"j+	c #946716",
"k+	c #C18D26",
"l+	c #CCA241",
"m+	c #C6AA82",
"n+	c #D1C7BC",
"o+	c #E1D6C7",
"p+	c #4E3B14",
"q+	c #987741",
"r+	c #9B7B55",
"s+	c #947D62",
"t+	c #8B8074",
"u+	c #5E5449",
"v+	c #201910",
"w+	c #3E3121",
"x+	c #54442C",
"y+	c #2D261B",
"z+	c #18130D",
"A+	c #14100A",
"                                                                ",
"                                . +                             ",
"                                @   #                           ",
"                          $ % &     *                           ",
"                  = - ; >   , ' ) ! ~ {                         ",
"            ] ^ / (   _ : < [ } | 1 2 3                         ",
"            4 5 6 7 8 9 0 a b c d e f f g h                     ",
"          i   j k l m n o p q r 3 3 s f t s                     ",
"        u v a w x - y & z t ; e ; s A B % C 3                   ",
"      D E F E G | r { 3 H I J e K t L L % M N O                 ",
"      i P Q 6 t + M R S T J 3 { { O K L 6 z ' U h               ",
"        V W X s ; Y # # Y J Z e d s % ` U z ' z X '             ",
"           .) R ..+.@.S T Y #.; t $.6 $.N %.U + &.' *.          ",
"          =.-.;.>.,.'.S I J s h L t L A N U p . : p N           ",
"            ).!.~.{.].^.R O d O f K A B ^ : * + &._ 2 '         ",
"      /.(._.:.<.[.' }.S Z R 3 d g C X z z U |.^ 2 1.q ~.%.      ",
"      2.3.4.5.6.7.8.g 9.J #.O L N 6 M N ' X 0.o a.*.~._ L Z     ",
"    b.c.d.e.f.g.h.i.j.k.S e f h t L M B l.m.2 _ _ ~.' { ,.n.    ",
"    o.p.q.r.s.t.u.v.w.x.y.z.f g L N + _ ^ r ^ |.$.I ,.].M y     ",
"      o.A.B.C.D.E.F.G.H.I.J.K.L.` X z ` z r K #.9.9.p M.N.      ",
"          o.o.O.P.Q.R.S.T.U.V.W.X.Y.Z.M f @.^.O a.G `.          ",
"              o. +.+++@+#+$+%+&+*+=+-+;+J K Q >+,+              ",
"                o.o.o.O.'+)+!+~+{+]+^+/+(+_+:+                  ",
"                    o.o. +.+<+[+}+|+1+2+3+4+5+                  ",
"                        o.o.6+7+8+9+0+a+b+c+d+e+                ",
"                          o.f+g+h+i+8+j+k+l+m+n+o+              ",
"                                o.o.o. +p+q+r+s+t+u+            ",
"                                      o.A.v+w+x+y+z+A+          ",
"                                          o.o.o.o.              ",
"                                                                ",
"                                                                ",
"                                                                "};
