/* XPM */
static char * mercadorias_xpm[] = {
"32 32 73 1",
" 	c None",
".	c #000000",
"+	c #D8D8D8",
"@	c #FFFFFF",
"#	c #B7B7B7",
"$	c #D1D1D1",
"%	c #D2D2D2",
"&	c #D3D3D3",
"*	c #D5D5D5",
"=	c #D6D6D6",
"-	c #D7D7D7",
";	c #D9D9D9",
">	c #DADADA",
",	c #DBDBDB",
"'	c #DCDCDC",
")	c #DDDDDD",
"!	c #DEDEDE",
"~	c #E0E0E0",
"{	c #E1E1E1",
"]	c #E2E2E2",
"^	c #E3E3E3",
"/	c #E4E4E4",
"(	c #E5E5E5",
"_	c #E6E6E6",
":	c #E7E7E7",
"<	c #E8E8E8",
"[	c #E9E9E9",
"}	c #DFDFDF",
"|	c #EAEAEA",
"1	c #EBEBEB",
"2	c #D4D4D4",
"3	c #EDEDED",
"4	c #EEEEEE",
"5	c #ECECEC",
"6	c #EFEFEF",
"7	c #F0F0F0",
"8	c #F1F1F1",
"9	c #F2F2F2",
"0	c #F3F3F3",
"a	c #F4F4F4",
"b	c #F5F5F5",
"c	c #F6F6F6",
"d	c #F7F7F7",
"e	c #7E7E7E",
"f	c #464646",
"g	c #ABABAB",
"h	c #4D4D4D",
"i	c #ACACAC",
"j	c #303030",
"k	c #484848",
"l	c #828282",
"m	c #626262",
"n	c #767676",
"o	c #848484",
"p	c #B2B2B2",
"q	c #515151",
"r	c #B5B5B5",
"s	c #5B5B5B",
"t	c #F8F8F8",
"u	c #343434",
"v	c #808080",
"w	c #474747",
"x	c #818181",
"y	c #AFAFAF",
"z	c #B1B1B1",
"A	c #636363",
"B	c #656565",
"C	c #888888",
"D	c #666666",
"E	c #F9F9F9",
"F	c #FAFAFA",
"G	c #FBFBFB",
"H	c #A6A6A6",
"                                ",
"                                ",
"                                ",
"                                ",
"   .........................    ",
"  .+@@@@@@@@@@@@@@@@@@@@@@@#.   ",
"  .@$%&*=-+;>,')!~{]^/(_:<[-.   ",
"  .@%.*..+.>..).}.]..(..<.|;.   ",
"  .@&.=..;.,..!.{.^.._..[.1>.   ",
"  .@2.-..>.'..}.]./..:..|.3,.   ",
"  .@*.+..,.)..~.^.(..<..1.4'.   ",
"  .@-.;..'.!..{./._..[..5.6).   ",
"  .@+.>..).}..^.(.:..|..4.7!.   ",
"  .@;.,..!.~../._.<..1..6.8}.   ",
"  .@>.'..}.{..(.:.[..5..7.9}.   ",
"  .@,.)..~.].._.<.|..3..8.0~.   ",
"  .@'.!..{.^..:.[.1..4..9.a{.   ",
"  .@).}..].(..<.|.5..6..0.b].   ",
"  .@!.~..^._..[.1.3..8..a.c^.   ",
"  .@}.{]^/_:<[|15346890ab.d/.   ",
"  .@~.]efghijklmno6p9qrsc.t(.   ",
"  .@{.^euvwxklymzA790BCDd.E_.   ",
"  .@]^/(:<[|15346780abcdtEF:.   ",
"  .@^/(_<[|15346780abcdtEFG<.   ",
"  .{%&&*=-+;>,')!}~{]^/(_:<H.   ",
"   ..........................   ",
"                                ",
"                                ",
"                                ",
"                                ",
"                                ",
"                                "};
