/* XPM */
static char * movbanco_xpm[] = {
"32 32 409 2",
"  	c None",
". 	c #8D8DC0",
"+ 	c #8989BF",
"@ 	c #8282BA",
"# 	c #9696C5",
"$ 	c #9292C4",
"% 	c #8B8BC0",
"& 	c #999AC9",
"* 	c #7E7EB9",
"= 	c #6B6BA3",
"- 	c #9F9FC9",
"; 	c #9A9AC9",
"> 	c #9494C5",
", 	c #AEAED5",
"' 	c #AAC1BF",
") 	c #D2E3DF",
"! 	c #8F8FC4",
"~ 	c #7070AE",
"{ 	c #A8A8CF",
"] 	c #A3A3CD",
"^ 	c #9C9CCA",
"/ 	c #BABBDC",
"( 	c #8CB898",
"_ 	c #5DA65F",
": 	c #58AE58",
"< 	c #0F7F10",
"[ 	c #BFC1E2",
"} 	c #6E6EB0",
"| 	c #B1B1D4",
"1 	c #ACACD2",
"2 	c #AAABD1",
"3 	c #BCC4D5",
"4 	c #70A979",
"5 	c #B2D9B2",
"6 	c #D6F6D6",
"7 	c #8DE38D",
"8 	c #169416",
"9 	c #93C09F",
"0 	c #7171B3",
"a 	c #5E5EA1",
"b 	c #BABAD9",
"c 	c #B5B5D6",
"d 	c #B8B8D8",
"e 	c #C7CEDB",
"f 	c #77B17C",
"g 	c #6DAF6E",
"h 	c #BFE1BF",
"i 	c #D1F5D1",
"j 	c #76DD76",
"k 	c #16C316",
"l 	c #00BD00",
"m 	c #00B500",
"n 	c #2C8930",
"o 	c #9D9FCF",
"p 	c #5D5DA7",
"q 	c #C7C7E0",
"r 	c #C4C4DE",
"s 	c #BDBDDB",
"t 	c #C0C0DD",
"u 	c #C1CFCF",
"v 	c #5EA660",
"w 	c #6DAF6D",
"x 	c #CCE9CC",
"y 	c #CCF4CC",
"z 	c #9FE99F",
"A 	c #1FC61F",
"B 	c #00BF00",
"C 	c #00C500",
"D 	c #09CD09",
"E 	c #088A08",
"F 	c #AAC2C4",
"G 	c #5959A5",
"H 	c #4C4C91",
"I 	c #CCCCE3",
"J 	c #C6C6E0",
"K 	c #D0D0E5",
"L 	c #DEE5E6",
"M 	c #6FAF70",
"N 	c #7CB87C",
"O 	c #C9E8C9",
"P 	c #C8F3C8",
"Q 	c #A2EAA2",
"R 	c #79E179",
"S 	c #16C416",
"T 	c #01C601",
"U 	c #0BCD0B",
"V 	c #21D421",
"W 	c #27BE27",
"X 	c #2F8F33",
"Y 	c #D7E2EF",
"Z 	c #8283BF",
"` 	c #5454A0",
" .	c #CDCDE4",
"..	c #FFFFFF",
"+.	c #309430",
"@.	c #A7E0A7",
"#.	c #C3F1C3",
"$.	c #9DE99D",
"%.	c #74DF74",
"&.	c #4BD64B",
"*.	c #16C816",
"=.	c #01C701",
"-.	c #0DCE0D",
";.	c #24D424",
">.	c #2AC02A",
",.	c #2E9E31",
"'.	c #90BE9F",
").	c #E5EAFF",
"!.	c #E3E8FF",
"~.	c #B6BAE2",
"{.	c #5555A2",
"].	c #BABAD5",
"^.	c #BCBCDB",
"/.	c #F4F5FA",
"(.	c #219221",
"_.	c #67D367",
":.	c #6FDE6F",
"<.	c #45D545",
"[.	c #1DCC1D",
"}.	c #07CA07",
"|.	c #0FCF0F",
"1.	c #28D528",
"2.	c #25BA25",
"3.	c #269C29",
"4.	c #92C49F",
"5.	c #E7ECFF",
"6.	c #D1B0BF",
"7.	c #BF838F",
"8.	c #D7CADF",
"9.	c #E0E6FF",
"0.	c #6667AE",
"a.	c #52529C",
"b.	c #B7B7D8",
"c.	c #CDCDE5",
"d.	c #A5D3A9",
"e.	c #21AC21",
"f.	c #18CB18",
"g.	c #12D012",
"h.	c #2BD62B",
"i.	c #33C033",
"j.	c #54B358",
"k.	c #B5D6C4",
"l.	c #E9EDFF",
"m.	c #E8ECFF",
"n.	c #EABEBE",
"o.	c #FFCDCD",
"p.	c #D26062",
"q.	c #D4C8DF",
"r.	c #999CD1",
"s.	c #ADADCF",
"t.	c #B1B1D5",
"u.	c #E7EEEF",
"v.	c #44AA45",
"w.	c #17CE17",
"x.	c #2ED32E",
"y.	c #3FBF3F",
"z.	c #67B96C",
"A.	c #BEDCCC",
"B.	c #EBEFFF",
"C.	c #DBDEF4",
"D.	c #C3C5E5",
"E.	c #CFD3EF",
"F.	c #D6A1AB",
"G.	c #FF9393",
"H.	c #FE6262",
"I.	c #F40707",
"J.	c #B47180",
"K.	c #D3D9F9",
"L.	c #4E4E94",
"M.	c #A7A7CF",
"N.	c #D1D2E9",
"O.	c #A7D3AC",
"P.	c #7BCA7E",
"Q.	c #90CC96",
"R.	c #DCE9E9",
"S.	c #EEF1FF",
"T.	c #ECEFFF",
"U.	c #E5E8FB",
"V.	c #E8E8F3",
"W.	c #FCFDFF",
"X.	c #DCDEF2",
"Y.	c #B68099",
"Z.	c #FF2828",
"`.	c #FD0B0B",
" +	c #FE0E0E",
".+	c #BA7180",
"++	c #DAE1FF",
"@+	c #8689C5",
"#+	c #A0A0CA",
"$+	c #A7A7D0",
"%+	c #F3F5FF",
"&+	c #F2F4FF",
"*+	c #F0F2FF",
"=+	c #E0E2F4",
"-+	c #DDDFF2",
";+	c #D4D6EF",
">+	c #DDE0F5",
",+	c #F1F4FF",
"'+	c #E6EBFF",
")+	c #CCD5FF",
"!+	c #A2A5D7",
"~+	c #AF3A40",
"{+	c #D31818",
"]+	c #B31F21",
"^+	c #D0C5DF",
"/+	c #D8DFFF",
"(+	c #B6BCE8",
"_+	c #484889",
":+	c #9797C6",
"<+	c #D4D5ED",
"[+	c #F0F3FF",
"}+	c #E5E8F8",
"|+	c #EDEDF5",
"1+	c #FBFCFF",
"2+	c #DFE2F6",
"3+	c #B9BCE0",
"4+	c #D2D8FA",
"5+	c #D3DBFF",
"6+	c #D9E0FF",
"7+	c #A2A5D6",
"8+	c #DEE4FF",
"9+	c #DCE2FF",
"0+	c #CFD4F4",
"a+	c #BDC1E7",
"b+	c #CDD3F7",
"c+	c #D5DDFF",
"d+	c #6D6EB3",
"e+	c #53539E",
"f+	c #9191C3",
"g+	c #ABACD4",
"h+	c #EFF2FF",
"i+	c #E0E2F5",
"j+	c #E2E7FF",
"k+	c #CBD4FF",
"l+	c #A1A4D6",
"m+	c #C2C4E6",
"n+	c #B1B3DC",
"o+	c #9FA1D0",
"p+	c #C8CDF0",
"q+	c #DCE3FF",
"r+	c #D1D6F3",
"s+	c #F1F1F7",
"t+	c #C3C5E4",
"u+	c #C7CEF5",
"v+	c #A3A8DC",
"w+	c #8787B8",
"x+	c #8686BE",
"y+	c #E0E2F6",
"z+	c #E5E8FA",
"A+	c #CBD1F3",
"B+	c #D4DCFF",
"C+	c #9C9FD1",
"D+	c #D5DAF7",
"E+	c #CCD0F1",
"F+	c #D6DCFB",
"G+	c #D9DDF6",
"H+	c #E4E9FF",
"I+	c #C3CCFA",
"J+	c #9EA2D7",
"K+	c #C9D0F9",
"L+	c #5D5DA8",
"M+	c #4F4F97",
"N+	c #8282BB",
"O+	c #ADAED7",
"P+	c #EAEEFF",
"Q+	c #CCCFEB",
"R+	c #B2B4DC",
"S+	c #A0A2D0",
"T+	c #CBD0F0",
"U+	c #E1E6FF",
"V+	c #D4D8F3",
"W+	c #ECECF4",
"X+	c #FDFDFF",
"Y+	c #C8CCED",
"Z+	c #D6DEFF",
"`+	c #9BA0D6",
" @	c #CFD7FF",
".@	c #8A8ECB",
"+@	c #7979B3",
"@@	c #7D7EB9",
"#@	c #E1E5FA",
"$@	c #E5E9FF",
"%@	c #DDE1FA",
"&@	c #C1C4E5",
"*@	c #CBCFF0",
"=@	c #DCDFF6",
"-@	c #F2F5FF",
";@	c #E6EAFF",
">@	c #A4A8D9",
",@	c #B7BAE2",
"'@	c #C1C4E7",
")@	c #9C9ECF",
"!@	c #C2C9F5",
"~@	c #CDD6FF",
"{@	c #BDC5F3",
"]@	c #7171B2",
"^@	c #B9BBE1",
"/@	c #E1E6FD",
"(@	c #E3E3F1",
"_@	c #FDFEFF",
":@	c #E5E7F7",
"<@	c #ADAFD9",
"[@	c #D2DAFF",
"}@	c #D1D8FA",
"|@	c #9DA1D5",
"1@	c #D1D9FF",
"2@	c #CBD0F3",
"3@	c #DEDEED",
"4@	c #D8D9EC",
"5@	c #B4BAE9",
"6@	c #7274B9",
"7@	c #6B6BAD",
"8@	c #7677B6",
"9@	c #D8DDF6",
"0@	c #F0F2FD",
"a@	c #CFD8FF",
"b@	c #A8ADDE",
"c@	c #B8BCE4",
"d@	c #C6CAEB",
"e@	c #9C9DCF",
"f@	c #C5CCF5",
"g@	c #D1DAFF",
"h@	c #D0D8FF",
"i@	c #DDDEEF",
"j@	c #F5F7FF",
"k@	c #9DA2D8",
"l@	c #9CA2DC",
"m@	c #6161A9",
"n@	c #C0C4E9",
"o@	c #DBE0FA",
"p@	c #CCD1F2",
"q@	c #D7DEFF",
"r@	c #AFB3E0",
"s@	c #C1C7EE",
"t@	c #C6CCF0",
"u@	c #D3D5ED",
"v@	c #CDD0EC",
"w@	c #BFC6F2",
"x@	c #CFD2EE",
"y@	c #DBE2FF",
"z@	c #B9BFEB",
"A@	c #B3BBEF",
"B@	c #6364AE",
"C@	c #505099",
"D@	c #5B5BA5",
"E@	c #8283C0",
"F@	c #DFE4FF",
"G@	c #C7CBEC",
"H@	c #B2B5DD",
"I@	c #AFB1DA",
"J@	c #AEB3E1",
"K@	c #D6DDFF",
"L@	c #DFE0F1",
"M@	c #FAFBFF",
"N@	c #A2A6D9",
"O@	c #C2C8F0",
"P@	c #C6CCF1",
"Q@	c #B6BFF3",
"R@	c #6A6CB3",
"S@	c #54549D",
"T@	c #CCD1F3",
"U@	c #DAE0FF",
"V@	c #D3D9FA",
"W@	c #C9CDED",
"X@	c #C1C5EC",
"Y@	c #CED7FF",
"Z@	c #A9AFE1",
"`@	c #C9D3FF",
" #	c #B3BAE9",
".#	c #9B9FD6",
"+#	c #8286C7",
"@#	c #5C5DA8",
"##	c #4A4A8C",
"$#	c #989BD1",
"%#	c #E0E1F1",
"&#	c #ECEEFB",
"*#	c #AAAEDF",
"=#	c #C2C7EC",
"-#	c #D0D7FC",
";#	c #9C9ED1",
">#	c #C8D2FF",
",#	c #A3AAE2",
"'#	c #505098",
")#	c #53539F",
"!#	c #5D5EA8",
"~#	c #E4E6F5",
"{#	c #9B9FD7",
"]#	c #CBD3FC",
"^#	c #ADB1DE",
"/#	c #A4A7D7",
"(#	c #9DA2DA",
"_#	c #A6ABDC",
":#	c #D7DFFF",
"<#	c #C3CCF9",
"[#	c #888CCB",
"}#	c #D4DBFF",
"|#	c #C1C6EC",
"1#	c #B2B5DE",
"2#	c #AAACD6",
"3#	c #A8ADE1",
"4#	c #9FA5DC",
"5#	c #4E4E95",
"6#	c #B3B9E8",
"7#	c #D0D9FF",
"8#	c #AFB6E8",
"9#	c #7375B9",
"0#	c #8386C5",
"a#	c #C7CFF9",
"b#	c #8286C5",
"                                  . + @                         ",
"                              # $ % & * =                       ",
"                          - ; > , ' ) ! ~                       ",
"                      { ] ^ / ( _ : < [ }                       ",
"                  | 1 2 3 4 _ 5 6 7 8 9 0 a                     ",
"              b c d e f g h i j k l m n o p                     ",
"        q r s t u v w x y z A l B C D E F G H                   ",
"      I J K L M N O P Q R S B T U V W X Y Z `                   ",
"      q  ...+.@.#.$.%.&.*.=.-.;.>.,.'.).!.~.{.                  ",
"      ].^./.(._.:.<.[.}.|.1.2.3.4.5.6.7.8.9.0.a.                ",
"        b.c.d.e.f.}.g.h.i.j.k.l.m.6.n.o.p.q.r.{.                ",
"        s.t.u.v.w.x.y.z.A.B.C.D.E.F.G.H.I.J.K.{.L.              ",
"          M.N.O.P.Q.R.S.T.U.V.W.X.Y.Z.`. +.+++@+{.              ",
"          #+$+%+&+*+=+-+;+>+,+'+)+!+~+{+]+^+/+(+{._+            ",
"            :+<+[+}+|+1+2+3+4+5+6+7+8+9+0+a+b+c+d+e+            ",
"            f+g+h+i+S.j+k+l+m+n+o+p+q+r+s+W.t+u+v+{.            ",
"            w+x+y+z+A+B+9+C+j+9.D+E+F+G+,+H+I+J+K+L+M+          ",
"              N+O+P+Q+R+S+T+U+V+W+X+D.Y+Z+5+4+`+ @.@{.          ",
"              +@@@#@'+$@%@&@*@=@-@;@I+>@,@'@)@!@~@{@{.H         ",
"                ]@^@)./@(@_@:@<@/+[@}@|@5+1@2@3@4@5@6@`         ",
"                7@8@!.9@0@l.a@b@c@d@e@f@g@h@i@j@).k@l@{.        ",
"                  m@n@o@p@5+q@r@q@s@t@u@v@w@x@y@1@z@A@B@C@      ",
"                  D@E@F@G@H@I@J@K@B+L@M@h+N@O@P@o@C+Q@R@{.      ",
"                  S@{.T@y@U@V@W@X@[@y+j+Y@Z@`@ #.#+#@#{.##      ",
"                    {.$#++/+%#X+&#*#=#-#q+;#>#,#B@{.'#          ",
"                    )#!#/+Z+~#m.[@{#]#^#/#(#6@{.e+              ",
"                      {._#c+p@5+:#l+)+<#[#{.{._+                ",
"                      ` d+}#|#1#2#3#4#@#{.5#                    ",
"                        {.6#7#Y@8#9#{.e+                        ",
"                        {.0#a#b#{.` _+                          ",
"                        a.{.L+{.H                               ",
"                          {.a.                                  "};
