/* XPM */
static char * movcontas_xpm[] = {
"32 32 286 2",
"  	c None",
". 	c #000000",
"+ 	c #383838",
"@ 	c #595959",
"# 	c #919291",
"$ 	c #ADAEAE",
"% 	c #6F6F6F",
"& 	c #1B1B1B",
"* 	c #3A3A3A",
"= 	c #626262",
"- 	c #8F8F8F",
"; 	c #AAAAAA",
"> 	c #B4BAB5",
", 	c #A3B3A7",
"' 	c #83A189",
") 	c #84A28B",
"! 	c #CBCDCC",
"~ 	c #7B7B7B",
"{ 	c #909190",
"] 	c #B2B8B4",
"^ 	c #B4C0B7",
"/ 	c #A1B5A5",
"( 	c #80A387",
"_ 	c #65956F",
": 	c #639D6E",
"< 	c #6DAB78",
"[ 	c #76B781",
"} 	c #72B17D",
"| 	c #7FA287",
"1 	c #C8CDC9",
"2 	c #585858",
"3 	c #BFBFBF",
"4 	c #CFD2D0",
"5 	c #7D9E85",
"6 	c #75A07E",
"7 	c #6EA378",
"8 	c #6BA776",
"9 	c #70AF7B",
"0 	c #75B680",
"a 	c #74AE7F",
"b 	c #A2B8A7",
"c 	c #D0D0D0",
"d 	c #707070",
"e 	c #B8B8B8",
"f 	c #CBCBCB",
"g 	c #AECAB3",
"h 	c #7DB987",
"i 	c #7AB885",
"j 	c #88BD91",
"k 	c #96C49E",
"l 	c #AECDB3",
"m 	c #C0D1C2",
"n 	c #E7E9E7",
"o 	c #E8E8E8",
"p 	c #D9D9D9",
"q 	c #D2D2D2",
"r 	c #303030",
"s 	c #A4A4A4",
"t 	c #B7B7B7",
"u 	c #CBCDCB",
"v 	c #79B883",
"w 	c #8CBE94",
"x 	c #ABCAB0",
"y 	c #C4D8C7",
"z 	c #D0DBD2",
"A 	c #E0E3E0",
"B 	c #E0E0E0",
"C 	c #D4D4D4",
"D 	c #B6B6B6",
"E 	c #C6C6C6",
"F 	c #CFCFCF",
"G 	c #313131",
"H 	c #919191",
"I 	c #DDDDDD",
"J 	c #ECECEC",
"K 	c #E1E1E1",
"L 	c #BABABA",
"M 	c #CECECE",
"N 	c #CCCCCC",
"O 	c #C1C1C1",
"P 	c #EDEDED",
"Q 	c #E4E4E4",
"R 	c #CDCDCD",
"S 	c #C8C8C8",
"T 	c #BCBCBC",
"U 	c #D8D8D8",
"V 	c #C9C9C9",
"W 	c #E2E2E2",
"X 	c #CACACA",
"Y 	c #C0C0C0",
"Z 	c #292929",
"` 	c #B3B3B3",
" .	c #BEBEBE",
"..	c #DEDEDE",
"+.	c #E5E5E5",
"@.	c #D3D3D3",
"#.	c #141414",
"$.	c #686868",
"%.	c #424242",
"&.	c #D5D5D5",
"*.	c #BBBBBB",
"=.	c #D6D6D6",
"-.	c #101010",
";.	c #7E7E7E",
">.	c #848484",
",.	c #655E5C",
"'.	c #666666",
").	c #545454",
"!.	c #929292",
"~.	c #C3C3C3",
"{.	c #BDBDBD",
"].	c #DBDBDB",
"^.	c #D7D7D7",
"/.	c #7A7A7A",
"(.	c #1A1A1A",
"_.	c #484848",
":.	c #6A6A6A",
"<.	c #676767",
"[.	c #747474",
"}.	c #A06E5B",
"|.	c #BAA096",
"1.	c #A1A1A1",
"2.	c #575757",
"3.	c #DCDCDC",
"4.	c #B0B0B0",
"5.	c #C5C5C5",
"6.	c #C7C7C7",
"7.	c #C2C2C2",
"8.	c #A8A8A8",
"9.	c #3D3D3D",
"0.	c #6E6E6E",
"a.	c #7B7C7D",
"b.	c #8F999C",
"c.	c #CC9782",
"d.	c #958077",
"e.	c #A6C8D3",
"f.	c #ABC8D2",
"g.	c #515658",
"h.	c #919292",
"i.	c #D1D1D1",
"j.	c #B2B2B2",
"k.	c #C4C4C4",
"l.	c #ABABAB",
"m.	c #9E9E9E",
"n.	c #969696",
"o.	c #959595",
"p.	c #3F3F3F",
"q.	c #7C7C7C",
"r.	c #ACC2CA",
"s.	c #A9C4CE",
"t.	c #D3D7D8",
"u.	c #DAA692",
"v.	c #C8C6C5",
"w.	c #B3D8E5",
"x.	c #9CB4BD",
"y.	c #535758",
"z.	c #A3A3A3",
"A.	c #999999",
"B.	c #949494",
"C.	c #939393",
"D.	c #828282",
"E.	c #5E5E5E",
"F.	c #353535",
"G.	c #171717",
"H.	c #434343",
"I.	c #767676",
"J.	c #D0E5EC",
"K.	c #B1D7E4",
"L.	c #B6D8E5",
"M.	c #DEA894",
"N.	c #DDC4BA",
"O.	c #C0DDE8",
"P.	c #A7C9D5",
"Q.	c #565859",
"R.	c #ADADAD",
"S.	c #989898",
"T.	c #58595A",
"U.	c #202122",
"V.	c #7F7F7F",
"W.	c #E2E4E4",
"X.	c #BBDAE5",
"Y.	c #D3D9DB",
"Z.	c #E2AA95",
"`.	c #CAC9C8",
" +	c #B5DBE8",
".+	c #9CB6C0",
"++	c #555859",
"@+	c #9A9A9A",
"#+	c #808080",
"$+	c #606060",
"%+	c #414141",
"&+	c #555555",
"*+	c #6D7F85",
"=+	c #7A9CA8",
"-+	c #91B4C0",
";+	c #5C6569",
">+	c #727272",
",+	c #D6E7EE",
"'+	c #B5DAE7",
")+	c #B6DBE8",
"!+	c #E4AC96",
"~+	c #E1C8BE",
"{+	c #CAE3ED",
"]+	c #ACCCD8",
"^+	c #495559",
"/+	c #576970",
"(+	c #889FA6",
"_+	c #B4D6E3",
":+	c #BEE3F1",
"<+	c #CBE9F3",
"[+	c #DBF0F7",
"}+	c #DBF0F8",
"|+	c #C9E9F5",
"1+	c #5B666A",
"2+	c #131313",
"3+	c #DFE3E4",
"4+	c #D3E8EF",
"5+	c #BADDE9",
"6+	c #D2DBDE",
"7+	c #E5AD97",
"8+	c #CFCDCB",
"9+	c #BBDFEC",
"0+	c #B7DAE7",
"a+	c #C0D9E3",
"b+	c #DAEDF4",
"c+	c #D0E9F2",
"d+	c #BEE3F0",
"e+	c #BFE4F1",
"f+	c #D2ECF5",
"g+	c #DFF2F8",
"h+	c #E5F4FA",
"i+	c #F7FCFD",
"j+	c #CDE0E7",
"k+	c #445D65",
"l+	c #E0EDF1",
"m+	c #BCDEEB",
"n+	c #B9DEEB",
"o+	c #E2AD98",
"p+	c #E3CBC1",
"q+	c #D4EAF2",
"r+	c #C4E4F0",
"s+	c #BDE2EF",
"t+	c #D0EAF3",
"u+	c #F4F9FA",
"v+	c #EAF5F9",
"w+	c #E0F2F9",
"x+	c #D9EFF8",
"y+	c #C5E8F4",
"z+	c #C1E6F3",
"A+	c #DDF0F7",
"B+	c #F2F4F6",
"C+	c #DFE3E5",
"D+	c #DAEBF2",
"E+	c #B9DFEC",
"F+	c #D0DDE1",
"G+	c #E7AF9A",
"H+	c #DFD5D1",
"I+	c #F1F6F7",
"J+	c #DDEFF5",
"K+	c #C3E5F2",
"L+	c #C3E6F3",
"M+	c #D4EDF6",
"N+	c #E7F5FA",
"O+	c #EDF0F1",
"P+	c #F4F5F6",
"Q+	c #D8EBF1",
"R+	c #D3EAF2",
"S+	c #DAAB99",
"T+	c #C8C3BF",
"U+	c #DCEFF6",
"V+	c #F2F5F6",
"W+	c #F0F0F0",
"X+	c #E6E6E6",
"Y+	c #ACACAC",
"Z+	c #E3E5E5",
"`+	c #DCEEF5",
" @	c #E1F0F5",
".@	c #EEE5E2",
"+@	c #E6B4A1",
"@@	c #797979",
"#@	c #535353",
"$@	c #2C2C2C",
"%@	c #2A2A2A",
"&@	c #4D4D4D",
"*@	c #060606",
"=@	c #787878",
"                                                                ",
"                                                                ",
"                                                                ",
"                                  .                             ",
"                            + @ # $ % &                         ",
"                  . * = - ; > , ' ) ! ~                         ",
"            + @ { ] ^ / ( _ : < [ } | 1 ~ &                     ",
"          2 3 4 5 6 7 8 9 0 [ [ [ [ a b c ~                     ",
"          d e f g h [ [ [ i j k l m n o p q ~ &                 ",
"          r s t u g v w x y z A B q p C D E F ~                 ",
"            G H t f p I J K L M N O M F P Q M q ~ &             ",
"              G s t F R S T F U V W W X c L Y I V ~             ",
"                Z H t f U I K F ` V  .O ..B +.U O @.~ &         ",
"        . . #.2 $.%.s t M N S q p F &.+.p *.R S =.=.V ~         ",
"      -.% ;.>.,.$.'.).!.t f @.=.q M ~.{.S K C ].^.R O p /.(.    ",
"      _.:.<.[.}.|.~ 1.2.s t M c C C 3.M R q 4.5.f 6.7.Y 8.9.    ",
"      9.0.U a.b.c.d.e.f.g.h.t f N i.V j.k.e 6.T l.m.n.o.H p.    ",
"      * q.p r.s.t.u.v.w.x.y.s t M f t D ; z.A.B.C.!.D.E.F.G.    ",
"        H.I.Q J.K.L.M.N.O.P.Q.h.R.S.C.!.- >.d $.T.U..           ",
"            V.W.J.X.Y.Z.`. +.+++@+!.#+$+%+&+*+=+-+;+            ",
"              >++.,+'+)+!+~+{+]+Q.^+/+(+_+:+<+[+}+|+1+2+        ",
"                V.3+4+5+6+7+8+9+0+a+b+c+d+e+f+g+h+i+j+k+        ",
"                  >++.l+m+n+o+p+q+r+s+t+u+v+w+x+y+z+A+B+@       ",
"                    V.C+D+E+F+G+H+I+J+K+L+M+w+N+O+Q =.N >.      ",
"                      >++.P+Q+R+S+T+U+V+W+X+c E O {.Y+A.&+      ",
"                        V.Z+`+ @.@+@p R k.Y {.; @@#@$@%@        ",
"                          >+K i.Y *.; S.I.&@$@*@                ",
"                            ~ R.=@#@$@%@                        ",
"                              .                                 ",
"                                                                ",
"                                                                ",
"                                                                "};
