/* XPM */
static char * movimentacoes_xpm[] = {
"48 48 408 2",
"  	c None",
". 	c #000000",
"+ 	c #F4F4F4",
"@ 	c #F5F5F5",
"# 	c #F6F6F6",
"$ 	c #F0F0F0",
"% 	c #E4E4E4",
"& 	c #E9E9E9",
"* 	c #ECEDED",
"= 	c #F3F3F3",
"- 	c #D2D2D2",
"; 	c #F2F2F2",
"> 	c #F1F1F1",
", 	c #EEEEEE",
"' 	c #E7E7E7",
") 	c #769CBF",
"! 	c #D5D5D5",
"~ 	c #DDDDDD",
"{ 	c #E0E1E1",
"] 	c #E8E8E8",
"^ 	c #E6E6E6",
"/ 	c #E5E5E5",
"( 	c #E3E3E3",
"_ 	c #E2E2E2",
": 	c #E0E0E0",
"< 	c #DFDFDF",
"[ 	c #DEDEDE",
"} 	c #CFCFCF",
"| 	c #7D7D7D",
"1 	c #EFEFEF",
"2 	c #EAEBEB",
"3 	c #E3E4E4",
"4 	c #ADC3D8",
"5 	c #80A3C3",
"6 	c #DBDBDB",
"7 	c #DEDFDF",
"8 	c #E1E1E1",
"9 	c #DCDCDC",
"0 	c #B7B7B7",
"a 	c #6A6A6A",
"b 	c #B4B4B4",
"c 	c #A9AAAA",
"d 	c #9E9F9F",
"e 	c #9A9B9B",
"f 	c #B1C6DA",
"g 	c #AFC5DA",
"h 	c #82A5C5",
"i 	c #8F8F8F",
"j 	c #959595",
"k 	c #979898",
"l 	c #9E9E9E",
"m 	c #9F9F9F",
"n 	c #A0A0A0",
"o 	c #9B9B9B",
"p 	c #B9B9B9",
"q 	c #CBCBCB",
"r 	c #DADADA",
"s 	c #535353",
"t 	c #EDEDED",
"u 	c #A6A7A7",
"v 	c #B3C8DC",
"w 	c #B2C7DB",
"x 	c #84A6C5",
"y 	c #EBEBEB",
"z 	c #D8D8D8",
"A 	c #545454",
"B 	c #B2B8BD",
"C 	c #64798D",
"D 	c #BCCEDF",
"E 	c #BDCFE0",
"F 	c #BACDDF",
"G 	c #EAEAEA",
"H 	c #EFF0F0",
"I 	c #F7F7F7",
"J 	c #F9F9F9",
"K 	c #FAFAFA",
"L 	c #A5A5A5",
"M 	c #D7D7D7",
"N 	c #375978",
"O 	c #C1D2E2",
"P 	c #C8D7E5",
"Q 	c #C5D5E4",
"R 	c #C4D4E3",
"S 	c #C2D3E3",
"T 	c #B8CBDD",
"U 	c #6E777E",
"V 	c #727B84",
"W 	c #717B82",
"X 	c #717B84",
"Y 	c #6D7881",
"Z 	c #6A757E",
"` 	c #65707A",
" .	c #616D76",
"..	c #D6D6D6",
"+.	c #5F8BB4",
"@.	c #AAC1D7",
"#.	c #BED0E1",
"$.	c #C0D1E1",
"%.	c #C9D8E6",
"&.	c #CCDAE7",
"*.	c #C7D6E4",
"=.	c #B9CCDE",
"-.	c #ABC2D8",
";.	c #81A4C4",
">.	c #96A0A8",
",.	c #98A3AB",
"'.	c #95A1AA",
").	c #95A1A9",
"!.	c #8F9BA5",
"~.	c #8A96A0",
"{.	c #84909B",
"].	c #91B0CC",
"^.	c #B5C9DC",
"/.	c #6C95BB",
"(.	c #A2ABB1",
"_.	c #A4ADB4",
":.	c #9FAAB2",
"<.	c #9CA7AF",
"[.	c #95A0AA",
"}.	c #8E9AA4",
"|.	c #D3D3D3",
"1.	c #B6CADD",
"2.	c #AEC4D9",
"3.	c #A7BFD6",
"4.	c #A6BED5",
"5.	c #5886B1",
"6.	c #ADB3B9",
"7.	c #ADB5BD",
"8.	c #A9B2BA",
"9.	c #A1ABB3",
"0.	c #98A3AC",
"a.	c #D1D1D1",
"b.	c #D0D0D0",
"c.	c #9BB6D0",
"d.	c #94B2CD",
"e.	c #95B2CE",
"f.	c #8CACC9",
"g.	c #8DADCA",
"h.	c #8AABC8",
"i.	c #86A8C7",
"j.	c #85A7C6",
"k.	c #89AAC8",
"l.	c #7299BD",
"m.	c #B3BABF",
"n.	c #AEB7BE",
"o.	c #ABB4BB",
"p.	c #A0A9B1",
"q.	c #525252",
"r.	c #5C89B3",
"s.	c #8FAECA",
"t.	c #6A93B9",
"u.	c #6892B9",
"v.	c #6791B8",
"w.	c #6690B7",
"x.	c #638EB6",
"y.	c #628DB5",
"z.	c #5987B2",
"A.	c #507FAB",
"B.	c #40678B",
"C.	c #B0B5B9",
"D.	c #B6BCC0",
"E.	c #B3BAC1",
"F.	c #AFB6BE",
"G.	c #758593",
"H.	c #8C959D",
"I.	c #4F4F4F",
"J.	c #9CB7D1",
"K.	c #6F97BC",
"L.	c #6B94BA",
"M.	c #648FB7",
"N.	c #5D8AB4",
"O.	c #608CB5",
"P.	c #48739B",
"Q.	c #ACB0B4",
"R.	c #B3B8BC",
"S.	c #B8BEC3",
"T.	c #B4BBC2",
"U.	c #6B7D8E",
"V.	c #5B88B2",
"W.	c #4C7AA5",
"X.	c #3E6487",
"Y.	c #7198BC",
"Z.	c #406689",
"`.	c #ABB0B4",
" +	c #B1B6BB",
".+	c #B7BCC1",
"++	c #B8BFC4",
"@+	c #A6B0B8",
"#+	c #808D98",
"$+	c #05090C",
"%+	c #7DA1C2",
"&+	c #436B90",
"*+	c #93B1CC",
"=+	c #9EB8D1",
"-+	c #97B3CE",
";+	c #4E7CA7",
">+	c #456E94",
",+	c #3B5E7E",
"'+	c #A3A8AC",
")+	c #ACB2B7",
"!+	c #B2B9BE",
"~+	c #B4BCC2",
"{+	c #AFB7BF",
"]+	c #A8B2BA",
"^+	c #9BA6AE",
"/+	c #8C97A0",
"(+	c #42698D",
"_+	c #6E96BB",
":+	c #436C92",
"<+	c #4A77A1",
"[+	c #3C6081",
"}+	c #3B5F80",
"|+	c #9BA2A8",
"1+	c #A1A9AF",
"2+	c #A8B0B7",
"3+	c #ABB3BB",
"4+	c #AAB3BA",
"5+	c #A4AEB6",
"6+	c #99A4AD",
"7+	c #929DA6",
"8+	c #89939D",
"9+	c #B1B5B8",
"0+	c #739ABE",
"a+	c #345471",
"b+	c #799EC0",
"c+	c #41688C",
"d+	c #4B555E",
"e+	c #6B747D",
"f+	c #707981",
"g+	c #8B939A",
"h+	c #929BA2",
"i+	c #99A2AA",
"j+	c #9DA7B0",
"k+	c #9EA8B1",
"l+	c #9AA5AD",
"m+	c #929EA8",
"n+	c #849099",
"o+	c #7E8A94",
"p+	c #6B7986",
"q+	c #0B1218",
"r+	c #A9C0D6",
"s+	c #4C79A3",
"t+	c #6D7C89",
"u+	c #858585",
"v+	c #69757E",
"w+	c #6D7982",
"x+	c #3A5D7D",
"y+	c #7A848C",
"z+	c #828C95",
"A+	c #8A959E",
"B+	c #8F9BA4",
"C+	c #919DA6",
"D+	c #8F9BA6",
"E+	c #89969F",
"F+	c #75818B",
"G+	c #727F89",
"H+	c #848E97",
"I+	c #9FB9D2",
"J+	c #385A79",
"K+	c #365775",
"L+	c #9EA2A5",
"M+	c #090909",
"N+	c #D9D9D9",
"O+	c #49749C",
"P+	c #BBBBBB",
"Q+	c #BABABA",
"R+	c #3F6588",
"S+	c #BFBFBF",
"T+	c #C7C7C7",
"U+	c #E2EAF1",
"V+	c #C8C8C8",
"W+	c #9FA3A6",
"X+	c #A4BDD5",
"Y+	c #355572",
"Z+	c #5382AE",
"`+	c #879199",
" @	c #C9C9C9",
".@	c #BCBCBC",
"+@	c #C2C2C2",
"@@	c #CACACA",
"#@	c #CECECE",
"$@	c #F5F8FA",
"%@	c #A3BCD4",
"&@	c #ABABAB",
"*@	c #BDBDBD",
"=@	c #6E7D8A",
"-@	c #4B78A2",
";@	c #080D11",
">@	c #707F8D",
",@	c #C5C5C5",
"'@	c #F8FAFB",
")@	c #C8B22B",
"!@	c #A99D3A",
"~@	c #464F57",
"{@	c #4E7DA9",
"]@	c #32506B",
"^@	c #5785B0",
"/@	c #8F9498",
"(@	c #CCCCCC",
"_@	c #D4D4D4",
":@	c #9FA0A0",
"<@	c #B6B6B6",
"[@	c #929292",
"}@	c #8B8B8B",
"|@	c #5483AF",
"1@	c #5584B0",
"2@	c #4F7EAA",
"3@	c #5080AD",
"4@	c #393D40",
"5@	c #4A4B4B",
"6@	c #4E4F4F",
"7@	c #515151",
"8@	c #F6F9FB",
"9@	c #A2BBD3",
"0@	c #838383",
"a@	c #1C1E1F",
"b@	c #2F3030",
"c@	c #262626",
"d@	c #333333",
"e@	c #2C2C2C",
"f@	c #2B2B2B",
"g@	c #F4F7F9",
"h@	c #1E2326",
"i@	c #3A3B3B",
"j@	c #373737",
"k@	c #3E3E3E",
"l@	c #393939",
"m@	c #EEF3F7",
"n@	c #4A769F",
"o@	c #D7E2EC",
"p@	c #759BBE",
"q@	c #4C565F",
"r@	c #878787",
"s@	c #395C7C",
"t@	c #5181AE",
"u@	c #818181",
"v@	c #ECECEC",
"w@	c #9C9C9C",
"x@	c #E2E3E3",
"y@	c #A7A7A7",
"z@	c #ADADAD",
"A@	c #A3A3A3",
"B@	c #A1A1A1",
"C@	c #9A9A9A",
"D@	c #979797",
"E@	c #D7D8D8",
"F@	c #375876",
"G@	c #596168",
"H@	c #6D6D6D",
"I@	c #C6C6C6",
"J@	c #D4D5D5",
"K@	c #C3C3C3",
"L@	c #23384C",
"M@	c #787E83",
"N@	c #C1C1C1",
"O@	c #9C9D9D",
"P@	c #404E5A",
"Q@	c #7D8790",
"R@	c #B1B1B1",
"S@	c #3B3B3B",
"T@	c #2A2A2A",
"U@	c #B8B8B8",
"V@	c #B2B2B2",
"W@	c #B0B0B0",
"X@	c #A9A9A9",
"Y@	c #797979",
"Z@	c #929495",
"`@	c #AEAFAF",
" #	c #BABBBB",
".#	c #797A7A",
"+#	c #5E5E5E",
"@#	c #626262",
"##	c #A4A4A4",
"$#	c #3F3F3F",
"%#	c #727272",
"&#	c #A8A8A8",
"*#	c #B0B1B1",
"=#	c #BEBFBF",
"-#	c #C1C2C2",
";#	c #C4C4C4",
">#	c #414141",
",#	c #313131",
"'#	c #868686",
")#	c #7A7A7A",
"!#	c #777777",
"~#	c #757575",
"{#	c #6F6F6F",
"]#	c #6B6B6B",
"^#	c #707070",
"/#	c #A7A8A8",
"(#	c #696A6A",
"_#	c #626363",
":#	c #585858",
"<#	c #575757",
"[#	c #4D4D4D",
"}#	c #7B7B7B",
"|#	c #AAAAAA",
"1#	c #424242",
"2#	c #C8C9C9",
"3#	c #AFAFAF",
"4#	c #B5B5B5",
"5#	c #ACACAC",
"6#	c #272727",
"7#	c #272828",
"8#	c #282828",
"9#	c #252525",
"0#	c #292929",
"a#	c #1F1F1F",
"                                                                                                ",
"                                                                                                ",
"                                                                                                ",
"                    . . . . . . . . . . . . . . . . . . . . . . . . . .                         ",
"                  . + @ # # + $ . . % & * = @ # # # # # # # # # # # @ - .                       ",
"                . @ @ ; > > , ' . ) . ! ~ { ' ] ] ' ^ / % ( _ : < [ } |   .                     ",
"                . @ ; > > 1 2 3 . 4 5 . - 6 7 / ^ ^ / % ( _ 8 < [ ~ 9 0 a .                     ",
"                . + $ 1 b c d e . f g h . i j k l m n l l o o p q 9 6 r s .                     ",
"                . ; t & u . . . . v w g x . . . . . . . . . . . . y r z A .                     ",
"                . B C . . . . . . D E F F 5 . < G H I J K K q L . y z M A .                     ",
"                . N ) g O P Q R S Q Q O T v h . U V W X Y Z `  .. y M ..A .                     ",
"              . +.@.#.$.%.&.P *.P S $.$.=.w -.;.. >.,.'.).!.~.{.. y ..! A .                     ",
"            . ].^.=.O S Q P R S S #.F D T v 4 -./.. (._.:.<.[.}.. G ! |.A .                     ",
"          . h E F =.F E F E =.1.v w v v 2.-.-.3.4.5.. 6.7.8.9.0.. ] a.b.s .                     ",
"          . T T =.F =.w c.d.e.e.f.g.h.i.j.k.k.h.h.h.l.. m.n.o.p.. ( q q q..                     ",
"        . r.v ^.#.1.4 s././.t.u.u.v.w.x.y.r.z.+.A.B.. C.D.E.F.G.. . . H.I..                     ",
"        . f.^.v g J.K.L.L.M.w.v.v.w.w.w.M.y.N.O.P.. Q.R.S.T.U.. V.W.X.. . .                     ",
"        . J.3.4 2.Y.L.t.M.x.x.M.v.v.u.u.w.x.+.Z.. `. +.+++T.@+#+$+A.%+N.&+.                     ",
"        . *+].=+-+L.x.y.O.;+;+>+>+w.v.v.w.x.,+. '+)+!+~+{+]+^+/+. . (+*+_+:+.                   ",
"        . h.f.-+L.O.<+[+. . . . . O.x.x.y.}+. |+1+2+3+4+5+6+7+8+. 9+. x.e.0+a+.                 ",
"        . /.L.b+0+N.c+. d+. e+f+. N.+.O.,+. g+h+i+j+k+l+m+. n+o+. ..p+q+r+h.5..                 ",
"        . s+t.0+%++.. t+u+. v+w+. r.N.x+. y+z+A+B+C+D+E+. . F+G+. ~ H+. *.I+) J+.               ",
"        . K+5.l.l.Y.. L+n M+. . . 5.Z.. . . . . . . . . P . . . . N+p . $.R =+<+.               ",
"          . O+l.j.) . P+Q+9 ( : . R+. S+T+- 9 _ % _ . U+f.. V+|.N+( W+. T 1.X+r.Y+.             ",
"          . N Z+Y.].. `+ @! N+... . p .@+@@@} b.#@. $@=+%@. &@ @..*@=@. 2.1.@.u.c+.             ",
"            . -@u.x ;@>@T+- z / . ,@- 0 @@' Q+#@. '@r+@.4 . 0 )@!@~@. t.4 w g {@O+. .           ",
"            . ]@^@K.W.. /@(@_@,@:@(@<@[@b.Q+}@. '@-.4 2.g . . . . . |@x 4 2.4 1@2@. . .         ",
"              . B.3@K.N . 4@5@6@6@6@7@7@q.7@. 8@=+4 2.g f x d.9@=+@.r+-.4 w 9@2@A.. 0@  .       ",
"                . Z.2@_+<+$+a@b@c@d@e@d@f@. g@9@4.2.g g w w f g -.4 4 2.4 2.x 1@3@. . .         ",
"                  . . X.W.5.. h@i@j@k@l@. m@T %@-.g g f f f w g g 2.4 r+%@f.z.V.n@. 0@  .       ",
"                    . . . . . . . . . . o@%@@.3.-.f g 2.g 2.2.2.2.4 f ].x.5.^@V.J+. . .         ",
"                . . . . . . . . . . . v.p@w.t.t.Y.p@/.t.v.u._+u.u.v.v.N.1@|@^@y.. q@r@  .       ",
"              . = 1 y ^ _ 8 % & , , & . s@Z+3@t@t@Z+|@|@|@|@^@5.^@1@1@5.z.V.N.>+. u@. . .       ",
"            . @ v@$ $ 0 8 G ( w@v@x@y@[ . J+{@{@A.2@2@A.Z+t@|@^@|@^@5.z.r.r.-@. . r@.           ",
"          . . @ t o z@] ^ A@B@( C@D@E@b [@. N ;+;+{@2@{@A.t@|@|@5.5.z.z.3@F@. G@u+H@.           ",
"          . @ t v@y I@& ] ' ~ % _ M 9 J@#@K@. N 2@;+{@{@2@3@|@|@|@|@A.B.L@. M@j@. . .           ",
"        . . @ v@a.N@& ~ y >  @$ $ N@$ y O@8 M . N 2@{@2@A.. . . . . . P@Q@R@H@S@T@.             ",
"        . @ v@; = = > <@Q+U@% V@W@: X@Y@N+O@j I@. J+2@2@{@. Z@`@ #.#l l +#@#B@##$#. .           ",
"        . @ ; , l *@K@; = ; ; ; ; ; ; ; > , 3 %#&#. N s+O+. *#=#-#V+V++#z@_@;#q.>#,#.           ",
"      . @ y V@'#I@] ] U@'#0@0@| )#!#~#%#{#]#^#/#,@Q+. ,+Z+. (#_#:#:#<#[#R@| }#|#&#1#.           ",
"      . @ G & & ] ] ' / % ( _ : < [ 9 6 r M ! - 2#K@U@. N . L 3#4#U@0 <@V@R@z@5#y@1#.           ",
"      .   6#f@f@f@f@f@f@f@f@f@f@f@f@f@f@f@f@f@T@T@7#8#c@. . 9#6#0#T@T@f@f@f@f@f@T@a#.           ",
"      . . . . . . . . . . . . . . . . . . . . . . . . . . . . . . . . . . . . . . . .           ",
"                                                                                                ",
"                                                                                                ",
"                                                                                                ",
"                                                                                                ",
"                                                                                                "};
