/* XPM */
static char * orcamento_xpm[] = {
"32 32 387 2",
"  	c None",
". 	c #9A9A9A",
"+ 	c #9D9D9D",
"@ 	c #989898",
"# 	c #959595",
"$ 	c #929292",
"% 	c #8F8F8F",
"& 	c #8D8D8D",
"* 	c #8A8A8A",
"= 	c #888888",
"- 	c #858585",
"; 	c #838383",
"> 	c #808080",
", 	c #7F7F7F",
"' 	c #8B8B8B",
") 	c #BBBBBB",
"! 	c #EAEAEA",
"~ 	c #E9E9E9",
"{ 	c #E8E8E8",
"] 	c #E7E7E7",
"^ 	c #E5E6E4",
"/ 	c #E6E6E6",
"( 	c #E5E5E5",
"_ 	c #E4E4E4",
": 	c #DCDCDC",
"< 	c #9F9F9F",
"[ 	c #898989",
"} 	c #7A7A7A",
"| 	c #C2C2C2",
"1 	c #FFFFFF",
"2 	c #F8FCF4",
"3 	c #E3F2D6",
"4 	c #F5F5F5",
"5 	c #A6A6A6",
"6 	c #A7A7A7",
"7 	c #666666",
"8 	c #C1C1C1",
"9 	c #C9E5AF",
"0 	c #D3E9BD",
"a 	c #F4F4F4",
"b 	c #A3A3A3",
"c 	c #C7C7C7",
"d 	c #C6C6C6",
"e 	c #797979",
"f 	c #525252",
"g 	c #DBAD0E",
"h 	c #DC9B1A",
"i 	c #C88911",
"j 	c #BFBFBF",
"k 	c #E5F2D7",
"l 	c #A0D070",
"m 	c #F3F3F3",
"n 	c #9E9E9E",
"o 	c #CCCCCC",
"p 	c #F2F2F2",
"q 	c #6A6968",
"r 	c #7C6420",
"s 	c #DEC402",
"t 	c #FFD807",
"u 	c #FFB219",
"v 	c #F5AE1A",
"w 	c #D28F10",
"x 	c #BABCB9",
"y 	c #D8ECC5",
"z 	c #CBE0B8",
"A 	c #D6DFCE",
"B 	c #8DC554",
"C 	c #D3EABD",
"D 	c #FCFCFC",
"E 	c #F1F1F1",
"F 	c #AEA081",
"G 	c #C5AC14",
"H 	c #FAE301",
"I 	c #FFB602",
"J 	c #FFA109",
"K 	c #FCAB16",
"L 	c #E9A218",
"M 	c #BBBCBA",
"N 	c #D9E4CE",
"O 	c #8CBF59",
"P 	c #76B735",
"Q 	c #87C34B",
"R 	c #F6F9F4",
"S 	c #D7D7D7",
"T 	c #919191",
"U 	c #C9C9C9",
"V 	c #E4DBCD",
"W 	c #D4BD43",
"X 	c #F4DE05",
"Y 	c #FFC302",
"Z 	c #FF9C01",
"` 	c #FB9906",
" .	c #EB9B1D",
"..	c #CD8A21",
"+.	c #BABABA",
"@.	c #E2E3E1",
"#.	c #C0D0B0",
"$.	c #6FB32D",
"%.	c #B4CA9D",
"&.	c #FBFBFB",
"*.	c #D8D8D8",
"=.	c #F0EBE6",
"-.	c #D0BA62",
";.	c #EAD207",
">.	c #FED304",
",.	c #FFA406",
"'.	c #FE9A04",
").	c #EE9817",
"!.	c #D69027",
"~.	c #8F5914",
"{.	c #B9B9B9",
"].	c #F9F9F9",
"^.	c #ECECEC",
"/.	c #E5E9E2",
"(.	c #F2F2F1",
"_.	c #F0F7E8",
":.	c #C8E4AC",
"<.	c #7B7B7B",
"[.	c #52504C",
"}.	c #786625",
"|.	c #DCC20C",
"1.	c #FFDB0A",
"2.	c #FFAA0D",
"3.	c #FF9D0C",
"4.	c #F39A14",
"5.	c #D99229",
"6.	c #A46919",
"7.	c #B7B7B7",
"8.	c #F9FCF6",
"9.	c #AFD786",
"0.	c #E6F2D8",
"a.	c #D5D4D2",
"b.	c #B3A57F",
"c.	c #C9B01E",
"d.	c #FFE118",
"e.	c #FFB616",
"f.	c #FFA214",
"g.	c #F79C16",
"h.	c #DC9429",
"i.	c #B67821",
"j.	c #683E10",
"k.	c #B4B5B3",
"l.	c #F0F6EB",
"m.	c #F5F7F3",
"n.	c #C2E0A4",
"o.	c #A7D37B",
"p.	c #FDFCFB",
"q.	c #E2D7C2",
"r.	c #D3BB4A",
"s.	c #FBE327",
"t.	c #FFC420",
"u.	c #FFA71B",
"v.	c #F89F1A",
"w.	c #DD9326",
"x.	c #C28226",
"y.	c #72512A",
"z.	c #2F2C29",
"A.	c #B1B3B0",
"B.	c #D4E7C0",
"C.	c #AACF86",
"D.	c #AFCF90",
"E.	c #80BF42",
"F.	c #E8F3DE",
"G.	c #EEEEEE",
"H.	c #E2DCD1",
"I.	c #CEB764",
"J.	c #F1DA33",
"K.	c #FFCF2D",
"L.	c #FFAE25",
"M.	c #F9A221",
"N.	c #E09425",
"O.	c #CB8726",
"P.	c #AC8350",
"Q.	c #6C6761",
"R.	c #2D2D2D",
"S.	c #B3B3B3",
"T.	c #DDE4D7",
"U.	c #A2CA7B",
"V.	c #6EB42A",
"W.	c #9AC66E",
"X.	c #FAFAFA",
"Y.	c #D2D2D2",
"Z.	c #CFCDCB",
"`.	c #C0AC71",
" +	c #EBD744",
".+	c #FFDC3D",
"++	c #FFB62E",
"@+	c #FCA629",
"#+	c #E39628",
"$+	c #CB8728",
"%+	c #B28141",
"&+	c #CFC6BC",
"*+	c #2E2E2E",
"=+	c #B1B1B1",
"-+	c #CFD6C8",
";+	c #A3C880",
">+	c #D1DCC6",
",+	c #F9FBF7",
"'+	c #D3E1C5",
")+	c #BFAD8E",
"!+	c #E3D052",
"~+	c #FFE64F",
"{+	c #FFBD3A",
"]+	c #FEAC31",
"^+	c #E99B2C",
"/+	c #CC872A",
"(+	c #B07832",
"_+	c #CCBAA6",
":+	c #E3E3E3",
"<+	c #AFAFAF",
"[+	c #F6F6F6",
"}+	c #F1F5ED",
"|+	c #F8F9F8",
"1+	c #DBEDC8",
"2+	c #CFE8B7",
"3+	c #DDD0C0",
"4+	c #D7C264",
"5+	c #FDEC60",
"6+	c #FFC847",
"7+	c #FFB039",
"8+	c #EEA133",
"9+	c #CB872B",
"0+	c #AD7227",
"a+	c #C0A587",
"b+	c #E7E4E1",
"c+	c #E2E2E2",
"d+	c #AEAEAE",
"e+	c #F6FBF2",
"f+	c #8DC754",
"g+	c #F9FCF7",
"h+	c #FEFEFE",
"i+	c #E6DED7",
"j+	c #D1BC73",
"k+	c #F7EA6F",
"l+	c #FFD459",
"m+	c #FFB342",
"n+	c #F5A93B",
"o+	c #CF8B30",
"p+	c #AF7124",
"q+	c #B7956E",
"r+	c #E0DAD5",
"s+	c #EBEBEB",
"t+	c #E0E0E0",
"u+	c #A7AAA5",
"v+	c #E0EFD0",
"w+	c #E4F0D7",
"x+	c #F1F6EC",
"y+	c #92C95D",
"z+	c #CBE6B2",
"A+	c #F7F7F7",
"B+	c #EAE7E4",
"C+	c #C8B47F",
"D+	c #F0E178",
"E+	c #FFE370",
"F+	c #FFB549",
"G+	c #F9AF44",
"H+	c #D38F35",
"I+	c #AB7028",
"J+	c #A98053",
"K+	c #D5CCC3",
"L+	c #DFDFDF",
"M+	c #AAAAAA",
"N+	c #CDE1B8",
"O+	c #84B751",
"P+	c #7BAD49",
"Q+	c #7AB93A",
"R+	c #DADADA",
"S+	c #D9D9D9",
"T+	c #BFB09F",
"U+	c #E3D48A",
"V+	c #FFE983",
"W+	c #FFC059",
"X+	c #FDB54D",
"Y+	c #DD993D",
"Z+	c #AA6E28",
"`+	c #9E703B",
" @	c #B8AA9B",
".@	c #787878",
"+@	c #A8A8A8",
"@@	c #B5CD9D",
"#@	c #76B637",
"$@	c #B2CD97",
"%@	c #F1F2F1",
"&@	c #CACFC6",
"*@	c #CECDCD",
"=@	c #C4B4A1",
"-@	c #E9D8A0",
";@	c #FFCE74",
">@	c #FFBB58",
",@	c #E6A347",
"'@	c #AA6F2B",
")@	c #9D6A32",
"!@	c #B09A84",
"~@	c #CAC9C8",
"{@	c #CBCBCB",
"]@	c #DEDEDE",
"^@	c #E1E1E1",
"/@	c #C4D6B2",
"(@	c #DEE1DB",
"_@	c #E7EEE0",
":@	c #C8DCB5",
"<@	c #DDD8D3",
"[@	c #D9CAB6",
"}@	c #F6E6C8",
"|@	c #FFDA9F",
"1@	c #F7BF6D",
"2@	c #B37935",
"3@	c #9A652D",
"4@	c #B19475",
"5@	c #DEDBD9",
"6@	c #777777",
"7@	c #A4A4A4",
"8@	c #B2D68F",
"9@	c #D6E6C7",
"0@	c #DBD2C9",
"a@	c #E2D5C2",
"b@	c #FFF5E0",
"c@	c #FFF1D4",
"d@	c #F3D6A8",
"e@	c #AD8455",
"f@	c #A98868",
"g@	c #D8D2CB",
"h@	c #DBDBDB",
"i@	c #767676",
"j@	c #9E9F9C",
"k@	c #F0F4ED",
"l@	c #F3F4F2",
"m@	c #C5DEAB",
"n@	c #A3CF79",
"o@	c #EFF1EE",
"p@	c #CBC4BC",
"q@	c #CFC5B6",
"r@	c #FDF5E3",
"s@	c #E1CEB1",
"t@	c #CBB598",
"u@	c #D5C9B9",
"v@	c #D8D1CB",
"w@	c #9C9D9C",
"x@	c #BFDCA2",
"y@	c #A2C67E",
"z@	c #B9CAAA",
"A@	c #77B836",
"B@	c #DBE7CE",
"C@	c #E3E2E0",
"D@	c #ABA59E",
"E@	c #837C74",
"F@	c #B2A28E",
"G@	c #CBBDAE",
"H@	c #D5CFC9",
"I@	c #E0DFDE",
"J@	c #9B9B9B",
"K@	c #D4DACE",
"L@	c #8EBE5F",
"M@	c #65B01A",
"N@	c #90C35E",
"O@	c #EBEBEA",
"P@	c #BCB7B2",
"Q@	c #938578",
"R@	c #92867B",
"S@	c #B6B1AB",
"T@	c #C2C1BF",
"U@	c #C4C4C4",
"V@	c #C3C3C3",
"W@	c #757575",
"X@	c #999999",
"Y@	c #DDDDDD",
"Z@	c #C8CBC5",
"`@	c #87B55A",
" #	c #BCC7B2",
".#	c #EDEDED",
"+#	c #D6D6D6",
"@#	c #D5D5D5",
"##	c #D4D4D4",
"$#	c #D1D1D1",
"%#	c #979797",
"&#	c #F0F0F0",
"*#	c #EFEFEF",
"=#	c #747474",
"-#	c #737373",
";#	c #CECECE",
">#	c #727272",
",#	c #595959",
"'#	c #717171",
")#	c #707070",
"!#	c #6F6F6F",
"~#	c #6C6C6C",
"{#	c #4B4B4B",
"      . + . @ # $ % & * = - ; > , & '                           ",
"      ) ! ~ ~ { ] ^ ] / ( ( ( _ : < [ }                         ",
"      | 1 1 1 1 2 3 1 1 1 1 1 1 4 5 6 = 7                       ",
"      8 1 1 1 1 9 0 1 1 1 1 1 1 a b c d e f     g h i           ",
"      j 1 1 1 k l 2 1 1 1 1 1 1 m n o p 8 q r s t u v w         ",
"      x y z A B C 1 1 1 1 1 1 1 m @ o D E F G H I J K L         ",
"      M N O P Q R S S S S S S S p T U 1 V W X Y Z `  ...        ",
"      +.@.#.$.%.&.*.*.*.*.*.*.*.E ' d =.-.;.>.,.'.).!.~.        ",
"      {.].^./.(._.:.1 1 1 1 1 1 p <.[.}.|.1.2.3.4.5.6.          ",
"      7.1 1 1 8.9.0.1 1 1 1 1 1 &.a.b.c.d.e.f.g.h.i.j.          ",
"      k._.l.m.n.o.1 1 1 1 1 1 1 p.q.r.s.t.u.v.w.x.y.z.          ",
"      A.B.C.D.E.F.G.G.G.G.G.G.G.H.I.J.K.L.M.N.O.P.Q.R.          ",
"      S.T.U.V.W.X.Y.Y.Y.Y.Y.Y.Z.`. +.+++@+#+$+%+&+} *+          ",
"      =+^.-+;+>+,+'+G.G.G.G.G.)+!+~+{+]+^+/+(+_+:+} *+          ",
"      <+D [+}+|+1+2+1 1 1 1 3+4+5+6+7+8+9+0+a+b+c+e *+          ",
"      d+1 1 1 e+f+g+1 1 h+i+j+k+l+m+n+o+p+q+r+s+t+e *+          ",
"      u+v+w+x+y+z+X.A+a B+C+D+E+F+G+H+I+J+K+s+! L+e *+          ",
"      M+N+O+P+Q+[+R+S+*.T+U+V+W+X+Y+Z+`+ @Y._ ~ L+.@*+          ",
"      +@( @@#@$@%@&@Y.*@=@-@;@>@,@'@)@!@~@{@c+~ ]@.@*+          ",
"      6 p ^@/@(@_@:@^.<@[@}@|@1@2@3@4@5@_ :+] ] : 6@*+          ",
"      7@&.A+[+4 8@9@p 0@a@b@c@d@e@f@g@~ ~ { ] / h@i@*+          ",
"      j@k@l@a m@n@o@E p@q@r@s@t@u@v@~ ~ { ] / _ S+i@*+          ",
"      w@x@y@z@A@B@{ C@D@E@F@G@H@I@^@t+t+L+]@:+:+*.i@*+          ",
"      J@K@L@M@N@O@c P@Q@R@S@T@U@U@V@V@| | 8 h@^@S W@*+          ",
"      X@Y@Z@`@ #.#R+R+S+*.*.S S +#@#####Y.$#Y@t++#W@*+          ",
"      %#E E &#*#.#.#s+! ~ ~ { ] / ( _ :+c+^@t+t+@#=#*+          ",
"      # &#*#G..#^.s+! ~ ~ { ] / ( :+c+^@t+t+L+]@##=#*+          ",
"      $ *#G..#^.! ~ ~ { { ] / ( :+c+^@t+t+L+]@Y@Y.-#*+          ",
"      % s+! ~ { ] / ( _ :+c+^@t+L+]@]@Y@: h@R+S+;#>#*+          ",
"      ,#i@W@W@=#=#=#=#-#-#>#>#>#'#'#'#'#)#)#)#!#~#{#R.          ",
"                                                                ",
"                                                                "};
