/* XPM */
static char * pagar_xpm[] = {
"32 32 636 2",
"  	c None",
". 	c #B67834",
"+ 	c #B7742F",
"@ 	c #AD5B19",
"# 	c #CB9649",
"$ 	c #AA8848",
"% 	c #886837",
"& 	c #AD9062",
"* 	c #D6BD8D",
"= 	c #CC9950",
"- 	c #AF5B18",
"; 	c #D09849",
"> 	c #C7B47D",
", 	c #AD8856",
"' 	c #895B28",
") 	c #B7A594",
"! 	c #C7CDD8",
"~ 	c #CACED7",
"{ 	c #D0C6BA",
"] 	c #DAB87D",
"^ 	c #D09243",
"/ 	c #D39441",
"( 	c #E2C580",
"_ 	c #B2B5A9",
": 	c #91A3BA",
"< 	c #918D8C",
"[ 	c #875920",
"} 	c #CFB287",
"| 	c #E4EAF1",
"1 	c #B8CAE2",
"2 	c #9AB1C9",
"3 	c #ACB6C1",
"4 	c #CEBCA2",
"5 	c #E5B770",
"6 	c #CF8838",
"7 	c #CF8D3A",
"8 	c #EDC974",
"9 	c #CBC4A7",
"0 	c #99ABC0",
"a 	c #92A8C3",
"b 	c #8194AC",
"c 	c #8C7E64",
"d 	c #865D23",
"e 	c #BF8C44",
"f 	c #FFD380",
"g 	c #F5D9AD",
"h 	c #BDC3C3",
"i 	c #90ABC4",
"j 	c #8CA6C3",
"k 	c #AFB2BB",
"l 	c #DCBE94",
"m 	c #EDB563",
"n 	c #C6782C",
"o 	c #C37C32",
"p 	c #F3C96A",
"q 	c #DAC699",
"r 	c #868BBF",
"s 	c #7D93CF",
"t 	c #7490AB",
"u 	c #6E849D",
"v 	c #907F60",
"w 	c #A8742E",
"x 	c #855A2D",
"y 	c #B68643",
"z 	c #F6B257",
"A 	c #F0AB54",
"B 	c #FFC56E",
"C 	c #EACDA1",
"D 	c #BEC4CC",
"E 	c #8FAAD1",
"F 	c #819CC1",
"G 	c #AFACAE",
"H 	c #E5BD86",
"I 	c #E7A853",
"J 	c #BC6821",
"K 	c #BD742F",
"L 	c #EBC265",
"M 	c #F7D585",
"N 	c #B8BAB2",
"O 	c #778FC7",
"P 	c #586CC6",
"Q 	c #6D80BE",
"R 	c #6A7E91",
"S 	c #9A8056",
"T 	c #C88A3C",
"U 	c #AA7237",
"V 	c #815629",
"W 	c #B17F3C",
"X 	c #DCA671",
"Y 	c #A1A2B7",
"Z 	c #C6A27D",
"` 	c #F4AE53",
" .	c #FFC472",
"..	c #DFC7A9",
"+.	c #9FB0C8",
"@.	c #6E84A1",
"#.	c #8893A3",
"$.	c #BDAEA1",
"%.	c #E8B775",
"&.	c #E19C46",
"*.	c #B45B1A",
"=.	c #C9873C",
"-.	c #EDD57F",
";.	c #FED77D",
">.	c #C8B197",
",.	c #759AC6",
"'.	c #6F88B2",
").	c #485AA6",
"!.	c #6F7391",
"~.	c #C59D61",
"{.	c #DA9543",
"].	c #BF7F3D",
"^.	c #B38542",
"/.	c #855D2D",
"(.	c #A87536",
"_.	c #DCA56A",
":.	c #889EC6",
"<.	c #8BA5CD",
"[.	c #9B9AA6",
"}.	c #CC9A66",
"|.	c #F9AE52",
"1.	c #FCC277",
"2.	c #D3B792",
"3.	c #A1B2C4",
"4.	c #85A9D1",
"5.	c #A8A9AF",
"6.	c #CDA580",
"7.	c #EEAD57",
"8.	c #D68839",
"9.	c #E7BC61",
"0.	c #CC9957",
"a.	c #EDC176",
"b.	c #BEAB8C",
"c.	c #5D7CA2",
"d.	c #5C6F92",
"e.	c #908185",
"f.	c #E2A861",
"g.	c #E39645",
"h.	c #CE8A43",
"i.	c #CC994D",
"j.	c #B68B46",
"k.	c #83592B",
"l.	c #9F6D35",
"m.	c #E0A05D",
"n.	c #96A5C3",
"o.	c #DFE4EF",
"p.	c #CDD9ED",
"q.	c #9DB2D3",
"r.	c #A69997",
"s.	c #DA9C5A",
"t.	c #FAAC50",
"u.	c #F3B971",
"v.	c #C8BEAB",
"w.	c #87A6C4",
"x.	c #8894A2",
"y.	c #9F7153",
"z.	c #F1A54E",
"A.	c #E3AD57",
"B.	c #CC934E",
"C.	c #DAAC66",
"D.	c #BAA882",
"E.	c #838C97",
"F.	c #D3AF7F",
"G.	c #F3AC57",
"H.	c #DE8F41",
"I.	c #DA9649",
"J.	c #E0A954",
"K.	c #CD9A4E",
"L.	c #B38644",
"M.	c #82572A",
"N.	c #9A6835",
"O.	c #EDA65C",
"P.	c #A1A2B4",
"Q.	c #E5EAF4",
"R.	c #F3F1F4",
"S.	c #F1F3F8",
"T.	c #CFDFF3",
"U.	c #A7B6CE",
"V.	c #B99E89",
"W.	c #E89D4D",
"X.	c #F8AE56",
"Y.	c #96A1A5",
"Z.	c #5D82A6",
"`.	c #8B7060",
" +	c #E79547",
".+	c #D39143",
"++	c #D2944C",
"@+	c #C19359",
"#+	c #F5C87C",
"$+	c #EEB269",
"%+	c #E69746",
"&+	c #DD9043",
"*+	c #E9A753",
"=+	c #ECB25A",
"-+	c #DDA353",
";+	c #CA944B",
">+	c #B17C3B",
",+	c #7E4F25",
"'+	c #8F5F31",
")+	c #F1A454",
"!+	c #AD9799",
"~+	c #D9E3F2",
"{+	c #E7E8ED",
"]+	c #F6F6F7",
"^+	c #F1F7F9",
"/+	c #C5DAF0",
"(+	c #B4AEAC",
"_+	c #F2A24B",
":+	c #A59986",
"<+	c #5C84AB",
"[+	c #947A6B",
"}+	c #E59146",
"|+	c #C78038",
"1+	c #DA9B4E",
"2+	c #AC7A47",
"3+	c #F2B65E",
"4+	c #DD9144",
"5+	c #ECAF58",
"6+	c #F4B55B",
"7+	c #F1B35B",
"8+	c #E8A956",
"9+	c #DEA14D",
"0+	c #CA8C3C",
"a+	c #B07C39",
"b+	c #7A4A23",
"c+	c #85552C",
"d+	c #EE9F4B",
"e+	c #B68F81",
"f+	c #CDDAEB",
"g+	c #E1E2E7",
"h+	c #DDE0E4",
"i+	c #E6E9EC",
"j+	c #EFF2F0",
"k+	c #EDF2F2",
"l+	c #AEC8E2",
"m+	c #E3A25F",
"n+	c #B09877",
"o+	c #5F85AD",
"p+	c #9C7765",
"q+	c #E38D42",
"r+	c #C0732B",
"s+	c #E5AE6A",
"t+	c #A7927D",
"u+	c #E8B263",
"v+	c #DB8F43",
"w+	c #F2B45B",
"x+	c #F2AF59",
"y+	c #E9AD4D",
"z+	c #DB9D41",
"A+	c #C99346",
"B+	c #B18744",
"C+	c #744722",
"D+	c #7D4C27",
"E+	c #E89B48",
"F+	c #BE9177",
"G+	c #C5D0E0",
"H+	c #D7DADE",
"I+	c #DDE1E4",
"J+	c #E7EBEA",
"K+	c #E4EAEA",
"L+	c #ABC3D9",
"M+	c #DB9E61",
"N+	c #CE965A",
"O+	c #A17F63",
"P+	c #AB6737",
"Q+	c #DF8843",
"R+	c #8F5921",
"S+	c #F2B875",
"T+	c #ABAAAA",
"U+	c #D7A761",
"V+	c #D8893D",
"W+	c #E59E4F",
"X+	c #F0B057",
"Y+	c #ECB251",
"Z+	c #E5A94C",
"`+	c #DB9E4C",
" @	c #CC9247",
".@	c #996A35",
"+@	c #714522",
"@@	c #794724",
"#@	c #E19545",
"$@	c #C39375",
"%@	c #C4D0E1",
"&@	c #E1E5E7",
"*@	c #D4D8DC",
"=@	c #D6DADE",
"-@	c #E1E6E5",
";@	c #DEE5E5",
">@	c #9EB2C6",
",@	c #CE8C51",
"'@	c #ECA452",
")@	c #DDA34F",
"!@	c #B0733A",
"~@	c #DD8441",
"{@	c #F4C183",
"]@	c #ABADAE",
"^@	c #BE965D",
"/@	c #DB8B3E",
"(@	c #D78B44",
"_@	c #EEAE54",
":@	c #F0AB50",
"<@	c #E69944",
"[@	c #C1996F",
"}@	c #A47A53",
"|@	c #9B6430",
"1@	c #7D4D26",
"2@	c #734221",
"3@	c #D5883D",
"4@	c #C19374",
"5@	c #C1CEDF",
"6@	c #E6EAE7",
"7@	c #DBE0E1",
"8@	c #D6DBDE",
"9@	c #DCE1E0",
"0@	c #DAE1E1",
"a@	c #96ABBC",
"b@	c #BB783E",
"c@	c #DF9C4D",
"d@	c #D9A456",
"e@	c #AD6D38",
"f@	c #DA7E3E",
"g@	c #F4DDAF",
"h@	c #ACBAC0",
"i@	c #A98959",
"j@	c #DD8C3D",
"k@	c #CE7E3D",
"l@	c #D28F45",
"m@	c #CE833B",
"n@	c #D1853F",
"o@	c #AE7749",
"p@	c #A46D3F",
"q@	c #A96E37",
"r@	c #7E4C25",
"s@	c #6F3E20",
"t@	c #CA7D36",
"u@	c #B88A6B",
"v@	c #B8C9DB",
"w@	c #E1E6E3",
"x@	c #DAE0DF",
"y@	c #D7DEDC",
"z@	c #D7DDDC",
"A@	c #D7DFDE",
"B@	c #99ABBA",
"C@	c #BC7337",
"D@	c #E09C4E",
"E@	c #D7A254",
"F@	c #AC6B37",
"G@	c #D3783C",
"H@	c #732F09",
"I@	c #EED09A",
"J@	c #AEBFBF",
"K@	c #97815A",
"L@	c #D68739",
"M@	c #CB783A",
"N@	c #E9A655",
"O@	c #E1AE5B",
"P@	c #DDA656",
"Q@	c #D28E46",
"R@	c #BE793D",
"S@	c #A66A36",
"T@	c #7D4B24",
"U@	c #6C3B1E",
"V@	c #C27634",
"W@	c #B98562",
"X@	c #B4C5D6",
"Y@	c #DEE3E0",
"Z@	c #D8DDDC",
"`@	c #D4DAD9",
" #	c #D3DAD8",
".#	c #D5DCDB",
"+#	c #9EAEBC",
"@#	c #D18649",
"##	c #EBA55A",
"$#	c #D39A51",
"%#	c #AB6836",
"&#	c #CF773C",
"*#	c #762F09",
"=#	c #E9C286",
"-#	c #B1C2BB",
";#	c #877C5A",
">#	c #CF8235",
",#	c #C77236",
"'#	c #E99D50",
")#	c #F3B55C",
"!#	c #ECB15B",
"~#	c #D99A4E",
"{#	c #BC793D",
"]#	c #A36534",
"^#	c #7D4925",
"/#	c #68361B",
"(#	c #BE7537",
"_#	c #CC8F60",
":#	c #B4C3D2",
"<#	c #DBE1DE",
"[#	c #D5DBDA",
"}#	c #D2D9D7",
"|#	c #D0D7D5",
"1#	c #D2DAD8",
"2#	c #A3B4C1",
"3#	c #CF8751",
"4#	c #E9A057",
"5#	c #CA8E4D",
"6#	c #A46034",
"7#	c #CA6F38",
"8#	c #81360C",
"9#	c #E0AF6F",
"0#	c #B1C4B6",
"a#	c #7D7B5E",
"b#	c #C97D30",
"c#	c #C66F34",
"d#	c #E08F48",
"e#	c #EAA553",
"f#	c #E7A654",
"g#	c #D7974C",
"h#	c #BD7C3F",
"i#	c #A16133",
"j#	c #7D4823",
"k#	c #643219",
"l#	c #B46B35",
"m#	c #DA9155",
"n#	c #B8C4CF",
"o#	c #D9DFDD",
"p#	c #D3D9D8",
"q#	c #D0D8D6",
"r#	c #CED5D4",
"s#	c #D0DADB",
"t#	c #A4B2C1",
"u#	c #C98452",
"v#	c #E1964F",
"w#	c #C38042",
"x#	c #B56F37",
"y#	c #D4833E",
"z#	c #DC853C",
"A#	c #603315",
"B#	c #D79C5A",
"C#	c #B0C6B0",
"D#	c #767C63",
"E#	c #C3772A",
"F#	c #C46B31",
"G#	c #DA8544",
"H#	c #E1914A",
"I#	c #DF994D",
"J#	c #D28D48",
"K#	c #BB773D",
"L#	c #A15F31",
"M#	c #7C4523",
"N#	c #623018",
"O#	c #A96231",
"P#	c #E0914E",
"Q#	c #B4BBC3",
"R#	c #D0DBDD",
"S#	c #D4DAD7",
"T#	c #CBD5D6",
"U#	c #CAC1AE",
"V#	c #D8B978",
"W#	c #E5AD58",
"X#	c #E8AC56",
"Y#	c #ECAC57",
"Z#	c #E9A050",
"`#	c #E18F49",
" $	c #E68443",
".$	c #602E14",
"+$	c #CC8948",
"@$	c #AEC5A7",
"#$	c #728068",
"$$	c #BC7125",
"%$	c #C0662D",
"&$	c #D77F40",
"*$	c #D98142",
"=$	c #D27E41",
"-$	c #C87A3F",
";$	c #B66D38",
">$	c #9E5A2F",
",$	c #7A4322",
"'$	c #623118",
")$	c #9E592E",
"!$	c #E08D47",
"~$	c #B8B4B5",
"{$	c #AFC7DE",
"]$	c #BBC9D1",
"^$	c #CFD9DA",
"/$	c #CBC2B0",
"($	c #E9C770",
"_$	c #F1D592",
":$	c #EAB96D",
"<$	c #F0A954",
"[$	c #E7994E",
"}$	c #DF8B47",
"|$	c #D87C40",
"1$	c #DE743C",
"2$	c #622E14",
"3$	c #CA7D3C",
"4$	c #A8BB97",
"5$	c #72886D",
"6$	c #AE6821",
"7$	c #BD6129",
"8$	c #D2793D",
"9$	c #D67C40",
"0$	c #CD743C",
"a$	c #C16C38",
"b$	c #B26333",
"c$	c #97532B",
"d$	c #763D1E",
"e$	c #713315",
"f$	c #8F451C",
"g$	c #DE8640",
"h$	c #D1A985",
"i$	c #A9C1D8",
"j$	c #B2C6DD",
"k$	c #A8C0D8",
"l$	c #C8B793",
"m$	c #E9C56A",
"n$	c #AAACB2",
"o$	c #B39472",
"p$	c #EC9E4B",
"q$	c #D97F41",
"r$	c #D3723C",
"s$	c #D66834",
"t$	c #4E200A",
"u$	c #CA7535",
"v$	c #A2B084",
"w$	c #739173",
"x$	c #A0611D",
"y$	c #BC5C25",
"z$	c #CE733A",
"A$	c #D4773E",
"B$	c #CC703A",
"C$	c #BF6836",
"D$	c #A95A2D",
"E$	c #944720",
"F$	c #73300F",
"G$	c #A64E1C",
"H$	c #DF833E",
"I$	c #D7A879",
"J$	c #B6C1C7",
"K$	c #A5C1E1",
"L$	c #BEBDBD",
"M$	c #E0AC5E",
"N$	c #C08744",
"O$	c #D18C47",
"P$	c #E08D45",
"Q$	c #DA813F",
"R$	c #D3723A",
"S$	c #CE6430",
"T$	c #7E3511",
"U$	c #B7662D",
"V$	c #A0A270",
"W$	c #739979",
"X$	c #955B1C",
"Y$	c #BB5821",
"Z$	c #CB6D38",
"`$	c #D3723B",
" %	c #C66936",
".%	c #B85E2E",
"+%	c #9C471C",
"@%	c #532007",
"#%	c #702E0B",
"$%	c #D06C2B",
"%%	c #E59C5A",
"&%	c #CDC5B0",
"*%	c #BDD2E7",
"=%	c #BBBAC3",
"-%	c #C2A591",
";%	c #C98150",
">%	c #C96B34",
",%	c #AC4F2C",
"'%	c #A44D26",
")%	c #CB612C",
"!%	c #552209",
"~%	c #A55926",
"{%	c #A19761",
"]%	c #6D9D7A",
"^%	c #8D5B1E",
"/%	c #B8531A",
"(%	c #C76835",
"_%	c #CB6936",
":%	c #BE5B29",
"<%	c #803712",
"[%	c #AC4F1B",
"}%	c #E78941",
"|%	c #DABA8D",
"1%	c #C0D4DD",
"2%	c #AFCDEB",
"3%	c #CC9778",
"4%	c #D16F3F",
"5%	c #963C31",
"6%	c #91432A",
"7%	c #D26833",
"8%	c #57230A",
"9%	c #BF591F",
"0%	c #9B8C55",
"a%	c #5FA17B",
"b%	c #865F25",
"c%	c #B94F15",
"d%	c #C6622F",
"e%	c #A94C1E",
"f%	c #491C06",
"g%	c #732E0C",
"h%	c #D26C2B",
"i%	c #E6A96B",
"j%	c #CCD0C2",
"k%	c #CF936E",
"l%	c #CC693C",
"m%	c #93392D",
"n%	c #924328",
"o%	c #56230A",
"p%	c #B3521B",
"q%	c #B87F48",
"r%	c #81805A",
"s%	c #905619",
"t%	c #B64C0F",
"u%	c #773312",
"v%	c #AA4C1B",
"w%	c #E48A47",
"x%	c #DA7F44",
"y%	c #C9683F",
"z%	c #8F352A",
"A%	c #904228",
"B%	c #7B3D17",
"C%	c #E4773E",
"D%	c #BC582C",
"E%	c #7D380A",
"F%	c #712D0C",
"G%	c #CF6730",
"H%	c #CE663E",
"I%	c #943626",
"J%	c #9A4522",
"K%	c #DA6C36",
"L%	c #5A260D",
"M%	c #AC4B1A",
"N%	c #62280C",
"O%	c #7A3114",
"P%	c #5B210A",
"Q%	c #3B1502",
"R%	c #974217",
"S%	c #532108",
"                                                                ",
"                            . + @                               ",
"                        # $ % & * = -                           ",
"                    ; > , ' ) ! ~ { ] ^                         ",
"                / ( _ : < [ } | 1 2 3 4 5 6                     ",
"            7 8 9 0 a b c d e f g h i j k l m n                 ",
"        o p q r s t u v w x y z A B C D E F G H I J             ",
"    K L M N O P Q R S T U V W X Y Z `  ...+.@.#.$.%.&.*.        ",
"  =.-.;.>.,.'.).!.~.{.].^./.(._.:.<.[.}.|.1.2.3.4.5.6.7.8.      ",
"  9.0.a.b.c.d.e.f.g.h.i.j.k.l.m.n.o.p.q.r.s.t.u.v.w.x.y.z.      ",
"  A.B.C.D.E.F.G.H.I.J.K.L.M.N.O.P.Q.R.S.T.U.V.W.X.Y.Z.`. +      ",
"  .+++@+#+$+%+&+*+=+-+;+>+,+'+)+!+~+{+{+]+^+/+(+_+:+<+[+}+      ",
"  |+1+2+3+4+5+6+7+8+9+0+a+b+c+d+e+f+g+h+i+j+k+l+m+n+o+p+q+      ",
"  r+s+t+u+v+w+x+7.y+z+A+B+C+D+E+F+G+h+H+I+J+K+L+M+N+O+P+Q+      ",
"  R+S+T+U+V+W+X+Y+Z+`+ @.@+@@@#@$@%@&@*@=@-@;@>@,@'@)@!@~@      ",
"    {@]@^@/@(@_@:@<@[@}@|@1@2@3@4@5@6@7@8@9@0@a@b@c@d@e@f@      ",
"    g@h@i@j@k@l@m@n@o@p@q@r@s@t@u@v@w@x@y@z@A@B@C@D@E@F@G@H@    ",
"    I@J@K@L@M@N@O@P@Q@R@S@T@U@V@W@X@Y@Z@`@ #.#+#@###$#%#&#*#    ",
"    =#-#;#>#,#'#)#!#~#{#]#^#/#(#_#:#<#[#}#|#1#2#3#4#5#6#7#8#    ",
"    9#0#a#b#c#d#e#f#g#h#i#j#k#l#m#n#o#p#q#r#s#t#u#v#w#x#y#z#A#  ",
"    B#C#D#E#F#G#H#I#J#K#L#M#N#O#P#Q#R#S#q#T#U#V#W#X#Y#Z#`# $.$  ",
"    +$@$#$$$%$&$*$=$-$;$>$,$'$)$!$~${$]$^$/$($_$:$<$[$}$|$1$2$  ",
"    3$4$5$6$7$8$9$0$a$b$c$d$e$f$g$h$i$j$k$l$m$n$o$p$`#q$r$s$t$  ",
"    u$v$w$x$y$z$A$B$C$D$E$F$    G$H$I$J$K$L$M$N$O$P$Q$R$S$T$    ",
"    U$V$W$X$Y$Z$`$ %.%+%@%        #%$%%%&%*%=%-%;%>%,%'%)%!%    ",
"    ~%{%]%^%/%(%_%:%<%                [%}%|%1%2%3%4%5%6%7%8%    ",
"    9%0%a%b%c%d%e%f%                    g%h%i%j%k%l%m%n%7%o%    ",
"    p%q%r%s%t%u%                            v%w%x%y%z%A%7%o%    ",
"    B%C%D%E%                                  F%G%H%I%J%K%L%    ",
"      M%N%                                        O%P%Q%R%S%    ",
"                                                                ",
"                                                                "};
