/* XPM */
static char * people_xpm[] = {
"32 32 456 2",
"  	c None",
". 	c #0A0A09",
"+ 	c #010101",
"@ 	c #020201",
"# 	c #090707",
"$ 	c #2E2E2E",
"% 	c #B7B4AC",
"& 	c #DCDAD0",
"* 	c #DDDBD1",
"= 	c #B3B1AA",
"- 	c #3F3E39",
"; 	c #3A3930",
"> 	c #585755",
", 	c #E9E7E3",
"' 	c #FCF9F2",
") 	c #FCF9EE",
"! 	c #FBF7E7",
"~ 	c #FAF5E0",
"{ 	c #E8E2CA",
"] 	c #595549",
"^ 	c #403C33",
"/ 	c #343432",
"( 	c #E2E0DA",
"_ 	c #FCFAF7",
": 	c #FEFCF7",
"< 	c #FCFAF0",
"[ 	c #FCF7E8",
"} 	c #FAF5E2",
"| 	c #FAF2D9",
"1 	c #ECE5C9",
"2 	c #454238",
"3 	c #000000",
"4 	c #040403",
"5 	c #9F9E97",
"6 	c #F3EEDF",
"7 	c #F6F2E4",
"8 	c #F9F6E9",
"9 	c #FBF7EA",
"0 	c #FAF6E8",
"a 	c #F5F0DC",
"b 	c #EFE5C6",
"c 	c #EDE0BC",
"d 	c #C4BDA2",
"e 	c #38362C",
"f 	c #2F2E2C",
"g 	c #A09A86",
"h 	c #CEA55E",
"i 	c #C09F67",
"j 	c #BE9E69",
"k 	c #BF9F6A",
"l 	c #C19F65",
"m 	c #C79D57",
"n 	c #D5B476",
"o 	c #E7DEBE",
"p 	c #484439",
"q 	c #211C13",
"r 	c #CC953E",
"s 	c #D89A38",
"t 	c #D79A39",
"u 	c #D49939",
"v 	c #D49736",
"w 	c #CE9030",
"x 	c #C48D35",
"y 	c #ECDDB4",
"z 	c #A29C87",
"A 	c #5D431B",
"B 	c #DD9D37",
"C 	c #E4A23B",
"D 	c #E29F38",
"E 	c #D4922F",
"F 	c #BE8730",
"G 	c #E1C994",
"H 	c #D8D0B5",
"I 	c #1C1914",
"J 	c #2D1F09",
"K 	c #BC832B",
"L 	c #DE9B33",
"M 	c #DD9932",
"N 	c #D08F2C",
"O 	c #BB822A",
"P 	c #D3B883",
"Q 	c #E8DFC0",
"R 	c #211F16",
"S 	c #261705",
"T 	c #9E5E16",
"U 	c #895215",
"V 	c #663F10",
"W 	c #492C0C",
"X 	c #673D0F",
"Y 	c #864F13",
"Z 	c #9F5C15",
"` 	c #56310A",
" .	c #150E04",
"..	c #8F621E",
"+.	c #DD972F",
"@.	c #DC962E",
"#.	c #CA8927",
"$.	c #A87426",
"%.	c #D5C094",
"&.	c #E6DCBC",
"*.	c #211F17",
"=.	c #0D0801",
"-.	c #58340C",
";.	c #D37D1E",
">.	c #D68021",
",.	c #D98423",
"'.	c #D37C1E",
").	c #CD761A",
"!.	c #7B460F",
"~.	c #1A0F03",
"{.	c #785117",
"].	c #DA942B",
"^.	c #D9932A",
"/.	c #C08022",
"(.	c #976823",
"_.	c #CABC98",
":.	c #D7CEAE",
"<.	c #1A1912",
"[.	c #291805",
"}.	c #975713",
"|.	c #D27B1D",
"1.	c #D37D1F",
"2.	c #D57F20",
"3.	c #D27C1E",
"4.	c #CE781B",
"5.	c #CC751A",
"6.	c #995713",
"7.	c #4B2A09",
"8.	c #775016",
"9.	c #D89128",
"0.	c #D58E26",
"a.	c #AF741D",
"b.	c #6F4A13",
"c.	c #D0C6A5",
"d.	c #C6BD98",
"e.	c #191711",
"f.	c #2D1905",
"g.	c #A75F14",
"h.	c #CE771B",
"i.	c #CD781C",
"j.	c #CE781C",
"k.	c #CD771B",
"l.	c #CC7419",
"m.	c #AA6014",
"n.	c #4B2908",
"o.	c #704912",
"p.	c #D18A23",
"q.	c #CD8722",
"r.	c #BE7C1F",
"s.	c #7B5012",
"t.	c #20250C",
"u.	c #D1C9A1",
"v.	c #ADA484",
"w.	c #090805",
"x.	c #351D05",
"y.	c #AA5F12",
"z.	c #CA7217",
"A.	c #CA7318",
"B.	c #CB7319",
"C.	c #C66F15",
"D.	c #AD5F11",
"E.	c #502F09",
"F.	c #6D490F",
"G.	c #B1741C",
"H.	c #B5731B",
"I.	c #7F5111",
"J.	c #25310D",
"K.	c #1A4F1A",
"L.	c #BAB78C",
"M.	c #6E6853",
"N.	c #100F09",
"O.	c #321C06",
"P.	c #995510",
"Q.	c #945210",
"R.	c #422507",
"S.	c #281502",
"T.	c #311A03",
"U.	c #8D4F0F",
"V.	c #C26B14",
"W.	c #A55A10",
"X.	c #392D0A",
"Y.	c #103610",
"Z.	c #103410",
"`.	c #0D280D",
" +	c #164116",
".+	c #206120",
"++	c #1E5C1E",
"@+	c #817E5F",
"#+	c #202B19",
"$+	c #367636",
"%+	c #59885D",
"&+	c #0B1A0E",
"*+	c #68390A",
"=+	c #C36A13",
"-+	c #4E2A07",
";+	c #AF610E",
">+	c #BC6811",
",+	c #AE600E",
"'+	c #3B1F05",
")+	c #B46211",
"!+	c #88490D",
"~+	c #133A13",
"{+	c #2A7B2A",
"]+	c #256E25",
"^+	c #3D733D",
"/+	c #256F25",
"(+	c #236923",
"_+	c #226522",
":+	c #1F2B15",
"<+	c #205C1F",
"[+	c #246F24",
"}+	c #4B8D4B",
"|+	c #0A190D",
"1+	c #120901",
"2+	c #A85A10",
"3+	c #582E07",
"4+	c #492706",
"5+	c #5A3108",
"6+	c #3A1E04",
"7+	c #9B540E",
"8+	c #391F05",
"9+	c #143B14",
"0+	c #297B29",
"a+	c #277427",
"b+	c #6EAB6E",
"c+	c #509750",
"d+	c #2B802B",
"e+	c #297E29",
"f+	c #287A28",
"g+	c #287C28",
"h+	c #3B893B",
"i+	c #59885F",
"j+	c #0A0E10",
"k+	c #33404B",
"l+	c #6C8196",
"m+	c #39332C",
"n+	c #422509",
"o+	c #3C2005",
"p+	c #3E2105",
"q+	c #331B04",
"r+	c #2C1703",
"s+	c #3C2916",
"t+	c #36414C",
"u+	c #3D4D5E",
"v+	c #181E25",
"w+	c #113211",
"x+	c #437843",
"y+	c #339633",
"z+	c #319431",
"A+	c #308F30",
"B+	c #2D8B2D",
"C+	c #2C862C",
"D+	c #2B842B",
"E+	c #298129",
"F+	c #287E28",
"G+	c #4B904C",
"H+	c #0F2516",
"I+	c #3B4248",
"J+	c #9AA8B6",
"K+	c #A4B6C9",
"L+	c #8198AF",
"M+	c #61768C",
"N+	c #31373E",
"O+	c #17130F",
"P+	c #110901",
"Q+	c #120C09",
"R+	c #2E2E2F",
"S+	c #5C6B7C",
"T+	c #708092",
"U+	c #687D93",
"V+	c #556C84",
"W+	c #2B3A47",
"X+	c #18241D",
"Y+	c #3F7D3F",
"Z+	c #329432",
"`+	c #319131",
" @	c #2E8C2E",
".@	c #2B872B",
"+@	c #298029",
"@@	c #267926",
"#@	c #257825",
"$@	c #164618",
"%@	c #070809",
"&@	c #46505A",
"*@	c #9AAAB9",
"=@	c #738EAA",
"-@	c #7591AC",
";@	c #7692AE",
">@	c #68839D",
",@	c #879AAF",
"'@	c #D4D4D5",
")@	c #C9CACA",
"!@	c #C2C3C4",
"~@	c #BAC4CE",
"{@	c #7B8FA3",
"]@	c #6B8198",
"^@	c #627D98",
"/@	c #6F88A2",
"(@	c #6B859E",
"_@	c #44596E",
":@	c #0F1F16",
"<@	c #206020",
"[@	c #2E8B2E",
"}@	c #2C872C",
"|@	c #2B832B",
"1@	c #277A27",
"2@	c #257725",
"3@	c #123319",
"4@	c #3C4046",
"5@	c #8E9AA7",
"6@	c #7992AC",
"7@	c #6E8AA6",
"8@	c #708CA8",
"9@	c #728EA9",
"0@	c #6F8BA7",
"a@	c #637C96",
"b@	c #E5E8EA",
"c@	c #F4F4F4",
"d@	c #EDEEEE",
"e@	c #ABBACA",
"f@	c #758FA7",
"g@	c #65819D",
"h@	c #627E9A",
"i@	c #5F7B97",
"j@	c #5A7793",
"k@	c #667F99",
"l@	c #314253",
"m@	c #122E17",
"n@	c #277927",
"o@	c #2A812A",
"p@	c #257726",
"q@	c #257028",
"r@	c #1D5921",
"s@	c #59606B",
"t@	c #92A6B9",
"u@	c #67839F",
"v@	c #6985A1",
"w@	c #6B87A2",
"x@	c #6C88A4",
"y@	c #6D89A4",
"z@	c #69849E",
"A@	c #96A1AE",
"B@	c #FBFBFC",
"C@	c #DEE4EA",
"D@	c #90A5B8",
"E@	c #718BA4",
"F@	c #66819D",
"G@	c #6C859F",
"H@	c #657F9A",
"I@	c #577490",
"J@	c #526F8C",
"K@	c #5D7690",
"L@	c #1D2832",
"M@	c #1B531B",
"N@	c #29762A",
"O@	c #267629",
"P@	c #1F6D1F",
"Q@	c #164B16",
"R@	c #0C210F",
"S@	c #030B06",
"T@	c #818B94",
"U@	c #6E87A1",
"V@	c #637F9B",
"W@	c #66829E",
"X@	c #6884A0",
"Y@	c #728394",
"Z@	c #ECEEF1",
"`@	c #BFCBD6",
" #	c #8399AE",
".#	c #607C98",
"+#	c #899DB1",
"@#	c #DBE1E7",
"##	c #8A9EB2",
"$#	c #577390",
"%#	c #4F6C89",
"&#	c #4B6885",
"*#	c #344960",
"=#	c #95A7B8",
"-#	c #5B7793",
";#	c #5D7996",
">#	c #607C99",
",#	c #617D99",
"'#	c #61768A",
")#	c #D3D9DE",
"!#	c #9DAEC0",
"~#	c #6B859F",
"{#	c #6A849E",
"]#	c #BFCAD3",
"^#	c #C7CED7",
"/#	c #C1CBD4",
"(#	c #5B7692",
"_#	c #476481",
":#	c #415E7B",
"<#	c #889BAF",
"[#	c #56738F",
"}#	c #587591",
"|#	c #5C7894",
"1#	c #5C7995",
"2#	c #5D7995",
"3#	c #5C738B",
"4#	c #C0C8CF",
"5#	c #90A3B6",
"6#	c #67819A",
"7#	c #54718D",
"8#	c #516D8A",
"9#	c #4F6B88",
"0#	c #4B6784",
"a#	c #486481",
"b#	c #44607E",
"c#	c #3C5874",
"d#	c #6B839A",
"e#	c #536F8C",
"f#	c #54718E",
"g#	c #56728F",
"h#	c #506B86",
"i#	c #8A9BAB",
"j#	c #7188A1",
"k#	c #4C6885",
"l#	c #4A6683",
"m#	c #466280",
"n#	c #43607D",
"o#	c #3F5B79",
"p#	c #344B65",
"q#	c #3B536D",
"r#	c #4B6884",
"s#	c #4C6985",
"t#	c #506C89",
"u#	c #516E8A",
"v#	c #526E8B",
"w#	c #526F8B",
"x#	c #4C6883",
"y#	c #75889B",
"z#	c #6D859C",
"A#	c #4E6B88",
"B#	c #4C6986",
"C#	c #4A6784",
"D#	c #46627F",
"E#	c #415D7A",
"F#	c #37516E",
"G#	c #354F6A",
"H#	c #04070A",
"I#	c #364E68",
"J#	c #3A5572",
"K#	c #324860",
"L#	c #375069",
"M#	c #39526C",
"N#	c #3A536F",
"O#	c #3A546F",
"P#	c #3A5470",
"Q#	c #415B75",
"R#	c #3B5571",
"S#	c #395470",
"T#	c #39536F",
"U#	c #2D4359",
"V#	c #27394C",
"W#	c #2A3C51",
"                                  . + @ #                       ",
"                                $ % & * = - ;                   ",
"                              > , ' ) ! ~ { ] ^                 ",
"                            / ( _ : < [ } | 1 2                 ",
"                    3 3 3 4 5 6 7 8 9 0 a b c d e               ",
"                3 3 3 3 3 3 f g h i j k l m n o p               ",
"              3 3 3 3 3 3 3 3 q r s t u v w x y z               ",
"              3 3 3 3 3 3 3 3 3 A B C C D E F G H I             ",
"            3 3 3 3 3 3 3 3 3 @ J K L L M N O P Q R             ",
"            3 S T U V W X Y Z `  ...+.+.@.#.$.%.&.*.            ",
"            =.-.;.>.,.,.>.'.).!.~.{.].].^./.(._.:.<.            ",
"            [.}.|.1.2.2.3.4.5.6.7.8.9.9.0.a.b.c.d.e.            ",
"            f.g.h.i.j.j.k.5.l.m.n.o.p.q.r.s.t.u.v.w.            ",
"            x.y.z.A.B.B.A.z.C.D.E.F.G.H.I.J.K.L.M.N.3           ",
"            O.P.C.Q.R.S.T.U.V.W.X.Y.Z.`. +.+++@+#+$+%+&+        ",
"              *+=+-+;+>+,+'+)+!+~+{+]+^+/+(+_+:+<+[+}+%+|+      ",
"            3 1+2+3+4+5+-+6+7+8+9+0+a+b+c+d+e+0+f+g+e+h+i+3     ",
"          j+k+l+m+n+o+p+q+r+s+t+u+v+w+x+y+z+A+B+C+D+E+F+G+H+    ",
"      3 I+J+K+L+M+N+O+P+Q+R+S+T+U+V+W+X+Y+Z+`+ @.@E++@@@#@$@    ",
"    %@&@*@=@-@;@>@,@'@)@!@~@{@]@^@/@(@_@:@<@[@}@|@e+1@2@2@3@    ",
"    4@5@6@7@8@9@0@a@b@c@d@e@f@g@h@i@j@k@l@m@n@o@e+n@p@q@r@3     ",
"    s@t@u@v@w@x@y@z@A@B@C@D@E@F@G@H@I@J@K@L@M@N@O@P@Q@R@S@      ",
"  3 T@U@V@g@W@u@X@F@Y@Z@`@ #.#+#@###$#%#&#*#3 3 3 3 3           ",
"  3 =#-#;#i@>#,#h@h@'#)#!#~#{#]#^#/#(#&#_#:#3                   ",
"  3 <#[#}#j@|#1#2#2#3#4#5#6#[#7#8#9#0#a#b#c#3                   ",
"  3 d#8#e#f#g#[#$#$#h#i#j#e#8#9#k#l#m#n#o#p#3                   ",
"  3 q#r#s#t#u#v#w#w#x#y#z#A#B#C#a#D#E#F#G#H#3                   ",
"    3 I#J#K#L#M#N#O#P#Q#R#P#P#S#T#U#V#W#3 3                     ",
"      3 3 3 3 3 3 3 3 3 3 3 3 3 3 3 3 3                         ",
"                                                                ",
"                                                                ",
"                                                                "};
