/* XPM */
static char * peoplecad_xpm[] = {
"32 32 508 2",
"  	c None",
". 	c #0A0A09",
"+ 	c #010101",
"@ 	c #020201",
"# 	c #090707",
"$ 	c #2E2E2E",
"% 	c #B7B4AC",
"& 	c #DCDAD0",
"* 	c #DDDBD1",
"= 	c #B3B1AA",
"- 	c #3F3E39",
"; 	c #3A3930",
"> 	c #585755",
", 	c #E9E7E3",
"' 	c #FCF9F2",
") 	c #FCF9EE",
"! 	c #FBF7E7",
"~ 	c #FAF5E0",
"{ 	c #E8E2CA",
"] 	c #595549",
"^ 	c #403C33",
"/ 	c #343432",
"( 	c #E2E0DA",
"_ 	c #FCFAF7",
": 	c #FEFCF7",
"< 	c #FCFAF0",
"[ 	c #FCF7E8",
"} 	c #FAF5E2",
"| 	c #FAF2D9",
"1 	c #ECE5C9",
"2 	c #454238",
"3 	c #000000",
"4 	c #040403",
"5 	c #9F9E97",
"6 	c #F3EEDF",
"7 	c #F6F2E4",
"8 	c #F9F6E9",
"9 	c #FBF7EA",
"0 	c #FAF6E8",
"a 	c #F5F0DC",
"b 	c #EFE5C6",
"c 	c #EDE0BC",
"d 	c #C4BDA2",
"e 	c #38362C",
"f 	c #2F2E2C",
"g 	c #A09A86",
"h 	c #CEA55E",
"i 	c #C09F67",
"j 	c #BE9E69",
"k 	c #BF9F6A",
"l 	c #C19F65",
"m 	c #C79D57",
"n 	c #D5B476",
"o 	c #E7DEBE",
"p 	c #484439",
"q 	c #211C13",
"r 	c #CC953E",
"s 	c #D89A38",
"t 	c #D79A39",
"u 	c #D49939",
"v 	c #D49736",
"w 	c #CE9030",
"x 	c #C48D35",
"y 	c #ECDDB4",
"z 	c #A29C87",
"A 	c #DBAD0E",
"B 	c #DC9B1A",
"C 	c #C88911",
"D 	c #5D431B",
"E 	c #DD9D37",
"F 	c #E4A23B",
"G 	c #E29F38",
"H 	c #D4922F",
"I 	c #BE8730",
"J 	c #E1C994",
"K 	c #C1BAA4",
"L 	c #77601F",
"M 	c #DEC402",
"N 	c #FFD807",
"O 	c #FFB219",
"P 	c #F5AE1A",
"Q 	c #D28F10",
"R 	c #2D1F09",
"S 	c #BC832B",
"T 	c #DE9B33",
"U 	c #DD9932",
"V 	c #D08F2C",
"W 	c #BB822A",
"X 	c #D4BB89",
"Y 	c #B9AC8D",
"Z 	c #C5AC14",
"` 	c #FAE301",
" .	c #FFB602",
"..	c #FFA109",
"+.	c #FCAB16",
"@.	c #E9A218",
"#.	c #261705",
"$.	c #9E5E16",
"%.	c #895215",
"&.	c #663F10",
"*.	c #492C0C",
"=.	c #673D0F",
"-.	c #864F13",
";.	c #9F5C15",
">.	c #56310A",
",.	c #150E04",
"'.	c #8F621E",
").	c #DD972F",
"!.	c #DC962E",
"~.	c #CA8927",
"{.	c #A87426",
"].	c #DCCDB1",
"^.	c #D4BD43",
"/.	c #F4DE05",
"(.	c #FFC302",
"_.	c #FF9C01",
":.	c #FB9906",
"<.	c #EB9B1D",
"[.	c #CD8A21",
"}.	c #0D0801",
"|.	c #58340C",
"1.	c #D37D1E",
"2.	c #D68021",
"3.	c #D98423",
"4.	c #D37C1E",
"5.	c #CD761A",
"6.	c #7B460F",
"7.	c #1A0F03",
"8.	c #785117",
"9.	c #DA942B",
"0.	c #D9932A",
"a.	c #C08022",
"b.	c #9D7232",
"c.	c #CFBA63",
"d.	c #EAD207",
"e.	c #FED304",
"f.	c #FFA406",
"g.	c #FE9A04",
"h.	c #EE9817",
"i.	c #D69027",
"j.	c #8F5914",
"k.	c #291805",
"l.	c #975713",
"m.	c #D27B1D",
"n.	c #D37D1F",
"o.	c #D57F20",
"p.	c #D27C1E",
"q.	c #CE781B",
"r.	c #CC751A",
"s.	c #995713",
"t.	c #4B2A09",
"u.	c #775016",
"v.	c #D89128",
"w.	c #D58E26",
"x.	c #AD731D",
"y.	c #745C1E",
"z.	c #DCC20C",
"A.	c #FFDB0A",
"B.	c #FFAA0D",
"C.	c #FF9D0C",
"D.	c #F39A14",
"E.	c #D99229",
"F.	c #A46919",
"G.	c #2D1905",
"H.	c #A75F14",
"I.	c #CE771B",
"J.	c #CD781C",
"K.	c #CE781C",
"L.	c #CD771B",
"M.	c #CC7419",
"N.	c #AA6014",
"O.	c #4B2908",
"P.	c #704912",
"Q.	c #D18A23",
"R.	c #CD8722",
"S.	c #BE7D21",
"T.	c #9F8658",
"U.	c #C9B01E",
"V.	c #FFE118",
"W.	c #FFB616",
"X.	c #FFA214",
"Y.	c #F79C16",
"Z.	c #DC9429",
"`.	c #B67821",
" +	c #683E10",
".+	c #351D05",
"++	c #AA5F12",
"@+	c #CA7217",
"#+	c #CA7318",
"$+	c #CB7319",
"%+	c #C66F15",
"&+	c #AD5F11",
"*+	c #502F09",
"=+	c #6D490F",
"-+	c #B1741C",
";+	c #B5731B",
">+	c #BCA47F",
",+	c #D3BB4A",
"'+	c #FBE327",
")+	c #FFC420",
"!+	c #FFA71B",
"~+	c #F89F1A",
"{+	c #DD9326",
"]+	c #C28226",
"^+	c #72512A",
"/+	c #321C06",
"(+	c #995510",
"_+	c #945210",
":+	c #422507",
"<+	c #281502",
"[+	c #311A03",
"}+	c #8D4F0F",
"|+	c #C26B14",
"1+	c #A55A10",
"2+	c #392D0A",
"3+	c #103610",
"4+	c #103410",
"5+	c #6E7A66",
"6+	c #CEB764",
"7+	c #F1DA33",
"8+	c #FFCF2D",
"9+	c #FFAE25",
"0+	c #F9A221",
"a+	c #E09425",
"b+	c #CB8726",
"c+	c #AC8350",
"d+	c #68390A",
"e+	c #C36A13",
"f+	c #4E2A07",
"g+	c #AF610E",
"h+	c #BC6811",
"i+	c #AE600E",
"j+	c #3B1F05",
"k+	c #B46211",
"l+	c #88490D",
"m+	c #133A13",
"n+	c #2A7B2A",
"o+	c #84A382",
"p+	c #C0AC71",
"q+	c #EBD744",
"r+	c #FFDC3D",
"s+	c #FFB62E",
"t+	c #FCA629",
"u+	c #E39628",
"v+	c #CB8728",
"w+	c #B28141",
"x+	c #CFC6BC",
"y+	c #0A190D",
"z+	c #120901",
"A+	c #A85A10",
"B+	c #582E07",
"C+	c #492706",
"D+	c #5A3108",
"E+	c #3A1E04",
"F+	c #9B540E",
"G+	c #391F05",
"H+	c #143B14",
"I+	c #297B29",
"J+	c #BFAD8E",
"K+	c #E3D052",
"L+	c #FFE64F",
"M+	c #FFBD3A",
"N+	c #FEAC31",
"O+	c #E99B2C",
"P+	c #CC872A",
"Q+	c #B07832",
"R+	c #CCBAA6",
"S+	c #3B893B",
"T+	c #59885F",
"U+	c #0A0E10",
"V+	c #33404B",
"W+	c #6C8196",
"X+	c #39332C",
"Y+	c #422509",
"Z+	c #3C2005",
"`+	c #3E2105",
" @	c #331B04",
".@	c #2C1703",
"+@	c #3C2916",
"@@	c #36414C",
"#@	c #3D4D5E",
"$@	c #DACDBE",
"%@	c #D7C264",
"&@	c #FDEC60",
"*@	c #FFC847",
"=@	c #FFB039",
"-@	c #EEA133",
";@	c #CB872B",
">@	c #AD7227",
",@	c #C0A587",
"'@	c #298129",
")@	c #287E28",
"!@	c #4B904C",
"~@	c #0F2516",
"{@	c #3B4248",
"]@	c #9AA8B6",
"^@	c #A4B6C9",
"/@	c #8198AF",
"(@	c #61768C",
"_@	c #31373E",
":@	c #17130F",
"<@	c #110901",
"[@	c #120C09",
"}@	c #2E2E2F",
"|@	c #5C6B7C",
"1@	c #708092",
"2@	c #E4DCD6",
"3@	c #D1BC73",
"4@	c #F7EA6F",
"5@	c #FFD459",
"6@	c #FFB342",
"7@	c #F5A93B",
"8@	c #CF8B30",
"9@	c #AF7124",
"0@	c #B7956E",
"a@	c #428E42",
"b@	c #267926",
"c@	c #257825",
"d@	c #164618",
"e@	c #070809",
"f@	c #46505A",
"g@	c #9AAAB9",
"h@	c #738EAA",
"i@	c #7591AC",
"j@	c #7692AE",
"k@	c #68839D",
"l@	c #879AAF",
"m@	c #D4D4D5",
"n@	c #C9CACA",
"o@	c #C2C3C4",
"p@	c #BAC4CE",
"q@	c #7B8FA3",
"r@	c #CED1D3",
"s@	c #C8B47F",
"t@	c #F0E178",
"u@	c #FFE370",
"v@	c #FFB549",
"w@	c #F9AF44",
"x@	c #D38F35",
"y@	c #AB7028",
"z@	c #A98053",
"A@	c #D5CCC3",
"B@	c #428C42",
"C@	c #277A27",
"D@	c #257725",
"E@	c #123319",
"F@	c #3C4046",
"G@	c #8E9AA7",
"H@	c #7992AC",
"I@	c #6E8AA6",
"J@	c #708CA8",
"K@	c #728EA9",
"L@	c #6F8BA7",
"M@	c #637C96",
"N@	c #E5E8EA",
"O@	c #F4F4F4",
"P@	c #EDEEEE",
"Q@	c #ABBACA",
"R@	c #9FAEBB",
"S@	c #BFB09F",
"T@	c #E3D48A",
"U@	c #FFE983",
"V@	c #FFC059",
"W@	c #FDB54D",
"X@	c #DD993D",
"Y@	c #AA6E28",
"Z@	c #9E703B",
"`@	c #B8AA9B",
" #	c #297E29",
".#	c #277927",
"+#	c #257726",
"@#	c #257028",
"##	c #1D5921",
"$#	c #59606B",
"%#	c #92A6B9",
"&#	c #67839F",
"*#	c #6985A1",
"=#	c #6B87A2",
"-#	c #6C88A4",
";#	c #6D89A4",
">#	c #69849E",
",#	c #96A1AE",
"'#	c #FBFBFC",
")#	c #DEE4EA",
"!#	c #90A5B8",
"~#	c #ABB4BD",
"{#	c #C4B4A1",
"]#	c #E9D8A0",
"^#	c #FFCE74",
"/#	c #FFBB58",
"(#	c #E6A347",
"_#	c #AA6F2B",
":#	c #9D6A32",
"<#	c #B09A84",
"[#	c #7EA27E",
"}#	c #3B813D",
"|#	c #1F6D1F",
"1#	c #164B16",
"2#	c #0C210F",
"3#	c #030B06",
"4#	c #818B94",
"5#	c #6E87A1",
"6#	c #637F9B",
"7#	c #65819D",
"8#	c #66829E",
"9#	c #6884A0",
"0#	c #66819D",
"a#	c #728394",
"b#	c #ECEEF1",
"c#	c #BFCBD6",
"d#	c #8399AE",
"e#	c #C8C8C9",
"f#	c #D9CAB6",
"g#	c #F6E6C8",
"h#	c #FFDA9F",
"i#	c #F7BF6D",
"j#	c #B37935",
"k#	c #9A652D",
"l#	c #B19475",
"m#	c #95A7B8",
"n#	c #5B7793",
"o#	c #5D7996",
"p#	c #5F7B97",
"q#	c #607C99",
"r#	c #617D99",
"s#	c #627E9A",
"t#	c #61768A",
"u#	c #D3D9DE",
"v#	c #9DAEC0",
"w#	c #7F95AB",
"x#	c #DBD2C9",
"y#	c #E2D5C2",
"z#	c #FFF5E0",
"A#	c #FFF1D4",
"B#	c #F3D6A8",
"C#	c #AD8455",
"D#	c #A98868",
"E#	c #536C85",
"F#	c #889BAF",
"G#	c #56738F",
"H#	c #587591",
"I#	c #5A7793",
"J#	c #5C7894",
"K#	c #5C7995",
"L#	c #5D7995",
"M#	c #5C738B",
"N#	c #C0C8CF",
"O#	c #90A3B6",
"P#	c #9CACBB",
"Q#	c #CBC4BC",
"R#	c #CFC5B6",
"S#	c #FDF5E3",
"T#	c #E1CEB1",
"U#	c #CBB598",
"V#	c #D2C7B8",
"W#	c #536B85",
"X#	c #3C5874",
"Y#	c #6B839A",
"Z#	c #516D8A",
"`#	c #536F8C",
" $	c #54718E",
".$	c #56728F",
"+$	c #577390",
"@$	c #506B86",
"#$	c #8A9BAB",
"$$	c #7188A1",
"%$	c #ABA59E",
"&$	c #837C74",
"*$	c #AB9E8D",
"=$	c #868E97",
"-$	c #556D87",
";$	c #43607D",
">$	c #3F5B79",
",$	c #344B65",
"'$	c #3B536D",
")$	c #4B6884",
"!$	c #4C6985",
"~$	c #506C89",
"{$	c #516E8A",
"]$	c #526E8B",
"^$	c #526F8B",
"/$	c #4C6883",
"($	c #75889B",
"_$	c #70879D",
":$	c #B0AEAD",
"<$	c #938578",
"[$	c #8C837B",
"}$	c #576E86",
"|$	c #46627F",
"1$	c #415D7A",
"2$	c #37516E",
"3$	c #354F6A",
"4$	c #04070A",
"5$	c #364E68",
"6$	c #3A5572",
"7$	c #324860",
"8$	c #375069",
"9$	c #39526C",
"0$	c #3A536F",
"a$	c #3A546F",
"b$	c #3A5470",
"c$	c #415B75",
"d$	c #3B5571",
"e$	c #395470",
"f$	c #39536F",
"g$	c #2D4359",
"h$	c #27394C",
"i$	c #2A3C51",
"                                  . + @ #                       ",
"                                $ % & * = - ;                   ",
"                              > , ' ) ! ~ { ] ^                 ",
"                            / ( _ : < [ } | 1 2                 ",
"                    3 3 3 4 5 6 7 8 9 0 a b c d e               ",
"                3 3 3 3 3 3 f g h i j k l m n o p               ",
"              3 3 3 3 3 3 3 3 q r s t u v w x y z     A B C     ",
"              3 3 3 3 3 3 3 3 3 D E F F G H I J K L M N O P Q   ",
"            3 3 3 3 3 3 3 3 3 @ R S T T U V W X Y Z `  ...+.@.  ",
"            3 #.$.%.&.*.=.-.;.>.,.'.).).!.~.{.].^./.(._.:.<.[.  ",
"            }.|.1.2.3.3.2.4.5.6.7.8.9.9.0.a.b.c.d.e.f.g.h.i.j.  ",
"            k.l.m.n.o.o.p.q.r.s.t.u.v.v.w.x.y.z.A.B.C.D.E.F.    ",
"            G.H.I.J.K.K.L.r.M.N.O.P.Q.R.S.T.U.V.W.X.Y.Z.`. +    ",
"            .+++@+#+$+$+#+@+%+&+*+=+-+;+>+,+'+)+!+~+{+]+^+      ",
"            /+(+%+_+:+<+[+}+|+1+2+3+4+5+6+7+8+9+0+a+b+c+        ",
"              d+e+f+g+h+i+j+k+l+m+n+o+p+q+r+s+t+u+v+w+x+y+      ",
"            3 z+A+B+C+D+f+E+F+G+H+I+J+K+L+M+N+O+P+Q+R+S+T+3     ",
"          U+V+W+X+Y+Z+`+ @.@+@@@#@$@%@&@*@=@-@;@>@,@'@)@!@~@    ",
"      3 {@]@^@/@(@_@:@<@[@}@|@1@2@3@4@5@6@7@8@9@0@'@a@b@c@d@    ",
"    e@f@g@h@i@j@k@l@m@n@o@p@q@r@s@t@u@v@w@x@y@z@A@B@C@D@D@E@    ",
"    F@G@H@I@J@K@L@M@N@O@P@Q@R@S@T@U@V@W@X@Y@Z@`@ #.#+#@###3     ",
"    $#%#&#*#=#-#;#>#,#'#)#!#~#{#]#^#/#(#_#:#<#[#}#|#1#2#3#      ",
"  3 4#5#6#7#8#&#9#0#a#b#c#d#e#f#g#h#i#j#k#l#3 3 3 3 3           ",
"  3 m#n#o#p#q#r#s#s#t#u#v#w#x#y#z#A#B#C#D#E#3                   ",
"  3 F#G#H#I#J#K#L#L#M#N#O#P#Q#R#S#T#U#V#W#X#3                   ",
"  3 Y#Z#`# $.$G#+$+$@$#$$$`#%$&$*$=$-$;$>$,$3                   ",
"  3 '$)$!$~${$]$^$^$/$($_$:$<$[$}$|$1$2$3$4$3                   ",
"    3 5$6$7$8$9$0$a$b$c$d$b$b$e$f$g$h$i$3 3                     ",
"      3 3 3 3 3 3 3 3 3 3 3 3 3 3 3 3 3                         ",
"                                                                ",
"                                                                ",
"                                                                "};
