/* XPM */
static char * relatorio_xpm[] = {
"20 20 92 2",
"  	c None",
". 	c #969696",
"+ 	c #9C9C9C",
"@ 	c #8E8E8E",
"# 	c #868686",
"$ 	c #828282",
"% 	c #7D7D7D",
"& 	c #7A7A7A",
"* 	c #7B7B7B",
"= 	c #8F8F8F",
"- 	c #DBDBDB",
"; 	c #FFFFFF",
"> 	c #D2D2D2",
", 	c #878787",
"' 	c #5E5E5E",
") 	c #CECECE",
"! 	c #ABABAB",
"~ 	c #989898",
"{ 	c #303030",
"] 	c #CCCCCC",
"^ 	c #EAEAEA",
"/ 	c #C9C9C9",
"( 	c #F3F3F3",
"_ 	c #F5F5F5",
": 	c #FAFAFA",
"< 	c #F4F4F4",
"[ 	c #848484",
"} 	c #151515",
"| 	c #CDCDCD",
"1 	c #B6B6B6",
"2 	c #939393",
"3 	c #BFBFBF",
"4 	c #C4C4C4",
"5 	c #D3D3D3",
"6 	c #898989",
"7 	c #A1A1A1",
"8 	c #EEEEEE",
"9 	c #434343",
"0 	c #1E1E1E",
"a 	c #C7C7C7",
"b 	c #616161",
"c 	c #696969",
"d 	c #C5C5C5",
"e 	c #E4E4E4",
"f 	c #AEAEAE",
"g 	c #F9F9F9",
"h 	c #A4A4A4",
"i 	c #A6A6A6",
"j 	c #A9A9A9",
"k 	c #B0B0B0",
"l 	c #C0C0C0",
"m 	c #D8D8D8",
"n 	c #E6E6E6",
"o 	c #FCFCFC",
"p 	c #CFCFCF",
"q 	c #FEFEFE",
"r 	c #F8F8F8",
"s 	c #F7F7F7",
"t 	c #B8B8B8",
"u 	c #BABABA",
"v 	c #B9B9B9",
"w 	c #BEBEBE",
"x 	c #F2F2F2",
"y 	c #E8E8E8",
"z 	c #E9E9E9",
"A 	c #E7E7E7",
"B 	c #E5E5E5",
"C 	c #DFDFDF",
"D 	c #CBCBCB",
"E 	c #B3B3B3",
"F 	c #FDFDFD",
"G 	c #FBFBFB",
"H 	c #C8C8C8",
"I 	c #B4B4B4",
"J 	c #D1D1D1",
"K 	c #AAAAAA",
"L 	c #B2B2B2",
"M 	c #C6C6C6",
"N 	c #A7A7A7",
"O 	c #F6F6F6",
"P 	c #F0F0F0",
"Q 	c #EDEDED",
"R 	c #565656",
"S 	c #7E7E7E",
"T 	c #6B6B6B",
"U 	c #666666",
"V 	c #656565",
"W 	c #646464",
"X 	c #636363",
"Y 	c #626262",
"Z 	c #6F6F6F",
"` 	c #6A6A6A",
"                                        ",
"      . + @ # $ % & * $ =               ",
"      - ; ; ; ; ; ; ; > , '             ",
"      ) ; ; ; ; ; ; ; ! ; ~ {           ",
"      ] ^ / ; ( _ : ; . < ; [ }         ",
"      | 1 2 ; 3 3 4 5 6 7 8 ; 9 0       ",
"      a ; ; ; ; ; ; ; a b ' c # &       ",
"      d ; e ; ; ; ; ; ; ; ; ; ; 8       ",
"      d 4 f g h i j ! k ! i l ; m       ",
"      l ; n ; ; ; ; ; ; ; ; o ; p       ",
"      l ; ; ; ; ; ; q ; o r g ; )       ",
"      l 3 ~ s t u v u v t 1 d ; ]       ",
"      w x a ; y ^ z A B e C e ; D       ",
"      E ; ; ; q F G : s _ x ( ; H       ",
"      k m I s ) p | ] ] ] / J ; d       ",
"      K m L x D D D | / H M p F d       ",
"      N ; ; : r O s O ( P Q 8 ; d       ",
"      f ; ; ; ; ; ; ; ; ; ; ; ; J       ",
"      R S T U V W V W X Y X W Z `       ",
"                                        "};
