/* XPM */
static char * relatorios_xpm[] = {
"48 52 394 2",
"  	c None",
". 	c #000000",
"+ 	c #232323",
"@ 	c #1F1F1F",
"# 	c #DADADA",
"$ 	c #FFFFFF",
"% 	c #F6F6F6",
"& 	c #CFCFCF",
"* 	c #707070",
"= 	c #C1C1C1",
"- 	c #FEFEFE",
"; 	c #FBFBFB",
"> 	c #EDEDED",
", 	c #C0C0C0",
"' 	c #F7F7F7",
") 	c #D7D7D7",
"! 	c #F1F1F1",
"~ 	c #B7B7B7",
"{ 	c #D2D2D2",
"] 	c #AEAEAE",
"^ 	c #070707",
"/ 	c #7E7E7E",
"( 	c #7A7A7A",
"_ 	c #8B8B8B",
": 	c #ACACAC",
"< 	c #8A8A8A",
"[ 	c #797979",
"} 	c #4A4A4A",
"| 	c #5A5A5A",
"1 	c #ABABAB",
"2 	c #585858",
"3 	c #7D7D7D",
"4 	c #FDFDFD",
"5 	c #B8B8B8",
"6 	c #DCDCDC",
"7 	c #A4A4A3",
"8 	c #0E0E0E",
"9 	c #F5F5F4",
"0 	c #B5B5B5",
"a 	c #F9F9F9",
"b 	c #FCFCFC",
"c 	c #CBCBCB",
"d 	c #A5A5A5",
"e 	c #ADADAD",
"f 	c #818181",
"g 	c #8D8D8D",
"h 	c #919191",
"i 	c #A2A2A2",
"j 	c #A4A4A4",
"k 	c #B4B4B4",
"l 	c #767676",
"m 	c #7B7B7B",
"n 	c #898989",
"o 	c #AAAAA9",
"p 	c #7C7C7C",
"q 	c #ECECEC",
"r 	c #C3C3C3",
"s 	c #C2C2C2",
"t 	c #C9C9C8",
"u 	c #A8A8A8",
"v 	c #FDFDFC",
"w 	c #FCFCFB",
"x 	c #F4F4F3",
"y 	c #515151",
"z 	c #474747",
"A 	c #464645",
"B 	c #464646",
"C 	c #5D5D5C",
"D 	c #A9A9A9",
"E 	c #AAAAAA",
"F 	c #787878",
"G 	c #888888",
"H 	c #F2F2F2",
"I 	c #F3F3F3",
"J 	c #A0A09F",
"K 	c #6C6C6C",
"L 	c #454545",
"M 	c #FAFAFA",
"N 	c #FAFAF9",
"O 	c #E7E7E7",
"P 	c #C6C6C5",
"Q 	c #BABAB9",
"R 	c #595959",
"S 	c #575757",
"T 	c #777777",
"U 	c #F8F8F7",
"V 	c #F7F7F6",
"W 	c #F6F6F5",
"X 	c #F5F5F5",
"Y 	c #B9B9B9",
"Z 	c #FBFBFA",
"` 	c #F9F9F8",
" .	c #B1B1B1",
"..	c #757574",
"+.	c #878787",
"@.	c #A7A7A7",
"#.	c #777776",
"$.	c #757575",
"%.	c #F4F4F4",
"&.	c #F3F3F2",
"*.	c #BFBFBF",
"=.	c #F8F8F8",
"-.	c #B7B7B6",
";.	c #BFBFBE",
">.	c #F2F2F1",
",.	c #B6B6B5",
"'.	c #F2F2F0",
").	c #F1F1F0",
"!.	c #F0F0F0",
"~.	c #BEBEBD",
"{.	c #F0F0EF",
"].	c #BDBDBD",
"^.	c #A8A8A7",
"/.	c #858585",
"(.	c #747474",
"_.	c #A3A3A3",
":.	c #787877",
"<.	c #737373",
"[.	c #838383",
"}.	c #F1F1EF",
"|.	c #EFEFEE",
"1.	c #EEEEED",
"2.	c #B4B4B3",
"3.	c #2C2C2C",
"4.	c #292929",
"5.	c #404040",
"6.	c #6D6D6C",
"7.	c #B5B5B4",
"8.	c #EFEFEF",
"9.	c #EEEEEE",
"0.	c #EEEEEC",
"a.	c #EDEDEC",
"b.	c #A6A6A6",
"c.	c #767675",
"d.	c #808080",
"e.	c #5E5E5E",
"f.	c #444444",
"g.	c #B3B3B3",
"h.	c #323232",
"i.	c #393938",
"j.	c #6F6F6E",
"k.	c #B2B2B2",
"l.	c #BCBCBC",
"m.	c #BCBCBB",
"n.	c #2A2A2A",
"o.	c #8E8E8D",
"p.	c #BEBEBE",
"q.	c #BBBBBB",
"r.	c #B2B2B1",
"s.	c #A1A1A0",
"t.	c #6D6D6D",
"u.	c #151515",
"v.	c #9F9F9F",
"w.	c #E7E7E6",
"x.	c #EDEDEB",
"y.	c #ECECEB",
"z.	c #868686",
"A.	c #7A7A79",
"B.	c #A6A6A5",
"C.	c #858584",
"D.	c #929291",
"E.	c #979797",
"F.	c #C1C1C0",
"G.	c #CDCDCD",
"H.	c #D0D0CF",
"I.	c #717170",
"J.	c #111111",
"K.	c #E3E3E2",
"L.	c #ECECEA",
"M.	c #EBEBEA",
"N.	c #525252",
"O.	c #4C4C4C",
"P.	c #949493",
"Q.	c #4D4D4D",
"R.	c #C3C3C2",
"S.	c #414141",
"T.	c #90908F",
"U.	c #373737",
"V.	c #323231",
"W.	c #CACAC8",
"X.	c #E4E4E3",
"Y.	c #B1B1B0",
"Z.	c #BABABA",
"`.	c #5D5D5D",
" +	c #2B2B2B",
".+	c #333333",
"++	c #4F4F4E",
"@+	c #5F5F5F",
"#+	c #646464",
"$+	c #242424",
"%+	c #797978",
"&+	c #D4D4D3",
"*+	c #E8E8E7",
"=+	c #EAEAE9",
"-+	c #E9E9E8",
";+	c #B0B0AF",
">+	c #646463",
",+	c #353535",
"'+	c #C7C7C7",
")+	c #434342",
"!+	c #494949",
"~+	c #484848",
"{+	c #424242",
"]+	c #CECECD",
"^+	c #6E6E6E",
"/+	c #393939",
"(+	c #DEDEDD",
"_+	c #E9E9E7",
":+	c #EFEFED",
"<+	c #2E2E2E",
"[+	c #363636",
"}+	c #DBDBDA",
"|+	c #5C5C5C",
"1+	c #C5C5C4",
"2+	c #CACACA",
"3+	c #E3E3E3",
"4+	c #535353",
"5+	c #9C9C9B",
"6+	c #181818",
"7+	c #A3A3A2",
"8+	c #D2D2D1",
"9+	c #E6E6E5",
"0+	c #AFAFAE",
"a+	c #131313",
"b+	c #383838",
"c+	c #545453",
"d+	c #555555",
"e+	c #080808",
"f+	c #E8E8E6",
"g+	c #101010",
"h+	c #CECECE",
"i+	c #E5E5E5",
"j+	c #D0D0D0",
"k+	c #E9E9E9",
"l+	c #DDDDDC",
"m+	c #888887",
"n+	c #B9B9B8",
"o+	c #E1E1DF",
"p+	c #E6E6E4",
"q+	c #828282",
"r+	c #A1A1A1",
"s+	c #828281",
"t+	c #222221",
"u+	c #949494",
"v+	c #E4E4E4",
"w+	c #DFDFDF",
"x+	c #4A4A49",
"y+	c #838382",
"z+	c #B3B3B2",
"A+	c #DFDFDE",
"B+	c #AEAEAC",
"C+	c #E5E5E3",
"D+	c #E0E0DF",
"E+	c #3E3E3E",
"F+	c #B3B3B1",
"G+	c #DEDEDC",
"H+	c #E5E5E4",
"I+	c #ADADAC",
"J+	c #727271",
"K+	c #9F9F9E",
"L+	c #212121",
"M+	c #AFAFAF",
"N+	c #D8D8D7",
"O+	c #E6E6E6",
"P+	c #E2E2E1",
"Q+	c #DEDEDE",
"R+	c #D5D5D4",
"S+	c #878786",
"T+	c #B7B7B5",
"U+	c #ADADAB",
"V+	c #282828",
"W+	c #D8D8D8",
"X+	c #DBDBDB",
"Y+	c #D3D3D2",
"Z+	c #70706F",
"`+	c #313130",
" @	c #989897",
".@	c #C1C1BF",
"+@	c #E0E0DE",
"@@	c #EBEBE9",
"#@	c #D1D1D0",
"$@	c #D5D5D5",
"%@	c #D6D6D5",
"&@	c #D4D4D4",
"*@	c #CFCFCE",
"=@	c #C8C8C8",
"-@	c #030303",
";@	c #8B8B89",
">@	c #CECECC",
",@	c #E2E2E0",
"'@	c #ACACAB",
")@	c #DDDDDB",
"!@	c #9E9E9E",
"~@	c #606060",
"{@	c #050505",
"]@	c #656565",
"^@	c #CACAC9",
"/@	c #CBCBCA",
"(@	c #C7C7C6",
"_@	c #AEAEAD",
":@	c #0A0A0A",
"<@	c #4E4E4E",
"[@	c #DADAD8",
"}@	c #E4E4E2",
"|@	c #747473",
"1@	c #80807F",
"2@	c #9D9D9C",
"3@	c #EAEAE8",
"4@	c #737372",
"5@	c #7E7E7D",
"6@	c #3C3C3B",
"7@	c #313131",
"8@	c #252525",
"9@	c #171717",
"0@	c #636363",
"a@	c #9B9B9A",
"b@	c #999999",
"c@	c #676767",
"d@	c #191918",
"e@	c #353534",
"f@	c #111110",
"g@	c #E7E7E5",
"h@	c #DCDCDB",
"i@	c #939393",
"j@	c #666665",
"k@	c #40403F",
"l@	c #1A1A1A",
"m@	c #1D1D1C",
"n@	c #4C4C4B",
"o@	c #8A8A88",
"p@	c #7B7B7A",
"q@	c #040404",
"r@	c #090909",
"s@	c #9A9A98",
"t@	c #E3E3E1",
"u@	c #ABABAA",
"v@	c #6F6F6F",
"w@	c #656564",
"x@	c #565656",
"y@	c #8E8E8E",
"z@	c #474746",
"A@	c #5B5B59",
"B@	c #626261",
"C@	c #020202",
"D@	c #666666",
"E@	c #343434",
"F@	c #A7A7A6",
"G@	c #DADAD9",
"H@	c #DBDBD9",
"I@	c #9C9C9A",
"J@	c #A2A2A1",
"K@	c #686867",
"L@	c #A5A5A3",
"M@	c #7D7D7C",
"N@	c #6B6B6A",
"O@	c #919190",
"P@	c #636362",
"Q@	c #505050",
"R@	c #4E4E4D",
"S@	c #717171",
"T@	c #585857",
"U@	c #5C5C5B",
"V@	c #CCCCCA",
"W@	c #60605F",
"X@	c #4D4D4C",
"Y@	c #494948",
"Z@	c #060606",
"`@	c #DFDFDD",
" #	c #D7D7D5",
".#	c #D6D6D4",
"+#	c #C5C5C3",
"@#	c #7C7C7B",
"##	c #3A3A3A",
"$#	c #A4A4A2",
"%#	c #6E6E6D",
"&#	c #6C6C6B",
"*#	c #D9D9D7",
"=#	c #BBBBBA",
"-#	c #010101",
";#	c #D4D4D2",
">#	c #B8B8B6",
",#	c #1E1E1E",
"'#	c #9B9B99",
")#	c #999998",
"!#	c #696969",
"~#	c #999997",
"{#	c #333332",
"]#	c #272727",
"^#	c #D1D1CF",
"/#	c #424241",
"(#	c #BDBDBC",
"_#	c #A9A9A7",
":#	c #848484",
"<#	c #929292",
"  . . . . . . . . . . . . . . . . . . . . . . . . . . . . . . . . . . + @                       ",
". # $ $ $ $ $ $ $ $ $ $ $ $ $ $ $ $ $ $ $ $ $ $ $ $ $ $ $ $ $ $ $ $ $ % & * .                   ",
". $ $ = $ $ $ $ $ $ $ $ $ $ $ $ $ $ $ $ $ $ $ - - - - - - - - - - - - ; % > , .                 ",
". $ $ = $ $ $ $ $ $ $ $ $ $ $ $ $ $ $ $ $ - - - - - - - - - - - - - - ' ) $ ! ~ .               ",
". $ $ $ $ $ $ $ $ $ $ $ $ $ $ $ $ $ $ - - - - - - - - - - - - - - - - ' { $ $ > ] ^             ",
". $ $ = $ $ $ $ / ( _ $ _ ( : $ / < [ } | 1 - [ 2 [ < - 3 [ [ - 3 4 4 % 5 $ 4 $ 6 7 8           ",
". $ $ = $ $ $ $ $ $ $ $ $ $ $ - - - - - - - - - - - - - - 4 4 4 4 4 4 9 0 $ a b $ c d .         ",
". $ $ $ $ $ $ $ ( ( / $ $ [ 1 - [ [ e - f g - h i j k l m 4 n o n b p j : q r c 5 s t u .       ",
". $ $ = $ $ $ $ $ $ $ - - - - - - - - - - - 4 4 4 4 4 4 v b b b b b w x 1 y z A B B C D .       ",
". $ $ = $ $ $ $ / < - 1 3 - < - 3 3 - 3 4 3 [ E v n F F b D p F ; F G H I , E J < K K L .       ",
". $ $ $ $ $ $ - - - - - - - - 4 4 4 4 4 4 b b b b b b w ; ; ; ; M N N a ; ' ' O P t Q ( .       ",
". $ $ = $ - - - 3 [ < 4 n [ E 4 3 n F } R D b F S F G ; p F T a m a a ' U V W X X Y $ D .       ",
". $ $ , $ - - - 4 4 4 4 4 4 b b b b b b w ; ; ; ; ; Z Z a a a a ` V V % ' X X 9 9 ~ $  ..       ",
". $ - $ 4 4 4 4 n 3 v D n b p F n w F D D ; D ..M u a +.@.@.#.$.% d d 9 9 9 %.x I $ &.0 .       ",
". $ 4 *.$ 4 4 b b b b b b w ; ; ; ; ; Z Z M M M a ` ` ` =.% % % W 9 %.%.%.x &.&.&.-.$ 0 .       ",
". $ 4 ;.$ b b b b b w ; ; ; ; Z Z M M M M M ` ` =.=.=.' W W W 9 %.%.x x &.&.H H >.,.$ 0 .       ",
". $ b $ b b w ; ; ; ; ; Z Z M M M M N N ` =.=.=.=.V W X X X %.x x x &.H H >.'.).).$ !.0 .       ",
". $ w ~.$ ; ; ; Z Z M M M M M N N a =.=.=.U U V X X X 9 x x x I &.>.>.>.>.'.!.!.{.k $ 0 .       ",
". $ ; ].$ Z Z M m G M ^.m N +.a ( ( U ( ' [ $.d 9 /.(.(.I _.:.<.>.<.[.).}.{.{.|.1.2.$ 0 .       ",
". $ Z $ M M M M N N a a a a U U ' ' ' % 9 9 9 *.F B 3.4.5.6.7.8.! ).}.{.{.9.9.1.0.$ a.0 .       ",
". $ M ].$ N a a T T m ` U l b.' c.$.D 9 / d.e.f.g : ~ g._.+.h.i.j.a.l J 1.1.0.a.a.k.$ 0 .       ",
". $ N l.$ a a ` ` =.' ' ' V V W X %.%.x m.n.o.5 p.q.5 0 r.] s.t.u.v.w.a.0.a.x.x.y.r.$ 0 .       ",
". $ a $ ` ` =.=.z.A.V B.z.X [ (.C.x (.D.+ E.p.l.F.G.) 6 # H.*.: I.J.(.K.L.x.y.y.M.$ M.0 .       ",
". $ =.q.$ =.V V V % % X 9 x x x I &.H N.O.l.P.B Q.q.!.R.N.2 S.{ T.U.V.W.X.L.M.M.M.Y.$ 0 .       ",
". $ U Z.$ V % % [ ../.x C.(._.&.T [.`. +.+Q ++Q , @+' #+m.H f.O 2 3 $+%+&+*+M.=+-+;+$ 0 .       ",
". $ % $ % W W 9 9 I I I &.&.>.>.! ).>+_ ,+'+)+> &.!+' ~+H %.f.q {+]+^+/+m.(+*+-+_+$ _+0 .       ",
". $ W Q $ 9 %.%.&.&.&.&.>.! ).).).:+<+@.[+}+|+1+1+@+' 2 2+3+f.a.4+,.5+6+7+8+9+_+*+0+$ 0 .       ",
". $ X 5 $ x &.&.&.H >.).).).).).{.=+a+g.b+K.].c+d+s % Y.O.t.L y.B.L R e+D.R.K.*+f+0+$ 0 .       ",
". $ x $ &.H H >.>.).).).!.{.{.|.|.*+g+;+h+i+|.! I 9 %.%.H j+d+k+K.l+o ^ m+n+o+w.w.$ p+0 .       ",
". $ H -.$ >.>.).#.q+{.r+l |.s+9.$.I.t+u+& v+y.9.!.>.>.).y } @.i+w+x+B 6+y+z+A+w.p+B+$ 0 .       ",
". $ >.-.$ ).{.{.{.{.{.|.:+1.1.a.a.C+~+6.2+D+O M.q a.a.y.M.-+i+A+}+&+d.E+y+F+G+H+H+I+$ 0 .       ",
". $ ! $ {.{.{.{.J+s.:+f $.v.^+K+y.6.!+L+M+N+D+v+O+w.w.O v+P+Q+}+R+Y 4.J+S+T+(+H+C+$ C+0 .       ",
". $ {.7.$ |.|.|.:+1.1.y.y.y.y.L.L.9+U+V+`.c W+X+A+w+Q+A+l+X+N+Y+c Z+`+ @T..@+@C+C+U+$ 0 .       ",
". $ |.k $ |.:+1.0.y.y.y.y.y.L.@@@@f+#@s+^ #.2+8+R+$@%@R+&@Y+*@=@s+-@p ;@J >@,@C+C+'@$ 0 .       ",
". $ |.$ 1.1.0.y.y.y.y.M.M.M.@@@@=+_+)@!@~@{@]@Y.^@c /@/@/@(@_@^+-@:@^ <@z+[@K.}@}@$ }@0 .       ",
". $ 1.2.$ y.y.L.|@Z+1@M.1@Z+2@3@4@5@K 6@7@L 8@9@0@a@2.7.b@c@d@e@L f@{@{@u.P.+@}@}@'@$ 0 .       ",
". $ x.r.$ M.M.M.M.@@@@=+3@3@3@*+f+f+g@h@~.i@Z+j@k@l@-@-@m@n@o@C.p@L L+L+q@r@s@}+t@u@$ 0 .       ",
". $ L.$ M.M.@@=+v@v@<.3@3@^+5+f+^+^+s.}@c.c.!@w@C 0@Z+x@2 y@z@A@k@B@C@D@E@q@q@F@G@- t@0 .       ",
". $ @@Y.$ =+=+=+=+3@3@f+f+f+f+g@g@g@g@g@K.H@^@r.I@;@1@A.A.5@S+P.J@7+K@C@F /+. . #.L@- 0 .       ",
". $ =+Y.$ 3@3@-+4@5@f+5+J+g@M@g@J+J+p+I.C+Z+N@O@W.P@Q@R@7 S@T@U@V@W@X@Y@. D@@ . Z@6.%.k .       ",
". $ 3@$ -+-+-+*+f+f+w.w.g@g@g@g@p+p+C+C+C+C+C+t@`@H@ #.#.# #N+}+(+H@+#@###C@D@h.C@{@$#e .       ",
". $ -+;+$ f+w.w.J+^+M@g@M@%#a@p+I.@#6.)+y b@}@6.++6.@#K.v@&#&#t@Z+,@*#=#|@e@-#F /+C@Z@+..       ",
". $ _+] $ w.w.g@g@g@9+9+9+p+C+C+C+X.X.}@}@}@}@}@K.K.t@t@t@t@t@t@t@,@`@;#>#c.h.. D@,#-@]@.       ",
". $ w.$ g@g@9+9+M@S@p+'#@#X.* 6.@#}@6.)#)#}@)#!#t@~#t@p@~#~#&#&#,@ @ @G+8+,.%#{#C@. 6+S..       ",
". $ g@_@$ 9+p+p+p+p+X.X.}@}@}@}@}@}@}@}@}@t@t@t@t@t@t@t@t@,@,@,@,@o+o+o+G+8+2.%#/+a+]#z .       ",
". $ 9+B+$ p+p+H+X.}@}@}@}@}@}@}@}@}@}@t@t@t@t@t@t@t@t@,@,@,@,@o+o+o+o+o+o+)@^#F+y+/#]@^+.       ",
". # p+$ p+C+}@}@}@}@}@}@}@}@}@}@K.t@t@t@t@t@t@t@t@,@,@,@,@o+o+o+o+o+o+o+o+o+)@8+(#p._#:#.       ",
". s 0 0 0 0 0 0 0 0 0 0 0 0 0 0 0 0 0 0 0 0 0 0 0 0 0 0 0 0 0 0 0 0 0 0 0 0 0 k.] 1 <#n .       ",
"  . . . . . . . . . . . . . . . . . . . . . . . . . . . . . . . . . . . . . . . . . . . .       ",
"                                                                                                ",
"                                                                                                ",
"                                                                                                "};
