/* XPM */
static char * reload_xpm[] = {
"16 16 153 2",
"  	c None",
". 	c #C7E3FF",
"+ 	c #C9E4FF",
"@ 	c #D7EBFF",
"# 	c #DFEFFF",
"$ 	c #DCEEFF",
"% 	c #CBE5FF",
"& 	c #B0D7FF",
"* 	c #C1E0FF",
"= 	c #E9F4FF",
"- 	c #FBFDFF",
"; 	c #FEFFFF",
"> 	c #F9FCFF",
", 	c #DBEDFF",
"' 	c #96CAFF",
") 	c #C3E0FE",
"! 	c #EBF4FD",
"~ 	c #FBFCFD",
"{ 	c #FAFBFB",
"] 	c #F4F8FB",
"^ 	c #EDF7FD",
"/ 	c #F6FAFD",
"( 	c #EFF8FE",
"_ 	c #F7FBFE",
": 	c #DEEEFD",
"< 	c #95CAFE",
"[ 	c #BEDEFE",
"} 	c #E4F0FC",
"| 	c #F9FBFB",
"1 	c #ECF1F3",
"2 	c #B1D9F3",
"3 	c #61BCF9",
"4 	c #4CB6FD",
"5 	c #69C2FC",
"6 	c #99D3F9",
"7 	c #5EBEFE",
"8 	c #CAE9FE",
"9 	c #D2E7FB",
"0 	c #C3E0FD",
"a 	c #F3F7F9",
"b 	c #ECF0F1",
"c 	c #77C0F1",
"d 	c #1AA3FE",
"e 	c #3DB1FF",
"f 	c #5BBDFE",
"g 	c #25A8FF",
"h 	c #099CFF",
"i 	c #049AFF",
"j 	c #96D4FE",
"k 	c #FAFBFC",
"l 	c #F1F6F8",
"m 	c #97C9F9",
"n 	c #C8E2FA",
"o 	c #F0F4F5",
"p 	c #C2DBEB",
"q 	c #0E9EFE",
"r 	c #6CC4FF",
"s 	c #F1F9FE",
"t 	c #DEF0FC",
"u 	c #34ADFE",
"v 	c #0199FF",
"w 	c #0099FF",
"x 	c #4BB7FF",
"y 	c #FBFCFC",
"z 	c #F1F5F6",
"A 	c #A2CCF4",
"B 	c #C8E0F7",
"C 	c #EBEFF2",
"D 	c #7FC5F4",
"E 	c #29A9FF",
"F 	c #D1ECFE",
"G 	c #F8FAFB",
"H 	c #F1F6F9",
"I 	c #C7E7FC",
"J 	c #ACDDFD",
"K 	c #86CEFE",
"L 	c #6BC3FF",
"M 	c #F5F9FB",
"N 	c #EBF1F3",
"O 	c #B1D4F6",
"P 	c #BBD9F6",
"Q 	c #EAF0F3",
"R 	c #7DC6F6",
"S 	c #2AA9FE",
"T 	c #D0EBFD",
"U 	c #F2F6F7",
"V 	c #EAF0F2",
"W 	c #F0F4F6",
"X 	c #F6F8FA",
"Y 	c #F5F8F9",
"Z 	c #ECF1F4",
"` 	c #E5ECEF",
" .	c #A1CBF2",
"..	c #9ECCF8",
"+.	c #E7EEF1",
"@.	c #BFDFF3",
"#.	c #0B9DFF",
"$.	c #70C5FC",
"%.	c #E8F0F6",
"&.	c #E5ECF0",
"*.	c #D9E7EF",
"=.	c #BDE0F6",
"-.	c #F0F5F8",
";.	c #E5EDF0",
">.	c #DDE7EB",
",.	c #75B0E8",
"'.	c #76B9FB",
").	c #CCE0EF",
"!.	c #E8EFF2",
"~.	c #70C3FA",
"{.	c #19A3FE",
"].	c #49B4FC",
"^.	c #6BC0F7",
"/.	c #41B0FA",
"(.	c #27A7FD",
"_.	c #B4DFFC",
":.	c #D8E3E8",
"<.	c #C1D9EC",
"[.	c #4F9FED",
"}.	c #7CBAF6",
"|.	c #D5E4EF",
"1.	c #E9F1F6",
"2.	c #AFDCFA",
"3.	c #5CBDFD",
"4.	c #48B5FE",
"5.	c #60BFFE",
"6.	c #A3D9FE",
"7.	c #DEE7EC",
"8.	c #C8DBE8",
"9.	c #74B6F5",
"0.	c #72B5F4",
"a.	c #CADDEC",
"b.	c #E4EDF2",
"c.	c #E7F1F6",
"d.	c #E2F0F8",
"e.	c #EAF3F8",
"f.	c #EAF0F4",
"g.	c #D8E4EA",
"h.	c #C2D8E8",
"i.	c #70B4F4",
"j.	c #6CB2F4",
"k.	c #88BEEF",
"l.	c #B5D2EA",
"m.	c #CADCE7",
"n.	c #C8DBE6",
"o.	c #B2D0E8",
"p.	c #86BDEF",
"q.	c #4D96DD",
"r.	c #308EEC",
"s.	c #3596F7",
"t.	c #3496F6",
"u.	c #2D8AE4",
"v.	c #2576C5",
"                                ",
"        . + @ # $ % &           ",
"      * = - ; ; ; ; > , '       ",
"    ) ! ~ { ] ^ / ~ ( _ : <     ",
"  [ } | 1 2 3 4 5 6 7 8 ~ 9     ",
"  0 a b c d e f g h i j k l m   ",
"  n o p q r s t u v w x y z A   ",
"  B C D E F G H I J K L M N O   ",
"  P Q R S T U V W X G Y Z `  .  ",
"  ..+.@.#.$.%.&.*.=.-.;.>.>.,.  ",
"  '.).!.~.{.].^./.(._.+.:.<.[.  ",
"    }.|.1.2.3.4.5.6.a 7.8.9.    ",
"      0.a.b.c.d.e.f.g.h.i.      ",
"        j.k.l.m.n.o.p.q.        ",
"            r.s.t.u.v.          ",
"                                "};
