/* XPM */
static char * right_xpm[] = {
"16 16 65 1",
" 	c None",
".	c #0C3652",
"+	c #124464",
"@	c #2D6278",
"#	c #1A4A68",
"$	c #90C1D7",
"%	c #457083",
"&	c #002643",
"*	c #00203E",
"=	c #001F3E",
"-	c #002442",
";	c #0E3A59",
">	c #97C3D6",
",	c #CDE4EE",
"'	c #000000",
")	c #38A4C4",
"!	c #7EC4DA",
"~	c #86C7DA",
"{	c #6EBCD4",
"]	c #72C3D9",
"^	c #7CCDE0",
"/	c #E2EFF5",
"(	c #497283",
"_	c #64B9D2",
":	c #A1D6E4",
"<	c #C0E6F1",
"[	c #97D7E8",
"}	c #68C1DA",
"|	c #11A3C4",
"1	c #149EC2",
"2	c #80CFE1",
"3	c #C8E5F1",
"4	c #3B6C80",
"5	c #68BBD4",
"6	c #48B1CD",
"7	c #2CA0BE",
"8	c #19A0C0",
"9	c #12A0C4",
"0	c #0E90B7",
"a	c #0D9EC4",
"b	c #4CCADE",
"c	c #30B9D2",
"d	c #0E526C",
"e	c #42A2C1",
"f	c #3095B3",
"g	c #1C90AC",
"h	c #1E94B2",
"i	c #129EBF",
"j	c #10A6C8",
"k	c #29CBE0",
"l	c #2AB7D0",
"m	c #0C526C",
"n	c #041C28",
"o	c #041621",
"p	c #041620",
"q	c #0B4561",
"r	c #1CB6D0",
"s	c #2DB8D1",
"t	c #0D526D",
"u	c #104564",
"v	c #2390B2",
"w	c #0D546E",
"x	c #0E4160",
"y	c #114C65",
"z	c #0C3956",
"                ",
"                ",
"       .        ",
"       +@       ",
"       #$%      ",
"   &*=-;>,%     ",
"  ')!~~{]^/(    ",
"  '_:<[}|1234   ",
"  '567890abcd   ",
"  'efghijklm    ",
"   noopqrst     ",
"       uvw      ",
"       xy       ",
"       z        ",
"                ",
"                "};
