/* XPM */
static char * simfirs_xpm[] = {
"16 16 22 1",
" 	c None",
".	c #FFFFFF",
"+	c #CCCCCC",
"@	c #C6C6C6",
"#	c #BABABA",
"$	c #B5B5B5",
"%	c #B0B0B0",
"&	c #A0A0A0",
"*	c #9A9A9A",
"=	c #949494",
"-	c #797979",
";	c #656565",
">	c #5E5E5E",
",	c #5D5D5D",
"'	c #505050",
")	c #4C4C4C",
"!	c #474747",
"~	c #363636",
"{	c #303030",
"]	c #282828",
"^	c #242424",
"/	c #1A1A1A",
"    ;/////~=    ",
"  =/;+++++&]'   ",
" =/$++++++++>~  ",
" /$++++++++>+); ",
";;++++/+++!]++/ ",
"/++++//++!/]++'-",
"/+++///+!//~++*!",
"/++////!///~++@^",
"/++!///+///~++$~",
"/+++!//++//~++->",
"~&+++!/+++/~++^&",
"=]++++)++++~+=] ",
" )>+++++++++#/& ",
"  ~)+++++++=/=  ",
"   ;/'*@$-^]&   ",
"     -!/];&     "};
