/* XPM */
static char * tabelas_xpm[] = {
"52 52 159 2",
"  	c None",
". 	c #979797",
"+ 	c #959595",
"@ 	c #949494",
"# 	c #929292",
"$ 	c #909090",
"% 	c #8E8E8E",
"& 	c #8B8B8B",
"* 	c #8A8A8A",
"= 	c #888888",
"- 	c #868686",
"; 	c #848484",
"> 	c #828282",
", 	c #808080",
"' 	c #7E7E7E",
") 	c #7C7C7C",
"! 	c #7A7A7A",
"~ 	c #787878",
"{ 	c #777777",
"] 	c #757575",
"^ 	c #737373",
"/ 	c #717171",
"( 	c #969696",
"_ 	c #AFAFAF",
": 	c #C9C9C9",
"< 	c #C8C8C8",
"[ 	c #C7C7C7",
"} 	c #C5C5C5",
"| 	c #C4C4C4",
"1 	c #C3C3C3",
"2 	c #C2C2C2",
"3 	c #C1C1C1",
"4 	c #C0C0C0",
"5 	c #BFBFBF",
"6 	c #BEBEBE",
"7 	c #BDBDBD",
"8 	c #BCBCBC",
"9 	c #BBBBBB",
"0 	c #BABABA",
"a 	c #B9B9B9",
"b 	c #B8B8B8",
"c 	c #B7B7B7",
"d 	c #AEAEAE",
"e 	c #858585",
"f 	c #FFFFFF",
"g 	c #E3E3E3",
"h 	c #7B7B7B",
"i 	c #E1E1E1",
"j 	c #CDCDCD",
"k 	c #8F8F8F",
"l 	c #E0E0E0",
"m 	c #D6D6D6",
"n 	c #E9E9E9",
"o 	c #676767",
"p 	c #C6C6C6",
"q 	c #DEDEDE",
"r 	c #797979",
"s 	c #D8D8D8",
"t 	c #F5F5F5",
"u 	c #E8E8E8",
"v 	c #5C5C5C",
"w 	c #8C8C8C",
"x 	c #DDDDDD",
"y 	c #DADADA",
"z 	c #F9F9F9",
"A 	c #E7E7E7",
"B 	c #696969",
"C 	c #505050",
"D 	c #DBDBDB",
"E 	c #6D6D6D",
"F 	c #FDFDFD",
"G 	c #F4F4F4",
"H 	c #D2D2D2",
"I 	c #555555",
"J 	c #454545",
"K 	c #F2F2F2",
"L 	c #E6E6E6",
"M 	c #D0D0D0",
"N 	c #4A4A4A",
"O 	c #3D3D3D",
"P 	c #CCCCCC",
"Q 	c #D9D9D9",
"R 	c #626262",
"S 	c #D7D7D7",
"T 	c #F8F8F8",
"U 	c #CECECE",
"V 	c #484848",
"W 	c #D5D5D5",
"X 	c #F3F3F3",
"Y 	c #3F3F3F",
"Z 	c #ECECEC",
"` 	c #565656",
" .	c #D4D4D4",
"..	c #FCFCFC",
"+.	c #515151",
"@.	c #A1A1A1",
"#.	c #9F9F9F",
"$.	c #9E9E9E",
"%.	c #9C9C9C",
"&.	c #9A9A9A",
"*.	c #747474",
"=.	c #4B4B4B",
"-.	c #404040",
";.	c #7D7D7D",
">.	c #FAFAFA",
",.	c #EBEBEB",
"'.	c #E2E2E2",
").	c #DCDCDC",
"!.	c #666666",
"~.	c #656565",
"{.	c #616161",
"].	c #F6F6F6",
"^.	c #F1F1F1",
"/.	c #B3B3B3",
"(.	c #F0F0F0",
"_.	c #EAEAEA",
":.	c #646464",
"<.	c #CBCBCB",
"[.	c #EFEFEF",
"}.	c #EEEEEE",
"|.	c #E5E5E5",
"1.	c #EDEDED",
"2.	c #6F6F6F",
"3.	c #B6B6B6",
"4.	c #FEFEFE",
"5.	c #F7F7F7",
"6.	c #6C6C6C",
"7.	c #B5B5B5",
"8.	c #636363",
"9.	c #6A6A6A",
"0.	c #B4B4B4",
"a.	c #FBFBFB",
"b.	c #E4E4E4",
"c.	c #686868",
"d.	c #B2B2B2",
"e.	c #DFDFDF",
"f.	c #B1B1B1",
"g.	c #B0B0B0",
"h.	c #D1D1D1",
"i.	c #CFCFCF",
"j.	c #606060",
"k.	c #5E5E5E",
"l.	c #5D5D5D",
"m.	c #ADADAD",
"n.	c #5B5B5B",
"o.	c #ABABAB",
"p.	c #595959",
"q.	c #575757",
"r.	c #535353",
"s.	c #ACACAC",
"t.	c #4F4F4F",
"u.	c #4E4E4E",
"v.	c #4C4C4C",
"w.	c #5F5F5F",
"x.	c #464646",
"y.	c #444444",
"z.	c #434343",
"A.	c #3E3E3E",
"B.	c #999999",
"                                                                                                        ",
"                                                                                                        ",
"                . + @ # $ % & * = - ; > , ' ) ! ~ { ] ^ / { ( $                                         ",
"                + _ : < [ } } | 1 2 3 4 5 6 7 8 9 0 a b c d $ * e                                       ",
"                @ : f f f f f f f f f f f f f f f f f f f g * & ' h                                     ",
"                # < f f f f f f f f f f f f f f f f f f f i ; j k ^                                     ",
"                $ [ f f f f f f f f f f f f f f f f f f f l ' m n e o                                   ",
"                % p f f f f f f f f f f f f f f f f f f f q r s t u ) v                                 ",
"                w } f f f f f f f f f f f f f f f f f f f x ^ y z t A B C                               ",
"                * | f f f f f f f f f f f f f f f f f f f D E y F z G H I J                             ",
"                = 1 f K L L L K f f f f f f f f f f f f f y o s f F z G M N O                           ",
"                - 2 f P 5 P 5 P f K L L L L L L L L L L f Q R S f f F T G U V O                         ",
"                ; 3 f P L f L P f L P P P P P P P P P P f S v W f f f F T X U V Y                       ",
"                > 4 f P L f L P f Z Q Q Q Q Q Q Q Q Q Q f m `  .f f f f ..T X U V Y                     ",
"                , 5 f L P P P L f f f f f f f f f f f f f  .+.% @.#.$.$.$.%.&.. *.O Y                   ",
"                ' 6 f f f f f f f f f f f f f f f f f f f A =.J -.O O O O O O O O O O +.                ",
"                ;.7 f f f f f f f f f f f f f f f f f f f >.,.,.,.,.,.A g '.i l l ).!.v                 ",
"                h 8 f f f f f f f f f f f f f f f f f f f f f f f f F G G X K K K Z ~.{.                ",
"                r 9 f f f f f f f f f f f f f f f f f f f f f f f f ].X X K K K ^.,.~.{.                ",
"                { 0 f Q /././.Q f f f f f f f f f f f f f f f f f z X X K K ^.^.(._.:.{.                ",
"                ] a f P L f L P f L P P P P P P P P P P P P P P <.p } } } D (.(.[.n :.{.                ",
"                ^ b f P L f L P f L P P P P P P P P P P P P P <.p } } } } y (.[.}.u :.{.                ",
"                / c f P 5 P 5 P f z K K K K K K K K K K K K (.u A A L L |._.[.}.1.u :.{.                ",
"                2.3.f f f f f f f f f f f f f f f f f f f ..X K K ^.^.(.[.}.}.1.Z A :.{.                ",
"                E 3.f f f f f f f f f f f f f f f f f 4.5.K K K ^.(.(.[.}.}.1.Z ,.L :.{.                ",
"                6.7.f f f f f f f f f f f f f f 4...T X K K K ^.(.[.[.}.1.1.Z ,.,.|.8.{.                ",
"                9.0.f f f f f f f f f f F a.T t G X K K K ^.^.(.[.[.}.1.Z Z ,._._.b.8.{.                ",
"                c./.f K L L L K f f a.5.].t G G X K K K ^.(.(.[.}.}.1.Z Z ,._.n n b.8.{.                ",
"                !.d.f P H L H P >.,.e.q q x x ).).).D D y y Q Q s s S S m l n n n g 8.{.                ",
"                :.f.f P L f L < 5.e.[ [ p p p } } } } | | | 1 1 1 2 2 3 3 W n n u '.8.{.                ",
"                R g.f P L f L < ].b.H h.h.h.M M M M i.i.U U j j P P <.<.<.y u u A '.R {.                ",
"                j._ f |.< < < q t G G X K K K ^.(.(.[.}.}.1.Z ,.,._.n n n u u A L i R {.                ",
"                k.d f z 5.].t t G X X K K K ^.(.[.[.}.1.1.Z ,.,._.n n n u u A L |.l R {.                ",
"                l.m.a.5.].t t G X K K K ^.^.(.[.[.}.1.Z Z ,._._.n n n u A A L |.|.e.R {.                ",
"                n.o.].].t G G X K K K ^.(.(.[.}.}.1.Z Z ,._.n n n u u A L L |.b.b.q {.{.                ",
"                p.b ].t G X X K K K ^.(.[.[.}.1.1.Z ,.,._.n n n u u A L |.|.b.g g x {.{.                ",
"                q.: t H 1 : 2 h.^.^.(.[.[.}.1.Z Z ,._._.n n n u A A L |.|.b.g '.'.).{.{.                ",
"                I < G p L f L } (.y | 1 1 1 2 2 2 3 3 3 3 4 4 4 5 5 5 6 6 M '.'.i D {.{.                ",
"                r.[ X p L f L } (.Q 1 1 1 2 2 2 3 3 3 3 4 4 4 5 5 5 6 6 6 M i i l D {.{.                ",
"                +.} K p s./.s.| [.n g '.i i l l e.e.e.q x x ).).D D y Q Q x l l l y {.{.                ",
"                t.} K ^.^.(.[.}.}.1.Z Z ,._._.n n u u A A L |.b.b.g '.'.i l l l e.Q j.{.                ",
"                u.| ^.(.(.[.}.}.1.Z ,.,._.n n n u u A L L |.b.b.g '.i i l l l e.q Q j.{.                ",
"                v.2 (.[.[.}.1.1.Z ,.,._.n n n u u A L |.|.b.g g '.i i l l e.e.q x s j.{.                ",
"                N 3 [.[.}.1.Z Z ,._._.n n n u A A L |.|.b.g '.'.i l l l e.e.q x ).S j.{.                ",
"                V 4 }.}.1.Z Z ,._.n n n u u A L L |.b.b.g '.'.i l l l e.q q x ).).m w.{.                ",
"                x.5 1.1.Z ,.,._.n n n u u A L L |.b.g g '.i i l l l e.q x x ).D D W w.{.                ",
"                y.%.7 9 9 0 0 a a a b b c c 3.3.7.7.0.0././.d.d.d.f.f.g.g._ _ d d o.q.{.                ",
"                z.-.A.O O O O O O O O O O O O O O O O O O O O O O O O O O O O O O O O E                 ",
"                  B.B.B.B.B.B.B.B.B.B.B.B.B.B.B.B.B.B.B.B.B.B.B.B.B.B.B.B.B.B.B.B.B.B.B.                ",
"                    B.B.B.B.B.B.B.B.B.B.B.B.B.B.B.B.B.B.B.B.B.B.B.B.B.B.B.B.B.B.B.B.B.                  ",
"                                                                                                        ",
"                                                                                                        "};
