/* XPM */
static char * tituloscobranca_xpm[] = {
"32 32 104 2",
"  	c None",
". 	c #000000",
"+ 	c #FEFEFE",
"@ 	c #FAFAFA",
"# 	c #FBFBFB",
"$ 	c #FCFCFC",
"% 	c #E9E9E9",
"& 	c #DFDFDF",
"* 	c #E1E1E1",
"= 	c #E4E4E4",
"- 	c #E5E5E5",
"; 	c #E7E7E7",
"> 	c #E8E8E8",
", 	c #EAEAEA",
"' 	c #ECECEC",
") 	c #EDEDED",
"! 	c #EEEEEE",
"~ 	c #EFEFEF",
"{ 	c #DEDEDE",
"] 	c #E6E6E6",
"^ 	c #EBEBEB",
"/ 	c #F0F0F0",
"( 	c #9E9E9E",
"_ 	c #E0E0E0",
": 	c #F1F1F1",
"< 	c #F2F2F2",
"[ 	c #B0B0B0",
"} 	c #A0A0A0",
"| 	c #A3A3A3",
"1 	c #A4A4A4",
"2 	c #A6A6A6",
"3 	c #A8A8A8",
"4 	c #A9A9A9",
"5 	c #F3F3F3",
"6 	c #E3E3E3",
"7 	c #F4F4F4",
"8 	c #9F9F9F",
"9 	c #A7A7A7",
"0 	c #AAAAAA",
"a 	c #ABABAB",
"b 	c #F5F5F5",
"c 	c #E2E2E2",
"d 	c #222222",
"e 	c #F6F6F6",
"f 	c #3F3F3F",
"g 	c #F7F7F7",
"h 	c #2B2B2B",
"i 	c #A1A1A1",
"j 	c #A2A2A2",
"k 	c #F8F8F8",
"l 	c #4E4E4E",
"m 	c #545454",
"n 	c #F9F9F9",
"o 	c #717171",
"p 	c #CDCDCD",
"q 	c #D0D0D0",
"r 	c #D2D2D2",
"s 	c #D3D3D3",
"t 	c #D4D4D4",
"u 	c #D5D5D5",
"v 	c #D7D7D7",
"w 	c #D8D8D8",
"x 	c #DADADA",
"y 	c #DBDBDB",
"z 	c #C6C6C6",
"A 	c #ADADAD",
"B 	c #6E6E6E",
"C 	c #7D7D7D",
"D 	c #7C7C7C",
"E 	c #B4B4B4",
"F 	c #6F6F6F",
"G 	c #7A7A7A",
"H 	c #BEBEBE",
"I 	c #ACACAC",
"J 	c #AEAEAE",
"K 	c #B1B1B1",
"L 	c #B3B3B3",
"M 	c #B5B5B5",
"N 	c #B6B6B6",
"O 	c #B7B7B7",
"P 	c #B8B8B8",
"Q 	c #B9B9B9",
"R 	c #BABABA",
"S 	c #BBBBBB",
"T 	c #C4C4C4",
"U 	c #C8C8C8",
"V 	c #7E7E7E",
"W 	c #CACACA",
"X 	c #CBCBCB",
"Y 	c #CECECE",
"Z 	c #CFCFCF",
"` 	c #D6D6D6",
" .	c #DCDCDC",
"..	c #DDDDDD",
"+.	c #696969",
"@.	c #616161",
"#.	c #D1D1D1",
"$.	c #C5C5C5",
"%.	c #525252",
"&.	c #606060",
"*.	c #5A5A5A",
"=.	c #555555",
"-.	c #666666",
";.	c #0B0B0B",
"                                                                ",
"                                                                ",
"  . . . . . . . . . . . . . . . . . . . . . . .                 ",
". + + @ @ @ @ @ @ @ @ @ # # # # # $ $ $ $ $ $ % .               ",
". # & & & & & & & & & & * = - ; > % , ' ) ! ~ { .               ",
". # & & & & & & & & & & * = ] > % , ^ ) ! ~ / { .               ",
". # & & ( & ( ( ( ( ( _ * = ; > , ^ ' ) ~ / : & . .             ",
". # & & & & & & & & & * * = > % ^ ' ) ! / : < & . [ .           ",
". # & & ( ( ( ( & ( ( } | 1 % 2 ' 3 3 4 : < 5 _ . 3 .           ",
". # & & & & & & & _ * 6 > % , ^ ) ! ~ / : 5 7 * . 3 .           ",
". # & & & ( ( ( _ 8 } = 1 , 2 9 3 ~ 0 a < 7 b c . 3 d .         ",
". # & & & & & & * c 6 = ; > ' ) ! / : < 5 b e 6 . 3 f .         ",
". # & & & & & _ c 6 = - > % ) ! ~ : < 5 7 e g = . 4 f h .       ",
". # & & ( ( ( * 6 i j | 2 3 3 ~ / : 5 7 b e k - . 0 l m .       ",
". # & & & _ * c = - ] ; , ) ~ / : < 7 b e g n ] . a l m .       ",
". # & & * 6 = - ] > % , , ) : 5 7 b e k n @ # % . a l o .       ",
". > p p q r s s t u v w x y & _ * c 6 - ] ; > z . A B C .       ",
"  . . . . . . . . . . . . . . . . . . . . . . . D E F G .       ",
"    . H 3 3 3 4 0 a I A J J K L E M N O P Q R S T U V G .       ",
"    . = W W X p Y Z q r s s s ` x  .....{ _ * 6 ; & +.@..       ",
"    . - W W p Z q q #.r t u v w  ...{ & _ c 6 = ] $.%.&..       ",
"      . . . . . . . . . . . . . . . . . . . . . . . I *..       ",
"      . # & & * 6 = - ] > % , , ) : 5 7 b e k n @ # % =..       ",
"      . > p p q r s s t u v w x y & _ * c 6 - ] ; > U -..       ",
"        . . . . . . . . . . . . . . . . . . . . . . ;.3 .       ",
"        . > p p q r s s t u v w x y & _ * c 6 - ] ; > z .       ",
"          . . . . . . . . . . . . . . . . . . . . . . .         ",
"                                                                ",
"                                                                ",
"                                                                ",
"                                                                ",
"                                                                "};
