/* XPM */
static char * usuarios_xpm[] = {
"32 32 157 2",
"  	c None",
". 	c #000000",
"+ 	c #181818",
"@ 	c #B5B5B5",
"# 	c #E6E6E6",
"$ 	c #D0D0D0",
"% 	c #878787",
"& 	c #030303",
"* 	c #363636",
"= 	c #E8E8E8",
"- 	c #F1F1F1",
"; 	c #E2E2E2",
"> 	c #DDDDDD",
", 	c #E1E1E1",
"' 	c #E3E3E3",
") 	c #C1C1C1",
"! 	c #4D4D4D",
"~ 	c #070706",
"{ 	c #D5D4CD",
"] 	c #F0EDE5",
"^ 	c #CFC5A4",
"/ 	c #C3B687",
"( 	c #B5A468",
"_ 	c #A08F55",
": 	c #959080",
"< 	c #E4E4E3",
"[ 	c #DCDCDC",
"} 	c #DBDBDB",
"| 	c #C6C6C6",
"1 	c #333333",
"2 	c #DDD9CB",
"3 	c #7D7A72",
"4 	c #040404",
"5 	c #0F0E0D",
"6 	c #837C62",
"7 	c #9B8C53",
"8 	c #D8D8D8",
"9 	c #DEDEDE",
"0 	c #D9D9D9",
"a 	c #BFBFBF",
"b 	c #E3DFD2",
"c 	c #272317",
"d 	c #121212",
"e 	c #1A1A1A",
"f 	c #424240",
"g 	c #9C8C54",
"h 	c #3A3A3A",
"i 	c #C3C3C3",
"j 	c #C5C5C5",
"k 	c #E0E0E0",
"l 	c #303030",
"m 	c #BFB694",
"n 	c #0F0F0F",
"o 	c #686868",
"p 	c #1D1D1D",
"q 	c #7C7B73",
"r 	c #9F915D",
"s 	c #7B7049",
"t 	c #090909",
"u 	c #8E8E8E",
"v 	c #CECECE",
"w 	c #EDEDED",
"x 	c #DFDFDF",
"y 	c #D6D6D6",
"z 	c #DADADA",
"A 	c #C2C2C2",
"B 	c #A79C77",
"C 	c #030301",
"D 	c #383838",
"E 	c #767676",
"F 	c #807E78",
"G 	c #383425",
"H 	c #090805",
"I 	c #252525",
"J 	c #BBBBBB",
"K 	c #CFCFCF",
"L 	c #EBEBEB",
"M 	c #E5E5E5",
"N 	c #B8B8B8",
"O 	c #CCC8B4",
"P 	c #66604F",
"Q 	c #4F4F4F",
"R 	c #3E3E3E",
"S 	c #787878",
"T 	c #7A7A7A",
"U 	c #6C6C6C",
"V 	c #323232",
"W 	c #9E9E9E",
"X 	c #EEEEEE",
"Y 	c #D2D2D2",
"Z 	c #E4E4E4",
"` 	c #BCBCBC",
" .	c #5C5C5C",
"..	c #7C7C7C",
"+.	c #9B9B9B",
"@.	c #8A8A8A",
"#.	c #353535",
"$.	c #B6B6B6",
"%.	c #868686",
"&.	c #858585",
"*.	c #848484",
"=.	c #424242",
"-.	c #5B5B5B",
";.	c #D7D7D7",
">.	c #797979",
",.	c #989898",
"'.	c #444444",
").	c #ABABAB",
"!.	c #494949",
"~.	c #757575",
"{.	c #B3B3B3",
"].	c #CDCDCD",
"^.	c #BDBDBD",
"/.	c #A9A9A9",
"(.	c #636363",
"_.	c #1C1C1C",
":.	c #050505",
"<.	c #171717",
"[.	c #7E7E7E",
"}.	c #535353",
"|.	c #A0A0A0",
"1.	c #808080",
"2.	c #292929",
"3.	c #1F1F1F",
"4.	c #565656",
"5.	c #707070",
"6.	c #A4A4A4",
"7.	c #717171",
"8.	c #505050",
"9.	c #939393",
"0.	c #727272",
"a.	c #898989",
"b.	c #949494",
"c.	c #0E0E0E",
"d.	c #2B2B2B",
"e.	c #9C9C9C",
"f.	c #A8A8A8",
"g.	c #828282",
"h.	c #0A0A0A",
"i.	c #262626",
"j.	c #A5A5A5",
"k.	c #AEAEAE",
"l.	c #909090",
"m.	c #0D0D0D",
"n.	c #8D8D8D",
"o.	c #B0B0B0",
"p.	c #151515",
"q.	c #A3A3A3",
"r.	c #B2B2B2",
"s.	c #BEBEBE",
"t.	c #A7A7A7",
"u.	c #C0C0C0",
"v.	c #606060",
"w.	c #C7C7C7",
"x.	c #BABABA",
"y.	c #818181",
"z.	c #C8C8C8",
"                                                                ",
"                                                                ",
"                      . . . . .                                 ",
"                    + @ # # $ % .                               ",
"      . . . . . & * = - ; > , ' ) ! .                           ",
"    ~ { ] ^ / ( _ : < [ > [ } [ ' | 1                           ",
"  . 2 3 4 . . 5 6 7 . 8 9 > > 0 0 9 a .                         ",
"  . b c .   d e f g . h i 9 j i k [ $ l . . . . . . . . . . .   ",
"  . m .   n o p q r s t u ' v k w [ x y 9 9 z 0 8 8 8 0 [ A .   ",
"  . B . C D E e F G H I J ' K x L > ' M y N N N N N N N N . .   ",
"    . O P Q R S T U V W X , Y Z w y ` . . .  .. * ... +.. .     ",
"      . C h ! @.#.$.- w # ; 9 L M ) %.. . . . .   . . . .       ",
"          . &.*.=.-.0 ; ' ' ; ;.} >.. .                         ",
"          . ,.'.).!.e ~.{.].^./.(._.:.                          ",
"          <.,.[.}.|.1.2.n d d 3.4.5..                           ",
"            . 6.7.D 8.9.@.S 0.[.[.a.b..                         ",
"              . 7.b. .c.. 4 t d.@.e.|.f..                       ",
"                . |.T g..       h.i.j.j k..                     ",
"                . +.l.%..         m.l n.i o..                   ",
"                p.. q.6..             . r.A s..                 ",
"                . t.u.o..               v.@ w.$..               ",
"                  . x.o..               p r.v K y..             ",
"                  . x.Y .                 . . . .               ",
"                  . ].Y .                                       ",
"                . v.z.Y .                                       ",
"                . ) $ Y .                                       ",
"                . % Y Y .                                       ",
"                  . 1.Y .                                       ",
"                    . . .                                       ",
"                                                                ",
"                                                                ",
"                                                                "};
