/* XPM */
static char * utilitarios_xpm[] = {
"48 48 474 2",
"  	c None",
". 	c #B7B7C5",
"+ 	c #B8B8C6",
"@ 	c #BCBCCA",
"# 	c #B9B9C7",
"$ 	c #B4B4C1",
"% 	c #B7B7C4",
"& 	c #CECED8",
"* 	c #E0E0E7",
"= 	c #EEEEF1",
"- 	c #E5E5EA",
"; 	c #D3D3DC",
"> 	c #B5B5C4",
", 	c #A5A5B3",
"' 	c #AEAEBD",
") 	c #C1C1CE",
"! 	c #FAFAFB",
"~ 	c #FFFFFF",
"{ 	c #E3E3E9",
"] 	c #B8B8C7",
"^ 	c #ABABBB",
"/ 	c #ADADBD",
"( 	c #BEBECB",
"_ 	c #C4C4D0",
": 	c #ACACBD",
"< 	c #A8A8BA",
"[ 	c #BBBBC9",
"} 	c #FEFEFF",
"| 	c #CBCBD5",
"1 	c #A8A8B8",
"2 	c #A4A4B5",
"3 	c #B7B7C6",
"4 	c #F9F9FA",
"5 	c #F6F6F8",
"6 	c #9595A5",
"7 	c #A0A0B2",
"8 	c #B4B4C3",
"9 	c #F7F7F9",
"0 	c #FCFCFD",
"a 	c #E8E8EC",
"b 	c #A3A3B6",
"c 	c #9C9CAF",
"d 	c #B0B0C0",
"e 	c #F4F4F6",
"f 	c #BEBECC",
"g 	c #868696",
"h 	c #9999AE",
"i 	c #9B9BAF",
"j 	c #C7C7D3",
"k 	c #D4D4DD",
"l 	c #9393A9",
"m 	c #9D9DB1",
"n 	c #9494AA",
"o 	c #9191A7",
"p 	c #9C9CB1",
"q 	c #E0E0E6",
"r 	c #FBFBFC",
"s 	c #FDFDFD",
"t 	c #E9E9EE",
"u 	c #9797AC",
"v 	c #9191A6",
"w 	c #CBCBD6",
"x 	c #8F8FA5",
"y 	c #9090A6",
"z 	c #9898AD",
"A 	c #DCDCE3",
"B 	c #F7F7F8",
"C 	c #E7E7EC",
"D 	c #A2A2B5",
"E 	c #60606E",
"F 	c #8D8DA4",
"G 	c #DADAE2",
"H 	c #8B8BA2",
"I 	c #8C8CA3",
"J 	c #D8D8E0",
"K 	c #F3F3F6",
"L 	c #E4E4EA",
"M 	c #6B6B7C",
"N 	c #8B8BA3",
"O 	c #D6D6DE",
"P 	c #F2F2F4",
"Q 	c #EFEFF3",
"R 	c #AFAFC0",
"S 	c #87879F",
"T 	c #8888A0",
"U 	c #9090A7",
"V 	c #F0F0F3",
"W 	c #F3F3F5",
"X 	c #F2F2F5",
"Y 	c #DFDFE6",
"Z 	c #9E9EB2",
"` 	c #686879",
" .	c #D2D2DB",
"..	c #EFEFF2",
"+.	c #EBEBEF",
"@.	c #ABABBC",
"#.	c #83839C",
"$.	c #84849D",
"%.	c #D0D0DA",
"&.	c #ECECF0",
"*.	c #9595AA",
"=.	c #4D4D5B",
"-.	c #7E7E97",
";.	c #BABAC8",
">.	c #E8E8ED",
",.	c #E5E5EB",
"'.	c #A6A6B8",
").	c #7F7F99",
"!.	c #797990",
"~.	c #CCCCD6",
"{.	c #E9E9ED",
"].	c #EBEBF0",
"^.	c #C9C9D4",
"/.	c #82829C",
"(.	c #787892",
"_.	c #E2E2E8",
":.	c #A0A0B4",
"<.	c #C8C8D3",
"[.	c #DEDEE4",
"}.	c #7B7B95",
"|.	c #80809A",
"1.	c #D4D4DC",
"2.	c #E4E4E9",
"3.	c #DDDDE4",
"4.	c #D8D8DF",
"5.	c #E1E1E7",
"6.	c #777791",
"7.	c #757590",
"8.	c #A5A5B7",
"9.	c #D9D9E1",
"0.	c #E1E1E8",
"a.	c #CDCDD7",
"b.	c #DEDEE5",
"c.	c #74748F",
"d.	c #777793",
"e.	c #B2B2C2",
"f.	c #B5B5C3",
"g.	c #BFBFCC",
"h.	c #DBDBE2",
"i.	c #9A9AAF",
"j.	c #6F6F8B",
"k.	c #D9932B",
"l.	c #DA942B",
"m.	c #696986",
"n.	c #7E7E99",
"o.	c #C1C1CD",
"p.	c #CECED7",
"q.	c #BDBDCA",
"r.	c #C7C7D2",
"s.	c #D9D9E0",
"t.	c #A39695",
"u.	c #D08F31",
"v.	c #D9982C",
"w.	c #DEA62F",
"x.	c #D7912B",
"y.	c #686887",
"z.	c #7A7A95",
"A.	c #BABAC7",
"B.	c #D7D7DF",
"C.	c #CDCDD8",
"D.	c #C0C0CD",
"E.	c #C2C2CE",
"F.	c #C5C5D0",
"G.	c #CACAD4",
"H.	c #CFC2B7",
"I.	c #D49336",
"J.	c #D6962C",
"K.	c #F7E73C",
"L.	c #FCF53F",
"M.	c #DCA32F",
"N.	c #D38F2B",
"O.	c #60607D",
"P.	c #70708D",
"Q.	c #A1A1B4",
"R.	c #BCBCC9",
"S.	c #D1D1DA",
"T.	c #C6C6D1",
"U.	c #CACAD5",
"V.	c #CCCCD7",
"W.	c #CFCFD8",
"X.	c #D0C3B9",
"Y.	c #D09035",
"Z.	c #D4932B",
"`.	c #F4DB37",
" +	c #E29114",
".+	c #E9A91E",
"++	c #FCF13D",
"@+	c #D9A02E",
"#+	c #D18C2A",
"$+	c #555570",
"%+	c #626282",
"&+	c #747491",
"*+	c #AAAABB",
"=+	c #AFAFBF",
"-+	c #B1B1C0",
";+	c #B0B0BF",
">+	c #ACACBC",
",+	c #9696AB",
"'+	c #CFCFD9",
")+	c #D4C7BC",
"!+	c #CD8E35",
"~+	c #D0902B",
"{+	c #F4D835",
"]+	c #E49414",
"^+	c #E07F0B",
"/+	c #E4810A",
"(+	c #EAAA1E",
"_+	c #FCEC3A",
":+	c #D79D2D",
"<+	c #CD8A2A",
"[+	c #50506C",
"}+	c #5C5C7B",
"|+	c #5E5E7E",
"1+	c #6A6A89",
"2+	c #6E6E8C",
"3+	c #6E6E8B",
"4+	c #666685",
"5+	c #72728F",
"6+	c #C5C5D1",
"7+	c #D7CBBF",
"8+	c #CA8C35",
"9+	c #CD8D2B",
"0+	c #F3D533",
"a+	c #E69815",
"b+	c #E2850C",
"c+	c #F9900A",
"d+	c #FD920A",
"e+	c #E6870C",
"f+	c #ECAD1E",
"g+	c #FCE838",
"h+	c #D49A2D",
"i+	c #CA872A",
"j+	c #3B3B51",
"k+	c #43435D",
"l+	c #43435C",
"m+	c #343447",
"n+	c #535372",
"o+	c #D9CCC1",
"p+	c #C88A36",
"q+	c #CA8B2B",
"r+	c #F3D132",
"s+	c #E89C16",
"t+	c #E48A0E",
"u+	c #FA960E",
"v+	c #FF990E",
"w+	c #FD980E",
"x+	c #E88C0E",
"y+	c #EDAE1E",
"z+	c #FCE336",
"A+	c #D1972C",
"B+	c #C7852A",
"C+	c #515171",
"D+	c #BEB2AC",
"E+	c #C48635",
"F+	c #C7882B",
"G+	c #F3CD30",
"H+	c #EA9F17",
"I+	c #E79010",
"J+	c #FA9C11",
"K+	c #FFA012",
"L+	c #FD9F11",
"M+	c #EA9210",
"N+	c #EFB01E",
"O+	c #FBDF33",
"P+	c #CF952C",
"Q+	c #C4822A",
"R+	c #685A60",
"S+	c #BA7D2F",
"T+	c #C4862A",
"U+	c #F2CA2E",
"V+	c #ECA318",
"W+	c #E99512",
"X+	c #FAA315",
"Y+	c #FFA616",
"Z+	c #FDA515",
"`+	c #EC9712",
" @	c #F0B11E",
".@	c #FBDA31",
"+@	c #CC922B",
"@@	c #C0802A",
"#@	c #BC7C29",
"$@	c #C18329",
"%@	c #F3CA2E",
"&@	c #EEA719",
"*@	c #EB9B13",
"=@	c #FBA918",
"-@	c #FFAD1A",
";@	c #FEAC19",
">@	c #EE9D14",
",@	c #F2B31E",
"'@	c #FBD62F",
")@	c #C98F2A",
"!@	c #BD7D29",
"~@	c #BA7A29",
"{@	c #C68C2A",
"]@	c #FBD22D",
"^@	c #F3B31D",
"/@	c #FBB01C",
"(@	c #FFB31E",
"_@	c #FEB21D",
":@	c #EFA316",
"<@	c #F3B51E",
"[@	c #FBD12D",
"}@	c #C78C2A",
"|@	c #B77829",
"1@	c #C48929",
"2@	c #FACD2A",
"3@	c #FFC224",
"4@	c #FFBA21",
"5@	c #FEB821",
"6@	c #F2A819",
"7@	c #F5B61E",
"8@	c #FBCD2A",
"9@	c #B47629",
"0@	c #C18629",
"a@	c #FAC928",
"b@	c #FFC526",
"c@	c #FFC025",
"d@	c #FEBF24",
"e@	c #F4AE1A",
"f@	c #F6B81E",
"g@	c #C28629",
"h@	c #B07329",
"i@	c #BF8328",
"j@	c #FAC426",
"k@	c #FFC727",
"l@	c #FFC729",
"m@	c #FEC528",
"n@	c #F5B41D",
"o@	c #F8BA1E",
"p@	c #AD7029",
"q@	c #BC8028",
"r@	c #FAC023",
"s@	c #FFC928",
"t@	c #FFCD2D",
"u@	c #FFC82A",
"v@	c #FFC125",
"w@	c #FFBD23",
"x@	c #FEBC22",
"y@	c #FEBF22",
"z@	c #FABF23",
"A@	c #AA6E29",
"B@	c #BA7E27",
"C@	c #FABB21",
"D@	c #FFCC2A",
"E@	c #FFD431",
"F@	c #FFC327",
"G@	c #FFB921",
"H@	c #FABA21",
"I@	c #BA7D27",
"J@	c #A76C28",
"K@	c #B77B26",
"L@	c #F9B71F",
"M@	c #FFCE2C",
"N@	c #FFDA35",
"O@	c #FFCE2D",
"P@	c #FFB51E",
"Q@	c #FFA917",
"R@	c #FAB61F",
"S@	c #A36A27",
"T@	c #A36928",
"U@	c #B47826",
"V@	c #F9B21D",
"W@	c #FFD02D",
"X@	c #FFE139",
"Y@	c #FFB11C",
"Z@	c #FFAC19",
"`@	c #FF960C",
" #	c #FF8D06",
".#	c #FF8703",
"+#	c #FF8602",
"@#	c #FFA313",
"##	c #FFB41C",
"$#	c #E8A41F",
"%#	c #794E1E",
"&#	c #A06628",
"*#	c #B17525",
"=#	c #F9AE1A",
"-#	c #FFD32F",
";#	c #FFE73D",
">#	c #FFAD19",
",#	c #FFA615",
"'#	c #FF980D",
")#	c #FFA514",
"!#	c #FF9E10",
"~#	c #FFA716",
"{#	c #FFAE19",
"]#	c #FFB319",
"^#	c #B27525",
"/#	c #905C24",
"(#	c #9D6428",
"_#	c #AF7225",
":#	c #F9AA18",
"<#	c #FFD530",
"[#	c #FFEE41",
"}#	c #FFB71F",
"|#	c #FF8400",
"1#	c #FF8F07",
"2#	c #FF9C0F",
"3#	c #FFAA17",
"4#	c #FFAE17",
"5#	c #C88421",
"6#	c #996227",
"7#	c #9A6228",
"8#	c #AC6F24",
"9#	c #F9A516",
"0#	c #FFD531",
"a#	c #FFA515",
"b#	c #FFC92A",
"c#	c #FF8300",
"d#	c #FF9209",
"e#	c #FF9D10",
"f#	c #FF950B",
"g#	c #FFAA15",
"h#	c #CC861E",
"i#	c #975F28",
"j#	c #AA6C24",
"k#	c #F8A013",
"l#	c #FFA112",
"m#	c #FF8702",
"n#	c #FF940B",
"o#	c #FFA312",
"p#	c #FFA512",
"q#	c #B77521",
"r#	c #8B5725",
"s#	c #935C27",
"t#	c #A76923",
"u#	c #F89B11",
"v#	c #FFE33A",
"w#	c #FFBE24",
"x#	c #FFB01B",
"y#	c #FFA010",
"z#	c #F89C11",
"A#	c #9A6126",
"B#	c #774B20",
"C#	c #905A27",
"D#	c #A56722",
"E#	c #F8960F",
"F#	c #FF990D",
"G#	c #FFB31D",
"H#	c #FFAB18",
"I#	c #FF9B0D",
"J#	c #FF9C0D",
"K#	c #C87B1A",
"L#	c #472C13",
"M#	c #8D5727",
"N#	c #A26322",
"O#	c #F8930D",
"P#	c #FF960B",
"Q#	c #FF970B",
"R#	c #D47F16",
"S#	c #7C4D22",
"T#	c #8A5527",
"U#	c #9F6121",
"V#	c #E18310",
"W#	c #FF9308",
"X#	c #F88F0A",
"Y#	c #C47418",
"Z#	c #7F4E24",
"`#	c #835026",
" $	c #865227",
".$	c #9D5E21",
"+$	c #BB6D19",
"@$	c #C27117",
"#$	c #AC651D",
"$$	c #8E5625",
"%$	c #774922",
"&$	c #633C1D",
"*$	c #774823",
"=$	c #814E26",
"-$	c #845027",
";$	c #794924",
">$	c #6B4120",
",$	c #412713",
"                  . + @ @ @ # $                                                                 ",
"              % + & * = = = - ; @ > ,                                                           ",
"                ' ) ! ~ ~ ~ ~ ~ ~ { ] ^                                                         ",
"                  / ( ! ~ ~ ~ ~ ~ ~ ! _ :                                                       ",
"                    < [ ! ~ ~ ~ ~ ~ ~ } | 1                                                     ",
"                      2 3 4 ~ ~ ~ ~ ~ ~ 5 3 6                                                   ",
"                        7 8 9 ~ ~ ~ ~ ~ 0 a b                                                   ",
"                          c d e } ~ ~ ~ ~ 5 f g                                                 ",
"  h                         i j ! ~ ~ ~ ~ 4 k i                                                 ",
"l m n                     o p q r s s s s r t u                                                 ",
"v w ] x                 y z A B 4 4 4 4 4 4 C D E                                               ",
"F G e 8 H             I n J K 5 5 5 5 5 5 5 L D M                                               ",
"N O P Q R S         T U k V W W W W W W X X Y Z `                                               ",
"S  .= ..+.@.#.    $.I %.&...................J *.=.                                              ",
"-.;.>.&.&.,.'.).!.T ~.{.&.&.&.&.&.&.].].].t ^./.                                                ",
"(.b _.{.{.{.q :.$.<.- >.>.>.>.>.a a a a a [.: }.                                                ",
"  |.1.2.- - - 3.4.5.- - - - - - - - - - - - R 6.                                                ",
"  7.8.9.0.0.5.5.5.5.5.5.5.5.5.5.5.5.5.5.a.( b.Z c.                                              ",
"    d.) 9.[.[.[.[.[.[.[.[.[.[.[.[.[.[.a.e.f.g.h.i.j.  k.l.                                      ",
"    m.n.o.O h.h.h.h.h.G G G G G G G p.+ ;.q.g.r.s.t.u.v.w.x.                                    ",
"      y.z.A.& B.B.B.B.B.B.B.B.B.B.C.( D.E.F.r.G.H.I.J.K.L.M.N.                                  ",
"        O.P.Q.R.^.; ; ; ; ; ; S.; <.T.<.U.V.W.X.Y.Z.`. +.+++@+#+                                ",
"          $+%+&+*.*+=+-+;+>+Z ,+^.& a.'+ .1.)+!+~+{+]+^+/+(+_+:+<+                              ",
"              [+}+|+1+2+3+4+|+|+5+6+C.O s.7+8+9+0+a+b+c+d+e+f+g+h+i+                            ",
"                    j+k+l+m+    n+2+E.~.o+p+q+r+s+t+u+v+v+w+x+y+z+A+B+                          ",
"                                  C+1+D+E+F+G+H+I+J+K+K+K+K+L+M+N+O+P+Q+                        ",
"                                    R+S+T+U+V+W+X+Y+Y+Y+Y+Y+Y+Z+`+ @.@+@@@                      ",
"                                    #@$@%@&@*@=@-@-@-@-@-@-@-@-@;@>@,@'@)@!@                    ",
"                                    ~@{@]@^@/@(@(@(@(@(@(@(@(@(@(@_@:@<@[@}@~@                  ",
"                                      |@1@2@3@4@4@4@4@4@4@4@4@4@4@4@5@6@7@8@1@|@                ",
"                                        9@0@a@b@c@c@c@c@c@c@c@c@c@c@c@d@e@f@a@g@9@              ",
"                                          h@i@j@k@l@l@l@l@l@l@l@l@l@l@l@m@n@o@j@i@h@            ",
"                                            p@q@r@s@t@t@t@t@t@t@t@t@u@v@w@w@x@y@z@q@p@          ",
"                                              A@B@C@D@E@E@E@E@E@E@F@G@G@G@G@G@G@G@H@I@A@        ",
"                                                J@K@L@M@N@N@N@N@O@P@P@P@P@Q@Q@P@P@P@R@K@S@      ",
"                                                  T@U@V@W@X@X@X@4@Y@Y@Z@`@ #.#+#@#Y@##$#T@%#    ",
"                                                    &#*#=#-#;#;#>#>#>#,#'#`@)#!#+#~#{#]#^#/#    ",
"                                                      (#_#:#<#[#Q@Q@Z@}#|#1#2#Q@1#'#3#4#5#6#    ",
"                                                        7#8#9#0#a#a#>#b#c#+#d#e#f#f#,#g#h#7#    ",
"                                                          i#j#k#,#l#Y+N@a#c#m#n#'#e#o#p#q#r#    ",
"                                                            s#t#u#e#e#G@v#w#x#>#2#e#y#z#A#B#    ",
"                                                              C#D#E#F#F#a#G#H#!#F#I#J#K#C#L#    ",
"                                                                M#N#O#f#f#f#f#P#Q#Q#R#M#S#      ",
"                                                                  T#U#V#W#W#W#W#X#Y#T#Z#        ",
"                                                                    `# $.$+$@$#$$$ $%$          ",
"                                                                      &$*$=$-$;$>$,$            ",
"                                                                                                ",
"                                                                                                "};
