/* XPM */
static char * vendas_xpm[] = {
"32 32 472 2",
"  	c None",
". 	c #8D562B",
"+ 	c #AE8461",
"@ 	c #C3A188",
"# 	c #CFB3A1",
"$ 	c #C9AC96",
"% 	c #A57654",
"& 	c #E3CF9A",
"* 	c #925D24",
"= 	c #A0712F",
"- 	c #BC984E",
"; 	c #E3D082",
"> 	c #FFFAB4",
", 	c #FFFDC5",
"' 	c #FFFFD4",
") 	c #FFFFD0",
"! 	c #FFFFD1",
"~ 	c #FFFDB1",
"{ 	c #925D20",
"] 	c #93601C",
"^ 	c #FFFF2E",
"/ 	c #FFFF1E",
"( 	c #ECDD10",
"_ 	c #EADA0F",
": 	c #FDF816",
"< 	c #FFFF1B",
"[ 	c #FFFF1D",
"} 	c #E3D017",
"| 	c #FFFC08",
"1 	c #FAF210",
"2 	c #E2CE12",
"3 	c #F1E60C",
"4 	c #FFFF08",
"5 	c #956314",
"6 	c #AF8603",
"7 	c #F0E200",
"8 	c #FFFF00",
"9 	c #F8F100",
"0 	c #D5BC00",
"a 	c #AE8202",
"b 	c #C3A003",
"c 	c #C8A608",
"d 	c #9B6816",
"e 	c #D5BA00",
"f 	c #E2CB00",
"g 	c #A67A2F",
"h 	c #B18824",
"i 	c #BF9531",
"j 	c #CAA265",
"k 	c #D1AB90",
"l 	c #E3C3AB",
"m 	c #F8E3D8",
"n 	c #FCECF1",
"o 	c #FFF7FD",
"p 	c #C7A460",
"q 	c #DFCA00",
"r 	c #95600D",
"s 	c #693200",
"t 	c #B39232",
"u 	c #9F6E4D",
"v 	c #A16840",
"w 	c #B28158",
"x 	c #FFF4DF",
"y 	c #FFFFEF",
"z 	c #DAB99A",
"A 	c #AA794E",
"B 	c #DDC1A6",
"C 	c #DCC4AC",
"D 	c #814712",
"E 	c #6B401B",
"F 	c #81581C",
"G 	c #906300",
"H 	c #E3B697",
"I 	c #F7D5B3",
"J 	c #BD8B5D",
"K 	c #EAAE74",
"L 	c #C58D57",
"M 	c #B18257",
"N 	c #CFA680",
"O 	c #BF9268",
"P 	c #C5A88A",
"Q 	c #A98150",
"R 	c #AB8B6B",
"S 	c #8C6441",
"T 	c #AB8159",
"U 	c #EAC7A4",
"V 	c #B4875A",
"W 	c #FFE2BC",
"X 	c #FDC38C",
"Y 	c #B48153",
"Z 	c #F7DABF",
"` 	c #E6C8AA",
" .	c #FFF6E4",
"..	c #C09F64",
"+.	c #B19107",
"@.	c #804B1A",
"#.	c #784313",
"$.	c #F8E9DA",
"%.	c #FFFFFF",
"&.	c #FFEDD2",
"*.	c #FFECCB",
"=.	c #DAAC82",
"-.	c #BD936A",
";.	c #E9CAAA",
">.	c #C7A98D",
",.	c #FFF8ED",
"'.	c #AE884A",
").	c #8A6316",
"!.	c #5B2C06",
"~.	c #551C00",
"{.	c #C38D58",
"].	c #FFDDAA",
"^.	c #FFDEB5",
"/.	c #FFF8E2",
"(.	c #AB825F",
"_.	c #DAAF84",
":.	c #FFFFF0",
"<.	c #986C42",
"[.	c #B48E6B",
"}.	c #915825",
"|.	c #F6BC83",
"1.	c #FDB26B",
"2.	c #FFC587",
"3.	c #F4DAC0",
"4.	c #F2EFEA",
"5.	c #906139",
"6.	c #D09D6F",
"7.	c #DEAC7D",
"8.	c #FFD5A0",
"9.	c #FFDCB3",
"0.	c #A56F3F",
"a.	c #773B0C",
"b.	c #541D00",
"c.	c #F7BA7A",
"d.	c #AE7747",
"e.	c #BA7E49",
"f.	c #FFE3A9",
"g.	c #B6814D",
"h.	c #5E2D02",
"i.	c #653004",
"j.	c #8E5827",
"k.	c #E2B181",
"l.	c #FFCB8C",
"m.	c #FFCB9B",
"n.	c #965B27",
"o.	c #AB6B31",
"p.	c #FFD18D",
"q.	c #D09B6A",
"r.	c #B29880",
"s.	c #BD8857",
"t.	c #DA9D64",
"u.	c #DD9F64",
"v.	c #E8AC75",
"w.	c #F2BB86",
"x.	c #F2C090",
"y.	c #C19060",
"z.	c #FBCBA0",
"A.	c #6B3608",
"B.	c #783A05",
"C.	c #FFBF75",
"D.	c #FFC57F",
"E.	c #F0A969",
"F.	c #CFB297",
"G.	c #E6E3DE",
"H.	c #D8C7B4",
"I.	c #C8AC91",
"J.	c #C7A888",
"K.	c #BB9A79",
"L.	c #8C6541",
"M.	c #B5804F",
"N.	c #FFD4A4",
"O.	c #5D2800",
"P.	c #9A5313",
"Q.	c #F8A151",
"R.	c #FFC175",
"S.	c #ECA25E",
"T.	c #C09164",
"U.	c #C4AE97",
"V.	c #CEB9A4",
"W.	c #C3AB93",
"X.	c #BC9877",
"Y.	c #D5A06E",
"Z.	c #FFD8A0",
"`.	c #FFCF9A",
" +	c #582300",
".+	c #020532",
"++	c #311921",
"@+	c #834623",
"#+	c #D77E3E",
"$+	c #FFB56E",
"%+	c #F0C8A0",
"&+	c #E6C09A",
"*+	c #ECA664",
"=+	c #FFB975",
"-+	c #FFCF8A",
";+	c #FFC782",
">+	c #E9A15E",
",+	c #002490",
"'+	c #0079C4",
")+	c #009DDE",
"!+	c #009AD7",
"~+	c #0093BC",
"{+	c #019593",
"]+	c #2D3741",
"^+	c #9C5B2A",
"/+	c #BC7637",
"(+	c #C47832",
"_+	c #B26A31",
":+	c #5F433A",
"<+	c #2F2A37",
"[+	c #18132D",
"}+	c #00379B",
"|+	c #00D5F6",
"1+	c #00FFFF",
"2+	c #005EBC",
"3+	c #815451",
"4+	c #FFA842",
"5+	c #BB774C",
"6+	c #143E78",
"7+	c #009FD7",
"8+	c #00B6EA",
"9+	c #00A0E4",
"0+	c #0097DA",
"a+	c #0079C3",
"b+	c #002A91",
"c+	c #002D97",
"d+	c #00DAFD",
"e+	c #00F2FF",
"f+	c #008DD4",
"g+	c #00E5FF",
"h+	c #00ECFF",
"i+	c #00EAFF",
"j+	c #00FAFF",
"k+	c #0091DC",
"l+	c #5F5677",
"m+	c #BC8671",
"n+	c #084096",
"o+	c #00B5F2",
"p+	c #0093D5",
"q+	c #000E7F",
"r+	c #0E3A9C",
"s+	c #165BB3",
"t+	c #0063BD",
"u+	c #0090DF",
"v+	c #006CC9",
"w+	c #0CC8FF",
"x+	c #10DCFF",
"y+	c #0FD5FF",
"z+	c #0ED8FF",
"A+	c #08BFFC",
"B+	c #023595",
"C+	c #005BBB",
"D+	c #02BAFD",
"E+	c #0CDFFF",
"F+	c #0CD4FF",
"G+	c #0CD7FF",
"H+	c #08C9FF",
"I+	c #08CFFF",
"J+	c #02A4E6",
"K+	c #001683",
"L+	c #1C46A4",
"M+	c #55D8FF",
"N+	c #98F4FF",
"O+	c #8CBAE6",
"P+	c #396FBD",
"Q+	c #0038A0",
"R+	c #025EC1",
"S+	c #057DDD",
"T+	c #109DF7",
"U+	c #19AFFF",
"V+	c #1DBCFF",
"W+	c #16A6FD",
"X+	c #1CC7FF",
"Y+	c #20C8FF",
"Z+	c #1DBFFF",
"`+	c #1EC3FF",
" @	c #13A1F4",
".@	c #0055BC",
"+@	c #1AB6FF",
"@@	c #1EC8FF",
"#@	c #119AEF",
"$@	c #001786",
"%@	c #00087D",
"&@	c #2250AA",
"*@	c #B1EFFF",
"=@	c #42E6FF",
"-@	c #AEF8FF",
";@	c #C0FFFF",
">@	c #A0DFF7",
",@	c #5F9CD8",
"'@	c #82BDE9",
")@	c #427FC7",
"!@	c #2462BA",
"~@	c #0E55B9",
"{@	c #0856BF",
"]@	c #0D69D1",
"^@	c #106FDA",
"/@	c #1277E3",
"(@	c #1681ED",
"_@	c #1E91FB",
":@	c #106EDA",
"<@	c #085BC9",
"[@	c #249FFF",
"}@	c #249BFF",
"|@	c #1881EC",
"1@	c #001886",
"2@	c #000F80",
"3@	c #4675C0",
"4@	c #BFF6FF",
"5@	c #CAFFFF",
"6@	c #AFF7FF",
"7@	c #5DE5FF",
"8@	c #81F8FF",
"9@	c #76ACDD",
"0@	c #84C8EF",
"a@	c #93FFFF",
"b@	c #B2FFFF",
"c@	c #4DE4FF",
"d@	c #6FDFFF",
"e@	c #80CEF1",
"f@	c #5EABE2",
"g@	c #4F98D8",
"h@	c #3A88D0",
"i@	c #2F7AC9",
"j@	c #2B75C7",
"k@	c #1153B2",
"l@	c #0845AA",
"m@	c #246FC9",
"n@	c #1D6BC7",
"o@	c #1864C0",
"p@	c #001787",
"q@	c #001081",
"r@	c #648DCB",
"s@	c #8AFBFF",
"t@	c #64ECFF",
"u@	c #DDFFFF",
"v@	c #BFFBFF",
"w@	c #40E5FF",
"x@	c #AAF8FF",
"y@	c #4E81C7",
"z@	c #78DAFD",
"A@	c #39DFFF",
"B@	c #8BEFFF",
"C@	c #13D4FF",
"D@	c #96F4FF",
"E@	c #A2FAFF",
"F@	c #9FFCFF",
"G@	c #5FF0FF",
"H@	c #56EFFF",
"I@	c #97FDFF",
"J@	c #8CFFFF",
"K@	c #4DA8DF",
"L@	c #3282CB",
"M@	c #60F1FF",
"N@	c #4BE4FF",
"O@	c #69DEFF",
"P@	c #00228C",
"Q@	c #000C7E",
"R@	c #6188CA",
"S@	c #E9FFFF",
"T@	c #2FDAFF",
"U@	c #62E6FF",
"V@	c #8CF0FF",
"W@	c #D4FFFF",
"X@	c #92DFFC",
"Y@	c #1442A1",
"Z@	c #2C5AAF",
"`@	c #7AF1FF",
" #	c #73EAFF",
".#	c #A4F6FF",
"+#	c #87EFFF",
"@#	c #9CF2FF",
"##	c #7DEDFF",
"$#	c #95F1FF",
"%#	c #10D1FF",
"&#	c #59E4FF",
"*#	c #76EAFF",
"=#	c #46E9FF",
"-#	c #4DA0DD",
";#	c #2F7AC7",
">#	c #2EE8FF",
",#	c #46E4FF",
"'#	c #62DFFF",
")#	c #002C93",
"!#	c #2F61B4",
"~#	c #86F2FF",
"{#	c #CFFFFF",
"]#	c #A1F2FF",
"^#	c #5FE6FF",
"/#	c #73F4FF",
"(#	c #A6D1F1",
"_#	c #09369A",
":#	c #002B92",
"<#	c #558ECF",
"[#	c #B9FFFF",
"}#	c #AAF6FF",
"|#	c #90EFFF",
"1#	c #AEF6FF",
"2#	c #68E8FF",
"3#	c #3EDDFF",
"4#	c #95F0FF",
"5#	c #50E2FF",
"6#	c #42DEFF",
"7#	c #3FE5FF",
"8#	c #4D9CD9",
"9#	c #2574C4",
"0#	c #50EDFF",
"a#	c #46E2FF",
"b#	c #2FD4FF",
"c#	c #02349A",
"d#	c #BBD4F0",
"e#	c #91E9FF",
"f#	c #4EE4FF",
"g#	c #E3FFFF",
"h#	c #ECFFFF",
"i#	c #84F4FF",
"j#	c #4F96D7",
"k#	c #72AEDF",
"l#	c #74E9FF",
"m#	c #3EDCFF",
"n#	c #B9F7FF",
"o#	c #4FE2FF",
"p#	c #64E6FF",
"q#	c #9BF2FF",
"r#	c #9CF1FF",
"s#	c #91F0FF",
"t#	c #5FE4FF",
"u#	c #7EF4FF",
"v#	c #4397D7",
"w#	c #226CBF",
"x#	c #87F8FF",
"y#	c #2FDCFF",
"z#	c #42DAFF",
"A#	c #043CA0",
"B#	c #B5FAFF",
"C#	c #BDFAFF",
"D#	c #EDFFFF",
"E#	c #B6E3FB",
"F#	c #3764B5",
"G#	c #1645A5",
"H#	c #9ADCF8",
"I#	c #B1FBFF",
"J#	c #59E3FF",
"K#	c #6FE9FF",
"L#	c #92F2FF",
"M#	c #9AF1FF",
"N#	c #96EFFF",
"O#	c #55E3FF",
"P#	c #81ECFF",
"Q#	c #84EAFF",
"R#	c #68F1FF",
"S#	c #4092D5",
"T#	c #1C63B9",
"U#	c #80F2FF",
"V#	c #5EE5FF",
"W#	c #60E5FF",
"X#	c #0846A5",
"Y#	c #729DD5",
"Z#	c #00248E",
"`#	c #1C409F",
" $	c #6BE6FF",
".$	c #4FE3FF",
"+$	c #53E2FF",
"@$	c #10D0FF",
"#$	c #4ADDFF",
"$$	c #32E5FF",
"%$	c #4088CF",
"&$	c #1356B1",
"*$	c #2DDCFF",
"=$	c #0F4CAA",
"-$	c #0740A1",
";$	c #05D0FF",
"                                                                ",
"                              .                 + @ # $ %       ",
"                              & *       = - ; > , ' ) ! ~ {     ",
"                            ] ^ / ( _ : < [ [ } | 1 2 3 4 5     ",
"                              6 7 8 8 8 9 0 a b c d e 8 f       ",
"                                  g h i j k l m n o p q r       ",
"                                s t u v w x y z A B C D         ",
"                              E F G H I J K L M N O P Q         ",
"                              R S T U V W X Y Z `  ...+.        ",
"                              @.#.$.%.&.*.=.-.;.>.,.'.).!.      ",
"                              ~.{.].^./.%.(._.:.%.%.<.[.        ",
"                              }.|.1.2.3.4.5.6.7.8.9.0.a.        ",
"                            b.c.d.e.f.g.h.i.j.k.l.m.n.          ",
"                            o.p.q.r.s.t.u.v.w.x.y.z.A.          ",
"                          B.C.D.E.F.G.H.I.J.K.L.M.N.O.          ",
"                            P.Q.R.S.T.U.V.W.X.Y.Z.`. +          ",
"                            .+++@+#+$+%+&+*+=+-+;+>+            ",
"                        ,+'+)+!+~+{+]+^+/+(+_+:+<+[+            ",
"                      }+|+1+1+1+1+1+2+3+4+5+6+7+8+9+0+a+b+      ",
"                    c+d+e+f+g+h+i+j+k+l+m+n+o+1+j+1+1+1+p+q+    ",
"                  r+s+t+u+v+w+x+y+z+A+B+C+D+E+F+G+H+I+E+J+K+    ",
"                L+M+N+O+P+Q+R+S+T+U+V+W+X+Y+Z+`+ @.@+@@@#@$@    ",
"            %@&@*@=@-@;@>@,@'@)@!@~@{@]@^@/@(@_@:@<@[@}@|@1@    ",
"          2@3@4@5@6@7@8@9@0@a@b@c@d@e@f@g@h@i@j@k@l@m@n@o@p@    ",
"        q@r@s@t@u@v@w@x@y@z@A@B@C@D@E@F@G@H@I@J@K@L@M@N@O@P@    ",
"      Q@R@S@T@U@V@W@X@Y@Z@`@ #.#+#@###$#%#&#*#=#-#;#>#,#'#)#    ",
"      !#~#{#]#^#/#(#_#:#<#[#}#|#1#2#3#4#5#|#6#7#8#9#0#a#b#c#    ",
"    d#e#f#g#h#i#j#1@    k#5@l#m#n#o#p#q#r#s#t#u#v#w#x#y#z#A#    ",
"      B#C#D#E#F#q@    G#H#I#J#K#1#L#M#N#O#P#Q#R#S#T#U#V#W#X#    ",
"          Y#Z#        `# $.$      +$    @$  #$$$%$&$  *$a#=$    ",
"                                                  -$  ;$        ",
"                                                                "};
